M48
; DRILL file {KiCad 6.0.8-f2edbf62ab~116~ubuntu22.04.1} date Mon 03 Oct 2022 07:04:57 PM EDT
; FORMAT={-:-/ absolute / inch / decimal}
; #@! TF.CreationDate,2022-10-03T19:04:57-04:00
; #@! TF.GenerationSoftware,Kicad,Pcbnew,6.0.8-f2edbf62ab~116~ubuntu22.04.1
; #@! TF.FileFunction,Plated,1,2,PTH
FMAT,2
INCH
; #@! TA.AperFunction,Plated,PTH,ViaDrill
T1C0.0157
; #@! TA.AperFunction,Plated,PTH,ComponentDrill
T2C0.0402
%
G90
G05
T1
X4.87Y-2.46
X4.8725Y-2.64
X4.88Y-2.29
X4.91Y-2.4
X5.0635Y-2.5862
X5.1Y-2.28
X5.22Y-2.36
X5.27Y-2.26
X5.27Y-2.64
X5.28Y-2.36
T2
X4.7189Y-0.8276
X4.7189Y-0.9276
X4.7189Y-1.0276
X4.7189Y-1.1276
X4.7189Y-1.2276
X4.7189Y-1.3276
X4.7189Y-1.4276
X4.7189Y-1.5276
X4.7189Y-1.6276
X4.7189Y-1.7276
X4.7189Y-1.8276
X4.7189Y-1.9276
X4.7189Y-2.0276
X4.7189Y-2.1276
X4.7189Y-2.2276
X4.7189Y-2.3276
X4.7189Y-2.4276
X4.7189Y-2.5276
X4.7189Y-2.6276
X4.7189Y-2.7276
X4.9689Y-2.7185
X5.0689Y-2.7185
X5.1689Y-2.7185
X5.4189Y-0.8276
X5.4189Y-0.9276
X5.4189Y-1.0276
X5.4189Y-1.1276
X5.4189Y-1.2276
X5.4189Y-1.3276
X5.4189Y-1.4276
X5.4189Y-1.5276
X5.4189Y-1.6276
X5.4189Y-1.7276
X5.4189Y-1.8276
X5.4189Y-1.9276
X5.4189Y-2.0276
X5.4189Y-2.1276
X5.4189Y-2.2276
X5.4189Y-2.3276
X5.4189Y-2.4276
X5.4189Y-2.5276
X5.4189Y-2.6276
X5.4189Y-2.7276
T0
M30
