%TF.GenerationSoftware,KiCad,Pcbnew,6.0.8-f2edbf62ab~116~ubuntu22.04.1*%
%TF.CreationDate,2022-10-03T19:04:55-04:00*%
%TF.ProjectId,PicoDebugInterface,5069636f-4465-4627-9567-496e74657266,rev?*%
%TF.SameCoordinates,Original*%
%TF.FileFunction,Soldermask,Top*%
%TF.FilePolarity,Negative*%
%FSLAX46Y46*%
G04 Gerber Fmt 4.6, Leading zero omitted, Abs format (unit mm)*
G04 Created by KiCad (PCBNEW 6.0.8-f2edbf62ab~116~ubuntu22.04.1) date 2022-10-03 19:04:55*
%MOMM*%
%LPD*%
G01*
G04 APERTURE LIST*
%ADD10R,1.524000X1.143000*%
%ADD11R,1.143000X1.524000*%
%ADD12R,0.660400X2.768600*%
%ADD13O,1.500000X1.500000*%
%ADD14O,1.800000X1.800000*%
%ADD15R,3.500000X1.700000*%
%ADD16O,1.700000X1.700000*%
%ADD17R,1.700000X1.700000*%
%ADD18R,1.700000X3.500000*%
G04 APERTURE END LIST*
D10*
%TO.C,J2*%
X126238000Y-67119500D03*
X128778000Y-67119500D03*
X131318000Y-67119500D03*
%TD*%
D11*
%TO.C,J4*%
X135763000Y-64135000D03*
X135763000Y-61595000D03*
X135763000Y-59055000D03*
%TD*%
D12*
%TO.C,J1*%
X126111000Y-63728000D03*
X126111000Y-60198000D03*
X127381000Y-63728000D03*
X127381000Y-60198000D03*
X128651000Y-63728000D03*
X128651000Y-60198000D03*
X129921000Y-63728000D03*
X129921000Y-60198000D03*
X131191000Y-63728000D03*
X131191000Y-60198000D03*
%TD*%
D13*
%TO.C,U1*%
X131175000Y-24180000D03*
X126325000Y-24180000D03*
D14*
X126025000Y-21150000D03*
X131475000Y-21150000D03*
D15*
X118960000Y-21020000D03*
D16*
X119860000Y-21020000D03*
D15*
X118960000Y-23560000D03*
D16*
X119860000Y-23560000D03*
D15*
X118960000Y-26100000D03*
D17*
X119860000Y-26100000D03*
D16*
X119860000Y-28640000D03*
D15*
X118960000Y-28640000D03*
X118960000Y-31180000D03*
D16*
X119860000Y-31180000D03*
X119860000Y-33720000D03*
D15*
X118960000Y-33720000D03*
D16*
X119860000Y-36260000D03*
D15*
X118960000Y-36260000D03*
D17*
X119860000Y-38800000D03*
D15*
X118960000Y-38800000D03*
D16*
X119860000Y-41340000D03*
D15*
X118960000Y-41340000D03*
X118960000Y-43880000D03*
D16*
X119860000Y-43880000D03*
X119860000Y-46420000D03*
D15*
X118960000Y-46420000D03*
D16*
X119860000Y-48960000D03*
D15*
X118960000Y-48960000D03*
D17*
X119860000Y-51500000D03*
D15*
X118960000Y-51500000D03*
D16*
X119860000Y-54040000D03*
D15*
X118960000Y-54040000D03*
X118960000Y-56580000D03*
D16*
X119860000Y-56580000D03*
X119860000Y-59120000D03*
D15*
X118960000Y-59120000D03*
X118960000Y-61660000D03*
D16*
X119860000Y-61660000D03*
D17*
X119860000Y-64200000D03*
D15*
X118960000Y-64200000D03*
D16*
X119860000Y-66740000D03*
D15*
X118960000Y-66740000D03*
D16*
X119860000Y-69280000D03*
D15*
X118960000Y-69280000D03*
X138540000Y-69280000D03*
D16*
X137640000Y-69280000D03*
D15*
X138540000Y-66740000D03*
D16*
X137640000Y-66740000D03*
D17*
X137640000Y-64200000D03*
D15*
X138540000Y-64200000D03*
D16*
X137640000Y-61660000D03*
D15*
X138540000Y-61660000D03*
X138540000Y-59120000D03*
D16*
X137640000Y-59120000D03*
D15*
X138540000Y-56580000D03*
D16*
X137640000Y-56580000D03*
D15*
X138540000Y-54040000D03*
D16*
X137640000Y-54040000D03*
D17*
X137640000Y-51500000D03*
D15*
X138540000Y-51500000D03*
X138540000Y-48960000D03*
D16*
X137640000Y-48960000D03*
D15*
X138540000Y-46420000D03*
D16*
X137640000Y-46420000D03*
D15*
X138540000Y-43880000D03*
D16*
X137640000Y-43880000D03*
D15*
X138540000Y-41340000D03*
D16*
X137640000Y-41340000D03*
D15*
X138540000Y-38800000D03*
D17*
X137640000Y-38800000D03*
D16*
X137640000Y-36260000D03*
D15*
X138540000Y-36260000D03*
D16*
X137640000Y-33720000D03*
D15*
X138540000Y-33720000D03*
D16*
X137640000Y-31180000D03*
D15*
X138540000Y-31180000D03*
X138540000Y-28640000D03*
D16*
X137640000Y-28640000D03*
D17*
X137640000Y-26100000D03*
D15*
X138540000Y-26100000D03*
D16*
X137640000Y-23560000D03*
D15*
X138540000Y-23560000D03*
D16*
X137640000Y-21020000D03*
D15*
X138540000Y-21020000D03*
D18*
X126210000Y-69950000D03*
D16*
X126210000Y-69050000D03*
D17*
X128750000Y-69050000D03*
D18*
X128750000Y-69950000D03*
D16*
X131290000Y-69050000D03*
D18*
X131290000Y-69950000D03*
%TD*%
D10*
%TO.C,J5*%
X126238000Y-56388000D03*
X128778000Y-56388000D03*
X131318000Y-56388000D03*
%TD*%
D11*
%TO.C,J3*%
X121791000Y-64135000D03*
X121791000Y-61595000D03*
X121791000Y-59055000D03*
%TD*%
M02*
