%TF.GenerationSoftware,KiCad,Pcbnew,6.0.8-f2edbf62ab~116~ubuntu22.04.1*%
%TF.CreationDate,2022-10-03T19:04:55-04:00*%
%TF.ProjectId,PicoDebugInterface,5069636f-4465-4627-9567-496e74657266,rev?*%
%TF.SameCoordinates,Original*%
%TF.FileFunction,Copper,L2,Bot*%
%TF.FilePolarity,Positive*%
%FSLAX46Y46*%
G04 Gerber Fmt 4.6, Leading zero omitted, Abs format (unit mm)*
G04 Created by KiCad (PCBNEW 6.0.8-f2edbf62ab~116~ubuntu22.04.1) date 2022-10-03 19:04:55*
%MOMM*%
%LPD*%
G01*
G04 APERTURE LIST*
%TA.AperFunction,ComponentPad*%
%ADD10O,1.700000X1.700000*%
%TD*%
%TA.AperFunction,ComponentPad*%
%ADD11R,1.700000X1.700000*%
%TD*%
%TA.AperFunction,ViaPad*%
%ADD12C,0.800000*%
%TD*%
%TA.AperFunction,Conductor*%
%ADD13C,0.250000*%
%TD*%
G04 APERTURE END LIST*
D10*
%TO.P,U1,1,GPIO0*%
%TO.N,unconnected-(U1-Pad1)*%
X119860000Y-21020000D03*
%TO.P,U1,2,GPIO1*%
%TO.N,unconnected-(U1-Pad2)*%
X119860000Y-23560000D03*
D11*
%TO.P,U1,3,GND*%
%TO.N,unconnected-(U1-Pad3)*%
X119860000Y-26100000D03*
D10*
%TO.P,U1,4,GPIO2*%
%TO.N,unconnected-(U1-Pad4)*%
X119860000Y-28640000D03*
%TO.P,U1,5,GPIO3*%
%TO.N,unconnected-(U1-Pad5)*%
X119860000Y-31180000D03*
%TO.P,U1,6,GPIO4*%
%TO.N,unconnected-(U1-Pad6)*%
X119860000Y-33720000D03*
%TO.P,U1,7,GPIO5*%
%TO.N,unconnected-(U1-Pad7)*%
X119860000Y-36260000D03*
D11*
%TO.P,U1,8,GND*%
%TO.N,unconnected-(U1-Pad8)*%
X119860000Y-38800000D03*
D10*
%TO.P,U1,9,GPIO6*%
%TO.N,unconnected-(U1-Pad9)*%
X119860000Y-41340000D03*
%TO.P,U1,10,GPIO7*%
%TO.N,unconnected-(U1-Pad10)*%
X119860000Y-43880000D03*
%TO.P,U1,11,GPIO8*%
%TO.N,unconnected-(U1-Pad11)*%
X119860000Y-46420000D03*
%TO.P,U1,12,GPIO9*%
%TO.N,unconnected-(U1-Pad12)*%
X119860000Y-48960000D03*
D11*
%TO.P,U1,13,GND*%
%TO.N,unconnected-(U1-Pad13)*%
X119860000Y-51500000D03*
D10*
%TO.P,U1,14,GPIO10*%
%TO.N,unconnected-(U1-Pad14)*%
X119860000Y-54040000D03*
%TO.P,U1,15,GPIO11*%
%TO.N,unconnected-(U1-Pad15)*%
X119860000Y-56580000D03*
%TO.P,U1,16,GPIO12*%
%TO.N,unconnected-(U1-Pad16)*%
X119860000Y-59120000D03*
%TO.P,U1,17,GPIO13*%
%TO.N,unconnected-(U1-Pad17)*%
X119860000Y-61660000D03*
D11*
%TO.P,U1,18,GND*%
%TO.N,unconnected-(U1-Pad18)*%
X119860000Y-64200000D03*
D10*
%TO.P,U1,19,GPIO14*%
%TO.N,unconnected-(U1-Pad19)*%
X119860000Y-66740000D03*
%TO.P,U1,20,GPIO15*%
%TO.N,unconnected-(U1-Pad20)*%
X119860000Y-69280000D03*
%TO.P,U1,21,GPIO16*%
%TO.N,unconnected-(U1-Pad21)*%
X137640000Y-69280000D03*
%TO.P,U1,22,GPIO17*%
%TO.N,unconnected-(U1-Pad22)*%
X137640000Y-66740000D03*
D11*
%TO.P,U1,23,GND*%
%TO.N,unconnected-(U1-Pad23)*%
X137640000Y-64200000D03*
D10*
%TO.P,U1,24,GPIO18*%
%TO.N,unconnected-(U1-Pad24)*%
X137640000Y-61660000D03*
%TO.P,U1,25,GPIO19*%
%TO.N,unconnected-(U1-Pad25)*%
X137640000Y-59120000D03*
%TO.P,U1,26,GPIO20*%
%TO.N,unconnected-(U1-Pad26)*%
X137640000Y-56580000D03*
%TO.P,U1,27,GPIO21*%
%TO.N,unconnected-(U1-Pad27)*%
X137640000Y-54040000D03*
D11*
%TO.P,U1,28,GND*%
%TO.N,unconnected-(U1-Pad28)*%
X137640000Y-51500000D03*
D10*
%TO.P,U1,29,GPIO22*%
%TO.N,unconnected-(U1-Pad29)*%
X137640000Y-48960000D03*
%TO.P,U1,30,RUN*%
%TO.N,unconnected-(U1-Pad30)*%
X137640000Y-46420000D03*
%TO.P,U1,31,GPIO26_ADC0*%
%TO.N,unconnected-(U1-Pad31)*%
X137640000Y-43880000D03*
%TO.P,U1,32,GPIO27_ADC1*%
%TO.N,unconnected-(U1-Pad32)*%
X137640000Y-41340000D03*
D11*
%TO.P,U1,33,AGND*%
%TO.N,unconnected-(U1-Pad33)*%
X137640000Y-38800000D03*
D10*
%TO.P,U1,34,GPIO28_ADC2*%
%TO.N,unconnected-(U1-Pad34)*%
X137640000Y-36260000D03*
%TO.P,U1,35,ADC_VREF*%
%TO.N,unconnected-(U1-Pad35)*%
X137640000Y-33720000D03*
%TO.P,U1,36,3V3*%
%TO.N,unconnected-(U1-Pad36)*%
X137640000Y-31180000D03*
%TO.P,U1,37,3V3_EN*%
%TO.N,unconnected-(U1-Pad37)*%
X137640000Y-28640000D03*
D11*
%TO.P,U1,38,GND*%
%TO.N,unconnected-(U1-Pad38)*%
X137640000Y-26100000D03*
D10*
%TO.P,U1,39,VSYS*%
%TO.N,unconnected-(U1-Pad39)*%
X137640000Y-23560000D03*
%TO.P,U1,40,VBUS*%
%TO.N,unconnected-(U1-Pad40)*%
X137640000Y-21020000D03*
%TO.P,U1,41,SWCLK*%
%TO.N,unconnected-(U1-Pad41)*%
X126210000Y-69050000D03*
D11*
%TO.P,U1,42,GND*%
%TO.N,unconnected-(U1-Pad42)*%
X128750000Y-69050000D03*
D10*
%TO.P,U1,43,SWDIO*%
%TO.N,unconnected-(U1-Pad43)*%
X131290000Y-69050000D03*
%TD*%
D12*
%TO.N,/SWDIO*%
X124714000Y-60960000D03*
X133858000Y-67055000D03*
%TO.N,/SWDCLK*%
X123761500Y-67055000D03*
X123698000Y-62484000D03*
%TO.N,/VBUS_OUT*%
X133858000Y-57404000D03*
X134112000Y-59944000D03*
%TO.N,/Uart_RX*%
X129540000Y-57912000D03*
X128611698Y-65689704D03*
%TO.N,/SDA_0*%
X132588000Y-59944000D03*
X123952000Y-58166000D03*
%TD*%
D13*
%TO.N,/SWDIO*%
X133858000Y-67055000D02*
X133605000Y-66802000D01*
X125730000Y-66802000D02*
X124714000Y-65786000D01*
X124714000Y-65786000D02*
X124714000Y-60960000D01*
X133605000Y-66802000D02*
X125730000Y-66802000D01*
%TO.N,/SWDCLK*%
X123761500Y-67055000D02*
X123698000Y-66991500D01*
X123698000Y-66991500D02*
X123698000Y-62484000D01*
%TO.N,/VBUS_OUT*%
X134112000Y-59944000D02*
X134112000Y-57658000D01*
X134112000Y-57658000D02*
X133858000Y-57404000D01*
%TO.N,/Uart_RX*%
X129540000Y-57912000D02*
X129540000Y-64770000D01*
X129540000Y-57912000D02*
X129286000Y-58166000D01*
X129540000Y-64770000D02*
X128778000Y-65532000D01*
X128769402Y-65532000D02*
X128611698Y-65689704D01*
X128778000Y-65532000D02*
X128769402Y-65532000D01*
%TO.N,/SDA_0*%
X123952000Y-58166000D02*
X125222000Y-56896000D01*
X125222000Y-56896000D02*
X132334000Y-56896000D01*
X132588000Y-57150000D02*
X132588000Y-59944000D01*
X132334000Y-56896000D02*
X132588000Y-57150000D01*
%TD*%
M02*
