%TF.GenerationSoftware,KiCad,Pcbnew,6.0.8-f2edbf62ab~116~ubuntu22.04.1*%
%TF.CreationDate,2022-10-03T19:04:55-04:00*%
%TF.ProjectId,PicoDebugInterface,5069636f-4465-4627-9567-496e74657266,rev?*%
%TF.SameCoordinates,Original*%
%TF.FileFunction,Copper,L1,Top*%
%TF.FilePolarity,Positive*%
%FSLAX46Y46*%
G04 Gerber Fmt 4.6, Leading zero omitted, Abs format (unit mm)*
G04 Created by KiCad (PCBNEW 6.0.8-f2edbf62ab~116~ubuntu22.04.1) date 2022-10-03 19:04:55*
%MOMM*%
%LPD*%
G01*
G04 APERTURE LIST*
%TA.AperFunction,SMDPad,CuDef*%
%ADD10R,1.524000X1.143000*%
%TD*%
%TA.AperFunction,SMDPad,CuDef*%
%ADD11R,1.143000X1.524000*%
%TD*%
%TA.AperFunction,SMDPad,CuDef*%
%ADD12R,0.660400X2.768600*%
%TD*%
%TA.AperFunction,SMDPad,CuDef*%
%ADD13R,3.500000X1.700000*%
%TD*%
%TA.AperFunction,ComponentPad*%
%ADD14O,1.700000X1.700000*%
%TD*%
%TA.AperFunction,ComponentPad*%
%ADD15R,1.700000X1.700000*%
%TD*%
%TA.AperFunction,SMDPad,CuDef*%
%ADD16R,1.700000X3.500000*%
%TD*%
%TA.AperFunction,ViaPad*%
%ADD17C,0.800000*%
%TD*%
%TA.AperFunction,Conductor*%
%ADD18C,0.250000*%
%TD*%
G04 APERTURE END LIST*
D10*
%TO.P,J2,1,Pin_1*%
%TO.N,/SWDCLK*%
X126238000Y-67119500D03*
%TO.P,J2,2,Pin_2*%
%TO.N,GND*%
X128778000Y-67119500D03*
%TO.P,J2,3,Pin_3*%
%TO.N,/SWDIO*%
X131318000Y-67119500D03*
%TD*%
D11*
%TO.P,J4,1,Pin_1*%
%TO.N,GND*%
X135763000Y-64135000D03*
%TO.P,J4,2,Pin_2*%
%TO.N,/SDA_1*%
X135763000Y-61595000D03*
%TO.P,J4,3,Pin_3*%
%TO.N,/SCL_1*%
X135763000Y-59055000D03*
%TD*%
D12*
%TO.P,J1,1,Pin_1*%
%TO.N,/SCL_0*%
X126111000Y-63728000D03*
%TO.P,J1,2,Pin_2*%
%TO.N,/SWDIO*%
X126111000Y-60198000D03*
%TO.P,J1,3,Pin_3*%
%TO.N,GND*%
X127381000Y-63728000D03*
%TO.P,J1,4,Pin_4*%
%TO.N,/SWDCLK*%
X127381000Y-60198000D03*
%TO.P,J1,5,Pin_5*%
%TO.N,/Uart_RX*%
X128651000Y-63728000D03*
%TO.P,J1,6,Pin_6*%
%TO.N,/SWO*%
X128651000Y-60198000D03*
%TO.P,J1,7,Pin_7*%
%TO.N,/SDA_1*%
X129921000Y-63728000D03*
%TO.P,J1,8,Pin_8*%
%TO.N,/SCL_1*%
X129921000Y-60198000D03*
%TO.P,J1,9,Pin_9*%
%TO.N,/VBUS_OUT*%
X131191000Y-63728000D03*
%TO.P,J1,10,Pin_10*%
%TO.N,/SDA_0*%
X131191000Y-60198000D03*
%TD*%
D13*
%TO.P,U1,1,GPIO0*%
%TO.N,unconnected-(U1-Pad1)*%
X118960000Y-21020000D03*
D14*
X119860000Y-21020000D03*
D13*
%TO.P,U1,2,GPIO1*%
%TO.N,unconnected-(U1-Pad2)*%
X118960000Y-23560000D03*
D14*
X119860000Y-23560000D03*
D13*
%TO.P,U1,3,GND*%
%TO.N,unconnected-(U1-Pad3)*%
X118960000Y-26100000D03*
D15*
X119860000Y-26100000D03*
D14*
%TO.P,U1,4,GPIO2*%
%TO.N,unconnected-(U1-Pad4)*%
X119860000Y-28640000D03*
D13*
X118960000Y-28640000D03*
%TO.P,U1,5,GPIO3*%
%TO.N,unconnected-(U1-Pad5)*%
X118960000Y-31180000D03*
D14*
X119860000Y-31180000D03*
%TO.P,U1,6,GPIO4*%
%TO.N,unconnected-(U1-Pad6)*%
X119860000Y-33720000D03*
D13*
X118960000Y-33720000D03*
D14*
%TO.P,U1,7,GPIO5*%
%TO.N,unconnected-(U1-Pad7)*%
X119860000Y-36260000D03*
D13*
X118960000Y-36260000D03*
D15*
%TO.P,U1,8,GND*%
%TO.N,unconnected-(U1-Pad8)*%
X119860000Y-38800000D03*
D13*
X118960000Y-38800000D03*
D14*
%TO.P,U1,9,GPIO6*%
%TO.N,unconnected-(U1-Pad9)*%
X119860000Y-41340000D03*
D13*
X118960000Y-41340000D03*
%TO.P,U1,10,GPIO7*%
%TO.N,unconnected-(U1-Pad10)*%
X118960000Y-43880000D03*
D14*
X119860000Y-43880000D03*
%TO.P,U1,11,GPIO8*%
%TO.N,unconnected-(U1-Pad11)*%
X119860000Y-46420000D03*
D13*
X118960000Y-46420000D03*
D14*
%TO.P,U1,12,GPIO9*%
%TO.N,unconnected-(U1-Pad12)*%
X119860000Y-48960000D03*
D13*
X118960000Y-48960000D03*
D15*
%TO.P,U1,13,GND*%
%TO.N,unconnected-(U1-Pad13)*%
X119860000Y-51500000D03*
D13*
X118960000Y-51500000D03*
D14*
%TO.P,U1,14,GPIO10*%
%TO.N,unconnected-(U1-Pad14)*%
X119860000Y-54040000D03*
D13*
X118960000Y-54040000D03*
%TO.P,U1,15,GPIO11*%
%TO.N,unconnected-(U1-Pad15)*%
X118960000Y-56580000D03*
D14*
X119860000Y-56580000D03*
%TO.P,U1,16,GPIO12*%
%TO.N,unconnected-(U1-Pad16)*%
X119860000Y-59120000D03*
D13*
X118960000Y-59120000D03*
%TO.P,U1,17,GPIO13*%
%TO.N,unconnected-(U1-Pad17)*%
X118960000Y-61660000D03*
D14*
X119860000Y-61660000D03*
D15*
%TO.P,U1,18,GND*%
%TO.N,unconnected-(U1-Pad18)*%
X119860000Y-64200000D03*
D13*
X118960000Y-64200000D03*
D14*
%TO.P,U1,19,GPIO14*%
%TO.N,unconnected-(U1-Pad19)*%
X119860000Y-66740000D03*
D13*
X118960000Y-66740000D03*
D14*
%TO.P,U1,20,GPIO15*%
%TO.N,unconnected-(U1-Pad20)*%
X119860000Y-69280000D03*
D13*
X118960000Y-69280000D03*
%TO.P,U1,21,GPIO16*%
%TO.N,unconnected-(U1-Pad21)*%
X138540000Y-69280000D03*
D14*
X137640000Y-69280000D03*
D13*
%TO.P,U1,22,GPIO17*%
%TO.N,unconnected-(U1-Pad22)*%
X138540000Y-66740000D03*
D14*
X137640000Y-66740000D03*
D15*
%TO.P,U1,23,GND*%
%TO.N,unconnected-(U1-Pad23)*%
X137640000Y-64200000D03*
D13*
X138540000Y-64200000D03*
D14*
%TO.P,U1,24,GPIO18*%
%TO.N,unconnected-(U1-Pad24)*%
X137640000Y-61660000D03*
D13*
X138540000Y-61660000D03*
%TO.P,U1,25,GPIO19*%
%TO.N,unconnected-(U1-Pad25)*%
X138540000Y-59120000D03*
D14*
X137640000Y-59120000D03*
D13*
%TO.P,U1,26,GPIO20*%
%TO.N,unconnected-(U1-Pad26)*%
X138540000Y-56580000D03*
D14*
X137640000Y-56580000D03*
D13*
%TO.P,U1,27,GPIO21*%
%TO.N,unconnected-(U1-Pad27)*%
X138540000Y-54040000D03*
D14*
X137640000Y-54040000D03*
D15*
%TO.P,U1,28,GND*%
%TO.N,unconnected-(U1-Pad28)*%
X137640000Y-51500000D03*
D13*
X138540000Y-51500000D03*
%TO.P,U1,29,GPIO22*%
%TO.N,unconnected-(U1-Pad29)*%
X138540000Y-48960000D03*
D14*
X137640000Y-48960000D03*
D13*
%TO.P,U1,30,RUN*%
%TO.N,unconnected-(U1-Pad30)*%
X138540000Y-46420000D03*
D14*
X137640000Y-46420000D03*
D13*
%TO.P,U1,31,GPIO26_ADC0*%
%TO.N,unconnected-(U1-Pad31)*%
X138540000Y-43880000D03*
D14*
X137640000Y-43880000D03*
D13*
%TO.P,U1,32,GPIO27_ADC1*%
%TO.N,unconnected-(U1-Pad32)*%
X138540000Y-41340000D03*
D14*
X137640000Y-41340000D03*
D13*
%TO.P,U1,33,AGND*%
%TO.N,unconnected-(U1-Pad33)*%
X138540000Y-38800000D03*
D15*
X137640000Y-38800000D03*
D14*
%TO.P,U1,34,GPIO28_ADC2*%
%TO.N,unconnected-(U1-Pad34)*%
X137640000Y-36260000D03*
D13*
X138540000Y-36260000D03*
D14*
%TO.P,U1,35,ADC_VREF*%
%TO.N,unconnected-(U1-Pad35)*%
X137640000Y-33720000D03*
D13*
X138540000Y-33720000D03*
D14*
%TO.P,U1,36,3V3*%
%TO.N,unconnected-(U1-Pad36)*%
X137640000Y-31180000D03*
D13*
X138540000Y-31180000D03*
%TO.P,U1,37,3V3_EN*%
%TO.N,unconnected-(U1-Pad37)*%
X138540000Y-28640000D03*
D14*
X137640000Y-28640000D03*
D15*
%TO.P,U1,38,GND*%
%TO.N,unconnected-(U1-Pad38)*%
X137640000Y-26100000D03*
D13*
X138540000Y-26100000D03*
D14*
%TO.P,U1,39,VSYS*%
%TO.N,unconnected-(U1-Pad39)*%
X137640000Y-23560000D03*
D13*
X138540000Y-23560000D03*
D14*
%TO.P,U1,40,VBUS*%
%TO.N,unconnected-(U1-Pad40)*%
X137640000Y-21020000D03*
D13*
X138540000Y-21020000D03*
D16*
%TO.P,U1,41,SWCLK*%
%TO.N,unconnected-(U1-Pad41)*%
X126210000Y-69950000D03*
D14*
X126210000Y-69050000D03*
D15*
%TO.P,U1,42,GND*%
%TO.N,unconnected-(U1-Pad42)*%
X128750000Y-69050000D03*
D16*
X128750000Y-69950000D03*
D14*
%TO.P,U1,43,SWDIO*%
%TO.N,unconnected-(U1-Pad43)*%
X131290000Y-69050000D03*
D16*
X131290000Y-69950000D03*
%TD*%
D10*
%TO.P,J5,1,Pin_1*%
%TO.N,/SWO*%
X126238000Y-56388000D03*
%TO.P,J5,2,Pin_2*%
%TO.N,/Uart_RX*%
X128778000Y-56388000D03*
%TO.P,J5,3,Pin_3*%
%TO.N,/VBUS_OUT*%
X131318000Y-56388000D03*
%TD*%
D11*
%TO.P,J3,1,Pin_1*%
%TO.N,GND*%
X121791000Y-64135000D03*
%TO.P,J3,2,Pin_2*%
%TO.N,/SCL_0*%
X121791000Y-61595000D03*
%TO.P,J3,3,Pin_3*%
%TO.N,/SDA_0*%
X121791000Y-59055000D03*
%TD*%
D17*
%TO.N,/SWDIO*%
X124714000Y-60960000D03*
X133858000Y-67055000D03*
%TO.N,/SWDCLK*%
X123761500Y-67055000D03*
X123698000Y-62484000D03*
%TO.N,/VBUS_OUT*%
X133858000Y-57404000D03*
X134112000Y-59944000D03*
%TO.N,/Uart_RX*%
X129540000Y-57912000D03*
X128611698Y-65689704D03*
%TO.N,/SDA_0*%
X132588000Y-59944000D03*
X123952000Y-58166000D03*
%TD*%
D18*
%TO.N,/SWDIO*%
X133794500Y-67119500D02*
X133858000Y-67056000D01*
X131318000Y-67119500D02*
X133794500Y-67119500D01*
X125349000Y-60960000D02*
X126111000Y-60198000D01*
X124714000Y-60960000D02*
X125349000Y-60960000D01*
X133858000Y-67056000D02*
X133858000Y-67055000D01*
%TO.N,/SWDCLK*%
X126725800Y-61907300D02*
X127381000Y-61252100D01*
X123761500Y-67119500D02*
X123698000Y-67056000D01*
X124274700Y-61907300D02*
X126725800Y-61907300D01*
X123699000Y-67055000D02*
X123761500Y-67055000D01*
X123698000Y-67056000D02*
X123699000Y-67055000D01*
X123698000Y-62484000D02*
X124274700Y-61907300D01*
X126238000Y-67119500D02*
X123761500Y-67119500D01*
X127381000Y-61252100D02*
X127381000Y-60198000D01*
%TO.N,/SWO*%
X128524000Y-58166000D02*
X128651000Y-58293000D01*
X127508000Y-58166000D02*
X128524000Y-58166000D01*
X126238000Y-56896000D02*
X127508000Y-58166000D01*
X128651000Y-58293000D02*
X128651000Y-60198000D01*
%TO.N,/VBUS_OUT*%
X132842000Y-56388000D02*
X133858000Y-57404000D01*
X132106000Y-63728000D02*
X134112000Y-61722000D01*
X134112000Y-61722000D02*
X134112000Y-59944000D01*
X131191000Y-63728000D02*
X132106000Y-63728000D01*
X131318000Y-56388000D02*
X132842000Y-56388000D01*
%TO.N,/Uart_RX*%
X129286000Y-57658000D02*
X129540000Y-57912000D01*
X128778000Y-56388000D02*
X128778000Y-57150000D01*
X128611698Y-63767302D02*
X128651000Y-63728000D01*
X128611698Y-65689704D02*
X128611698Y-63767302D01*
X128778000Y-57150000D02*
X129286000Y-57658000D01*
%TO.N,/SCL_0*%
X121791000Y-61595000D02*
X121791000Y-61847000D01*
X125984000Y-65024000D02*
X126111000Y-64897000D01*
X121791000Y-61847000D02*
X124968000Y-65024000D01*
X126111000Y-64897000D02*
X126111000Y-63728000D01*
X124968000Y-65024000D02*
X125984000Y-65024000D01*
%TO.N,/SDA_1*%
X130461300Y-65437300D02*
X129921000Y-64897000D01*
X135763000Y-61785500D02*
X132111200Y-65437300D01*
X132111200Y-65437300D02*
X130461300Y-65437300D01*
X135763000Y-61595000D02*
X135763000Y-61785500D01*
X129921000Y-64897000D02*
X129921000Y-63728000D01*
%TO.N,/SCL_1*%
X129921000Y-58547000D02*
X129921000Y-60198000D01*
X129979300Y-58488700D02*
X129921000Y-58547000D01*
X135763000Y-59055000D02*
X135196700Y-58488700D01*
X135196700Y-58488700D02*
X129979300Y-58488700D01*
%TO.N,/SDA_0*%
X123063000Y-59055000D02*
X123952000Y-58166000D01*
X132334000Y-60198000D02*
X132588000Y-59944000D01*
X131191000Y-60198000D02*
X132334000Y-60198000D01*
X121791000Y-59055000D02*
X123063000Y-59055000D01*
%TO.N,GND*%
X127381000Y-65659000D02*
X127381000Y-65784000D01*
X135763000Y-64135000D02*
X133858000Y-66040000D01*
X121791000Y-64135000D02*
X123440000Y-65784000D01*
X127442500Y-65784000D02*
X128778000Y-67119500D01*
X123440000Y-65784000D02*
X127381000Y-65784000D01*
X128778000Y-66548000D02*
X128778000Y-67119500D01*
X129286000Y-66040000D02*
X128778000Y-66548000D01*
X127381000Y-63728000D02*
X127381000Y-65659000D01*
X133858000Y-66040000D02*
X129286000Y-66040000D01*
X127381000Y-65784000D02*
X127442500Y-65784000D01*
%TD*%
M02*
