%TF.GenerationSoftware,KiCad,Pcbnew,6.0.8-f2edbf62ab~116~ubuntu22.04.1*%
%TF.CreationDate,2022-10-03T19:02:53-04:00*%
%TF.ProjectId,RaspberryPi_PicoProgrammer,52617370-6265-4727-9279-50695f506963,rev?*%
%TF.SameCoordinates,Original*%
%TF.FileFunction,Copper,L2,Bot*%
%TF.FilePolarity,Positive*%
%FSLAX46Y46*%
G04 Gerber Fmt 4.6, Leading zero omitted, Abs format (unit mm)*
G04 Created by KiCad (PCBNEW 6.0.8-f2edbf62ab~116~ubuntu22.04.1) date 2022-10-03 19:02:53*
%MOMM*%
%LPD*%
G01*
G04 APERTURE LIST*
%TA.AperFunction,ComponentPad*%
%ADD10R,1.700000X1.700000*%
%TD*%
%TA.AperFunction,ComponentPad*%
%ADD11O,1.700000X1.700000*%
%TD*%
%TA.AperFunction,ViaPad*%
%ADD12C,0.800000*%
%TD*%
%TA.AperFunction,Conductor*%
%ADD13C,0.250000*%
%TD*%
G04 APERTURE END LIST*
D10*
%TO.P,J3,1,Pin_1*%
%TO.N,/UartTX*%
X137625000Y-71210000D03*
D11*
%TO.P,J3,2,Pin_2*%
%TO.N,/SWO*%
X137625000Y-73750000D03*
%TO.P,J3,3,Pin_3*%
%TO.N,/SDA_0*%
X140165000Y-71210000D03*
%TO.P,J3,4,Pin_4*%
%TO.N,/SCL_0*%
X140165000Y-73750000D03*
%TO.P,J3,5,Pin_5*%
%TO.N,/SDA_1*%
X142705000Y-71210000D03*
%TO.P,J3,6,Pin_6*%
%TO.N,/SCL_1*%
X142705000Y-73750000D03*
%TD*%
D10*
%TO.P,J5,1,3V3*%
%TO.N,Net-(J5-Pad1)*%
X150750000Y-63000000D03*
D11*
%TO.P,J5,2,5V*%
%TO.N,Net-(J5-Pad2)*%
X153290000Y-63000000D03*
%TO.P,J5,3,SDA/GPIO2*%
%TO.N,/SDA_0*%
X150750000Y-65540000D03*
%TO.P,J5,4,5V*%
%TO.N,unconnected-(J5-Pad4)*%
X153290000Y-65540000D03*
%TO.P,J5,5,SCL/GPIO3*%
%TO.N,/SCL_0*%
X150750000Y-68080000D03*
%TO.P,J5,6,GND*%
%TO.N,GND*%
X153290000Y-68080000D03*
%TO.P,J5,7,GCLK0/GPIO4*%
%TO.N,unconnected-(J5-Pad7)*%
X150750000Y-70620000D03*
%TO.P,J5,8,GPIO14/TXD*%
%TO.N,/UartTX*%
X153290000Y-70620000D03*
%TO.P,J5,9,GND*%
%TO.N,GND*%
X150750000Y-73160000D03*
%TO.P,J5,10,GPIO15/RXD*%
%TO.N,/SWO*%
X153290000Y-73160000D03*
%TO.P,J5,11,GPIO17*%
%TO.N,unconnected-(J5-Pad11)*%
X150750000Y-75700000D03*
%TO.P,J5,12,GPIO18/PWM0*%
%TO.N,unconnected-(J5-Pad12)*%
X153290000Y-75700000D03*
%TO.P,J5,13,GPIO27*%
%TO.N,unconnected-(J5-Pad13)*%
X150750000Y-78240000D03*
%TO.P,J5,14,GND*%
%TO.N,GND*%
X153290000Y-78240000D03*
%TO.P,J5,15,GPIO22*%
%TO.N,unconnected-(J5-Pad15)*%
X150750000Y-80780000D03*
%TO.P,J5,16,GPIO23*%
%TO.N,unconnected-(J5-Pad16)*%
X153290000Y-80780000D03*
%TO.P,J5,17,3V3*%
%TO.N,unconnected-(J5-Pad17)*%
X150750000Y-83320000D03*
%TO.P,J5,18,GPIO24*%
%TO.N,/SWDIO*%
X153290000Y-83320000D03*
%TO.P,J5,19,MOSI0/GPIO10*%
%TO.N,unconnected-(J5-Pad19)*%
X150750000Y-85860000D03*
%TO.P,J5,20,GND*%
%TO.N,GND*%
X153290000Y-85860000D03*
%TO.P,J5,21,MISO0/GPIO9*%
%TO.N,unconnected-(J5-Pad21)*%
X150750000Y-88400000D03*
%TO.P,J5,22,GPIO25*%
%TO.N,/SWDCLK*%
X153290000Y-88400000D03*
%TO.P,J5,23,SCLK0/GPIO11*%
%TO.N,unconnected-(J5-Pad23)*%
X150750000Y-90940000D03*
%TO.P,J5,24,~{CE0}/GPIO8*%
%TO.N,unconnected-(J5-Pad24)*%
X153290000Y-90940000D03*
%TO.P,J5,25,GND*%
%TO.N,GND*%
X150750000Y-93480000D03*
%TO.P,J5,26,~{CE1}/GPIO7*%
%TO.N,unconnected-(J5-Pad26)*%
X153290000Y-93480000D03*
%TO.P,J5,27,ID_SD/GPIO0*%
%TO.N,/SDA_1*%
X150750000Y-96020000D03*
%TO.P,J5,28,ID_SC/GPIO1*%
%TO.N,/SCL_1*%
X153290000Y-96020000D03*
%TO.P,J5,29,GCLK1/GPIO5*%
%TO.N,unconnected-(J5-Pad29)*%
X150750000Y-98560000D03*
%TO.P,J5,30,GND*%
%TO.N,GND*%
X153290000Y-98560000D03*
%TO.P,J5,31,GCLK2/GPIO6*%
%TO.N,unconnected-(J5-Pad31)*%
X150750000Y-101100000D03*
%TO.P,J5,32,PWM0/GPIO12*%
%TO.N,unconnected-(J5-Pad32)*%
X153290000Y-101100000D03*
%TO.P,J5,33,PWM1/GPIO13*%
%TO.N,unconnected-(J5-Pad33)*%
X150750000Y-103640000D03*
%TO.P,J5,34,GND*%
%TO.N,GND*%
X153290000Y-103640000D03*
%TO.P,J5,35,GPIO19/MISO1*%
%TO.N,unconnected-(J5-Pad35)*%
X150750000Y-106180000D03*
%TO.P,J5,36,GPIO16*%
%TO.N,unconnected-(J5-Pad36)*%
X153290000Y-106180000D03*
%TO.P,J5,37,GPIO26*%
%TO.N,unconnected-(J5-Pad37)*%
X150750000Y-108720000D03*
%TO.P,J5,38,GPIO20/MOSI1*%
%TO.N,unconnected-(J5-Pad38)*%
X153290000Y-108720000D03*
%TO.P,J5,39,GND*%
%TO.N,GND*%
X150750000Y-111260000D03*
%TO.P,J5,40,GPIO21/SCLK1*%
%TO.N,unconnected-(J5-Pad40)*%
X153290000Y-111260000D03*
%TD*%
D10*
%TO.P,3.3,1,A*%
%TO.N,Net-(J5-Pad1)*%
X141630400Y-66497200D03*
D11*
%TO.P,3.3,2,B*%
%TO.N,/power_output*%
X139090400Y-66497200D03*
%TD*%
D10*
%TO.P,5v,1,A*%
%TO.N,Net-(J5-Pad2)*%
X141528800Y-62738000D03*
D11*
%TO.P,5v,2,B*%
%TO.N,/power_output*%
X138988800Y-62738000D03*
%TD*%
D10*
%TO.P,SWD_Headers,1,Pin_1*%
%TO.N,/SWDCLK*%
X146050000Y-111030000D03*
D11*
%TO.P,SWD_Headers,2,Pin_2*%
%TO.N,GND*%
X146050000Y-108490000D03*
%TO.P,SWD_Headers,3,Pin_3*%
%TO.N,/SWO*%
X146050000Y-105950000D03*
%TD*%
D12*
%TO.N,/SDA_1*%
X142341600Y-89458800D03*
%TO.N,/SWDIO*%
X145848200Y-82145000D03*
X142443200Y-99212400D03*
%TO.N,/SWDCLK*%
X149148800Y-87223600D03*
X148183600Y-96926400D03*
%TO.N,/SWO*%
X146912200Y-74525000D03*
X141603550Y-78611550D03*
%TO.N,/SDA_0*%
X142036800Y-87680800D03*
%TO.N,/SCL_1*%
X143558200Y-86108600D03*
%TO.N,/power_output*%
X135686800Y-86309200D03*
%TO.N,GND*%
X141732000Y-97231200D03*
X136753600Y-79197200D03*
%TD*%
D13*
%TO.N,/SDA_1*%
X144283200Y-87517200D02*
X142341600Y-89458800D01*
X144283200Y-72788200D02*
X144283200Y-87517200D01*
X142705000Y-71210000D02*
X144283200Y-72788200D01*
%TO.N,/SWDIO*%
X142443200Y-99212400D02*
X142341600Y-99314000D01*
X145848200Y-82145000D02*
X145848200Y-95807400D01*
X145848200Y-95807400D02*
X142443200Y-99212400D01*
%TO.N,/SWDCLK*%
X148183600Y-96926400D02*
X148183600Y-88188800D01*
X148183600Y-88188800D02*
X149148800Y-87223600D01*
%TO.N,/SWO*%
X140181150Y-78611550D02*
X141603550Y-78611550D01*
X137625000Y-76055400D02*
X140181150Y-78611550D01*
X137625000Y-73750000D02*
X137625000Y-76055400D01*
X146900000Y-105100000D02*
X146900000Y-74588000D01*
X146050000Y-105950000D02*
X146900000Y-105100000D01*
X146900000Y-74588000D02*
X146913600Y-74574400D01*
%TO.N,/SDA_0*%
X142697200Y-79806800D02*
X142697200Y-75593901D01*
X141340000Y-72385000D02*
X140165000Y-71210000D01*
X142036800Y-87680800D02*
X142036800Y-80467200D01*
X142036800Y-80467200D02*
X142697200Y-79806800D01*
X142697200Y-75593901D02*
X141340000Y-74236701D01*
X141340000Y-74236701D02*
X141340000Y-72385000D01*
%TO.N,/SCL_1*%
X143662400Y-74707400D02*
X142705000Y-73750000D01*
X143558200Y-86108600D02*
X143662400Y-86004400D01*
X143662400Y-86004400D02*
X143662400Y-74707400D01*
%TO.N,/power_output*%
X138988800Y-62738000D02*
X136448800Y-65278000D01*
X136448800Y-65786000D02*
X135686800Y-66548000D01*
X136448800Y-65278000D02*
X136448800Y-65786000D01*
X135686800Y-66548000D02*
X135686800Y-86309200D01*
X139090400Y-66497200D02*
X137871200Y-65278000D01*
X137871200Y-65278000D02*
X136448800Y-65278000D01*
%TD*%
%TA.AperFunction,Conductor*%
%TO.N,GND*%
G36*
X155389621Y-60472502D02*
G01*
X155436114Y-60526158D01*
X155447500Y-60578500D01*
X155447500Y-114427500D01*
X155427498Y-114495621D01*
X155373842Y-114542114D01*
X155321500Y-114553500D01*
X135734500Y-114553500D01*
X135666379Y-114533498D01*
X135619886Y-114479842D01*
X135608500Y-114427500D01*
X135608500Y-111928134D01*
X144691500Y-111928134D01*
X144698255Y-111990316D01*
X144749385Y-112126705D01*
X144836739Y-112243261D01*
X144953295Y-112330615D01*
X145089684Y-112381745D01*
X145151866Y-112388500D01*
X146948134Y-112388500D01*
X147010316Y-112381745D01*
X147146705Y-112330615D01*
X147263261Y-112243261D01*
X147350615Y-112126705D01*
X147401745Y-111990316D01*
X147408500Y-111928134D01*
X147408500Y-111527966D01*
X149418257Y-111527966D01*
X149448565Y-111662446D01*
X149451645Y-111672275D01*
X149531770Y-111869603D01*
X149536413Y-111878794D01*
X149647694Y-112060388D01*
X149653777Y-112068699D01*
X149793213Y-112229667D01*
X149800580Y-112236883D01*
X149964434Y-112372916D01*
X149972881Y-112378831D01*
X150156756Y-112486279D01*
X150166042Y-112490729D01*
X150365001Y-112566703D01*
X150374899Y-112569579D01*
X150478250Y-112590606D01*
X150492299Y-112589410D01*
X150496000Y-112579065D01*
X150496000Y-111532115D01*
X150491525Y-111516876D01*
X150490135Y-111515671D01*
X150482452Y-111514000D01*
X149433225Y-111514000D01*
X149419694Y-111517973D01*
X149418257Y-111527966D01*
X147408500Y-111527966D01*
X147408500Y-110131866D01*
X147401745Y-110069684D01*
X147350615Y-109933295D01*
X147263261Y-109816739D01*
X147146705Y-109729385D01*
X147119321Y-109719119D01*
X147027687Y-109684767D01*
X146970923Y-109642125D01*
X146946223Y-109575564D01*
X146961430Y-109506215D01*
X146982977Y-109477535D01*
X147084052Y-109376812D01*
X147090730Y-109368965D01*
X147215003Y-109196020D01*
X147220313Y-109187183D01*
X147314670Y-108996267D01*
X147318469Y-108986672D01*
X147380377Y-108782910D01*
X147382555Y-108772837D01*
X147383986Y-108761962D01*
X147381775Y-108747778D01*
X147368617Y-108744000D01*
X144733225Y-108744000D01*
X144719694Y-108747973D01*
X144718257Y-108757966D01*
X144748565Y-108892446D01*
X144751645Y-108902275D01*
X144831770Y-109099603D01*
X144836413Y-109108794D01*
X144947694Y-109290388D01*
X144953777Y-109298699D01*
X145093213Y-109459667D01*
X145100577Y-109466879D01*
X145105522Y-109470985D01*
X145145156Y-109529889D01*
X145146653Y-109600870D01*
X145109537Y-109661392D01*
X145069264Y-109685910D01*
X144961705Y-109726232D01*
X144961704Y-109726233D01*
X144953295Y-109729385D01*
X144836739Y-109816739D01*
X144749385Y-109933295D01*
X144698255Y-110069684D01*
X144691500Y-110131866D01*
X144691500Y-111928134D01*
X135608500Y-111928134D01*
X135608500Y-87343700D01*
X135628502Y-87275579D01*
X135682158Y-87229086D01*
X135734500Y-87217700D01*
X135782287Y-87217700D01*
X135788739Y-87216328D01*
X135788744Y-87216328D01*
X135906187Y-87191364D01*
X135969088Y-87177994D01*
X136045764Y-87143856D01*
X136137522Y-87103003D01*
X136137524Y-87103002D01*
X136143552Y-87100318D01*
X136168670Y-87082069D01*
X136205585Y-87055248D01*
X136298053Y-86988066D01*
X136425840Y-86846144D01*
X136521327Y-86680756D01*
X136580342Y-86499128D01*
X136595229Y-86357491D01*
X136599614Y-86315765D01*
X136600304Y-86309200D01*
X136585822Y-86171407D01*
X136581032Y-86125835D01*
X136581032Y-86125833D01*
X136580342Y-86119272D01*
X136521327Y-85937644D01*
X136425840Y-85772256D01*
X136352663Y-85690985D01*
X136321947Y-85626979D01*
X136320300Y-85606676D01*
X136320300Y-74656692D01*
X136340302Y-74588571D01*
X136393958Y-74542078D01*
X136464232Y-74531974D01*
X136528812Y-74561468D01*
X136541537Y-74574194D01*
X136667865Y-74720031D01*
X136667869Y-74720035D01*
X136671250Y-74723938D01*
X136843126Y-74866632D01*
X136904129Y-74902279D01*
X136929070Y-74916853D01*
X136977794Y-74968491D01*
X136991500Y-75025641D01*
X136991500Y-75976633D01*
X136990973Y-75987816D01*
X136989298Y-75995309D01*
X136989547Y-76003235D01*
X136989547Y-76003236D01*
X136991438Y-76063386D01*
X136991500Y-76067345D01*
X136991500Y-76095256D01*
X136991997Y-76099190D01*
X136991997Y-76099191D01*
X136992005Y-76099256D01*
X136992938Y-76111093D01*
X136994327Y-76155289D01*
X136999978Y-76174739D01*
X137003987Y-76194100D01*
X137006526Y-76214197D01*
X137009445Y-76221568D01*
X137009445Y-76221570D01*
X137022804Y-76255312D01*
X137026649Y-76266542D01*
X137038982Y-76308993D01*
X137043015Y-76315812D01*
X137043017Y-76315817D01*
X137049293Y-76326428D01*
X137057988Y-76344176D01*
X137065448Y-76363017D01*
X137070110Y-76369433D01*
X137070110Y-76369434D01*
X137091436Y-76398787D01*
X137097952Y-76408707D01*
X137120458Y-76446762D01*
X137134779Y-76461083D01*
X137147619Y-76476116D01*
X137159528Y-76492507D01*
X137193605Y-76520698D01*
X137202384Y-76528688D01*
X139677498Y-79003803D01*
X139685038Y-79012089D01*
X139689150Y-79018568D01*
X139694927Y-79023993D01*
X139738801Y-79065193D01*
X139741643Y-79067948D01*
X139761380Y-79087685D01*
X139764577Y-79090165D01*
X139773597Y-79097868D01*
X139805829Y-79128136D01*
X139812775Y-79131955D01*
X139812778Y-79131957D01*
X139823584Y-79137898D01*
X139840103Y-79148749D01*
X139856109Y-79161164D01*
X139863378Y-79164309D01*
X139863382Y-79164312D01*
X139896687Y-79178724D01*
X139907337Y-79183941D01*
X139946090Y-79205245D01*
X139963313Y-79209667D01*
X139965712Y-79210283D01*
X139984417Y-79216687D01*
X140003005Y-79224731D01*
X140010828Y-79225970D01*
X140010838Y-79225973D01*
X140046674Y-79231649D01*
X140058294Y-79234055D01*
X140093439Y-79243078D01*
X140101120Y-79245050D01*
X140121374Y-79245050D01*
X140141084Y-79246601D01*
X140161093Y-79249770D01*
X140168985Y-79249024D01*
X140205111Y-79245609D01*
X140216969Y-79245050D01*
X140895350Y-79245050D01*
X140963471Y-79265052D01*
X140982697Y-79281393D01*
X140982970Y-79281090D01*
X140987882Y-79285513D01*
X140992297Y-79290416D01*
X140997636Y-79294295D01*
X141078321Y-79352916D01*
X141146798Y-79402668D01*
X141152826Y-79405352D01*
X141152828Y-79405353D01*
X141219974Y-79435248D01*
X141321262Y-79480344D01*
X141414662Y-79500197D01*
X141501606Y-79518678D01*
X141501611Y-79518678D01*
X141508063Y-79520050D01*
X141699037Y-79520050D01*
X141705490Y-79518678D01*
X141705503Y-79518677D01*
X141776977Y-79503484D01*
X141847767Y-79508885D01*
X141904400Y-79551702D01*
X141928894Y-79618339D01*
X141913473Y-79687641D01*
X141892269Y-79715825D01*
X141644542Y-79963552D01*
X141636262Y-79971087D01*
X141629782Y-79975200D01*
X141583157Y-80024851D01*
X141580402Y-80027693D01*
X141560665Y-80047430D01*
X141558185Y-80050627D01*
X141550482Y-80059647D01*
X141520214Y-80091879D01*
X141516395Y-80098825D01*
X141516393Y-80098828D01*
X141510452Y-80109634D01*
X141499601Y-80126153D01*
X141487186Y-80142159D01*
X141484041Y-80149428D01*
X141484038Y-80149432D01*
X141469626Y-80182737D01*
X141464409Y-80193387D01*
X141443105Y-80232140D01*
X141441134Y-80239815D01*
X141441134Y-80239816D01*
X141438067Y-80251762D01*
X141431663Y-80270466D01*
X141423619Y-80289055D01*
X141422380Y-80296878D01*
X141422377Y-80296888D01*
X141416701Y-80332724D01*
X141414295Y-80344344D01*
X141405272Y-80379489D01*
X141403300Y-80387170D01*
X141403300Y-80407424D01*
X141401749Y-80427134D01*
X141398580Y-80447143D01*
X141399326Y-80455035D01*
X141402741Y-80491161D01*
X141403300Y-80503019D01*
X141403300Y-86978276D01*
X141383298Y-87046397D01*
X141370942Y-87062579D01*
X141297760Y-87143856D01*
X141255918Y-87216328D01*
X141221710Y-87275579D01*
X141202273Y-87309244D01*
X141143258Y-87490872D01*
X141142568Y-87497433D01*
X141142568Y-87497435D01*
X141134666Y-87572617D01*
X141123296Y-87680800D01*
X141123986Y-87687365D01*
X141142526Y-87863759D01*
X141143258Y-87870728D01*
X141202273Y-88052356D01*
X141297760Y-88217744D01*
X141425547Y-88359666D01*
X141481062Y-88400000D01*
X141572715Y-88466590D01*
X141580048Y-88471918D01*
X141586076Y-88474602D01*
X141586078Y-88474603D01*
X141736732Y-88541678D01*
X141790828Y-88587658D01*
X141811477Y-88655585D01*
X141792125Y-88723893D01*
X141759544Y-88758721D01*
X141730347Y-88779934D01*
X141725926Y-88784844D01*
X141725925Y-88784845D01*
X141620609Y-88901811D01*
X141602560Y-88921856D01*
X141507073Y-89087244D01*
X141448058Y-89268872D01*
X141428096Y-89458800D01*
X141428786Y-89465365D01*
X141444105Y-89611114D01*
X141448058Y-89648728D01*
X141507073Y-89830356D01*
X141602560Y-89995744D01*
X141606978Y-90000651D01*
X141606979Y-90000652D01*
X141703885Y-90108277D01*
X141730347Y-90137666D01*
X141884848Y-90249918D01*
X141890876Y-90252602D01*
X141890878Y-90252603D01*
X142053281Y-90324909D01*
X142059312Y-90327594D01*
X142152712Y-90347447D01*
X142239656Y-90365928D01*
X142239661Y-90365928D01*
X142246113Y-90367300D01*
X142437087Y-90367300D01*
X142443539Y-90365928D01*
X142443544Y-90365928D01*
X142530488Y-90347447D01*
X142623888Y-90327594D01*
X142629919Y-90324909D01*
X142792322Y-90252603D01*
X142792324Y-90252602D01*
X142798352Y-90249918D01*
X142952853Y-90137666D01*
X142979315Y-90108277D01*
X143076221Y-90000652D01*
X143076222Y-90000651D01*
X143080640Y-89995744D01*
X143176127Y-89830356D01*
X143235142Y-89648728D01*
X143252507Y-89483506D01*
X143279520Y-89417850D01*
X143288722Y-89407582D01*
X143972412Y-88723893D01*
X144675453Y-88020852D01*
X144683739Y-88013312D01*
X144690218Y-88009200D01*
X144736844Y-87959548D01*
X144739598Y-87956707D01*
X144759335Y-87936970D01*
X144761815Y-87933773D01*
X144769520Y-87924751D01*
X144794359Y-87898300D01*
X144799786Y-87892521D01*
X144803605Y-87885575D01*
X144803607Y-87885572D01*
X144809548Y-87874766D01*
X144820399Y-87858247D01*
X144827958Y-87848501D01*
X144832814Y-87842241D01*
X144835959Y-87834972D01*
X144835962Y-87834968D01*
X144850374Y-87801663D01*
X144855591Y-87791013D01*
X144876895Y-87752260D01*
X144881933Y-87732637D01*
X144888337Y-87713934D01*
X144893233Y-87702620D01*
X144893233Y-87702619D01*
X144896381Y-87695345D01*
X144897620Y-87687522D01*
X144897623Y-87687512D01*
X144903299Y-87651676D01*
X144905705Y-87640056D01*
X144914728Y-87604911D01*
X144914728Y-87604910D01*
X144916700Y-87597230D01*
X144916700Y-87576976D01*
X144918251Y-87557265D01*
X144920180Y-87545086D01*
X144921420Y-87537257D01*
X144917259Y-87493238D01*
X144916700Y-87481381D01*
X144916700Y-82796436D01*
X144936702Y-82728315D01*
X144990358Y-82681822D01*
X145060632Y-82671718D01*
X145125212Y-82701212D01*
X145136328Y-82712117D01*
X145182337Y-82763215D01*
X145213053Y-82827221D01*
X145214700Y-82847524D01*
X145214700Y-95492805D01*
X145194698Y-95560926D01*
X145177795Y-95581900D01*
X142492700Y-98266995D01*
X142430388Y-98301021D01*
X142403605Y-98303900D01*
X142347713Y-98303900D01*
X142341261Y-98305272D01*
X142341256Y-98305272D01*
X142254312Y-98323753D01*
X142160912Y-98343606D01*
X142154882Y-98346291D01*
X142154881Y-98346291D01*
X141992478Y-98418597D01*
X141992476Y-98418598D01*
X141986448Y-98421282D01*
X141831947Y-98533534D01*
X141704160Y-98675456D01*
X141608673Y-98840844D01*
X141549658Y-99022472D01*
X141529696Y-99212400D01*
X141530386Y-99218965D01*
X141545282Y-99360689D01*
X141549658Y-99402328D01*
X141608673Y-99583956D01*
X141704160Y-99749344D01*
X141708578Y-99754251D01*
X141708579Y-99754252D01*
X141800768Y-99856638D01*
X141831947Y-99891266D01*
X141986448Y-100003518D01*
X141992476Y-100006202D01*
X141992478Y-100006203D01*
X142152682Y-100077530D01*
X142160912Y-100081194D01*
X142248672Y-100099848D01*
X142341256Y-100119528D01*
X142341261Y-100119528D01*
X142347713Y-100120900D01*
X142538687Y-100120900D01*
X142545139Y-100119528D01*
X142545144Y-100119528D01*
X142637728Y-100099848D01*
X142725488Y-100081194D01*
X142733718Y-100077530D01*
X142893922Y-100006203D01*
X142893924Y-100006202D01*
X142899952Y-100003518D01*
X143054453Y-99891266D01*
X143085632Y-99856638D01*
X143177821Y-99754252D01*
X143177822Y-99754251D01*
X143182240Y-99749344D01*
X143277727Y-99583956D01*
X143336742Y-99402328D01*
X143354107Y-99237106D01*
X143381120Y-99171450D01*
X143390322Y-99161182D01*
X146051405Y-96500099D01*
X146113717Y-96466073D01*
X146184532Y-96471138D01*
X146241368Y-96513685D01*
X146266179Y-96580205D01*
X146266500Y-96589194D01*
X146266500Y-104466423D01*
X146246498Y-104534544D01*
X146192842Y-104581037D01*
X146138962Y-104592414D01*
X146006505Y-104590795D01*
X145960080Y-104590228D01*
X145960078Y-104590228D01*
X145954911Y-104590165D01*
X145734091Y-104623955D01*
X145521756Y-104693357D01*
X145323607Y-104796507D01*
X145319474Y-104799610D01*
X145319471Y-104799612D01*
X145154658Y-104923357D01*
X145144965Y-104930635D01*
X145091418Y-104986669D01*
X145006014Y-105076039D01*
X144990629Y-105092138D01*
X144987715Y-105096410D01*
X144987714Y-105096411D01*
X144902556Y-105221249D01*
X144864743Y-105276680D01*
X144770688Y-105479305D01*
X144710989Y-105694570D01*
X144687251Y-105916695D01*
X144687548Y-105921848D01*
X144687548Y-105921851D01*
X144693011Y-106016590D01*
X144700110Y-106139715D01*
X144701247Y-106144761D01*
X144701248Y-106144767D01*
X144709947Y-106183365D01*
X144749222Y-106357639D01*
X144833266Y-106564616D01*
X144850307Y-106592425D01*
X144907928Y-106686453D01*
X144949987Y-106755088D01*
X145096250Y-106923938D01*
X145268126Y-107066632D01*
X145341955Y-107109774D01*
X145390679Y-107161412D01*
X145403750Y-107231195D01*
X145377019Y-107296967D01*
X145336562Y-107330327D01*
X145328457Y-107334546D01*
X145319738Y-107340036D01*
X145149433Y-107467905D01*
X145141726Y-107474748D01*
X144994590Y-107628717D01*
X144988104Y-107636727D01*
X144868098Y-107812649D01*
X144863000Y-107821623D01*
X144773338Y-108014783D01*
X144769775Y-108024470D01*
X144714389Y-108224183D01*
X144715912Y-108232607D01*
X144728292Y-108236000D01*
X147368344Y-108236000D01*
X147381875Y-108232027D01*
X147383180Y-108222947D01*
X147341214Y-108055875D01*
X147337894Y-108046124D01*
X147252972Y-107850814D01*
X147248105Y-107841739D01*
X147132426Y-107662926D01*
X147126136Y-107654757D01*
X146982806Y-107497240D01*
X146975273Y-107490215D01*
X146808139Y-107358222D01*
X146799556Y-107352520D01*
X146762602Y-107332120D01*
X146712631Y-107281687D01*
X146697859Y-107212245D01*
X146722975Y-107145839D01*
X146750327Y-107119232D01*
X146773797Y-107102491D01*
X146929860Y-106991173D01*
X146935967Y-106985088D01*
X147035123Y-106886277D01*
X147088096Y-106833489D01*
X147147594Y-106750689D01*
X147215435Y-106656277D01*
X147218453Y-106652077D01*
X147252793Y-106582596D01*
X147315136Y-106456453D01*
X147315137Y-106456451D01*
X147317430Y-106451811D01*
X147382370Y-106238069D01*
X147411529Y-106016590D01*
X147413156Y-105950000D01*
X147394852Y-105727361D01*
X147366261Y-105613536D01*
X147369065Y-105542595D01*
X147396615Y-105496588D01*
X147411159Y-105481100D01*
X147416586Y-105475321D01*
X147420407Y-105468371D01*
X147426346Y-105457568D01*
X147437202Y-105441041D01*
X147444757Y-105431302D01*
X147444758Y-105431300D01*
X147449614Y-105425040D01*
X147467174Y-105384460D01*
X147472391Y-105373812D01*
X147489875Y-105342009D01*
X147489876Y-105342007D01*
X147493695Y-105335060D01*
X147498733Y-105315437D01*
X147505137Y-105296734D01*
X147510033Y-105285420D01*
X147510033Y-105285419D01*
X147513181Y-105278145D01*
X147514420Y-105270322D01*
X147514423Y-105270312D01*
X147520099Y-105234476D01*
X147522505Y-105222856D01*
X147531528Y-105187711D01*
X147531528Y-105187710D01*
X147533500Y-105180030D01*
X147533500Y-105159776D01*
X147535051Y-105140065D01*
X147536980Y-105127886D01*
X147538220Y-105120057D01*
X147534059Y-105076038D01*
X147533500Y-105064181D01*
X147533500Y-97823330D01*
X147553502Y-97755209D01*
X147607158Y-97708716D01*
X147677432Y-97698612D01*
X147722110Y-97714076D01*
X147726848Y-97717518D01*
X147901312Y-97795194D01*
X147994713Y-97815047D01*
X148081656Y-97833528D01*
X148081661Y-97833528D01*
X148088113Y-97834900D01*
X148279087Y-97834900D01*
X148285539Y-97833528D01*
X148285544Y-97833528D01*
X148372488Y-97815047D01*
X148465888Y-97795194D01*
X148471919Y-97792509D01*
X148634322Y-97720203D01*
X148634324Y-97720202D01*
X148640352Y-97717518D01*
X148655212Y-97706722D01*
X148695757Y-97677264D01*
X148794853Y-97605266D01*
X148922640Y-97463344D01*
X149018127Y-97297956D01*
X149077142Y-97116328D01*
X149097104Y-96926400D01*
X149086456Y-96825088D01*
X149077832Y-96743035D01*
X149077832Y-96743033D01*
X149077142Y-96736472D01*
X149018127Y-96554844D01*
X149001736Y-96526453D01*
X148925941Y-96395174D01*
X148922640Y-96389456D01*
X148849463Y-96308185D01*
X148818747Y-96244179D01*
X148817100Y-96223876D01*
X148817100Y-88503395D01*
X148837102Y-88435274D01*
X148854005Y-88414299D01*
X149099301Y-88169004D01*
X149161613Y-88134979D01*
X149188396Y-88132100D01*
X149244287Y-88132100D01*
X149250745Y-88130727D01*
X149257311Y-88130037D01*
X149257574Y-88132539D01*
X149317063Y-88137074D01*
X149373699Y-88179886D01*
X149398198Y-88246522D01*
X149397765Y-88268311D01*
X149387251Y-88366695D01*
X149387548Y-88371848D01*
X149387548Y-88371851D01*
X149397340Y-88541678D01*
X149400110Y-88589715D01*
X149401247Y-88594761D01*
X149401248Y-88594767D01*
X149417681Y-88667682D01*
X149449222Y-88807639D01*
X149533266Y-89014616D01*
X149574265Y-89081521D01*
X149647291Y-89200688D01*
X149649987Y-89205088D01*
X149796250Y-89373938D01*
X149968126Y-89516632D01*
X150038595Y-89557811D01*
X150041445Y-89559476D01*
X150090169Y-89611114D01*
X150103240Y-89680897D01*
X150076509Y-89746669D01*
X150036055Y-89780027D01*
X150023607Y-89786507D01*
X150019474Y-89789610D01*
X150019471Y-89789612D01*
X149957583Y-89836079D01*
X149844965Y-89920635D01*
X149690629Y-90082138D01*
X149687720Y-90086403D01*
X149687714Y-90086411D01*
X149602556Y-90211249D01*
X149564743Y-90266680D01*
X149470688Y-90469305D01*
X149410989Y-90684570D01*
X149387251Y-90906695D01*
X149387548Y-90911848D01*
X149387548Y-90911851D01*
X149393011Y-91006590D01*
X149400110Y-91129715D01*
X149401247Y-91134761D01*
X149401248Y-91134767D01*
X149421119Y-91222939D01*
X149449222Y-91347639D01*
X149533266Y-91554616D01*
X149584019Y-91637438D01*
X149647291Y-91740688D01*
X149649987Y-91745088D01*
X149796250Y-91913938D01*
X149968126Y-92056632D01*
X150041445Y-92099476D01*
X150041955Y-92099774D01*
X150090679Y-92151412D01*
X150103750Y-92221195D01*
X150077019Y-92286967D01*
X150036562Y-92320327D01*
X150028457Y-92324546D01*
X150019738Y-92330036D01*
X149849433Y-92457905D01*
X149841726Y-92464748D01*
X149694590Y-92618717D01*
X149688104Y-92626727D01*
X149568098Y-92802649D01*
X149563000Y-92811623D01*
X149473338Y-93004783D01*
X149469775Y-93014470D01*
X149414389Y-93214183D01*
X149415912Y-93222607D01*
X149428292Y-93226000D01*
X150878000Y-93226000D01*
X150946121Y-93246002D01*
X150992614Y-93299658D01*
X151004000Y-93352000D01*
X151004000Y-93608000D01*
X150983998Y-93676121D01*
X150930342Y-93722614D01*
X150878000Y-93734000D01*
X149433225Y-93734000D01*
X149419694Y-93737973D01*
X149418257Y-93747966D01*
X149448565Y-93882446D01*
X149451645Y-93892275D01*
X149531770Y-94089603D01*
X149536413Y-94098794D01*
X149647694Y-94280388D01*
X149653777Y-94288699D01*
X149793213Y-94449667D01*
X149800580Y-94456883D01*
X149964434Y-94592916D01*
X149972881Y-94598831D01*
X150041969Y-94639203D01*
X150090693Y-94690842D01*
X150103764Y-94760625D01*
X150077033Y-94826396D01*
X150036584Y-94859752D01*
X150023607Y-94866507D01*
X150019474Y-94869610D01*
X150019471Y-94869612D01*
X149995247Y-94887800D01*
X149844965Y-95000635D01*
X149690629Y-95162138D01*
X149564743Y-95346680D01*
X149470688Y-95549305D01*
X149410989Y-95764570D01*
X149387251Y-95986695D01*
X149387548Y-95991848D01*
X149387548Y-95991851D01*
X149393011Y-96086590D01*
X149400110Y-96209715D01*
X149401247Y-96214761D01*
X149401248Y-96214767D01*
X149403301Y-96223876D01*
X149449222Y-96427639D01*
X149533266Y-96634616D01*
X149584019Y-96717438D01*
X149647291Y-96820688D01*
X149649987Y-96825088D01*
X149796250Y-96993938D01*
X149968126Y-97136632D01*
X150038595Y-97177811D01*
X150041445Y-97179476D01*
X150090169Y-97231114D01*
X150103240Y-97300897D01*
X150076509Y-97366669D01*
X150036055Y-97400027D01*
X150023607Y-97406507D01*
X150019474Y-97409610D01*
X150019471Y-97409612D01*
X149947907Y-97463344D01*
X149844965Y-97540635D01*
X149690629Y-97702138D01*
X149687715Y-97706410D01*
X149687714Y-97706411D01*
X149626215Y-97796566D01*
X149564743Y-97886680D01*
X149470688Y-98089305D01*
X149410989Y-98304570D01*
X149387251Y-98526695D01*
X149400110Y-98749715D01*
X149401247Y-98754761D01*
X149401248Y-98754767D01*
X149422275Y-98848069D01*
X149449222Y-98967639D01*
X149533266Y-99174616D01*
X149649987Y-99365088D01*
X149796250Y-99533938D01*
X149968126Y-99676632D01*
X150038595Y-99717811D01*
X150041445Y-99719476D01*
X150090169Y-99771114D01*
X150103240Y-99840897D01*
X150076509Y-99906669D01*
X150036055Y-99940027D01*
X150023607Y-99946507D01*
X150019474Y-99949610D01*
X150019471Y-99949612D01*
X149995247Y-99967800D01*
X149844965Y-100080635D01*
X149690629Y-100242138D01*
X149564743Y-100426680D01*
X149470688Y-100629305D01*
X149410989Y-100844570D01*
X149387251Y-101066695D01*
X149387548Y-101071848D01*
X149387548Y-101071851D01*
X149393011Y-101166590D01*
X149400110Y-101289715D01*
X149401247Y-101294761D01*
X149401248Y-101294767D01*
X149421119Y-101382939D01*
X149449222Y-101507639D01*
X149533266Y-101714616D01*
X149584019Y-101797438D01*
X149647291Y-101900688D01*
X149649987Y-101905088D01*
X149796250Y-102073938D01*
X149968126Y-102216632D01*
X150038595Y-102257811D01*
X150041445Y-102259476D01*
X150090169Y-102311114D01*
X150103240Y-102380897D01*
X150076509Y-102446669D01*
X150036055Y-102480027D01*
X150023607Y-102486507D01*
X150019474Y-102489610D01*
X150019471Y-102489612D01*
X149995247Y-102507800D01*
X149844965Y-102620635D01*
X149690629Y-102782138D01*
X149564743Y-102966680D01*
X149470688Y-103169305D01*
X149410989Y-103384570D01*
X149387251Y-103606695D01*
X149400110Y-103829715D01*
X149401247Y-103834761D01*
X149401248Y-103834767D01*
X149414597Y-103894000D01*
X149449222Y-104047639D01*
X149533266Y-104254616D01*
X149649987Y-104445088D01*
X149796250Y-104613938D01*
X149968126Y-104756632D01*
X150032276Y-104794118D01*
X150041445Y-104799476D01*
X150090169Y-104851114D01*
X150103240Y-104920897D01*
X150076509Y-104986669D01*
X150036055Y-105020027D01*
X150023607Y-105026507D01*
X150019474Y-105029610D01*
X150019471Y-105029612D01*
X149849100Y-105157530D01*
X149844965Y-105160635D01*
X149841393Y-105164373D01*
X149725718Y-105285420D01*
X149690629Y-105322138D01*
X149564743Y-105506680D01*
X149517716Y-105607992D01*
X149477528Y-105694570D01*
X149470688Y-105709305D01*
X149410989Y-105924570D01*
X149387251Y-106146695D01*
X149387548Y-106151848D01*
X149387548Y-106151851D01*
X149393011Y-106246590D01*
X149400110Y-106369715D01*
X149401247Y-106374761D01*
X149401248Y-106374767D01*
X149421119Y-106462939D01*
X149449222Y-106587639D01*
X149533266Y-106794616D01*
X149584019Y-106877438D01*
X149647291Y-106980688D01*
X149649987Y-106985088D01*
X149796250Y-107153938D01*
X149968126Y-107296632D01*
X149979994Y-107303567D01*
X150041445Y-107339476D01*
X150090169Y-107391114D01*
X150103240Y-107460897D01*
X150076509Y-107526669D01*
X150036055Y-107560027D01*
X150023607Y-107566507D01*
X150019474Y-107569610D01*
X150019471Y-107569612D01*
X149849100Y-107697530D01*
X149844965Y-107700635D01*
X149690629Y-107862138D01*
X149564743Y-108046680D01*
X149470688Y-108249305D01*
X149410989Y-108464570D01*
X149387251Y-108686695D01*
X149387548Y-108691848D01*
X149387548Y-108691851D01*
X149393011Y-108786590D01*
X149400110Y-108909715D01*
X149401247Y-108914761D01*
X149401248Y-108914767D01*
X149421119Y-109002939D01*
X149449222Y-109127639D01*
X149533266Y-109334616D01*
X149584019Y-109417438D01*
X149647291Y-109520688D01*
X149649987Y-109525088D01*
X149796250Y-109693938D01*
X149968126Y-109836632D01*
X150041445Y-109879476D01*
X150041955Y-109879774D01*
X150090679Y-109931412D01*
X150103750Y-110001195D01*
X150077019Y-110066967D01*
X150036562Y-110100327D01*
X150028457Y-110104546D01*
X150019738Y-110110036D01*
X149849433Y-110237905D01*
X149841726Y-110244748D01*
X149694590Y-110398717D01*
X149688104Y-110406727D01*
X149568098Y-110582649D01*
X149563000Y-110591623D01*
X149473338Y-110784783D01*
X149469775Y-110794470D01*
X149414389Y-110994183D01*
X149415912Y-111002607D01*
X149428292Y-111006000D01*
X150878000Y-111006000D01*
X150946121Y-111026002D01*
X150992614Y-111079658D01*
X151004000Y-111132000D01*
X151004000Y-112578517D01*
X151008064Y-112592359D01*
X151021478Y-112594393D01*
X151028184Y-112593534D01*
X151038262Y-112591392D01*
X151242255Y-112530191D01*
X151251842Y-112526433D01*
X151443095Y-112432739D01*
X151451945Y-112427464D01*
X151625328Y-112303792D01*
X151633200Y-112297139D01*
X151784052Y-112146812D01*
X151790730Y-112138965D01*
X151918022Y-111961819D01*
X151919279Y-111962722D01*
X151966373Y-111919362D01*
X152036311Y-111907145D01*
X152101751Y-111934678D01*
X152129579Y-111966511D01*
X152189987Y-112065088D01*
X152336250Y-112233938D01*
X152508126Y-112376632D01*
X152701000Y-112489338D01*
X152909692Y-112569030D01*
X152914760Y-112570061D01*
X152914763Y-112570062D01*
X153009862Y-112589410D01*
X153128597Y-112613567D01*
X153133772Y-112613757D01*
X153133774Y-112613757D01*
X153346673Y-112621564D01*
X153346677Y-112621564D01*
X153351837Y-112621753D01*
X153356957Y-112621097D01*
X153356959Y-112621097D01*
X153568288Y-112594025D01*
X153568289Y-112594025D01*
X153573416Y-112593368D01*
X153578366Y-112591883D01*
X153782429Y-112530661D01*
X153782434Y-112530659D01*
X153787384Y-112529174D01*
X153987994Y-112430896D01*
X154169860Y-112301173D01*
X154328096Y-112143489D01*
X154340157Y-112126705D01*
X154455435Y-111966277D01*
X154458453Y-111962077D01*
X154471995Y-111934678D01*
X154555136Y-111766453D01*
X154555137Y-111766451D01*
X154557430Y-111761811D01*
X154622370Y-111548069D01*
X154651529Y-111326590D01*
X154653156Y-111260000D01*
X154634852Y-111037361D01*
X154580431Y-110820702D01*
X154491354Y-110615840D01*
X154370014Y-110428277D01*
X154219670Y-110263051D01*
X154215619Y-110259852D01*
X154215615Y-110259848D01*
X154048414Y-110127800D01*
X154048410Y-110127798D01*
X154044359Y-110124598D01*
X154003053Y-110101796D01*
X153953084Y-110051364D01*
X153938312Y-109981921D01*
X153963428Y-109915516D01*
X153990780Y-109888909D01*
X154034603Y-109857650D01*
X154169860Y-109761173D01*
X154196355Y-109734771D01*
X154324435Y-109607137D01*
X154328096Y-109603489D01*
X154387594Y-109520689D01*
X154455435Y-109426277D01*
X154458453Y-109422077D01*
X154479320Y-109379857D01*
X154555136Y-109226453D01*
X154555137Y-109226451D01*
X154557430Y-109221811D01*
X154622370Y-109008069D01*
X154651529Y-108786590D01*
X154652131Y-108761962D01*
X154653074Y-108723365D01*
X154653074Y-108723361D01*
X154653156Y-108720000D01*
X154634852Y-108497361D01*
X154580431Y-108280702D01*
X154491354Y-108075840D01*
X154370014Y-107888277D01*
X154219670Y-107723051D01*
X154215619Y-107719852D01*
X154215615Y-107719848D01*
X154048414Y-107587800D01*
X154048410Y-107587798D01*
X154044359Y-107584598D01*
X154003053Y-107561796D01*
X153953084Y-107511364D01*
X153938312Y-107441921D01*
X153963428Y-107375516D01*
X153990780Y-107348909D01*
X154054347Y-107303567D01*
X154169860Y-107221173D01*
X154211842Y-107179338D01*
X154324435Y-107067137D01*
X154328096Y-107063489D01*
X154382679Y-106987529D01*
X154455435Y-106886277D01*
X154458453Y-106882077D01*
X154479320Y-106839857D01*
X154555136Y-106686453D01*
X154555137Y-106686451D01*
X154557430Y-106681811D01*
X154622370Y-106468069D01*
X154651529Y-106246590D01*
X154653156Y-106180000D01*
X154634852Y-105957361D01*
X154580431Y-105740702D01*
X154491354Y-105535840D01*
X154389899Y-105379014D01*
X154372822Y-105352617D01*
X154372820Y-105352614D01*
X154370014Y-105348277D01*
X154219670Y-105183051D01*
X154215619Y-105179852D01*
X154215615Y-105179848D01*
X154048414Y-105047800D01*
X154048410Y-105047798D01*
X154044359Y-105044598D01*
X154002569Y-105021529D01*
X153952598Y-104971097D01*
X153937826Y-104901654D01*
X153962942Y-104835248D01*
X153990294Y-104808641D01*
X154165328Y-104683792D01*
X154173200Y-104677139D01*
X154324052Y-104526812D01*
X154330730Y-104518965D01*
X154455003Y-104346020D01*
X154460313Y-104337183D01*
X154554670Y-104146267D01*
X154558469Y-104136672D01*
X154620377Y-103932910D01*
X154622555Y-103922837D01*
X154623986Y-103911962D01*
X154621775Y-103897778D01*
X154608617Y-103894000D01*
X153162000Y-103894000D01*
X153093879Y-103873998D01*
X153047386Y-103820342D01*
X153036000Y-103768000D01*
X153036000Y-103512000D01*
X153056002Y-103443879D01*
X153109658Y-103397386D01*
X153162000Y-103386000D01*
X154608344Y-103386000D01*
X154621875Y-103382027D01*
X154623180Y-103372947D01*
X154581214Y-103205875D01*
X154577894Y-103196124D01*
X154492972Y-103000814D01*
X154488105Y-102991739D01*
X154372426Y-102812926D01*
X154366136Y-102804757D01*
X154222806Y-102647240D01*
X154215273Y-102640215D01*
X154048139Y-102508222D01*
X154039556Y-102502520D01*
X154002602Y-102482120D01*
X153952631Y-102431687D01*
X153937859Y-102362245D01*
X153962975Y-102295839D01*
X153990327Y-102269232D01*
X154013797Y-102252491D01*
X154169860Y-102141173D01*
X154328096Y-101983489D01*
X154387594Y-101900689D01*
X154455435Y-101806277D01*
X154458453Y-101802077D01*
X154479320Y-101759857D01*
X154555136Y-101606453D01*
X154555137Y-101606451D01*
X154557430Y-101601811D01*
X154622370Y-101388069D01*
X154651529Y-101166590D01*
X154653156Y-101100000D01*
X154634852Y-100877361D01*
X154580431Y-100660702D01*
X154491354Y-100455840D01*
X154370014Y-100268277D01*
X154219670Y-100103051D01*
X154215619Y-100099852D01*
X154215615Y-100099848D01*
X154048414Y-99967800D01*
X154048410Y-99967798D01*
X154044359Y-99964598D01*
X154002569Y-99941529D01*
X153952598Y-99891097D01*
X153937826Y-99821654D01*
X153962942Y-99755248D01*
X153990294Y-99728641D01*
X154165328Y-99603792D01*
X154173200Y-99597139D01*
X154324052Y-99446812D01*
X154330730Y-99438965D01*
X154455003Y-99266020D01*
X154460313Y-99257183D01*
X154554670Y-99066267D01*
X154558469Y-99056672D01*
X154620377Y-98852910D01*
X154622555Y-98842837D01*
X154623986Y-98831962D01*
X154621775Y-98817778D01*
X154608617Y-98814000D01*
X153162000Y-98814000D01*
X153093879Y-98793998D01*
X153047386Y-98740342D01*
X153036000Y-98688000D01*
X153036000Y-98432000D01*
X153056002Y-98363879D01*
X153109658Y-98317386D01*
X153162000Y-98306000D01*
X154608344Y-98306000D01*
X154621875Y-98302027D01*
X154623180Y-98292947D01*
X154581214Y-98125875D01*
X154577894Y-98116124D01*
X154492972Y-97920814D01*
X154488105Y-97911739D01*
X154372426Y-97732926D01*
X154366136Y-97724757D01*
X154222806Y-97567240D01*
X154215273Y-97560215D01*
X154048139Y-97428222D01*
X154039556Y-97422520D01*
X154002602Y-97402120D01*
X153952631Y-97351687D01*
X153937859Y-97282245D01*
X153962975Y-97215839D01*
X153990327Y-97189232D01*
X154013797Y-97172491D01*
X154169860Y-97061173D01*
X154328096Y-96903489D01*
X154387594Y-96820689D01*
X154455435Y-96726277D01*
X154458453Y-96722077D01*
X154479320Y-96679857D01*
X154555136Y-96526453D01*
X154555137Y-96526451D01*
X154557430Y-96521811D01*
X154622370Y-96308069D01*
X154651529Y-96086590D01*
X154653156Y-96020000D01*
X154634852Y-95797361D01*
X154580431Y-95580702D01*
X154491354Y-95375840D01*
X154370014Y-95188277D01*
X154219670Y-95023051D01*
X154215619Y-95019852D01*
X154215615Y-95019848D01*
X154048414Y-94887800D01*
X154048410Y-94887798D01*
X154044359Y-94884598D01*
X154003053Y-94861796D01*
X153953084Y-94811364D01*
X153938312Y-94741921D01*
X153963428Y-94675516D01*
X153990780Y-94648909D01*
X154034603Y-94617650D01*
X154169860Y-94521173D01*
X154328096Y-94363489D01*
X154458453Y-94182077D01*
X154471995Y-94154678D01*
X154555136Y-93986453D01*
X154555137Y-93986451D01*
X154557430Y-93981811D01*
X154622370Y-93768069D01*
X154651529Y-93546590D01*
X154653156Y-93480000D01*
X154634852Y-93257361D01*
X154580431Y-93040702D01*
X154491354Y-92835840D01*
X154370014Y-92648277D01*
X154219670Y-92483051D01*
X154215619Y-92479852D01*
X154215615Y-92479848D01*
X154048414Y-92347800D01*
X154048410Y-92347798D01*
X154044359Y-92344598D01*
X154003053Y-92321796D01*
X153953084Y-92271364D01*
X153938312Y-92201921D01*
X153963428Y-92135516D01*
X153990780Y-92108909D01*
X154034603Y-92077650D01*
X154169860Y-91981173D01*
X154328096Y-91823489D01*
X154387594Y-91740689D01*
X154455435Y-91646277D01*
X154458453Y-91642077D01*
X154479320Y-91599857D01*
X154555136Y-91446453D01*
X154555137Y-91446451D01*
X154557430Y-91441811D01*
X154622370Y-91228069D01*
X154651529Y-91006590D01*
X154653156Y-90940000D01*
X154634852Y-90717361D01*
X154580431Y-90500702D01*
X154491354Y-90295840D01*
X154370014Y-90108277D01*
X154219670Y-89943051D01*
X154215619Y-89939852D01*
X154215615Y-89939848D01*
X154048414Y-89807800D01*
X154048410Y-89807798D01*
X154044359Y-89804598D01*
X154003053Y-89781796D01*
X153953084Y-89731364D01*
X153938312Y-89661921D01*
X153963428Y-89595516D01*
X153990780Y-89568909D01*
X154034603Y-89537650D01*
X154169860Y-89441173D01*
X154328096Y-89283489D01*
X154333884Y-89275435D01*
X154455435Y-89106277D01*
X154458453Y-89102077D01*
X154468613Y-89081521D01*
X154555136Y-88906453D01*
X154555137Y-88906451D01*
X154557430Y-88901811D01*
X154622370Y-88688069D01*
X154651529Y-88466590D01*
X154653156Y-88400000D01*
X154634852Y-88177361D01*
X154580431Y-87960702D01*
X154491354Y-87755840D01*
X154423967Y-87651676D01*
X154372822Y-87572617D01*
X154372820Y-87572614D01*
X154370014Y-87568277D01*
X154219670Y-87403051D01*
X154215619Y-87399852D01*
X154215615Y-87399848D01*
X154048414Y-87267800D01*
X154048410Y-87267798D01*
X154044359Y-87264598D01*
X154002569Y-87241529D01*
X153952598Y-87191097D01*
X153937826Y-87121654D01*
X153962942Y-87055248D01*
X153990294Y-87028641D01*
X154165328Y-86903792D01*
X154173200Y-86897139D01*
X154324052Y-86746812D01*
X154330730Y-86738965D01*
X154455003Y-86566020D01*
X154460313Y-86557183D01*
X154554670Y-86366267D01*
X154558469Y-86356672D01*
X154620377Y-86152910D01*
X154622555Y-86142837D01*
X154623986Y-86131962D01*
X154621775Y-86117778D01*
X154608617Y-86114000D01*
X153162000Y-86114000D01*
X153093879Y-86093998D01*
X153047386Y-86040342D01*
X153036000Y-85988000D01*
X153036000Y-85732000D01*
X153056002Y-85663879D01*
X153109658Y-85617386D01*
X153162000Y-85606000D01*
X154608344Y-85606000D01*
X154621875Y-85602027D01*
X154623180Y-85592947D01*
X154581214Y-85425875D01*
X154577894Y-85416124D01*
X154492972Y-85220814D01*
X154488105Y-85211739D01*
X154372426Y-85032926D01*
X154366136Y-85024757D01*
X154222806Y-84867240D01*
X154215273Y-84860215D01*
X154048139Y-84728222D01*
X154039556Y-84722520D01*
X154002602Y-84702120D01*
X153952631Y-84651687D01*
X153937859Y-84582245D01*
X153962975Y-84515839D01*
X153990327Y-84489232D01*
X154013797Y-84472491D01*
X154169860Y-84361173D01*
X154328096Y-84203489D01*
X154387594Y-84120689D01*
X154455435Y-84026277D01*
X154458453Y-84022077D01*
X154479320Y-83979857D01*
X154555136Y-83826453D01*
X154555137Y-83826451D01*
X154557430Y-83821811D01*
X154622370Y-83608069D01*
X154651529Y-83386590D01*
X154653156Y-83320000D01*
X154634852Y-83097361D01*
X154580431Y-82880702D01*
X154491354Y-82675840D01*
X154370014Y-82488277D01*
X154219670Y-82323051D01*
X154215619Y-82319852D01*
X154215615Y-82319848D01*
X154048414Y-82187800D01*
X154048410Y-82187798D01*
X154044359Y-82184598D01*
X154003053Y-82161796D01*
X153953084Y-82111364D01*
X153938312Y-82041921D01*
X153963428Y-81975516D01*
X153990780Y-81948909D01*
X154034603Y-81917650D01*
X154169860Y-81821173D01*
X154328096Y-81663489D01*
X154367929Y-81608056D01*
X154455435Y-81486277D01*
X154458453Y-81482077D01*
X154463906Y-81471045D01*
X154555136Y-81286453D01*
X154555137Y-81286451D01*
X154557430Y-81281811D01*
X154622370Y-81068069D01*
X154651529Y-80846590D01*
X154653156Y-80780000D01*
X154634852Y-80557361D01*
X154580431Y-80340702D01*
X154491354Y-80135840D01*
X154391171Y-79980981D01*
X154372822Y-79952617D01*
X154372820Y-79952614D01*
X154370014Y-79948277D01*
X154219670Y-79783051D01*
X154215619Y-79779852D01*
X154215615Y-79779848D01*
X154048414Y-79647800D01*
X154048410Y-79647798D01*
X154044359Y-79644598D01*
X154002569Y-79621529D01*
X153952598Y-79571097D01*
X153937826Y-79501654D01*
X153962942Y-79435248D01*
X153990294Y-79408641D01*
X154165328Y-79283792D01*
X154173200Y-79277139D01*
X154324052Y-79126812D01*
X154330730Y-79118965D01*
X154455003Y-78946020D01*
X154460313Y-78937183D01*
X154554670Y-78746267D01*
X154558469Y-78736672D01*
X154620377Y-78532910D01*
X154622555Y-78522837D01*
X154623986Y-78511962D01*
X154621775Y-78497778D01*
X154608617Y-78494000D01*
X153162000Y-78494000D01*
X153093879Y-78473998D01*
X153047386Y-78420342D01*
X153036000Y-78368000D01*
X153036000Y-78112000D01*
X153056002Y-78043879D01*
X153109658Y-77997386D01*
X153162000Y-77986000D01*
X154608344Y-77986000D01*
X154621875Y-77982027D01*
X154623180Y-77972947D01*
X154581214Y-77805875D01*
X154577894Y-77796124D01*
X154492972Y-77600814D01*
X154488105Y-77591739D01*
X154372426Y-77412926D01*
X154366136Y-77404757D01*
X154222806Y-77247240D01*
X154215273Y-77240215D01*
X154048139Y-77108222D01*
X154039556Y-77102520D01*
X154002602Y-77082120D01*
X153952631Y-77031687D01*
X153937859Y-76962245D01*
X153962975Y-76895839D01*
X153990327Y-76869232D01*
X154013797Y-76852491D01*
X154169860Y-76741173D01*
X154328096Y-76583489D01*
X154387594Y-76500689D01*
X154455435Y-76406277D01*
X154458453Y-76402077D01*
X154479320Y-76359857D01*
X154555136Y-76206453D01*
X154555137Y-76206451D01*
X154557430Y-76201811D01*
X154622370Y-75988069D01*
X154651529Y-75766590D01*
X154653156Y-75700000D01*
X154634852Y-75477361D01*
X154580431Y-75260702D01*
X154491354Y-75055840D01*
X154370014Y-74868277D01*
X154219670Y-74703051D01*
X154215619Y-74699852D01*
X154215615Y-74699848D01*
X154048414Y-74567800D01*
X154048410Y-74567798D01*
X154044359Y-74564598D01*
X154003053Y-74541796D01*
X153953084Y-74491364D01*
X153938312Y-74421921D01*
X153963428Y-74355516D01*
X153990780Y-74328909D01*
X154034603Y-74297650D01*
X154169860Y-74201173D01*
X154213547Y-74157639D01*
X154324435Y-74047137D01*
X154328096Y-74043489D01*
X154367929Y-73988056D01*
X154455435Y-73866277D01*
X154458453Y-73862077D01*
X154463906Y-73851045D01*
X154555136Y-73666453D01*
X154555137Y-73666451D01*
X154557430Y-73661811D01*
X154622370Y-73448069D01*
X154651529Y-73226590D01*
X154653156Y-73160000D01*
X154634852Y-72937361D01*
X154580431Y-72720702D01*
X154491354Y-72515840D01*
X154410738Y-72391227D01*
X154372822Y-72332617D01*
X154372820Y-72332614D01*
X154370014Y-72328277D01*
X154219670Y-72163051D01*
X154215619Y-72159852D01*
X154215615Y-72159848D01*
X154048414Y-72027800D01*
X154048410Y-72027798D01*
X154044359Y-72024598D01*
X154003053Y-72001796D01*
X153953084Y-71951364D01*
X153938312Y-71881921D01*
X153963428Y-71815516D01*
X153990780Y-71788909D01*
X154034603Y-71757650D01*
X154169860Y-71661173D01*
X154328096Y-71503489D01*
X154387594Y-71420689D01*
X154455435Y-71326277D01*
X154458453Y-71322077D01*
X154479320Y-71279857D01*
X154555136Y-71126453D01*
X154555137Y-71126451D01*
X154557430Y-71121811D01*
X154622370Y-70908069D01*
X154651529Y-70686590D01*
X154653156Y-70620000D01*
X154634852Y-70397361D01*
X154580431Y-70180702D01*
X154491354Y-69975840D01*
X154425358Y-69873825D01*
X154372822Y-69792617D01*
X154372820Y-69792614D01*
X154370014Y-69788277D01*
X154219670Y-69623051D01*
X154215619Y-69619852D01*
X154215615Y-69619848D01*
X154048414Y-69487800D01*
X154048410Y-69487798D01*
X154044359Y-69484598D01*
X154002569Y-69461529D01*
X153952598Y-69411097D01*
X153937826Y-69341654D01*
X153962942Y-69275248D01*
X153990294Y-69248641D01*
X154165328Y-69123792D01*
X154173200Y-69117139D01*
X154324052Y-68966812D01*
X154330730Y-68958965D01*
X154455003Y-68786020D01*
X154460313Y-68777183D01*
X154554670Y-68586267D01*
X154558469Y-68576672D01*
X154620377Y-68372910D01*
X154622555Y-68362837D01*
X154623986Y-68351962D01*
X154621775Y-68337778D01*
X154608617Y-68334000D01*
X153162000Y-68334000D01*
X153093879Y-68313998D01*
X153047386Y-68260342D01*
X153036000Y-68208000D01*
X153036000Y-67952000D01*
X153056002Y-67883879D01*
X153109658Y-67837386D01*
X153162000Y-67826000D01*
X154608344Y-67826000D01*
X154621875Y-67822027D01*
X154623180Y-67812947D01*
X154581214Y-67645875D01*
X154577894Y-67636124D01*
X154492972Y-67440814D01*
X154488105Y-67431739D01*
X154372426Y-67252926D01*
X154366136Y-67244757D01*
X154222806Y-67087240D01*
X154215273Y-67080215D01*
X154048139Y-66948222D01*
X154039556Y-66942520D01*
X154002602Y-66922120D01*
X153952631Y-66871687D01*
X153937859Y-66802245D01*
X153962975Y-66735839D01*
X153990327Y-66709232D01*
X154028860Y-66681747D01*
X154169860Y-66581173D01*
X154328096Y-66423489D01*
X154387594Y-66340689D01*
X154455435Y-66246277D01*
X154458453Y-66242077D01*
X154466643Y-66225507D01*
X154555136Y-66046453D01*
X154555137Y-66046451D01*
X154557430Y-66041811D01*
X154622370Y-65828069D01*
X154651529Y-65606590D01*
X154653156Y-65540000D01*
X154634852Y-65317361D01*
X154580431Y-65100702D01*
X154491354Y-64895840D01*
X154426600Y-64795745D01*
X154372822Y-64712617D01*
X154372820Y-64712614D01*
X154370014Y-64708277D01*
X154219670Y-64543051D01*
X154215619Y-64539852D01*
X154215615Y-64539848D01*
X154048414Y-64407800D01*
X154048410Y-64407798D01*
X154044359Y-64404598D01*
X154003053Y-64381796D01*
X153953084Y-64331364D01*
X153938312Y-64261921D01*
X153963428Y-64195516D01*
X153990780Y-64168909D01*
X154034603Y-64137650D01*
X154169860Y-64041173D01*
X154328096Y-63883489D01*
X154458453Y-63702077D01*
X154464195Y-63690460D01*
X154555136Y-63506453D01*
X154555137Y-63506451D01*
X154557430Y-63501811D01*
X154622370Y-63288069D01*
X154651529Y-63066590D01*
X154653156Y-63000000D01*
X154634852Y-62777361D01*
X154580431Y-62560702D01*
X154491354Y-62355840D01*
X154370014Y-62168277D01*
X154219670Y-62003051D01*
X154215619Y-61999852D01*
X154215615Y-61999848D01*
X154048414Y-61867800D01*
X154048410Y-61867798D01*
X154044359Y-61864598D01*
X153848789Y-61756638D01*
X153843920Y-61754914D01*
X153843916Y-61754912D01*
X153643087Y-61683795D01*
X153643083Y-61683794D01*
X153638212Y-61682069D01*
X153633119Y-61681162D01*
X153633116Y-61681161D01*
X153423373Y-61643800D01*
X153423367Y-61643799D01*
X153418284Y-61642894D01*
X153344452Y-61641992D01*
X153200081Y-61640228D01*
X153200079Y-61640228D01*
X153194911Y-61640165D01*
X152974091Y-61673955D01*
X152761756Y-61743357D01*
X152563607Y-61846507D01*
X152559474Y-61849610D01*
X152559471Y-61849612D01*
X152389100Y-61977530D01*
X152384965Y-61980635D01*
X152328537Y-62039684D01*
X152304283Y-62065064D01*
X152242759Y-62100494D01*
X152171846Y-62097037D01*
X152114060Y-62055791D01*
X152095207Y-62022243D01*
X152053767Y-61911703D01*
X152050615Y-61903295D01*
X151963261Y-61786739D01*
X151846705Y-61699385D01*
X151710316Y-61648255D01*
X151648134Y-61641500D01*
X149851866Y-61641500D01*
X149789684Y-61648255D01*
X149653295Y-61699385D01*
X149536739Y-61786739D01*
X149449385Y-61903295D01*
X149398255Y-62039684D01*
X149391500Y-62101866D01*
X149391500Y-63898134D01*
X149398255Y-63960316D01*
X149449385Y-64096705D01*
X149536739Y-64213261D01*
X149653295Y-64300615D01*
X149661704Y-64303767D01*
X149661705Y-64303768D01*
X149770451Y-64344535D01*
X149827216Y-64387176D01*
X149851916Y-64453738D01*
X149836709Y-64523087D01*
X149817316Y-64549568D01*
X149690629Y-64682138D01*
X149687720Y-64686403D01*
X149687714Y-64686411D01*
X149615838Y-64791778D01*
X149564743Y-64866680D01*
X149539838Y-64920333D01*
X149473869Y-65062453D01*
X149470688Y-65069305D01*
X149410989Y-65284570D01*
X149387251Y-65506695D01*
X149387548Y-65511848D01*
X149387548Y-65511851D01*
X149393011Y-65606590D01*
X149400110Y-65729715D01*
X149401247Y-65734761D01*
X149401248Y-65734767D01*
X149420986Y-65822350D01*
X149449222Y-65947639D01*
X149533266Y-66154616D01*
X149583625Y-66236795D01*
X149647291Y-66340688D01*
X149649987Y-66345088D01*
X149796250Y-66513938D01*
X149968126Y-66656632D01*
X150019949Y-66686915D01*
X150041445Y-66699476D01*
X150090169Y-66751114D01*
X150103240Y-66820897D01*
X150076509Y-66886669D01*
X150036055Y-66920027D01*
X150023607Y-66926507D01*
X150019474Y-66929610D01*
X150019471Y-66929612D01*
X149995247Y-66947800D01*
X149844965Y-67060635D01*
X149841393Y-67064373D01*
X149712476Y-67199277D01*
X149690629Y-67222138D01*
X149564743Y-67406680D01*
X149541146Y-67457516D01*
X149474501Y-67601091D01*
X149470688Y-67609305D01*
X149410989Y-67824570D01*
X149387251Y-68046695D01*
X149400110Y-68269715D01*
X149401247Y-68274761D01*
X149401248Y-68274767D01*
X149414597Y-68334000D01*
X149449222Y-68487639D01*
X149533266Y-68694616D01*
X149649987Y-68885088D01*
X149796250Y-69053938D01*
X149968126Y-69196632D01*
X150038595Y-69237811D01*
X150041445Y-69239476D01*
X150090169Y-69291114D01*
X150103240Y-69360897D01*
X150076509Y-69426669D01*
X150036055Y-69460027D01*
X150023607Y-69466507D01*
X150019474Y-69469610D01*
X150019471Y-69469612D01*
X149995247Y-69487800D01*
X149844965Y-69600635D01*
X149690629Y-69762138D01*
X149564743Y-69946680D01*
X149470688Y-70149305D01*
X149410989Y-70364570D01*
X149387251Y-70586695D01*
X149387548Y-70591848D01*
X149387548Y-70591851D01*
X149393011Y-70686590D01*
X149400110Y-70809715D01*
X149401247Y-70814761D01*
X149401248Y-70814767D01*
X149421119Y-70902939D01*
X149449222Y-71027639D01*
X149487461Y-71121811D01*
X149523271Y-71210000D01*
X149533266Y-71234616D01*
X149584019Y-71317438D01*
X149647291Y-71420688D01*
X149649987Y-71425088D01*
X149796250Y-71593938D01*
X149968126Y-71736632D01*
X150041445Y-71779476D01*
X150041955Y-71779774D01*
X150090679Y-71831412D01*
X150103750Y-71901195D01*
X150077019Y-71966967D01*
X150036562Y-72000327D01*
X150028457Y-72004546D01*
X150019738Y-72010036D01*
X149849433Y-72137905D01*
X149841726Y-72144748D01*
X149694590Y-72298717D01*
X149688104Y-72306727D01*
X149568098Y-72482649D01*
X149563000Y-72491623D01*
X149473338Y-72684783D01*
X149469775Y-72694470D01*
X149414389Y-72894183D01*
X149415912Y-72902607D01*
X149428292Y-72906000D01*
X150878000Y-72906000D01*
X150946121Y-72926002D01*
X150992614Y-72979658D01*
X151004000Y-73032000D01*
X151004000Y-73288000D01*
X150983998Y-73356121D01*
X150930342Y-73402614D01*
X150878000Y-73414000D01*
X149433225Y-73414000D01*
X149419694Y-73417973D01*
X149418257Y-73427966D01*
X149448565Y-73562446D01*
X149451645Y-73572275D01*
X149531770Y-73769603D01*
X149536413Y-73778794D01*
X149647694Y-73960388D01*
X149653777Y-73968699D01*
X149793213Y-74129667D01*
X149800580Y-74136883D01*
X149964434Y-74272916D01*
X149972881Y-74278831D01*
X150041969Y-74319203D01*
X150090693Y-74370842D01*
X150103764Y-74440625D01*
X150077033Y-74506396D01*
X150036584Y-74539752D01*
X150023607Y-74546507D01*
X150019474Y-74549610D01*
X150019471Y-74549612D01*
X149876854Y-74656692D01*
X149844965Y-74680635D01*
X149841393Y-74684373D01*
X149720915Y-74810446D01*
X149690629Y-74842138D01*
X149687720Y-74846403D01*
X149687714Y-74846411D01*
X149649604Y-74902279D01*
X149564743Y-75026680D01*
X149529533Y-75102534D01*
X149487676Y-75192708D01*
X149470688Y-75229305D01*
X149410989Y-75444570D01*
X149387251Y-75666695D01*
X149387548Y-75671848D01*
X149387548Y-75671851D01*
X149393011Y-75766590D01*
X149400110Y-75889715D01*
X149401247Y-75894761D01*
X149401248Y-75894767D01*
X149404342Y-75908495D01*
X149449222Y-76107639D01*
X149495484Y-76221570D01*
X149527893Y-76301383D01*
X149533266Y-76314616D01*
X149584019Y-76397438D01*
X149647291Y-76500688D01*
X149649987Y-76505088D01*
X149796250Y-76673938D01*
X149968126Y-76816632D01*
X150038595Y-76857811D01*
X150041445Y-76859476D01*
X150090169Y-76911114D01*
X150103240Y-76980897D01*
X150076509Y-77046669D01*
X150036055Y-77080027D01*
X150023607Y-77086507D01*
X150019474Y-77089610D01*
X150019471Y-77089612D01*
X149995247Y-77107800D01*
X149844965Y-77220635D01*
X149690629Y-77382138D01*
X149564743Y-77566680D01*
X149548899Y-77600814D01*
X149478424Y-77752640D01*
X149470688Y-77769305D01*
X149410989Y-77984570D01*
X149387251Y-78206695D01*
X149400110Y-78429715D01*
X149401247Y-78434761D01*
X149401248Y-78434767D01*
X149414597Y-78494000D01*
X149449222Y-78647639D01*
X149533266Y-78854616D01*
X149535965Y-78859020D01*
X149633736Y-79018568D01*
X149649987Y-79045088D01*
X149796250Y-79213938D01*
X149968126Y-79356632D01*
X150038595Y-79397811D01*
X150041445Y-79399476D01*
X150090169Y-79451114D01*
X150103240Y-79520897D01*
X150076509Y-79586669D01*
X150036055Y-79620027D01*
X150023607Y-79626507D01*
X150019474Y-79629610D01*
X150019471Y-79629612D01*
X149995247Y-79647800D01*
X149844965Y-79760635D01*
X149690629Y-79922138D01*
X149687720Y-79926403D01*
X149687714Y-79926411D01*
X149650489Y-79980981D01*
X149564743Y-80106680D01*
X149551180Y-80135899D01*
X149476452Y-80296888D01*
X149470688Y-80309305D01*
X149410989Y-80524570D01*
X149387251Y-80746695D01*
X149387548Y-80751848D01*
X149387548Y-80751851D01*
X149393011Y-80846590D01*
X149400110Y-80969715D01*
X149401247Y-80974761D01*
X149401248Y-80974767D01*
X149421119Y-81062939D01*
X149449222Y-81187639D01*
X149487461Y-81281811D01*
X149515636Y-81351197D01*
X149533266Y-81394616D01*
X149574713Y-81462251D01*
X149647291Y-81580688D01*
X149649987Y-81585088D01*
X149796250Y-81753938D01*
X149968126Y-81896632D01*
X150038595Y-81937811D01*
X150041445Y-81939476D01*
X150090169Y-81991114D01*
X150103240Y-82060897D01*
X150076509Y-82126669D01*
X150036055Y-82160027D01*
X150023607Y-82166507D01*
X150019474Y-82169610D01*
X150019471Y-82169612D01*
X149995247Y-82187800D01*
X149844965Y-82300635D01*
X149690629Y-82462138D01*
X149687720Y-82466403D01*
X149687714Y-82466411D01*
X149602556Y-82591249D01*
X149564743Y-82646680D01*
X149470688Y-82849305D01*
X149410989Y-83064570D01*
X149387251Y-83286695D01*
X149387548Y-83291848D01*
X149387548Y-83291851D01*
X149393011Y-83386590D01*
X149400110Y-83509715D01*
X149401247Y-83514761D01*
X149401248Y-83514767D01*
X149421119Y-83602939D01*
X149449222Y-83727639D01*
X149533266Y-83934616D01*
X149584019Y-84017438D01*
X149647291Y-84120688D01*
X149649987Y-84125088D01*
X149796250Y-84293938D01*
X149968126Y-84436632D01*
X150038595Y-84477811D01*
X150041445Y-84479476D01*
X150090169Y-84531114D01*
X150103240Y-84600897D01*
X150076509Y-84666669D01*
X150036055Y-84700027D01*
X150023607Y-84706507D01*
X150019474Y-84709610D01*
X150019471Y-84709612D01*
X149995247Y-84727800D01*
X149844965Y-84840635D01*
X149690629Y-85002138D01*
X149564743Y-85186680D01*
X149470688Y-85389305D01*
X149410989Y-85604570D01*
X149387251Y-85826695D01*
X149387548Y-85831848D01*
X149387548Y-85831851D01*
X149396552Y-85988000D01*
X149400110Y-86049715D01*
X149401247Y-86054761D01*
X149401248Y-86054767D01*
X149427535Y-86171407D01*
X149422999Y-86242258D01*
X149380877Y-86299410D01*
X149314544Y-86324716D01*
X149278423Y-86322355D01*
X149250749Y-86316473D01*
X149250744Y-86316472D01*
X149244287Y-86315100D01*
X149053313Y-86315100D01*
X149046861Y-86316472D01*
X149046856Y-86316472D01*
X148959913Y-86334953D01*
X148866512Y-86354806D01*
X148860482Y-86357491D01*
X148860481Y-86357491D01*
X148698078Y-86429797D01*
X148698076Y-86429798D01*
X148692048Y-86432482D01*
X148537547Y-86544734D01*
X148533126Y-86549644D01*
X148533125Y-86549645D01*
X148425929Y-86668699D01*
X148409760Y-86686656D01*
X148314273Y-86852044D01*
X148255258Y-87033672D01*
X148254568Y-87040233D01*
X148254568Y-87040235D01*
X148237893Y-87198892D01*
X148210880Y-87264549D01*
X148201678Y-87274818D01*
X147791342Y-87685153D01*
X147783063Y-87692687D01*
X147776582Y-87696800D01*
X147771155Y-87702579D01*
X147771154Y-87702580D01*
X147751351Y-87723669D01*
X147690139Y-87759635D01*
X147619199Y-87756798D01*
X147561054Y-87716058D01*
X147534166Y-87650350D01*
X147533500Y-87637417D01*
X147533500Y-75241074D01*
X147553502Y-75172953D01*
X147565864Y-75156764D01*
X147646821Y-75066852D01*
X147646822Y-75066851D01*
X147651240Y-75061944D01*
X147732674Y-74920896D01*
X147743423Y-74902279D01*
X147743424Y-74902278D01*
X147746727Y-74896556D01*
X147805742Y-74714928D01*
X147806991Y-74703051D01*
X147825014Y-74531565D01*
X147825704Y-74525000D01*
X147815908Y-74431797D01*
X147806432Y-74341635D01*
X147806432Y-74341633D01*
X147805742Y-74335072D01*
X147746727Y-74153444D01*
X147739102Y-74140236D01*
X147709514Y-74088990D01*
X147651240Y-73988056D01*
X147523453Y-73846134D01*
X147368952Y-73733882D01*
X147362924Y-73731198D01*
X147362922Y-73731197D01*
X147200519Y-73658891D01*
X147200518Y-73658891D01*
X147194488Y-73656206D01*
X147101087Y-73636353D01*
X147014144Y-73617872D01*
X147014139Y-73617872D01*
X147007687Y-73616500D01*
X146816713Y-73616500D01*
X146810261Y-73617872D01*
X146810256Y-73617872D01*
X146723313Y-73636353D01*
X146629912Y-73656206D01*
X146623882Y-73658891D01*
X146623881Y-73658891D01*
X146461478Y-73731197D01*
X146461476Y-73731198D01*
X146455448Y-73733882D01*
X146300947Y-73846134D01*
X146173160Y-73988056D01*
X146114886Y-74088990D01*
X146085299Y-74140236D01*
X146077673Y-74153444D01*
X146018658Y-74335072D01*
X146017968Y-74341633D01*
X146017968Y-74341635D01*
X146008492Y-74431797D01*
X145998696Y-74525000D01*
X145999386Y-74531565D01*
X146017410Y-74703051D01*
X146018658Y-74714928D01*
X146077673Y-74896556D01*
X146080976Y-74902278D01*
X146080977Y-74902279D01*
X146091726Y-74920896D01*
X146173160Y-75061944D01*
X146177578Y-75066851D01*
X146177579Y-75066852D01*
X146234136Y-75129665D01*
X146264854Y-75193672D01*
X146266500Y-75213975D01*
X146266500Y-81149519D01*
X146246498Y-81217640D01*
X146192842Y-81264133D01*
X146122568Y-81274237D01*
X146114310Y-81272767D01*
X146058916Y-81260993D01*
X145950144Y-81237872D01*
X145950139Y-81237872D01*
X145943687Y-81236500D01*
X145752713Y-81236500D01*
X145746261Y-81237872D01*
X145746256Y-81237872D01*
X145659312Y-81256353D01*
X145565912Y-81276206D01*
X145559882Y-81278891D01*
X145559881Y-81278891D01*
X145397478Y-81351197D01*
X145397476Y-81351198D01*
X145391448Y-81353882D01*
X145236947Y-81466134D01*
X145232526Y-81471044D01*
X145232525Y-81471045D01*
X145136336Y-81577874D01*
X145075890Y-81615114D01*
X145004907Y-81613762D01*
X144945922Y-81574249D01*
X144917664Y-81509118D01*
X144916700Y-81493564D01*
X144916700Y-72866967D01*
X144917227Y-72855784D01*
X144918902Y-72848291D01*
X144916762Y-72780200D01*
X144916700Y-72776243D01*
X144916700Y-72748344D01*
X144916196Y-72744353D01*
X144915263Y-72732511D01*
X144915107Y-72727530D01*
X144913874Y-72688311D01*
X144911662Y-72680697D01*
X144911661Y-72680692D01*
X144908223Y-72668859D01*
X144904212Y-72649495D01*
X144902667Y-72637264D01*
X144901674Y-72629403D01*
X144898757Y-72622036D01*
X144898756Y-72622031D01*
X144885398Y-72588292D01*
X144881554Y-72577065D01*
X144879065Y-72568500D01*
X144869218Y-72534607D01*
X144858907Y-72517172D01*
X144850212Y-72499424D01*
X144842752Y-72480583D01*
X144816764Y-72444813D01*
X144810248Y-72434893D01*
X144791780Y-72403665D01*
X144791778Y-72403662D01*
X144787742Y-72396838D01*
X144773421Y-72382517D01*
X144760580Y-72367483D01*
X144753331Y-72357506D01*
X144748672Y-72351093D01*
X144742568Y-72346043D01*
X144742563Y-72346038D01*
X144714602Y-72322907D01*
X144705821Y-72314917D01*
X144056217Y-71665312D01*
X144022192Y-71603000D01*
X144024755Y-71539590D01*
X144037370Y-71498069D01*
X144066529Y-71276590D01*
X144068156Y-71210000D01*
X144049852Y-70987361D01*
X143995431Y-70770702D01*
X143906354Y-70565840D01*
X143785014Y-70378277D01*
X143634670Y-70213051D01*
X143630619Y-70209852D01*
X143630615Y-70209848D01*
X143463414Y-70077800D01*
X143463410Y-70077798D01*
X143459359Y-70074598D01*
X143263789Y-69966638D01*
X143258920Y-69964914D01*
X143258916Y-69964912D01*
X143058087Y-69893795D01*
X143058083Y-69893794D01*
X143053212Y-69892069D01*
X143048119Y-69891162D01*
X143048116Y-69891161D01*
X142838373Y-69853800D01*
X142838367Y-69853799D01*
X142833284Y-69852894D01*
X142759452Y-69851992D01*
X142615081Y-69850228D01*
X142615079Y-69850228D01*
X142609911Y-69850165D01*
X142389091Y-69883955D01*
X142176756Y-69953357D01*
X141978607Y-70056507D01*
X141974474Y-70059610D01*
X141974471Y-70059612D01*
X141806511Y-70185720D01*
X141799965Y-70190635D01*
X141796393Y-70194373D01*
X141688729Y-70307037D01*
X141645629Y-70352138D01*
X141538201Y-70509621D01*
X141483293Y-70554621D01*
X141412768Y-70562792D01*
X141349021Y-70531538D01*
X141328324Y-70507054D01*
X141247822Y-70382617D01*
X141247820Y-70382614D01*
X141245014Y-70378277D01*
X141094670Y-70213051D01*
X141090619Y-70209852D01*
X141090615Y-70209848D01*
X140923414Y-70077800D01*
X140923410Y-70077798D01*
X140919359Y-70074598D01*
X140723789Y-69966638D01*
X140718920Y-69964914D01*
X140718916Y-69964912D01*
X140518087Y-69893795D01*
X140518083Y-69893794D01*
X140513212Y-69892069D01*
X140508119Y-69891162D01*
X140508116Y-69891161D01*
X140298373Y-69853800D01*
X140298367Y-69853799D01*
X140293284Y-69852894D01*
X140219452Y-69851992D01*
X140075081Y-69850228D01*
X140075079Y-69850228D01*
X140069911Y-69850165D01*
X139849091Y-69883955D01*
X139636756Y-69953357D01*
X139438607Y-70056507D01*
X139434474Y-70059610D01*
X139434471Y-70059612D01*
X139266511Y-70185720D01*
X139259965Y-70190635D01*
X139203537Y-70249684D01*
X139179283Y-70275064D01*
X139117759Y-70310494D01*
X139046846Y-70307037D01*
X138989060Y-70265791D01*
X138970207Y-70232243D01*
X138928767Y-70121703D01*
X138925615Y-70113295D01*
X138838261Y-69996739D01*
X138721705Y-69909385D01*
X138585316Y-69858255D01*
X138523134Y-69851500D01*
X136726866Y-69851500D01*
X136664684Y-69858255D01*
X136528295Y-69909385D01*
X136521108Y-69914771D01*
X136513240Y-69919079D01*
X136512489Y-69917707D01*
X136455358Y-69939052D01*
X136385976Y-69923999D01*
X136335746Y-69873825D01*
X136320300Y-69813378D01*
X136320300Y-66862595D01*
X136340302Y-66794474D01*
X136357205Y-66773499D01*
X136841058Y-66289647D01*
X136849337Y-66282113D01*
X136855818Y-66278000D01*
X136902444Y-66228348D01*
X136905198Y-66225507D01*
X136924935Y-66205770D01*
X136927415Y-66202573D01*
X136935120Y-66193551D01*
X136959959Y-66167100D01*
X136965386Y-66161321D01*
X136969205Y-66154375D01*
X136969207Y-66154372D01*
X136975148Y-66143566D01*
X136985999Y-66127047D01*
X136993558Y-66117301D01*
X136998414Y-66111041D01*
X137001559Y-66103772D01*
X137001562Y-66103768D01*
X137015974Y-66070463D01*
X137021191Y-66059813D01*
X137042495Y-66021060D01*
X137046319Y-66006166D01*
X137082631Y-65945161D01*
X137146162Y-65913471D01*
X137168360Y-65911500D01*
X137556606Y-65911500D01*
X137624727Y-65931502D01*
X137645701Y-65948405D01*
X137740178Y-66042882D01*
X137774204Y-66105194D01*
X137772500Y-66165648D01*
X137751389Y-66241770D01*
X137750841Y-66246900D01*
X137750840Y-66246904D01*
X137748135Y-66272219D01*
X137727651Y-66463895D01*
X137740510Y-66686915D01*
X137741647Y-66691961D01*
X137741648Y-66691967D01*
X137754978Y-66751114D01*
X137789622Y-66904839D01*
X137807067Y-66947800D01*
X137863537Y-67086870D01*
X137873666Y-67111816D01*
X137990387Y-67302288D01*
X138136650Y-67471138D01*
X138308526Y-67613832D01*
X138501400Y-67726538D01*
X138710092Y-67806230D01*
X138715160Y-67807261D01*
X138715163Y-67807262D01*
X138775748Y-67819588D01*
X138928997Y-67850767D01*
X138934172Y-67850957D01*
X138934174Y-67850957D01*
X139147073Y-67858764D01*
X139147077Y-67858764D01*
X139152237Y-67858953D01*
X139157357Y-67858297D01*
X139157359Y-67858297D01*
X139368688Y-67831225D01*
X139368689Y-67831225D01*
X139373816Y-67830568D01*
X139389042Y-67826000D01*
X139582829Y-67767861D01*
X139582834Y-67767859D01*
X139587784Y-67766374D01*
X139788394Y-67668096D01*
X139970260Y-67538373D01*
X140078491Y-67430519D01*
X140140862Y-67396604D01*
X140211668Y-67401792D01*
X140268430Y-67444438D01*
X140285412Y-67475541D01*
X140329785Y-67593905D01*
X140417139Y-67710461D01*
X140533695Y-67797815D01*
X140670084Y-67848945D01*
X140732266Y-67855700D01*
X142528534Y-67855700D01*
X142590716Y-67848945D01*
X142727105Y-67797815D01*
X142843661Y-67710461D01*
X142931015Y-67593905D01*
X142982145Y-67457516D01*
X142988900Y-67395334D01*
X142988900Y-65599066D01*
X142982145Y-65536884D01*
X142931015Y-65400495D01*
X142843661Y-65283939D01*
X142727105Y-65196585D01*
X142590716Y-65145455D01*
X142528534Y-65138700D01*
X140732266Y-65138700D01*
X140670084Y-65145455D01*
X140533695Y-65196585D01*
X140417139Y-65283939D01*
X140329785Y-65400495D01*
X140326633Y-65408903D01*
X140285319Y-65519107D01*
X140242677Y-65575871D01*
X140176116Y-65600571D01*
X140106767Y-65585363D01*
X140074143Y-65559676D01*
X140023551Y-65504075D01*
X140023542Y-65504066D01*
X140020070Y-65500251D01*
X140016019Y-65497052D01*
X140016015Y-65497048D01*
X139848814Y-65365000D01*
X139848810Y-65364998D01*
X139844759Y-65361798D01*
X139649189Y-65253838D01*
X139644320Y-65252114D01*
X139644316Y-65252112D01*
X139443487Y-65180995D01*
X139443483Y-65180994D01*
X139438612Y-65179269D01*
X139433519Y-65178362D01*
X139433516Y-65178361D01*
X139223773Y-65141000D01*
X139223767Y-65140999D01*
X139218684Y-65140094D01*
X139144852Y-65139192D01*
X139000481Y-65137428D01*
X139000479Y-65137428D01*
X138995311Y-65137365D01*
X138774491Y-65171155D01*
X138761932Y-65175260D01*
X138690968Y-65177410D01*
X138633694Y-65144589D01*
X138374852Y-64885747D01*
X138367312Y-64877461D01*
X138363200Y-64870982D01*
X138313548Y-64824356D01*
X138310707Y-64821602D01*
X138290970Y-64801865D01*
X138287773Y-64799385D01*
X138278751Y-64791680D01*
X138246521Y-64761414D01*
X138239575Y-64757595D01*
X138239572Y-64757593D01*
X138228766Y-64751652D01*
X138212247Y-64740801D01*
X138211783Y-64740441D01*
X138196241Y-64728386D01*
X138155663Y-64710826D01*
X138101090Y-64665418D01*
X138079729Y-64597711D01*
X138098365Y-64529203D01*
X138116609Y-64506095D01*
X138533349Y-64089355D01*
X138595661Y-64055329D01*
X138647562Y-64054979D01*
X138827397Y-64091567D01*
X138832572Y-64091757D01*
X138832574Y-64091757D01*
X139045473Y-64099564D01*
X139045477Y-64099564D01*
X139050637Y-64099753D01*
X139055757Y-64099097D01*
X139055759Y-64099097D01*
X139267088Y-64072025D01*
X139267089Y-64072025D01*
X139272216Y-64071368D01*
X139277166Y-64069883D01*
X139481229Y-64008661D01*
X139481234Y-64008659D01*
X139486184Y-64007174D01*
X139686794Y-63908896D01*
X139868660Y-63779173D01*
X139976891Y-63671319D01*
X140039262Y-63637404D01*
X140110068Y-63642592D01*
X140166830Y-63685238D01*
X140183812Y-63716341D01*
X140228185Y-63834705D01*
X140315539Y-63951261D01*
X140432095Y-64038615D01*
X140568484Y-64089745D01*
X140630666Y-64096500D01*
X142426934Y-64096500D01*
X142489116Y-64089745D01*
X142625505Y-64038615D01*
X142742061Y-63951261D01*
X142829415Y-63834705D01*
X142880545Y-63698316D01*
X142887300Y-63636134D01*
X142887300Y-61839866D01*
X142880545Y-61777684D01*
X142829415Y-61641295D01*
X142742061Y-61524739D01*
X142625505Y-61437385D01*
X142489116Y-61386255D01*
X142426934Y-61379500D01*
X140630666Y-61379500D01*
X140568484Y-61386255D01*
X140432095Y-61437385D01*
X140315539Y-61524739D01*
X140228185Y-61641295D01*
X140225033Y-61649703D01*
X140183719Y-61759907D01*
X140141077Y-61816671D01*
X140074516Y-61841371D01*
X140005167Y-61826163D01*
X139972543Y-61800476D01*
X139921951Y-61744875D01*
X139921942Y-61744866D01*
X139918470Y-61741051D01*
X139914419Y-61737852D01*
X139914415Y-61737848D01*
X139747214Y-61605800D01*
X139747210Y-61605798D01*
X139743159Y-61602598D01*
X139547589Y-61494638D01*
X139542720Y-61492914D01*
X139542716Y-61492912D01*
X139341887Y-61421795D01*
X139341883Y-61421794D01*
X139337012Y-61420069D01*
X139331919Y-61419162D01*
X139331916Y-61419161D01*
X139122173Y-61381800D01*
X139122167Y-61381799D01*
X139117084Y-61380894D01*
X139043252Y-61379992D01*
X138898881Y-61378228D01*
X138898879Y-61378228D01*
X138893711Y-61378165D01*
X138672891Y-61411955D01*
X138460556Y-61481357D01*
X138262407Y-61584507D01*
X138258274Y-61587610D01*
X138258271Y-61587612D01*
X138102230Y-61704771D01*
X138083765Y-61718635D01*
X138045060Y-61759137D01*
X137946666Y-61862101D01*
X137929429Y-61880138D01*
X137803543Y-62064680D01*
X137787859Y-62098469D01*
X137753441Y-62172617D01*
X137709488Y-62267305D01*
X137649789Y-62482570D01*
X137626051Y-62704695D01*
X137638910Y-62927715D01*
X137640047Y-62932761D01*
X137640048Y-62932767D01*
X137672253Y-63075668D01*
X137667717Y-63146520D01*
X137638431Y-63192464D01*
X136056547Y-64774348D01*
X136048261Y-64781888D01*
X136041782Y-64786000D01*
X136036356Y-64791778D01*
X136036141Y-64792007D01*
X136018354Y-64807688D01*
X136018109Y-64807866D01*
X136018107Y-64807868D01*
X136011693Y-64812528D01*
X136006640Y-64818636D01*
X136006639Y-64818637D01*
X135983512Y-64846593D01*
X135975522Y-64855373D01*
X135972665Y-64858230D01*
X135970185Y-64861427D01*
X135962482Y-64870447D01*
X135932214Y-64902679D01*
X135928398Y-64909620D01*
X135928245Y-64909899D01*
X135914919Y-64929506D01*
X135914720Y-64929746D01*
X135914716Y-64929753D01*
X135909667Y-64935856D01*
X135906401Y-64942796D01*
X135906062Y-64943278D01*
X135904171Y-64946365D01*
X135903892Y-64946892D01*
X135899186Y-64952959D01*
X135896036Y-64960237D01*
X135896036Y-64960238D01*
X135881626Y-64993537D01*
X135876409Y-65004187D01*
X135855105Y-65042940D01*
X135853133Y-65050621D01*
X135851652Y-65054361D01*
X135807977Y-65110335D01*
X135740975Y-65133811D01*
X135671916Y-65117335D01*
X135622727Y-65066140D01*
X135608500Y-65007977D01*
X135608500Y-60578500D01*
X135628502Y-60510379D01*
X135682158Y-60463886D01*
X135734500Y-60452500D01*
X155321500Y-60452500D01*
X155389621Y-60472502D01*
G37*
%TD.AperFunction*%
%TD*%
M02*
