%TF.GenerationSoftware,KiCad,Pcbnew,6.0.8-f2edbf62ab~116~ubuntu22.04.1*%
%TF.CreationDate,2022-10-03T19:02:53-04:00*%
%TF.ProjectId,RaspberryPi_PicoProgrammer,52617370-6265-4727-9279-50695f506963,rev?*%
%TF.SameCoordinates,Original*%
%TF.FileFunction,Legend,Top*%
%TF.FilePolarity,Positive*%
%FSLAX46Y46*%
G04 Gerber Fmt 4.6, Leading zero omitted, Abs format (unit mm)*
G04 Created by KiCad (PCBNEW 6.0.8-f2edbf62ab~116~ubuntu22.04.1) date 2022-10-03 19:02:53*
%MOMM*%
%LPD*%
G01*
G04 APERTURE LIST*
%ADD10C,0.150000*%
%ADD11C,0.120000*%
G04 APERTURE END LIST*
D10*
X160969837Y-91696875D02*
X160964570Y-92173036D01*
X161440205Y-92225919D01*
X161393116Y-92177776D01*
X161346553Y-92082017D01*
X161349186Y-91843936D01*
X161397855Y-91749231D01*
X161445998Y-91702141D01*
X161541757Y-91655578D01*
X161779838Y-91658211D01*
X161874543Y-91706881D01*
X161921633Y-91755024D01*
X161968196Y-91850783D01*
X161965563Y-92088863D01*
X161916893Y-92183569D01*
X161868750Y-92230658D01*
X160980369Y-90744552D02*
X160975103Y-91220714D01*
X161450738Y-91273596D01*
X161403648Y-91225453D01*
X161357085Y-91129694D01*
X161359719Y-90891614D01*
X161408388Y-90796908D01*
X161456531Y-90749818D01*
X161552290Y-90703256D01*
X161790370Y-90705889D01*
X161885076Y-90754558D01*
X161932165Y-90802701D01*
X161978728Y-90898460D01*
X161976095Y-91136541D01*
X161927426Y-91231246D01*
X161879283Y-91278336D01*
X161890342Y-90278397D02*
X161938485Y-90231307D01*
X161985575Y-90279450D01*
X161937432Y-90326540D01*
X161890342Y-90278397D01*
X161985575Y-90279450D01*
X161996634Y-89279511D02*
X161990314Y-89850905D01*
X161993474Y-89565208D02*
X160993535Y-89554149D01*
X161135330Y-89650961D01*
X161229509Y-89747247D01*
X161276072Y-89843005D01*
X161096140Y-88888576D02*
X161049051Y-88840433D01*
X161002488Y-88744675D01*
X161005121Y-88506594D01*
X161053790Y-88411888D01*
X161101933Y-88364799D01*
X161197692Y-88318236D01*
X161292924Y-88319289D01*
X161435246Y-88368485D01*
X162000320Y-88946198D01*
X162007166Y-88327189D01*
X162017699Y-87374866D02*
X162011379Y-87946259D01*
X162014539Y-87660563D02*
X161014600Y-87649503D01*
X161156395Y-87746316D01*
X161250574Y-87842601D01*
X161297137Y-87938360D01*
X161360552Y-86510403D02*
X162027178Y-86517775D01*
X160976990Y-86744270D02*
X161688599Y-86990250D01*
X161695445Y-86371241D01*
X162041397Y-85232140D02*
X161374771Y-85224767D01*
X161470004Y-85225820D02*
X161422914Y-85177677D01*
X161376351Y-85081918D01*
X161377931Y-84939070D01*
X161426601Y-84844364D01*
X161522359Y-84797802D01*
X162046137Y-84803594D01*
X161522359Y-84797802D02*
X161427654Y-84749132D01*
X161381091Y-84653373D01*
X161382671Y-84510525D01*
X161431340Y-84415819D01*
X161527099Y-84369256D01*
X162050877Y-84375049D01*
X162056143Y-83898888D02*
X161389517Y-83891515D01*
X161484749Y-83892568D02*
X161437660Y-83844426D01*
X161391097Y-83748667D01*
X161392677Y-83605818D01*
X161441346Y-83511113D01*
X161537105Y-83464550D01*
X162060883Y-83470343D01*
X161537105Y-83464550D02*
X161442399Y-83415880D01*
X161395837Y-83320121D01*
X161397416Y-83177273D01*
X161446086Y-83082567D01*
X161541845Y-83036005D01*
X162065622Y-83041797D01*
X156862369Y-115118330D02*
X162994227Y-115186148D01*
X157471969Y-60000330D02*
X163603827Y-60068148D01*
X162407843Y-115179662D02*
X163017443Y-60061662D01*
X162407843Y-115179662D02*
X163017443Y-60061662D01*
X162407843Y-115179662D02*
X163006686Y-114059712D01*
X162407843Y-115179662D02*
X161833916Y-114046742D01*
X163017443Y-60061662D02*
X162418600Y-61181612D01*
X163017443Y-60061662D02*
X163591370Y-61194582D01*
X140897552Y-117218819D02*
X140945171Y-117171200D01*
X141040409Y-117123580D01*
X141278504Y-117123580D01*
X141373742Y-117171200D01*
X141421361Y-117218819D01*
X141468980Y-117314057D01*
X141468980Y-117409295D01*
X141421361Y-117552152D01*
X140849933Y-118123580D01*
X141468980Y-118123580D01*
X142088028Y-117123580D02*
X142183266Y-117123580D01*
X142278504Y-117171200D01*
X142326123Y-117218819D01*
X142373742Y-117314057D01*
X142421361Y-117504533D01*
X142421361Y-117742628D01*
X142373742Y-117933104D01*
X142326123Y-118028342D01*
X142278504Y-118075961D01*
X142183266Y-118123580D01*
X142088028Y-118123580D01*
X141992790Y-118075961D01*
X141945171Y-118028342D01*
X141897552Y-117933104D01*
X141849933Y-117742628D01*
X141849933Y-117504533D01*
X141897552Y-117314057D01*
X141945171Y-117218819D01*
X141992790Y-117171200D01*
X142088028Y-117123580D01*
X142849933Y-118028342D02*
X142897552Y-118075961D01*
X142849933Y-118123580D01*
X142802314Y-118075961D01*
X142849933Y-118028342D01*
X142849933Y-118123580D01*
X143230885Y-117123580D02*
X143897552Y-117123580D01*
X143468980Y-118123580D01*
X144183266Y-117123580D02*
X144849933Y-117123580D01*
X144421361Y-118123580D01*
X145135647Y-117123580D02*
X145802314Y-117123580D01*
X145373742Y-118123580D01*
X146135647Y-117218819D02*
X146183266Y-117171200D01*
X146278504Y-117123580D01*
X146516600Y-117123580D01*
X146611838Y-117171200D01*
X146659457Y-117218819D01*
X146707076Y-117314057D01*
X146707076Y-117409295D01*
X146659457Y-117552152D01*
X146088028Y-118123580D01*
X146707076Y-118123580D01*
X147897552Y-118123580D02*
X147897552Y-117456914D01*
X147897552Y-117552152D02*
X147945171Y-117504533D01*
X148040409Y-117456914D01*
X148183266Y-117456914D01*
X148278504Y-117504533D01*
X148326123Y-117599771D01*
X148326123Y-118123580D01*
X148326123Y-117599771D02*
X148373742Y-117504533D01*
X148468980Y-117456914D01*
X148611838Y-117456914D01*
X148707076Y-117504533D01*
X148754695Y-117599771D01*
X148754695Y-118123580D01*
X149230885Y-118123580D02*
X149230885Y-117456914D01*
X149230885Y-117552152D02*
X149278504Y-117504533D01*
X149373742Y-117456914D01*
X149516600Y-117456914D01*
X149611838Y-117504533D01*
X149659457Y-117599771D01*
X149659457Y-118123580D01*
X149659457Y-117599771D02*
X149707076Y-117504533D01*
X149802314Y-117456914D01*
X149945171Y-117456914D01*
X150040409Y-117504533D01*
X150088028Y-117599771D01*
X150088028Y-118123580D01*
X135128000Y-116324000D02*
X135128000Y-119407620D01*
X155905200Y-116324000D02*
X155905200Y-119407620D01*
X135128000Y-118821200D02*
X155905200Y-118821200D01*
X135128000Y-118821200D02*
X155905200Y-118821200D01*
X135128000Y-118821200D02*
X136254504Y-119407621D01*
X135128000Y-118821200D02*
X136254504Y-118234779D01*
X155905200Y-118821200D02*
X154778696Y-118234779D01*
X155905200Y-118821200D02*
X154778696Y-119407621D01*
X138151980Y-69595904D02*
X138151980Y-69024476D01*
X139151980Y-69310190D02*
X138151980Y-69310190D01*
X138151980Y-68786380D02*
X139151980Y-68119714D01*
X138151980Y-68119714D02*
X139151980Y-68786380D01*
X140761980Y-69572095D02*
X139761980Y-69572095D01*
X139761980Y-69334000D01*
X139809600Y-69191142D01*
X139904838Y-69095904D01*
X140000076Y-69048285D01*
X140190552Y-69000666D01*
X140333409Y-69000666D01*
X140523885Y-69048285D01*
X140619123Y-69095904D01*
X140714361Y-69191142D01*
X140761980Y-69334000D01*
X140761980Y-69572095D01*
X139761980Y-68381619D02*
X139761980Y-68286380D01*
X139809600Y-68191142D01*
X139857219Y-68143523D01*
X139952457Y-68095904D01*
X140142933Y-68048285D01*
X140381028Y-68048285D01*
X140571504Y-68095904D01*
X140666742Y-68143523D01*
X140714361Y-68191142D01*
X140761980Y-68286380D01*
X140761980Y-68381619D01*
X140714361Y-68476857D01*
X140666742Y-68524476D01*
X140571504Y-68572095D01*
X140381028Y-68619714D01*
X140142933Y-68619714D01*
X139952457Y-68572095D01*
X139857219Y-68524476D01*
X139809600Y-68476857D01*
X139761980Y-68381619D01*
X142371980Y-69572095D02*
X141371980Y-69572095D01*
X141371980Y-69334000D01*
X141419600Y-69191142D01*
X141514838Y-69095904D01*
X141610076Y-69048285D01*
X141800552Y-69000666D01*
X141943409Y-69000666D01*
X142133885Y-69048285D01*
X142229123Y-69095904D01*
X142324361Y-69191142D01*
X142371980Y-69334000D01*
X142371980Y-69572095D01*
X142371980Y-68048285D02*
X142371980Y-68619714D01*
X142371980Y-68334000D02*
X141371980Y-68334000D01*
X141514838Y-68429238D01*
X141610076Y-68524476D01*
X141657695Y-68619714D01*
X139050380Y-76315866D02*
X138574190Y-76649200D01*
X139050380Y-76887295D02*
X138050380Y-76887295D01*
X138050380Y-76506342D01*
X138098000Y-76411104D01*
X138145619Y-76363485D01*
X138240857Y-76315866D01*
X138383714Y-76315866D01*
X138478952Y-76363485D01*
X138526571Y-76411104D01*
X138574190Y-76506342D01*
X138574190Y-76887295D01*
X138050380Y-75982533D02*
X139050380Y-75315866D01*
X138050380Y-75315866D02*
X139050380Y-75982533D01*
X140565142Y-76315866D02*
X140612761Y-76363485D01*
X140660380Y-76506342D01*
X140660380Y-76601580D01*
X140612761Y-76744438D01*
X140517523Y-76839676D01*
X140422285Y-76887295D01*
X140231809Y-76934914D01*
X140088952Y-76934914D01*
X139898476Y-76887295D01*
X139803238Y-76839676D01*
X139708000Y-76744438D01*
X139660380Y-76601580D01*
X139660380Y-76506342D01*
X139708000Y-76363485D01*
X139755619Y-76315866D01*
X139660380Y-75696819D02*
X139660380Y-75601580D01*
X139708000Y-75506342D01*
X139755619Y-75458723D01*
X139850857Y-75411104D01*
X140041333Y-75363485D01*
X140279428Y-75363485D01*
X140469904Y-75411104D01*
X140565142Y-75458723D01*
X140612761Y-75506342D01*
X140660380Y-75601580D01*
X140660380Y-75696819D01*
X140612761Y-75792057D01*
X140565142Y-75839676D01*
X140469904Y-75887295D01*
X140279428Y-75934914D01*
X140041333Y-75934914D01*
X139850857Y-75887295D01*
X139755619Y-75839676D01*
X139708000Y-75792057D01*
X139660380Y-75696819D01*
X142175142Y-76315866D02*
X142222761Y-76363485D01*
X142270380Y-76506342D01*
X142270380Y-76601580D01*
X142222761Y-76744438D01*
X142127523Y-76839676D01*
X142032285Y-76887295D01*
X141841809Y-76934914D01*
X141698952Y-76934914D01*
X141508476Y-76887295D01*
X141413238Y-76839676D01*
X141318000Y-76744438D01*
X141270380Y-76601580D01*
X141270380Y-76506342D01*
X141318000Y-76363485D01*
X141365619Y-76315866D01*
X142270380Y-75363485D02*
X142270380Y-75934914D01*
X142270380Y-75649200D02*
X141270380Y-75649200D01*
X141413238Y-75744438D01*
X141508476Y-75839676D01*
X141556095Y-75934914D01*
%TO.C,J4*%
X139330780Y-96483333D02*
X140045066Y-96483333D01*
X140187923Y-96530952D01*
X140283161Y-96626190D01*
X140330780Y-96769047D01*
X140330780Y-96864285D01*
X139664114Y-95578571D02*
X140330780Y-95578571D01*
X139283161Y-95816666D02*
X139997447Y-96054761D01*
X139997447Y-95435714D01*
X137902380Y-96150000D02*
X138140476Y-96150000D01*
X138045238Y-96388095D02*
X138140476Y-96150000D01*
X138045238Y-95911904D01*
X138330952Y-96292857D02*
X138140476Y-96150000D01*
X138330952Y-96007142D01*
%TO.C,J3*%
X134307380Y-72813333D02*
X135021666Y-72813333D01*
X135164523Y-72860952D01*
X135259761Y-72956190D01*
X135307380Y-73099047D01*
X135307380Y-73194285D01*
X134307380Y-72432380D02*
X134307380Y-71813333D01*
X134688333Y-72146666D01*
X134688333Y-72003809D01*
X134735952Y-71908571D01*
X134783571Y-71860952D01*
X134878809Y-71813333D01*
X135116904Y-71813333D01*
X135212142Y-71860952D01*
X135259761Y-71908571D01*
X135307380Y-72003809D01*
X135307380Y-72289523D01*
X135259761Y-72384761D01*
X135212142Y-72432380D01*
%TO.C,J5*%
X151686666Y-60122380D02*
X151686666Y-60836666D01*
X151639047Y-60979523D01*
X151543809Y-61074761D01*
X151400952Y-61122380D01*
X151305714Y-61122380D01*
X152639047Y-60122380D02*
X152162857Y-60122380D01*
X152115238Y-60598571D01*
X152162857Y-60550952D01*
X152258095Y-60503333D01*
X152496190Y-60503333D01*
X152591428Y-60550952D01*
X152639047Y-60598571D01*
X152686666Y-60693809D01*
X152686666Y-60931904D01*
X152639047Y-61027142D01*
X152591428Y-61074761D01*
X152496190Y-61122380D01*
X152258095Y-61122380D01*
X152162857Y-61074761D01*
X152115238Y-61027142D01*
%TO.C,3.3*%
X143412780Y-67544819D02*
X143412780Y-66925771D01*
X143793733Y-67259104D01*
X143793733Y-67116247D01*
X143841352Y-67021009D01*
X143888971Y-66973390D01*
X143984209Y-66925771D01*
X144222304Y-66925771D01*
X144317542Y-66973390D01*
X144365161Y-67021009D01*
X144412780Y-67116247D01*
X144412780Y-67401961D01*
X144365161Y-67497200D01*
X144317542Y-67544819D01*
X144317542Y-66497200D02*
X144365161Y-66449580D01*
X144412780Y-66497200D01*
X144365161Y-66544819D01*
X144317542Y-66497200D01*
X144412780Y-66497200D01*
X143412780Y-66116247D02*
X143412780Y-65497200D01*
X143793733Y-65830533D01*
X143793733Y-65687676D01*
X143841352Y-65592438D01*
X143888971Y-65544819D01*
X143984209Y-65497200D01*
X144222304Y-65497200D01*
X144317542Y-65544819D01*
X144365161Y-65592438D01*
X144412780Y-65687676D01*
X144412780Y-65973390D01*
X144365161Y-66068628D01*
X144317542Y-66116247D01*
%TO.C,5v*%
X143311180Y-62880857D02*
X143311180Y-63357047D01*
X143787371Y-63404666D01*
X143739752Y-63357047D01*
X143692133Y-63261809D01*
X143692133Y-63023714D01*
X143739752Y-62928476D01*
X143787371Y-62880857D01*
X143882609Y-62833238D01*
X144120704Y-62833238D01*
X144215942Y-62880857D01*
X144263561Y-62928476D01*
X144311180Y-63023714D01*
X144311180Y-63261809D01*
X144263561Y-63357047D01*
X144215942Y-63404666D01*
X143644514Y-62499904D02*
X144311180Y-62261809D01*
X143644514Y-62023714D01*
%TO.C,SWD_Headers*%
X147673961Y-112129295D02*
X147721580Y-111986438D01*
X147721580Y-111748342D01*
X147673961Y-111653104D01*
X147626342Y-111605485D01*
X147531104Y-111557866D01*
X147435866Y-111557866D01*
X147340628Y-111605485D01*
X147293009Y-111653104D01*
X147245390Y-111748342D01*
X147197771Y-111938819D01*
X147150152Y-112034057D01*
X147102533Y-112081676D01*
X147007295Y-112129295D01*
X146912057Y-112129295D01*
X146816819Y-112081676D01*
X146769200Y-112034057D01*
X146721580Y-111938819D01*
X146721580Y-111700723D01*
X146769200Y-111557866D01*
X146721580Y-111224533D02*
X147721580Y-110986438D01*
X147007295Y-110795961D01*
X147721580Y-110605485D01*
X146721580Y-110367390D01*
X147721580Y-109986438D02*
X146721580Y-109986438D01*
X146721580Y-109748342D01*
X146769200Y-109605485D01*
X146864438Y-109510247D01*
X146959676Y-109462628D01*
X147150152Y-109415009D01*
X147293009Y-109415009D01*
X147483485Y-109462628D01*
X147578723Y-109510247D01*
X147673961Y-109605485D01*
X147721580Y-109748342D01*
X147721580Y-109986438D01*
X147816819Y-109224533D02*
X147816819Y-108462628D01*
X147721580Y-108224533D02*
X146721580Y-108224533D01*
X147197771Y-108224533D02*
X147197771Y-107653104D01*
X147721580Y-107653104D02*
X146721580Y-107653104D01*
X147673961Y-106795961D02*
X147721580Y-106891200D01*
X147721580Y-107081676D01*
X147673961Y-107176914D01*
X147578723Y-107224533D01*
X147197771Y-107224533D01*
X147102533Y-107176914D01*
X147054914Y-107081676D01*
X147054914Y-106891200D01*
X147102533Y-106795961D01*
X147197771Y-106748342D01*
X147293009Y-106748342D01*
X147388247Y-107224533D01*
X147721580Y-105891200D02*
X147197771Y-105891200D01*
X147102533Y-105938819D01*
X147054914Y-106034057D01*
X147054914Y-106224533D01*
X147102533Y-106319771D01*
X147673961Y-105891200D02*
X147721580Y-105986438D01*
X147721580Y-106224533D01*
X147673961Y-106319771D01*
X147578723Y-106367390D01*
X147483485Y-106367390D01*
X147388247Y-106319771D01*
X147340628Y-106224533D01*
X147340628Y-105986438D01*
X147293009Y-105891200D01*
X147721580Y-104986438D02*
X146721580Y-104986438D01*
X147673961Y-104986438D02*
X147721580Y-105081676D01*
X147721580Y-105272152D01*
X147673961Y-105367390D01*
X147626342Y-105415009D01*
X147531104Y-105462628D01*
X147245390Y-105462628D01*
X147150152Y-105415009D01*
X147102533Y-105367390D01*
X147054914Y-105272152D01*
X147054914Y-105081676D01*
X147102533Y-104986438D01*
X147673961Y-104129295D02*
X147721580Y-104224533D01*
X147721580Y-104415009D01*
X147673961Y-104510247D01*
X147578723Y-104557866D01*
X147197771Y-104557866D01*
X147102533Y-104510247D01*
X147054914Y-104415009D01*
X147054914Y-104224533D01*
X147102533Y-104129295D01*
X147197771Y-104081676D01*
X147293009Y-104081676D01*
X147388247Y-104557866D01*
X147721580Y-103653104D02*
X147054914Y-103653104D01*
X147245390Y-103653104D02*
X147150152Y-103605485D01*
X147102533Y-103557866D01*
X147054914Y-103462628D01*
X147054914Y-103367390D01*
X147673961Y-103081676D02*
X147721580Y-102986438D01*
X147721580Y-102795961D01*
X147673961Y-102700723D01*
X147578723Y-102653104D01*
X147531104Y-102653104D01*
X147435866Y-102700723D01*
X147388247Y-102795961D01*
X147388247Y-102938819D01*
X147340628Y-103034057D01*
X147245390Y-103081676D01*
X147197771Y-103081676D01*
X147102533Y-103034057D01*
X147054914Y-102938819D01*
X147054914Y-102795961D01*
X147102533Y-102700723D01*
%TO.C,J1*%
X134821380Y-89588933D02*
X135535666Y-89588933D01*
X135678523Y-89636552D01*
X135773761Y-89731790D01*
X135821380Y-89874647D01*
X135821380Y-89969885D01*
X135821380Y-88588933D02*
X135821380Y-89160361D01*
X135821380Y-88874647D02*
X134821380Y-88874647D01*
X134964238Y-88969885D01*
X135059476Y-89065123D01*
X135107095Y-89160361D01*
D11*
%TO.C,J4*%
X140380400Y-98778900D02*
X140380400Y-97812941D01*
X140380400Y-94487059D02*
X140380400Y-93521100D01*
X140380400Y-93521100D02*
X138638641Y-93521100D01*
X136519600Y-94830440D02*
X136519600Y-97469560D01*
X138638641Y-98778900D02*
X140380400Y-98778900D01*
X140259400Y-99413900D02*
G75*
G03*
X140259400Y-99413900I-381000J0D01*
G01*
%TO.C,J3*%
X136295000Y-75080000D02*
X136295000Y-72480000D01*
X136295000Y-72480000D02*
X138895000Y-72480000D01*
X136295000Y-71210000D02*
X136295000Y-69880000D01*
X136295000Y-69880000D02*
X137625000Y-69880000D01*
X144035000Y-75080000D02*
X144035000Y-69880000D01*
X138895000Y-72480000D02*
X138895000Y-69880000D01*
X136295000Y-75080000D02*
X144035000Y-75080000D01*
X138895000Y-69880000D02*
X144035000Y-69880000D01*
%TO.C,J5*%
X154620000Y-61670000D02*
X154620000Y-112590000D01*
X149420000Y-61670000D02*
X150750000Y-61670000D01*
X152020000Y-61670000D02*
X154620000Y-61670000D01*
X152020000Y-64270000D02*
X152020000Y-61670000D01*
X149420000Y-64270000D02*
X149420000Y-112590000D01*
X149420000Y-63000000D02*
X149420000Y-61670000D01*
X149420000Y-112590000D02*
X154620000Y-112590000D01*
X149420000Y-64270000D02*
X152020000Y-64270000D01*
%TO.C,3.3*%
X141630400Y-65167200D02*
X142960400Y-65167200D01*
X140360400Y-65167200D02*
X140360400Y-67827200D01*
X137760400Y-65167200D02*
X137760400Y-67827200D01*
X140360400Y-65167200D02*
X137760400Y-65167200D01*
X140360400Y-67827200D02*
X137760400Y-67827200D01*
X142960400Y-65167200D02*
X142960400Y-66497200D01*
%TO.C,5v*%
X141528800Y-61408000D02*
X142858800Y-61408000D01*
X142858800Y-61408000D02*
X142858800Y-62738000D01*
X137658800Y-61408000D02*
X137658800Y-64068000D01*
X140258800Y-61408000D02*
X137658800Y-61408000D01*
X140258800Y-61408000D02*
X140258800Y-64068000D01*
X140258800Y-64068000D02*
X137658800Y-64068000D01*
%TO.C,SWD_Headers*%
X141950000Y-108870000D02*
X135950000Y-108870000D01*
X135950000Y-108870000D02*
X135950000Y-108110000D01*
X141950000Y-110990000D02*
X135950000Y-110990000D01*
X141950000Y-111350000D02*
X135950000Y-111350000D01*
X145007071Y-108110000D02*
X144610000Y-108110000D01*
X145007071Y-108870000D02*
X144610000Y-108870000D01*
X141950000Y-110870000D02*
X135950000Y-110870000D01*
X145007071Y-106330000D02*
X144610000Y-106330000D01*
X144940000Y-111410000D02*
X144610000Y-111410000D01*
X135950000Y-110650000D02*
X141950000Y-110650000D01*
X141950000Y-111410000D02*
X135950000Y-111410000D01*
X144610000Y-104620000D02*
X141950000Y-104620000D01*
X135950000Y-111410000D02*
X135950000Y-110650000D01*
X145007071Y-105570000D02*
X144610000Y-105570000D01*
X147320000Y-112300000D02*
X146050000Y-112300000D01*
X135950000Y-105570000D02*
X141950000Y-105570000D01*
X147320000Y-111030000D02*
X147320000Y-112300000D01*
X141950000Y-106330000D02*
X135950000Y-106330000D01*
X141950000Y-111110000D02*
X135950000Y-111110000D01*
X141950000Y-112360000D02*
X144610000Y-112360000D01*
X135950000Y-108110000D02*
X141950000Y-108110000D01*
X144940000Y-110650000D02*
X144610000Y-110650000D01*
X144610000Y-107220000D02*
X141950000Y-107220000D01*
X135950000Y-106330000D02*
X135950000Y-105570000D01*
X141950000Y-111230000D02*
X135950000Y-111230000D01*
X144610000Y-109760000D02*
X141950000Y-109760000D01*
X141950000Y-110750000D02*
X135950000Y-110750000D01*
X141950000Y-104620000D02*
X141950000Y-112360000D01*
X144610000Y-112360000D02*
X144610000Y-104620000D01*
%TO.C,J1*%
X142569900Y-90144600D02*
X142569900Y-86870540D01*
X136804100Y-90144600D02*
X142569900Y-90144600D01*
X142569900Y-80464660D02*
X142569900Y-77190600D01*
X136804100Y-77190600D02*
X136804100Y-80464660D01*
X136804100Y-86870540D02*
X136804100Y-90144600D01*
X142569900Y-77190600D02*
X136804100Y-77190600D01*
X136385000Y-81127600D02*
G75*
G03*
X136385000Y-81127600I-381000J0D01*
G01*
%TD*%
M02*
