M48
; DRILL file {KiCad 6.0.8-f2edbf62ab~116~ubuntu22.04.1} date Mon 03 Oct 2022 07:02:56 PM EDT
; FORMAT={-:-/ absolute / inch / decimal}
; #@! TF.CreationDate,2022-10-03T19:02:56-04:00
; #@! TF.GenerationSoftware,Kicad,Pcbnew,6.0.8-f2edbf62ab~116~ubuntu22.04.1
; #@! TF.FileFunction,Plated,1,2,PTH
FMAT,2
INCH
; #@! TA.AperFunction,Plated,PTH,ViaDrill
T1C0.0157
; #@! TA.AperFunction,Plated,PTH,ComponentDrill
T2C0.0394
%
G90
G05
T1
X5.342Y-3.398
X5.384Y-3.118
X5.5749Y-3.0949
X5.58Y-3.828
X5.592Y-3.452
X5.604Y-3.522
X5.608Y-3.906
X5.6519Y-3.3901
X5.7421Y-3.2341
X5.7839Y-2.9341
X5.834Y-3.816
X5.872Y-3.434
T2
X5.4183Y-2.8035
X5.4183Y-2.9035
X5.472Y-2.47
X5.476Y-2.618
X5.5183Y-2.8035
X5.5183Y-2.9035
X5.572Y-2.47
X5.576Y-2.618
X5.6183Y-2.8035
X5.6183Y-2.9035
X5.75Y-4.1713
X5.75Y-4.2713
X5.75Y-4.3713
X5.935Y-2.4803
X5.935Y-2.5803
X5.935Y-2.6803
X5.935Y-2.7803
X5.935Y-2.8803
X5.935Y-2.9803
X5.935Y-3.0803
X5.935Y-3.1803
X5.935Y-3.2803
X5.935Y-3.3803
X5.935Y-3.4803
X5.935Y-3.5803
X5.935Y-3.6803
X5.935Y-3.7803
X5.935Y-3.8803
X5.935Y-3.9803
X5.935Y-4.0803
X5.935Y-4.1803
X5.935Y-4.2803
X5.935Y-4.3803
X6.035Y-2.4803
X6.035Y-2.5803
X6.035Y-2.6803
X6.035Y-2.7803
X6.035Y-2.8803
X6.035Y-2.9803
X6.035Y-3.0803
X6.035Y-3.1803
X6.035Y-3.2803
X6.035Y-3.3803
X6.035Y-3.4803
X6.035Y-3.5803
X6.035Y-3.6803
X6.035Y-3.7803
X6.035Y-3.8803
X6.035Y-3.9803
X6.035Y-4.0803
X6.035Y-4.1803
X6.035Y-4.2803
X6.035Y-4.3803
T0
M30
