%TF.GenerationSoftware,KiCad,Pcbnew,6.0.8-f2edbf62ab~116~ubuntu22.04.1*%
%TF.CreationDate,2022-10-04T06:10:33-04:00*%
%TF.ProjectId,PicoProbeProgrammerBoard,5069636f-5072-46f6-9265-50726f677261,rev?*%
%TF.SameCoordinates,Original*%
%TF.FileFunction,Soldermask,Top*%
%TF.FilePolarity,Negative*%
%FSLAX46Y46*%
G04 Gerber Fmt 4.6, Leading zero omitted, Abs format (unit mm)*
G04 Created by KiCad (PCBNEW 6.0.8-f2edbf62ab~116~ubuntu22.04.1) date 2022-10-04 06:10:33*
%MOMM*%
%LPD*%
G01*
G04 APERTURE LIST*
%ADD10R,1.700000X1.700000*%
%ADD11O,1.700000X1.700000*%
%ADD12R,0.660400X1.549400*%
%ADD13R,1.295400X1.905000*%
%ADD14R,0.660400X2.768600*%
%ADD15O,1.500000X1.500000*%
%ADD16O,1.800000X1.800000*%
%ADD17R,3.500000X1.700000*%
%ADD18R,1.700000X3.500000*%
G04 APERTURE END LIST*
D10*
%TO.C,J2*%
X118618000Y-75184000D03*
D11*
X118618000Y-77724000D03*
X118618000Y-80264000D03*
X118618000Y-82804000D03*
X118618000Y-85344000D03*
X118618000Y-87884000D03*
X118618000Y-90424000D03*
%TD*%
D12*
%TO.C,J4*%
X140100001Y-88771600D03*
X139100000Y-88771600D03*
X138099999Y-88771600D03*
D13*
X136800000Y-91296599D03*
X141400000Y-91296599D03*
%TD*%
D10*
%TO.C,ExtraConns*%
X132461000Y-80264000D03*
D11*
X135001000Y-80264000D03*
X132461000Y-77724000D03*
X135001000Y-77724000D03*
X132461000Y-75184000D03*
X135001000Y-75184000D03*
%TD*%
D10*
%TO.C,3v3*%
X127254000Y-75184000D03*
D11*
X127254000Y-77724000D03*
%TD*%
D10*
%TO.C,5v*%
X123444000Y-75184000D03*
D11*
X123444000Y-77724000D03*
%TD*%
D14*
%TO.C,J1*%
X124841000Y-90779000D03*
X124841000Y-87249000D03*
X126111000Y-90779000D03*
X126111000Y-87249000D03*
X127381000Y-90779000D03*
X127381000Y-87249000D03*
X128651000Y-90779000D03*
X128651000Y-87249000D03*
X129921000Y-90779000D03*
X129921000Y-87249000D03*
%TD*%
D15*
%TO.C,U1*%
X131175000Y-24180000D03*
X126325000Y-24180000D03*
D16*
X126025000Y-21150000D03*
X131475000Y-21150000D03*
D17*
X118960000Y-21020000D03*
D11*
X119860000Y-21020000D03*
D17*
X118960000Y-23560000D03*
D11*
X119860000Y-23560000D03*
D17*
X118960000Y-26100000D03*
D10*
X119860000Y-26100000D03*
D11*
X119860000Y-28640000D03*
D17*
X118960000Y-28640000D03*
X118960000Y-31180000D03*
D11*
X119860000Y-31180000D03*
X119860000Y-33720000D03*
D17*
X118960000Y-33720000D03*
D11*
X119860000Y-36260000D03*
D17*
X118960000Y-36260000D03*
D10*
X119860000Y-38800000D03*
D17*
X118960000Y-38800000D03*
D11*
X119860000Y-41340000D03*
D17*
X118960000Y-41340000D03*
X118960000Y-43880000D03*
D11*
X119860000Y-43880000D03*
X119860000Y-46420000D03*
D17*
X118960000Y-46420000D03*
D11*
X119860000Y-48960000D03*
D17*
X118960000Y-48960000D03*
D10*
X119860000Y-51500000D03*
D17*
X118960000Y-51500000D03*
D11*
X119860000Y-54040000D03*
D17*
X118960000Y-54040000D03*
X118960000Y-56580000D03*
D11*
X119860000Y-56580000D03*
X119860000Y-59120000D03*
D17*
X118960000Y-59120000D03*
X118960000Y-61660000D03*
D11*
X119860000Y-61660000D03*
D10*
X119860000Y-64200000D03*
D17*
X118960000Y-64200000D03*
D11*
X119860000Y-66740000D03*
D17*
X118960000Y-66740000D03*
D11*
X119860000Y-69280000D03*
D17*
X118960000Y-69280000D03*
X138540000Y-69280000D03*
D11*
X137640000Y-69280000D03*
D17*
X138540000Y-66740000D03*
D11*
X137640000Y-66740000D03*
D10*
X137640000Y-64200000D03*
D17*
X138540000Y-64200000D03*
D11*
X137640000Y-61660000D03*
D17*
X138540000Y-61660000D03*
X138540000Y-59120000D03*
D11*
X137640000Y-59120000D03*
D17*
X138540000Y-56580000D03*
D11*
X137640000Y-56580000D03*
D17*
X138540000Y-54040000D03*
D11*
X137640000Y-54040000D03*
D10*
X137640000Y-51500000D03*
D17*
X138540000Y-51500000D03*
X138540000Y-48960000D03*
D11*
X137640000Y-48960000D03*
D17*
X138540000Y-46420000D03*
D11*
X137640000Y-46420000D03*
D17*
X138540000Y-43880000D03*
D11*
X137640000Y-43880000D03*
D17*
X138540000Y-41340000D03*
D11*
X137640000Y-41340000D03*
D17*
X138540000Y-38800000D03*
D10*
X137640000Y-38800000D03*
D11*
X137640000Y-36260000D03*
D17*
X138540000Y-36260000D03*
D11*
X137640000Y-33720000D03*
D17*
X138540000Y-33720000D03*
D11*
X137640000Y-31180000D03*
D17*
X138540000Y-31180000D03*
X138540000Y-28640000D03*
D11*
X137640000Y-28640000D03*
D10*
X137640000Y-26100000D03*
D17*
X138540000Y-26100000D03*
D11*
X137640000Y-23560000D03*
D17*
X138540000Y-23560000D03*
D11*
X137640000Y-21020000D03*
D17*
X138540000Y-21020000D03*
D18*
X126210000Y-69950000D03*
D11*
X126210000Y-69050000D03*
D10*
X128750000Y-69050000D03*
D18*
X128750000Y-69950000D03*
D11*
X131290000Y-69050000D03*
D18*
X131290000Y-69950000D03*
%TD*%
M02*
