%TF.GenerationSoftware,KiCad,Pcbnew,6.0.8-f2edbf62ab~116~ubuntu22.04.1*%
%TF.CreationDate,2022-10-03T19:03:55-04:00*%
%TF.ProjectId,PicoProbeProgrammerBoard,5069636f-5072-46f6-9265-50726f677261,rev?*%
%TF.SameCoordinates,Original*%
%TF.FileFunction,Copper,L2,Bot*%
%TF.FilePolarity,Positive*%
%FSLAX46Y46*%
G04 Gerber Fmt 4.6, Leading zero omitted, Abs format (unit mm)*
G04 Created by KiCad (PCBNEW 6.0.8-f2edbf62ab~116~ubuntu22.04.1) date 2022-10-03 19:03:55*
%MOMM*%
%LPD*%
G01*
G04 APERTURE LIST*
%TA.AperFunction,ComponentPad*%
%ADD10R,1.700000X1.700000*%
%TD*%
%TA.AperFunction,ComponentPad*%
%ADD11O,1.700000X1.700000*%
%TD*%
%TA.AperFunction,ViaPad*%
%ADD12C,0.800000*%
%TD*%
%TA.AperFunction,Conductor*%
%ADD13C,0.250000*%
%TD*%
G04 APERTURE END LIST*
D10*
%TO.P,J2,1,Pin_1*%
%TO.N,/SCL_0*%
X118618000Y-75184000D03*
D11*
%TO.P,J2,2,Pin_2*%
%TO.N,/SWDCLK*%
X118618000Y-77724000D03*
%TO.P,J2,3,Pin_3*%
%TO.N,GND*%
X118618000Y-80264000D03*
%TO.P,J2,4,Pin_4*%
%TO.N,/SWDIO*%
X118618000Y-82804000D03*
%TO.P,J2,5,Pin_5*%
%TO.N,/SDA_0*%
X118618000Y-85344000D03*
%TO.P,J2,6,Pin_6*%
%TO.N,/SWO*%
X118618000Y-87884000D03*
%TO.P,J2,7,Pin_7*%
%TO.N,/VBUS_OUT*%
X118618000Y-90424000D03*
%TD*%
D10*
%TO.P,ExtraConns,1,Pin_1*%
%TO.N,/UartTX*%
X132461000Y-80264000D03*
D11*
%TO.P,ExtraConns,2,Pin_2*%
%TO.N,/SWO*%
X135001000Y-80264000D03*
%TO.P,ExtraConns,3,Pin_3*%
%TO.N,/SDA_0*%
X132461000Y-77724000D03*
%TO.P,ExtraConns,4,Pin_4*%
%TO.N,/SCL_0*%
X135001000Y-77724000D03*
%TO.P,ExtraConns,5,Pin_5*%
%TO.N,/SDA_1*%
X132461000Y-75184000D03*
%TO.P,ExtraConns,6,Pin_6*%
%TO.N,/SCL_1*%
X135001000Y-75184000D03*
%TD*%
D10*
%TO.P,3v3,1,A*%
%TO.N,Net-(JP2-Pad1)*%
X127254000Y-75184000D03*
D11*
%TO.P,3v3,2,B*%
%TO.N,/power_output*%
X127254000Y-77724000D03*
%TD*%
D10*
%TO.P,5v,1,A*%
%TO.N,Net-(JP1-Pad1)*%
X123444000Y-75184000D03*
D11*
%TO.P,5v,2,B*%
%TO.N,/power_output*%
X123444000Y-77724000D03*
%TD*%
%TO.P,U1,1,GPIO0*%
%TO.N,unconnected-(U1-Pad1)*%
X119860000Y-21020000D03*
%TO.P,U1,2,GPIO1*%
%TO.N,unconnected-(U1-Pad2)*%
X119860000Y-23560000D03*
D10*
%TO.P,U1,3,GND*%
%TO.N,unconnected-(U1-Pad3)*%
X119860000Y-26100000D03*
D11*
%TO.P,U1,4,GPIO2*%
%TO.N,/SWDCLK*%
X119860000Y-28640000D03*
%TO.P,U1,5,GPIO3*%
%TO.N,/SWDIO*%
X119860000Y-31180000D03*
%TO.P,U1,6,GPIO4*%
%TO.N,/SDA_0*%
X119860000Y-33720000D03*
%TO.P,U1,7,GPIO5*%
%TO.N,/SWO*%
X119860000Y-36260000D03*
D10*
%TO.P,U1,8,GND*%
%TO.N,GND*%
X119860000Y-38800000D03*
D11*
%TO.P,U1,9,GPIO6*%
%TO.N,unconnected-(U1-Pad9)*%
X119860000Y-41340000D03*
%TO.P,U1,10,GPIO7*%
%TO.N,unconnected-(U1-Pad10)*%
X119860000Y-43880000D03*
%TO.P,U1,11,GPIO8*%
%TO.N,unconnected-(U1-Pad11)*%
X119860000Y-46420000D03*
%TO.P,U1,12,GPIO9*%
%TO.N,unconnected-(U1-Pad12)*%
X119860000Y-48960000D03*
D10*
%TO.P,U1,13,GND*%
%TO.N,GND*%
X119860000Y-51500000D03*
D11*
%TO.P,U1,14,GPIO10*%
%TO.N,unconnected-(U1-Pad14)*%
X119860000Y-54040000D03*
%TO.P,U1,15,GPIO11*%
%TO.N,unconnected-(U1-Pad15)*%
X119860000Y-56580000D03*
%TO.P,U1,16,GPIO12*%
%TO.N,unconnected-(U1-Pad16)*%
X119860000Y-59120000D03*
%TO.P,U1,17,GPIO13*%
%TO.N,unconnected-(U1-Pad17)*%
X119860000Y-61660000D03*
D10*
%TO.P,U1,18,GND*%
%TO.N,GND*%
X119860000Y-64200000D03*
D11*
%TO.P,U1,19,GPIO14*%
%TO.N,unconnected-(U1-Pad19)*%
X119860000Y-66740000D03*
%TO.P,U1,20,GPIO15*%
%TO.N,unconnected-(U1-Pad20)*%
X119860000Y-69280000D03*
%TO.P,U1,21,GPIO16*%
%TO.N,unconnected-(U1-Pad21)*%
X137640000Y-69280000D03*
%TO.P,U1,22,GPIO17*%
%TO.N,unconnected-(U1-Pad22)*%
X137640000Y-66740000D03*
D10*
%TO.P,U1,23,GND*%
%TO.N,GND*%
X137640000Y-64200000D03*
D11*
%TO.P,U1,24,GPIO18*%
%TO.N,unconnected-(U1-Pad24)*%
X137640000Y-61660000D03*
%TO.P,U1,25,GPIO19*%
%TO.N,unconnected-(U1-Pad25)*%
X137640000Y-59120000D03*
%TO.P,U1,26,GPIO20*%
%TO.N,unconnected-(U1-Pad26)*%
X137640000Y-56580000D03*
%TO.P,U1,27,GPIO21*%
%TO.N,unconnected-(U1-Pad27)*%
X137640000Y-54040000D03*
D10*
%TO.P,U1,28,GND*%
%TO.N,GND*%
X137640000Y-51500000D03*
D11*
%TO.P,U1,29,GPIO22*%
%TO.N,unconnected-(U1-Pad29)*%
X137640000Y-48960000D03*
%TO.P,U1,30,RUN*%
%TO.N,unconnected-(U1-Pad30)*%
X137640000Y-46420000D03*
%TO.P,U1,31,GPIO26_ADC0*%
%TO.N,unconnected-(U1-Pad31)*%
X137640000Y-43880000D03*
%TO.P,U1,32,GPIO27_ADC1*%
%TO.N,unconnected-(U1-Pad32)*%
X137640000Y-41340000D03*
D10*
%TO.P,U1,33,AGND*%
%TO.N,unconnected-(U1-Pad33)*%
X137640000Y-38800000D03*
D11*
%TO.P,U1,34,GPIO28_ADC2*%
%TO.N,/SCL_0*%
X137640000Y-36260000D03*
%TO.P,U1,35,ADC_VREF*%
%TO.N,unconnected-(U1-Pad35)*%
X137640000Y-33720000D03*
%TO.P,U1,36,3V3*%
%TO.N,Net-(JP2-Pad1)*%
X137640000Y-31180000D03*
%TO.P,U1,37,3V3_EN*%
%TO.N,unconnected-(U1-Pad37)*%
X137640000Y-28640000D03*
D10*
%TO.P,U1,38,GND*%
%TO.N,unconnected-(U1-Pad38)*%
X137640000Y-26100000D03*
D11*
%TO.P,U1,39,VSYS*%
%TO.N,Net-(JP1-Pad1)*%
X137640000Y-23560000D03*
%TO.P,U1,40,VBUS*%
%TO.N,unconnected-(U1-Pad40)*%
X137640000Y-21020000D03*
%TO.P,U1,41,SWCLK*%
%TO.N,unconnected-(U1-Pad41)*%
X126210000Y-69050000D03*
D10*
%TO.P,U1,42,GND*%
%TO.N,unconnected-(U1-Pad42)*%
X128750000Y-69050000D03*
D11*
%TO.P,U1,43,SWDIO*%
%TO.N,unconnected-(U1-Pad43)*%
X131290000Y-69050000D03*
%TD*%
D12*
%TO.N,/SCL_0*%
X135037701Y-73559000D03*
X135037701Y-68467099D03*
%TO.N,/SWDIO*%
X140055600Y-86360000D03*
X123952000Y-85293200D03*
%TO.N,GND*%
X126136400Y-92964000D03*
X139090400Y-87325200D03*
%TO.N,/SWDCLK*%
X137109200Y-86766400D03*
X125323600Y-85039200D03*
%TO.N,/SWO*%
X127406400Y-84480400D03*
X122834400Y-87782400D03*
X133451600Y-82905600D03*
%TO.N,/SDA_0*%
X130606800Y-85394800D03*
X134176600Y-83958600D03*
X127406400Y-62992000D03*
%TO.N,/power_output*%
X130949100Y-87223600D03*
X125069600Y-80772000D03*
%TO.N,Net-(JP1-Pad1)*%
X128473200Y-59639200D03*
X122529600Y-62636400D03*
%TO.N,Net-(JP2-Pad1)*%
X123698000Y-64262000D03*
X129032000Y-60960000D03*
%TD*%
D13*
%TO.N,/SCL_0*%
X135037701Y-73559000D02*
X135037701Y-68467099D01*
%TO.N,/SWDIO*%
X136093200Y-88849200D02*
X138582400Y-86360000D01*
X123952000Y-85293200D02*
X127508000Y-88849200D01*
X138582400Y-86360000D02*
X140055600Y-86360000D01*
X123952000Y-85293200D02*
X121462800Y-82804000D01*
X121462800Y-82804000D02*
X118618000Y-82804000D01*
X127508000Y-88849200D02*
X136093200Y-88849200D01*
%TO.N,/SWDCLK*%
X125323600Y-85039200D02*
X125323600Y-84429600D01*
X134823200Y-88138000D02*
X135737600Y-88138000D01*
X128422400Y-88138000D02*
X134823200Y-88138000D01*
X135737600Y-88138000D02*
X137109200Y-86766400D01*
X125323600Y-84429600D02*
X118618000Y-77724000D01*
X125323600Y-85039200D02*
X128422400Y-88138000D01*
%TO.N,/SWO*%
X122834400Y-87782400D02*
X122732800Y-87884000D01*
X132689600Y-84480400D02*
X133451600Y-83718400D01*
X127406400Y-84480400D02*
X132689600Y-84480400D01*
X133451600Y-83718400D02*
X133451600Y-82905600D01*
X122732800Y-87884000D02*
X118618000Y-87884000D01*
%TO.N,/SDA_0*%
X130606800Y-85394800D02*
X132740400Y-85394800D01*
X133636000Y-81680800D02*
X133636000Y-78899000D01*
X133636000Y-78899000D02*
X132461000Y-77724000D01*
X127385000Y-72648000D02*
X127385000Y-67179000D01*
X127385000Y-63013400D02*
X127406400Y-62992000D01*
X132461000Y-77724000D02*
X127385000Y-72648000D01*
X127385000Y-67179000D02*
X127385000Y-63013400D01*
X134176600Y-83958600D02*
X134176600Y-82221400D01*
X134176600Y-82221400D02*
X133636000Y-81680800D01*
X132740400Y-85394800D02*
X134176600Y-83958600D01*
%TO.N,/power_output*%
X129032000Y-87223600D02*
X125069600Y-83261200D01*
X130949100Y-87223600D02*
X129032000Y-87223600D01*
X125069600Y-80772000D02*
X125069600Y-83261200D01*
%TO.N,Net-(JP1-Pad1)*%
X122529600Y-62636400D02*
X125526800Y-59639200D01*
X125526800Y-59639200D02*
X128473200Y-59639200D01*
%TO.N,Net-(JP2-Pad1)*%
X126898400Y-60960000D02*
X129032000Y-60960000D01*
X123698000Y-64262000D02*
X123698000Y-64160400D01*
X123698000Y-64160400D02*
X126339600Y-61518800D01*
X126339600Y-61518800D02*
X126898400Y-60960000D01*
%TD*%
%TA.AperFunction,Conductor*%
%TO.N,GND*%
G36*
X119034504Y-19728502D02*
G01*
X119080997Y-19782158D01*
X119091101Y-19852432D01*
X119061607Y-19917012D01*
X119042036Y-19935260D01*
X118995352Y-19970312D01*
X118954965Y-20000635D01*
X118800629Y-20162138D01*
X118797715Y-20166410D01*
X118797714Y-20166411D01*
X118717611Y-20283838D01*
X118674743Y-20346680D01*
X118580688Y-20549305D01*
X118520989Y-20764570D01*
X118497251Y-20986695D01*
X118497548Y-20991848D01*
X118497548Y-20991851D01*
X118506667Y-21150000D01*
X118510110Y-21209715D01*
X118511247Y-21214761D01*
X118511248Y-21214767D01*
X118512959Y-21222359D01*
X118559222Y-21427639D01*
X118643266Y-21634616D01*
X118759987Y-21825088D01*
X118906250Y-21993938D01*
X119078126Y-22136632D01*
X119111060Y-22155877D01*
X119151445Y-22179476D01*
X119200169Y-22231114D01*
X119213240Y-22300897D01*
X119186509Y-22366669D01*
X119146055Y-22400027D01*
X119133607Y-22406507D01*
X119129474Y-22409610D01*
X119129471Y-22409612D01*
X118999484Y-22507209D01*
X118954965Y-22540635D01*
X118800629Y-22702138D01*
X118674743Y-22886680D01*
X118627716Y-22987992D01*
X118583328Y-23083618D01*
X118580688Y-23089305D01*
X118520989Y-23304570D01*
X118497251Y-23526695D01*
X118497548Y-23531848D01*
X118497548Y-23531851D01*
X118503011Y-23626590D01*
X118510110Y-23749715D01*
X118511247Y-23754761D01*
X118511248Y-23754767D01*
X118531119Y-23842939D01*
X118559222Y-23967639D01*
X118643266Y-24174616D01*
X118759987Y-24365088D01*
X118906250Y-24533938D01*
X118910230Y-24537242D01*
X118914981Y-24541187D01*
X118954616Y-24600090D01*
X118956113Y-24671071D01*
X118918997Y-24731593D01*
X118878724Y-24756112D01*
X118763295Y-24799385D01*
X118646739Y-24886739D01*
X118559385Y-25003295D01*
X118508255Y-25139684D01*
X118501500Y-25201866D01*
X118501500Y-26998134D01*
X118508255Y-27060316D01*
X118559385Y-27196705D01*
X118646739Y-27313261D01*
X118763295Y-27400615D01*
X118771704Y-27403767D01*
X118771705Y-27403768D01*
X118880451Y-27444535D01*
X118937216Y-27487176D01*
X118961916Y-27553738D01*
X118946709Y-27623087D01*
X118927316Y-27649568D01*
X118800629Y-27782138D01*
X118674743Y-27966680D01*
X118580688Y-28169305D01*
X118520989Y-28384570D01*
X118497251Y-28606695D01*
X118497548Y-28611848D01*
X118497548Y-28611851D01*
X118503011Y-28706590D01*
X118510110Y-28829715D01*
X118511247Y-28834761D01*
X118511248Y-28834767D01*
X118531119Y-28922939D01*
X118559222Y-29047639D01*
X118643266Y-29254616D01*
X118759987Y-29445088D01*
X118906250Y-29613938D01*
X119078126Y-29756632D01*
X119148595Y-29797811D01*
X119151445Y-29799476D01*
X119200169Y-29851114D01*
X119213240Y-29920897D01*
X119186509Y-29986669D01*
X119146055Y-30020027D01*
X119133607Y-30026507D01*
X119129474Y-30029610D01*
X119129471Y-30029612D01*
X119105247Y-30047800D01*
X118954965Y-30160635D01*
X118800629Y-30322138D01*
X118674743Y-30506680D01*
X118580688Y-30709305D01*
X118520989Y-30924570D01*
X118497251Y-31146695D01*
X118497548Y-31151848D01*
X118497548Y-31151851D01*
X118503011Y-31246590D01*
X118510110Y-31369715D01*
X118511247Y-31374761D01*
X118511248Y-31374767D01*
X118531119Y-31462939D01*
X118559222Y-31587639D01*
X118643266Y-31794616D01*
X118759987Y-31985088D01*
X118906250Y-32153938D01*
X119078126Y-32296632D01*
X119148595Y-32337811D01*
X119151445Y-32339476D01*
X119200169Y-32391114D01*
X119213240Y-32460897D01*
X119186509Y-32526669D01*
X119146055Y-32560027D01*
X119133607Y-32566507D01*
X119129474Y-32569610D01*
X119129471Y-32569612D01*
X119105247Y-32587800D01*
X118954965Y-32700635D01*
X118800629Y-32862138D01*
X118674743Y-33046680D01*
X118580688Y-33249305D01*
X118520989Y-33464570D01*
X118497251Y-33686695D01*
X118497548Y-33691848D01*
X118497548Y-33691851D01*
X118503011Y-33786590D01*
X118510110Y-33909715D01*
X118511247Y-33914761D01*
X118511248Y-33914767D01*
X118531119Y-34002939D01*
X118559222Y-34127639D01*
X118643266Y-34334616D01*
X118759987Y-34525088D01*
X118906250Y-34693938D01*
X119078126Y-34836632D01*
X119148595Y-34877811D01*
X119151445Y-34879476D01*
X119200169Y-34931114D01*
X119213240Y-35000897D01*
X119186509Y-35066669D01*
X119146055Y-35100027D01*
X119133607Y-35106507D01*
X119129474Y-35109610D01*
X119129471Y-35109612D01*
X119105247Y-35127800D01*
X118954965Y-35240635D01*
X118800629Y-35402138D01*
X118674743Y-35586680D01*
X118580688Y-35789305D01*
X118520989Y-36004570D01*
X118497251Y-36226695D01*
X118497548Y-36231848D01*
X118497548Y-36231851D01*
X118503011Y-36326590D01*
X118510110Y-36449715D01*
X118511247Y-36454761D01*
X118511248Y-36454767D01*
X118531119Y-36542939D01*
X118559222Y-36667639D01*
X118643266Y-36874616D01*
X118759987Y-37065088D01*
X118906250Y-37233938D01*
X118910225Y-37237238D01*
X118910231Y-37237244D01*
X118915425Y-37241556D01*
X118955059Y-37300460D01*
X118956555Y-37371441D01*
X118919439Y-37431962D01*
X118879168Y-37456480D01*
X118771946Y-37496676D01*
X118756351Y-37505214D01*
X118654276Y-37581715D01*
X118641715Y-37594276D01*
X118565214Y-37696351D01*
X118556676Y-37711946D01*
X118511522Y-37832394D01*
X118507895Y-37847649D01*
X118502369Y-37898514D01*
X118502000Y-37905328D01*
X118502000Y-38527885D01*
X118506475Y-38543124D01*
X118507865Y-38544329D01*
X118515548Y-38546000D01*
X121199884Y-38546000D01*
X121215123Y-38541525D01*
X121216328Y-38540135D01*
X121217999Y-38532452D01*
X121217999Y-37905331D01*
X121217629Y-37898510D01*
X121212105Y-37847648D01*
X121208479Y-37832396D01*
X121163324Y-37711946D01*
X121154786Y-37696351D01*
X121078285Y-37594276D01*
X121065724Y-37581715D01*
X120963649Y-37505214D01*
X120948054Y-37496676D01*
X120837813Y-37455348D01*
X120781049Y-37412706D01*
X120756349Y-37346145D01*
X120771557Y-37276796D01*
X120793104Y-37248115D01*
X120894430Y-37147144D01*
X120894440Y-37147132D01*
X120898096Y-37143489D01*
X120957594Y-37060689D01*
X121025435Y-36966277D01*
X121028453Y-36962077D01*
X121127430Y-36761811D01*
X121192370Y-36548069D01*
X121221529Y-36326590D01*
X121223156Y-36260000D01*
X121204852Y-36037361D01*
X121150431Y-35820702D01*
X121061354Y-35615840D01*
X120940014Y-35428277D01*
X120789670Y-35263051D01*
X120785619Y-35259852D01*
X120785615Y-35259848D01*
X120618414Y-35127800D01*
X120618410Y-35127798D01*
X120614359Y-35124598D01*
X120573053Y-35101796D01*
X120523084Y-35051364D01*
X120508312Y-34981921D01*
X120533428Y-34915516D01*
X120560780Y-34888909D01*
X120604603Y-34857650D01*
X120739860Y-34761173D01*
X120898096Y-34603489D01*
X120957594Y-34520689D01*
X121025435Y-34426277D01*
X121028453Y-34422077D01*
X121127430Y-34221811D01*
X121192370Y-34008069D01*
X121221529Y-33786590D01*
X121223156Y-33720000D01*
X121204852Y-33497361D01*
X121150431Y-33280702D01*
X121061354Y-33075840D01*
X120940014Y-32888277D01*
X120789670Y-32723051D01*
X120785619Y-32719852D01*
X120785615Y-32719848D01*
X120618414Y-32587800D01*
X120618410Y-32587798D01*
X120614359Y-32584598D01*
X120573053Y-32561796D01*
X120523084Y-32511364D01*
X120508312Y-32441921D01*
X120533428Y-32375516D01*
X120560780Y-32348909D01*
X120604603Y-32317650D01*
X120739860Y-32221173D01*
X120898096Y-32063489D01*
X120957594Y-31980689D01*
X121025435Y-31886277D01*
X121028453Y-31882077D01*
X121127430Y-31681811D01*
X121192370Y-31468069D01*
X121221529Y-31246590D01*
X121223156Y-31180000D01*
X121204852Y-30957361D01*
X121150431Y-30740702D01*
X121061354Y-30535840D01*
X120940014Y-30348277D01*
X120789670Y-30183051D01*
X120785619Y-30179852D01*
X120785615Y-30179848D01*
X120618414Y-30047800D01*
X120618410Y-30047798D01*
X120614359Y-30044598D01*
X120573053Y-30021796D01*
X120523084Y-29971364D01*
X120508312Y-29901921D01*
X120533428Y-29835516D01*
X120560780Y-29808909D01*
X120604603Y-29777650D01*
X120739860Y-29681173D01*
X120898096Y-29523489D01*
X120957594Y-29440689D01*
X121025435Y-29346277D01*
X121028453Y-29342077D01*
X121127430Y-29141811D01*
X121192370Y-28928069D01*
X121221529Y-28706590D01*
X121223156Y-28640000D01*
X121204852Y-28417361D01*
X121150431Y-28200702D01*
X121061354Y-27995840D01*
X120940014Y-27808277D01*
X120936532Y-27804450D01*
X120792798Y-27646488D01*
X120761746Y-27582642D01*
X120770141Y-27512143D01*
X120815317Y-27457375D01*
X120841761Y-27443706D01*
X120948297Y-27403767D01*
X120956705Y-27400615D01*
X121073261Y-27313261D01*
X121160615Y-27196705D01*
X121211745Y-27060316D01*
X121218500Y-26998134D01*
X121218500Y-25201866D01*
X121211745Y-25139684D01*
X121160615Y-25003295D01*
X121073261Y-24886739D01*
X120956705Y-24799385D01*
X120944132Y-24794672D01*
X120838203Y-24754960D01*
X120781439Y-24712318D01*
X120756739Y-24645756D01*
X120771947Y-24576408D01*
X120793493Y-24547727D01*
X120894435Y-24447137D01*
X120898096Y-24443489D01*
X120933734Y-24393894D01*
X121025435Y-24266277D01*
X121028453Y-24262077D01*
X121069018Y-24180000D01*
X125061693Y-24180000D01*
X125080885Y-24399371D01*
X125137880Y-24612076D01*
X125165390Y-24671071D01*
X125228618Y-24806666D01*
X125228621Y-24806671D01*
X125230944Y-24811653D01*
X125357251Y-24992038D01*
X125512962Y-25147749D01*
X125693346Y-25274056D01*
X125892924Y-25367120D01*
X126105629Y-25424115D01*
X126325000Y-25443307D01*
X126544371Y-25424115D01*
X126757076Y-25367120D01*
X126956654Y-25274056D01*
X127137038Y-25147749D01*
X127292749Y-24992038D01*
X127419056Y-24811653D01*
X127421379Y-24806671D01*
X127421382Y-24806666D01*
X127484610Y-24671071D01*
X127512120Y-24612076D01*
X127569115Y-24399371D01*
X127588307Y-24180000D01*
X129911693Y-24180000D01*
X129930885Y-24399371D01*
X129987880Y-24612076D01*
X130015390Y-24671071D01*
X130078618Y-24806666D01*
X130078621Y-24806671D01*
X130080944Y-24811653D01*
X130207251Y-24992038D01*
X130362962Y-25147749D01*
X130543346Y-25274056D01*
X130742924Y-25367120D01*
X130955629Y-25424115D01*
X131175000Y-25443307D01*
X131394371Y-25424115D01*
X131607076Y-25367120D01*
X131806654Y-25274056D01*
X131987038Y-25147749D01*
X132142749Y-24992038D01*
X132269056Y-24811653D01*
X132271379Y-24806671D01*
X132271382Y-24806666D01*
X132334610Y-24671071D01*
X132362120Y-24612076D01*
X132419115Y-24399371D01*
X132438307Y-24180000D01*
X132419115Y-23960629D01*
X132362120Y-23747924D01*
X132318585Y-23654562D01*
X132271382Y-23553334D01*
X132271379Y-23553329D01*
X132269056Y-23548347D01*
X132265899Y-23543838D01*
X132145908Y-23372473D01*
X132145906Y-23372470D01*
X132142749Y-23367962D01*
X131987038Y-23212251D01*
X131806654Y-23085944D01*
X131607076Y-22992880D01*
X131394371Y-22935885D01*
X131175000Y-22916693D01*
X130955629Y-22935885D01*
X130742924Y-22992880D01*
X130649562Y-23036415D01*
X130548334Y-23083618D01*
X130548329Y-23083621D01*
X130543347Y-23085944D01*
X130538840Y-23089100D01*
X130538838Y-23089101D01*
X130367473Y-23209092D01*
X130367470Y-23209094D01*
X130362962Y-23212251D01*
X130207251Y-23367962D01*
X130204094Y-23372470D01*
X130204092Y-23372473D01*
X130084101Y-23543838D01*
X130080944Y-23548347D01*
X130078621Y-23553329D01*
X130078618Y-23553334D01*
X130031415Y-23654562D01*
X129987880Y-23747924D01*
X129930885Y-23960629D01*
X129911693Y-24180000D01*
X127588307Y-24180000D01*
X127569115Y-23960629D01*
X127512120Y-23747924D01*
X127468585Y-23654562D01*
X127421382Y-23553334D01*
X127421379Y-23553329D01*
X127419056Y-23548347D01*
X127415899Y-23543838D01*
X127295908Y-23372473D01*
X127295906Y-23372470D01*
X127292749Y-23367962D01*
X127137038Y-23212251D01*
X126956654Y-23085944D01*
X126757076Y-22992880D01*
X126544371Y-22935885D01*
X126325000Y-22916693D01*
X126105629Y-22935885D01*
X125892924Y-22992880D01*
X125799562Y-23036415D01*
X125698334Y-23083618D01*
X125698329Y-23083621D01*
X125693347Y-23085944D01*
X125688840Y-23089100D01*
X125688838Y-23089101D01*
X125517473Y-23209092D01*
X125517470Y-23209094D01*
X125512962Y-23212251D01*
X125357251Y-23367962D01*
X125354094Y-23372470D01*
X125354092Y-23372473D01*
X125234101Y-23543838D01*
X125230944Y-23548347D01*
X125228621Y-23553329D01*
X125228618Y-23553334D01*
X125181415Y-23654562D01*
X125137880Y-23747924D01*
X125080885Y-23960629D01*
X125061693Y-24180000D01*
X121069018Y-24180000D01*
X121127430Y-24061811D01*
X121192370Y-23848069D01*
X121221529Y-23626590D01*
X121223156Y-23560000D01*
X121204852Y-23337361D01*
X121150431Y-23120702D01*
X121061354Y-22915840D01*
X120940014Y-22728277D01*
X120789670Y-22563051D01*
X120785619Y-22559852D01*
X120785615Y-22559848D01*
X120618414Y-22427800D01*
X120618410Y-22427798D01*
X120614359Y-22424598D01*
X120573053Y-22401796D01*
X120523084Y-22351364D01*
X120508312Y-22281921D01*
X120533428Y-22215516D01*
X120560780Y-22188909D01*
X120607089Y-22155877D01*
X120739860Y-22061173D01*
X120898096Y-21903489D01*
X120957594Y-21820689D01*
X121025435Y-21726277D01*
X121028453Y-21722077D01*
X121051759Y-21674922D01*
X121125136Y-21526453D01*
X121125137Y-21526451D01*
X121127430Y-21521811D01*
X121192370Y-21308069D01*
X121221529Y-21086590D01*
X121223156Y-21020000D01*
X121204852Y-20797361D01*
X121150431Y-20580702D01*
X121061354Y-20375840D01*
X120940014Y-20188277D01*
X120789670Y-20023051D01*
X120785619Y-20019852D01*
X120785615Y-20019848D01*
X120676130Y-19933382D01*
X120635067Y-19875465D01*
X120631835Y-19804542D01*
X120667461Y-19743130D01*
X120730632Y-19710728D01*
X120754222Y-19708500D01*
X125228655Y-19708500D01*
X125296776Y-19728502D01*
X125343269Y-19782158D01*
X125353373Y-19852432D01*
X125323879Y-19917012D01*
X125286837Y-19946262D01*
X125271872Y-19954052D01*
X125267739Y-19957155D01*
X125267736Y-19957157D01*
X125090790Y-20090012D01*
X125086655Y-20093117D01*
X125083083Y-20096855D01*
X124999369Y-20184457D01*
X124926639Y-20260564D01*
X124923725Y-20264836D01*
X124923724Y-20264837D01*
X124867895Y-20346680D01*
X124796119Y-20451899D01*
X124698602Y-20661981D01*
X124636707Y-20885169D01*
X124612095Y-21115469D01*
X124612392Y-21120622D01*
X124612392Y-21120625D01*
X124618067Y-21219041D01*
X124625427Y-21346697D01*
X124626564Y-21351743D01*
X124626565Y-21351749D01*
X124658741Y-21494523D01*
X124676346Y-21572642D01*
X124678288Y-21577424D01*
X124678289Y-21577428D01*
X124761540Y-21782450D01*
X124763484Y-21787237D01*
X124884501Y-21984719D01*
X125036147Y-22159784D01*
X125214349Y-22307730D01*
X125414322Y-22424584D01*
X125630694Y-22507209D01*
X125635760Y-22508240D01*
X125635761Y-22508240D01*
X125688846Y-22519040D01*
X125857656Y-22553385D01*
X125988324Y-22558176D01*
X126083949Y-22561683D01*
X126083953Y-22561683D01*
X126089113Y-22561872D01*
X126094233Y-22561216D01*
X126094235Y-22561216D01*
X126167270Y-22551860D01*
X126318847Y-22532442D01*
X126323795Y-22530957D01*
X126323802Y-22530956D01*
X126535747Y-22467369D01*
X126540690Y-22465886D01*
X126545324Y-22463616D01*
X126744049Y-22366262D01*
X126744052Y-22366260D01*
X126748684Y-22363991D01*
X126937243Y-22229494D01*
X127101303Y-22066005D01*
X127236458Y-21877917D01*
X127283641Y-21782450D01*
X127336784Y-21674922D01*
X127336785Y-21674920D01*
X127339078Y-21670280D01*
X127406408Y-21448671D01*
X127436640Y-21219041D01*
X127436722Y-21215691D01*
X127438245Y-21153365D01*
X127438245Y-21153361D01*
X127438327Y-21150000D01*
X127424479Y-20981562D01*
X127419773Y-20924318D01*
X127419772Y-20924312D01*
X127419349Y-20919167D01*
X127362925Y-20694533D01*
X127360866Y-20689797D01*
X127272630Y-20486868D01*
X127272628Y-20486865D01*
X127270570Y-20482131D01*
X127144764Y-20287665D01*
X126988887Y-20116358D01*
X126984836Y-20113159D01*
X126984832Y-20113155D01*
X126811177Y-19976011D01*
X126811172Y-19976008D01*
X126807123Y-19972810D01*
X126802604Y-19970316D01*
X126802599Y-19970312D01*
X126756400Y-19944809D01*
X126706429Y-19894376D01*
X126691657Y-19824933D01*
X126716773Y-19758528D01*
X126773804Y-19716243D01*
X126817293Y-19708500D01*
X130678655Y-19708500D01*
X130746776Y-19728502D01*
X130793269Y-19782158D01*
X130803373Y-19852432D01*
X130773879Y-19917012D01*
X130736837Y-19946262D01*
X130721872Y-19954052D01*
X130717739Y-19957155D01*
X130717736Y-19957157D01*
X130540790Y-20090012D01*
X130536655Y-20093117D01*
X130533083Y-20096855D01*
X130449369Y-20184457D01*
X130376639Y-20260564D01*
X130373725Y-20264836D01*
X130373724Y-20264837D01*
X130317895Y-20346680D01*
X130246119Y-20451899D01*
X130148602Y-20661981D01*
X130086707Y-20885169D01*
X130062095Y-21115469D01*
X130062392Y-21120622D01*
X130062392Y-21120625D01*
X130068067Y-21219041D01*
X130075427Y-21346697D01*
X130076564Y-21351743D01*
X130076565Y-21351749D01*
X130108741Y-21494523D01*
X130126346Y-21572642D01*
X130128288Y-21577424D01*
X130128289Y-21577428D01*
X130211540Y-21782450D01*
X130213484Y-21787237D01*
X130334501Y-21984719D01*
X130486147Y-22159784D01*
X130664349Y-22307730D01*
X130864322Y-22424584D01*
X131080694Y-22507209D01*
X131085760Y-22508240D01*
X131085761Y-22508240D01*
X131138846Y-22519040D01*
X131307656Y-22553385D01*
X131438324Y-22558176D01*
X131533949Y-22561683D01*
X131533953Y-22561683D01*
X131539113Y-22561872D01*
X131544233Y-22561216D01*
X131544235Y-22561216D01*
X131617270Y-22551860D01*
X131768847Y-22532442D01*
X131773795Y-22530957D01*
X131773802Y-22530956D01*
X131985747Y-22467369D01*
X131990690Y-22465886D01*
X131995324Y-22463616D01*
X132194049Y-22366262D01*
X132194052Y-22366260D01*
X132198684Y-22363991D01*
X132387243Y-22229494D01*
X132551303Y-22066005D01*
X132686458Y-21877917D01*
X132733641Y-21782450D01*
X132786784Y-21674922D01*
X132786785Y-21674920D01*
X132789078Y-21670280D01*
X132856408Y-21448671D01*
X132886640Y-21219041D01*
X132886722Y-21215691D01*
X132888245Y-21153365D01*
X132888245Y-21153361D01*
X132888327Y-21150000D01*
X132874479Y-20981562D01*
X132869773Y-20924318D01*
X132869772Y-20924312D01*
X132869349Y-20919167D01*
X132812925Y-20694533D01*
X132810866Y-20689797D01*
X132722630Y-20486868D01*
X132722628Y-20486865D01*
X132720570Y-20482131D01*
X132594764Y-20287665D01*
X132438887Y-20116358D01*
X132434836Y-20113159D01*
X132434832Y-20113155D01*
X132261177Y-19976011D01*
X132261172Y-19976008D01*
X132257123Y-19972810D01*
X132252604Y-19970316D01*
X132252599Y-19970312D01*
X132206400Y-19944809D01*
X132156429Y-19894376D01*
X132141657Y-19824933D01*
X132166773Y-19758528D01*
X132223804Y-19716243D01*
X132267293Y-19708500D01*
X136746383Y-19708500D01*
X136814504Y-19728502D01*
X136860997Y-19782158D01*
X136871101Y-19852432D01*
X136841607Y-19917012D01*
X136822036Y-19935260D01*
X136775352Y-19970312D01*
X136734965Y-20000635D01*
X136580629Y-20162138D01*
X136577715Y-20166410D01*
X136577714Y-20166411D01*
X136497611Y-20283838D01*
X136454743Y-20346680D01*
X136360688Y-20549305D01*
X136300989Y-20764570D01*
X136277251Y-20986695D01*
X136277548Y-20991848D01*
X136277548Y-20991851D01*
X136286667Y-21150000D01*
X136290110Y-21209715D01*
X136291247Y-21214761D01*
X136291248Y-21214767D01*
X136292959Y-21222359D01*
X136339222Y-21427639D01*
X136423266Y-21634616D01*
X136539987Y-21825088D01*
X136686250Y-21993938D01*
X136858126Y-22136632D01*
X136891060Y-22155877D01*
X136931445Y-22179476D01*
X136980169Y-22231114D01*
X136993240Y-22300897D01*
X136966509Y-22366669D01*
X136926055Y-22400027D01*
X136913607Y-22406507D01*
X136909474Y-22409610D01*
X136909471Y-22409612D01*
X136779484Y-22507209D01*
X136734965Y-22540635D01*
X136580629Y-22702138D01*
X136454743Y-22886680D01*
X136407715Y-22987993D01*
X136363328Y-23083618D01*
X136360688Y-23089305D01*
X136300989Y-23304570D01*
X136277251Y-23526695D01*
X136277548Y-23531848D01*
X136277548Y-23531851D01*
X136283011Y-23626590D01*
X136290110Y-23749715D01*
X136291247Y-23754761D01*
X136291248Y-23754767D01*
X136311119Y-23842939D01*
X136339222Y-23967639D01*
X136423266Y-24174616D01*
X136539987Y-24365088D01*
X136686250Y-24533938D01*
X136690230Y-24537242D01*
X136694981Y-24541187D01*
X136734616Y-24600090D01*
X136736113Y-24671071D01*
X136698997Y-24731593D01*
X136658724Y-24756112D01*
X136543295Y-24799385D01*
X136426739Y-24886739D01*
X136339385Y-25003295D01*
X136288255Y-25139684D01*
X136281500Y-25201866D01*
X136281500Y-26998134D01*
X136288255Y-27060316D01*
X136339385Y-27196705D01*
X136426739Y-27313261D01*
X136543295Y-27400615D01*
X136551704Y-27403767D01*
X136551705Y-27403768D01*
X136660451Y-27444535D01*
X136717216Y-27487176D01*
X136741916Y-27553738D01*
X136726709Y-27623087D01*
X136707316Y-27649568D01*
X136580629Y-27782138D01*
X136454743Y-27966680D01*
X136360688Y-28169305D01*
X136300989Y-28384570D01*
X136277251Y-28606695D01*
X136277548Y-28611848D01*
X136277548Y-28611851D01*
X136283011Y-28706590D01*
X136290110Y-28829715D01*
X136291247Y-28834761D01*
X136291248Y-28834767D01*
X136311119Y-28922939D01*
X136339222Y-29047639D01*
X136423266Y-29254616D01*
X136539987Y-29445088D01*
X136686250Y-29613938D01*
X136858126Y-29756632D01*
X136928595Y-29797811D01*
X136931445Y-29799476D01*
X136980169Y-29851114D01*
X136993240Y-29920897D01*
X136966509Y-29986669D01*
X136926055Y-30020027D01*
X136913607Y-30026507D01*
X136909474Y-30029610D01*
X136909471Y-30029612D01*
X136885247Y-30047800D01*
X136734965Y-30160635D01*
X136580629Y-30322138D01*
X136454743Y-30506680D01*
X136360688Y-30709305D01*
X136300989Y-30924570D01*
X136277251Y-31146695D01*
X136277548Y-31151848D01*
X136277548Y-31151851D01*
X136283011Y-31246590D01*
X136290110Y-31369715D01*
X136291247Y-31374761D01*
X136291248Y-31374767D01*
X136311119Y-31462939D01*
X136339222Y-31587639D01*
X136423266Y-31794616D01*
X136539987Y-31985088D01*
X136686250Y-32153938D01*
X136858126Y-32296632D01*
X136928595Y-32337811D01*
X136931445Y-32339476D01*
X136980169Y-32391114D01*
X136993240Y-32460897D01*
X136966509Y-32526669D01*
X136926055Y-32560027D01*
X136913607Y-32566507D01*
X136909474Y-32569610D01*
X136909471Y-32569612D01*
X136885247Y-32587800D01*
X136734965Y-32700635D01*
X136580629Y-32862138D01*
X136454743Y-33046680D01*
X136360688Y-33249305D01*
X136300989Y-33464570D01*
X136277251Y-33686695D01*
X136277548Y-33691848D01*
X136277548Y-33691851D01*
X136283011Y-33786590D01*
X136290110Y-33909715D01*
X136291247Y-33914761D01*
X136291248Y-33914767D01*
X136311119Y-34002939D01*
X136339222Y-34127639D01*
X136423266Y-34334616D01*
X136539987Y-34525088D01*
X136686250Y-34693938D01*
X136858126Y-34836632D01*
X136928595Y-34877811D01*
X136931445Y-34879476D01*
X136980169Y-34931114D01*
X136993240Y-35000897D01*
X136966509Y-35066669D01*
X136926055Y-35100027D01*
X136913607Y-35106507D01*
X136909474Y-35109610D01*
X136909471Y-35109612D01*
X136885247Y-35127800D01*
X136734965Y-35240635D01*
X136580629Y-35402138D01*
X136454743Y-35586680D01*
X136360688Y-35789305D01*
X136300989Y-36004570D01*
X136277251Y-36226695D01*
X136277548Y-36231848D01*
X136277548Y-36231851D01*
X136283011Y-36326590D01*
X136290110Y-36449715D01*
X136291247Y-36454761D01*
X136291248Y-36454767D01*
X136311119Y-36542939D01*
X136339222Y-36667639D01*
X136423266Y-36874616D01*
X136539987Y-37065088D01*
X136686250Y-37233938D01*
X136690230Y-37237242D01*
X136694981Y-37241187D01*
X136734616Y-37300090D01*
X136736113Y-37371071D01*
X136698997Y-37431593D01*
X136658725Y-37456112D01*
X136570095Y-37489338D01*
X136543295Y-37499385D01*
X136426739Y-37586739D01*
X136339385Y-37703295D01*
X136288255Y-37839684D01*
X136281500Y-37901866D01*
X136281500Y-39698134D01*
X136288255Y-39760316D01*
X136339385Y-39896705D01*
X136426739Y-40013261D01*
X136543295Y-40100615D01*
X136551704Y-40103767D01*
X136551705Y-40103768D01*
X136660451Y-40144535D01*
X136717216Y-40187176D01*
X136741916Y-40253738D01*
X136726709Y-40323087D01*
X136707316Y-40349568D01*
X136580629Y-40482138D01*
X136454743Y-40666680D01*
X136360688Y-40869305D01*
X136300989Y-41084570D01*
X136277251Y-41306695D01*
X136277548Y-41311848D01*
X136277548Y-41311851D01*
X136283011Y-41406590D01*
X136290110Y-41529715D01*
X136291247Y-41534761D01*
X136291248Y-41534767D01*
X136311119Y-41622939D01*
X136339222Y-41747639D01*
X136423266Y-41954616D01*
X136539987Y-42145088D01*
X136686250Y-42313938D01*
X136858126Y-42456632D01*
X136928595Y-42497811D01*
X136931445Y-42499476D01*
X136980169Y-42551114D01*
X136993240Y-42620897D01*
X136966509Y-42686669D01*
X136926055Y-42720027D01*
X136913607Y-42726507D01*
X136909474Y-42729610D01*
X136909471Y-42729612D01*
X136885247Y-42747800D01*
X136734965Y-42860635D01*
X136580629Y-43022138D01*
X136454743Y-43206680D01*
X136360688Y-43409305D01*
X136300989Y-43624570D01*
X136277251Y-43846695D01*
X136277548Y-43851848D01*
X136277548Y-43851851D01*
X136283011Y-43946590D01*
X136290110Y-44069715D01*
X136291247Y-44074761D01*
X136291248Y-44074767D01*
X136311119Y-44162939D01*
X136339222Y-44287639D01*
X136423266Y-44494616D01*
X136539987Y-44685088D01*
X136686250Y-44853938D01*
X136858126Y-44996632D01*
X136928595Y-45037811D01*
X136931445Y-45039476D01*
X136980169Y-45091114D01*
X136993240Y-45160897D01*
X136966509Y-45226669D01*
X136926055Y-45260027D01*
X136913607Y-45266507D01*
X136909474Y-45269610D01*
X136909471Y-45269612D01*
X136885247Y-45287800D01*
X136734965Y-45400635D01*
X136580629Y-45562138D01*
X136454743Y-45746680D01*
X136360688Y-45949305D01*
X136300989Y-46164570D01*
X136277251Y-46386695D01*
X136277548Y-46391848D01*
X136277548Y-46391851D01*
X136283011Y-46486590D01*
X136290110Y-46609715D01*
X136291247Y-46614761D01*
X136291248Y-46614767D01*
X136311119Y-46702939D01*
X136339222Y-46827639D01*
X136423266Y-47034616D01*
X136539987Y-47225088D01*
X136686250Y-47393938D01*
X136858126Y-47536632D01*
X136928595Y-47577811D01*
X136931445Y-47579476D01*
X136980169Y-47631114D01*
X136993240Y-47700897D01*
X136966509Y-47766669D01*
X136926055Y-47800027D01*
X136913607Y-47806507D01*
X136909474Y-47809610D01*
X136909471Y-47809612D01*
X136885247Y-47827800D01*
X136734965Y-47940635D01*
X136580629Y-48102138D01*
X136454743Y-48286680D01*
X136360688Y-48489305D01*
X136300989Y-48704570D01*
X136277251Y-48926695D01*
X136277548Y-48931848D01*
X136277548Y-48931851D01*
X136283011Y-49026590D01*
X136290110Y-49149715D01*
X136291247Y-49154761D01*
X136291248Y-49154767D01*
X136311119Y-49242939D01*
X136339222Y-49367639D01*
X136423266Y-49574616D01*
X136539987Y-49765088D01*
X136686250Y-49933938D01*
X136690225Y-49937238D01*
X136690231Y-49937244D01*
X136695425Y-49941556D01*
X136735059Y-50000460D01*
X136736555Y-50071441D01*
X136699439Y-50131962D01*
X136659168Y-50156480D01*
X136551946Y-50196676D01*
X136536351Y-50205214D01*
X136434276Y-50281715D01*
X136421715Y-50294276D01*
X136345214Y-50396351D01*
X136336676Y-50411946D01*
X136291522Y-50532394D01*
X136287895Y-50547649D01*
X136282369Y-50598514D01*
X136282000Y-50605328D01*
X136282000Y-51227885D01*
X136286475Y-51243124D01*
X136287865Y-51244329D01*
X136295548Y-51246000D01*
X138979884Y-51246000D01*
X138995123Y-51241525D01*
X138996328Y-51240135D01*
X138997999Y-51232452D01*
X138997999Y-50605331D01*
X138997629Y-50598510D01*
X138992105Y-50547648D01*
X138988479Y-50532396D01*
X138943324Y-50411946D01*
X138934786Y-50396351D01*
X138858285Y-50294276D01*
X138845724Y-50281715D01*
X138743649Y-50205214D01*
X138728054Y-50196676D01*
X138617813Y-50155348D01*
X138561049Y-50112706D01*
X138536349Y-50046145D01*
X138551557Y-49976796D01*
X138573104Y-49948115D01*
X138674430Y-49847144D01*
X138674440Y-49847132D01*
X138678096Y-49843489D01*
X138737594Y-49760689D01*
X138805435Y-49666277D01*
X138808453Y-49662077D01*
X138907430Y-49461811D01*
X138972370Y-49248069D01*
X139001529Y-49026590D01*
X139003156Y-48960000D01*
X138984852Y-48737361D01*
X138930431Y-48520702D01*
X138841354Y-48315840D01*
X138720014Y-48128277D01*
X138569670Y-47963051D01*
X138565619Y-47959852D01*
X138565615Y-47959848D01*
X138398414Y-47827800D01*
X138398410Y-47827798D01*
X138394359Y-47824598D01*
X138353053Y-47801796D01*
X138303084Y-47751364D01*
X138288312Y-47681921D01*
X138313428Y-47615516D01*
X138340780Y-47588909D01*
X138384603Y-47557650D01*
X138519860Y-47461173D01*
X138678096Y-47303489D01*
X138737594Y-47220689D01*
X138805435Y-47126277D01*
X138808453Y-47122077D01*
X138907430Y-46921811D01*
X138972370Y-46708069D01*
X139001529Y-46486590D01*
X139003156Y-46420000D01*
X138984852Y-46197361D01*
X138930431Y-45980702D01*
X138841354Y-45775840D01*
X138720014Y-45588277D01*
X138569670Y-45423051D01*
X138565619Y-45419852D01*
X138565615Y-45419848D01*
X138398414Y-45287800D01*
X138398410Y-45287798D01*
X138394359Y-45284598D01*
X138353053Y-45261796D01*
X138303084Y-45211364D01*
X138288312Y-45141921D01*
X138313428Y-45075516D01*
X138340780Y-45048909D01*
X138384603Y-45017650D01*
X138519860Y-44921173D01*
X138678096Y-44763489D01*
X138737594Y-44680689D01*
X138805435Y-44586277D01*
X138808453Y-44582077D01*
X138907430Y-44381811D01*
X138972370Y-44168069D01*
X139001529Y-43946590D01*
X139003156Y-43880000D01*
X138984852Y-43657361D01*
X138930431Y-43440702D01*
X138841354Y-43235840D01*
X138720014Y-43048277D01*
X138569670Y-42883051D01*
X138565619Y-42879852D01*
X138565615Y-42879848D01*
X138398414Y-42747800D01*
X138398410Y-42747798D01*
X138394359Y-42744598D01*
X138353053Y-42721796D01*
X138303084Y-42671364D01*
X138288312Y-42601921D01*
X138313428Y-42535516D01*
X138340780Y-42508909D01*
X138384603Y-42477650D01*
X138519860Y-42381173D01*
X138678096Y-42223489D01*
X138737594Y-42140689D01*
X138805435Y-42046277D01*
X138808453Y-42042077D01*
X138907430Y-41841811D01*
X138972370Y-41628069D01*
X139001529Y-41406590D01*
X139003156Y-41340000D01*
X138984852Y-41117361D01*
X138930431Y-40900702D01*
X138841354Y-40695840D01*
X138720014Y-40508277D01*
X138716532Y-40504450D01*
X138572798Y-40346488D01*
X138541746Y-40282642D01*
X138550141Y-40212143D01*
X138595317Y-40157375D01*
X138621761Y-40143706D01*
X138728297Y-40103767D01*
X138736705Y-40100615D01*
X138853261Y-40013261D01*
X138940615Y-39896705D01*
X138991745Y-39760316D01*
X138998500Y-39698134D01*
X138998500Y-37901866D01*
X138991745Y-37839684D01*
X138940615Y-37703295D01*
X138853261Y-37586739D01*
X138736705Y-37499385D01*
X138709905Y-37489338D01*
X138618203Y-37454960D01*
X138561439Y-37412318D01*
X138536739Y-37345756D01*
X138551947Y-37276408D01*
X138573493Y-37247727D01*
X138674435Y-37147137D01*
X138678096Y-37143489D01*
X138737594Y-37060689D01*
X138805435Y-36966277D01*
X138808453Y-36962077D01*
X138907430Y-36761811D01*
X138972370Y-36548069D01*
X139001529Y-36326590D01*
X139003156Y-36260000D01*
X138984852Y-36037361D01*
X138930431Y-35820702D01*
X138841354Y-35615840D01*
X138720014Y-35428277D01*
X138569670Y-35263051D01*
X138565619Y-35259852D01*
X138565615Y-35259848D01*
X138398414Y-35127800D01*
X138398410Y-35127798D01*
X138394359Y-35124598D01*
X138353053Y-35101796D01*
X138303084Y-35051364D01*
X138288312Y-34981921D01*
X138313428Y-34915516D01*
X138340780Y-34888909D01*
X138384603Y-34857650D01*
X138519860Y-34761173D01*
X138678096Y-34603489D01*
X138737594Y-34520689D01*
X138805435Y-34426277D01*
X138808453Y-34422077D01*
X138907430Y-34221811D01*
X138972370Y-34008069D01*
X139001529Y-33786590D01*
X139003156Y-33720000D01*
X138984852Y-33497361D01*
X138930431Y-33280702D01*
X138841354Y-33075840D01*
X138720014Y-32888277D01*
X138569670Y-32723051D01*
X138565619Y-32719852D01*
X138565615Y-32719848D01*
X138398414Y-32587800D01*
X138398410Y-32587798D01*
X138394359Y-32584598D01*
X138353053Y-32561796D01*
X138303084Y-32511364D01*
X138288312Y-32441921D01*
X138313428Y-32375516D01*
X138340780Y-32348909D01*
X138384603Y-32317650D01*
X138519860Y-32221173D01*
X138678096Y-32063489D01*
X138737594Y-31980689D01*
X138805435Y-31886277D01*
X138808453Y-31882077D01*
X138907430Y-31681811D01*
X138972370Y-31468069D01*
X139001529Y-31246590D01*
X139003156Y-31180000D01*
X138984852Y-30957361D01*
X138930431Y-30740702D01*
X138841354Y-30535840D01*
X138720014Y-30348277D01*
X138569670Y-30183051D01*
X138565619Y-30179852D01*
X138565615Y-30179848D01*
X138398414Y-30047800D01*
X138398410Y-30047798D01*
X138394359Y-30044598D01*
X138353053Y-30021796D01*
X138303084Y-29971364D01*
X138288312Y-29901921D01*
X138313428Y-29835516D01*
X138340780Y-29808909D01*
X138384603Y-29777650D01*
X138519860Y-29681173D01*
X138678096Y-29523489D01*
X138737594Y-29440689D01*
X138805435Y-29346277D01*
X138808453Y-29342077D01*
X138907430Y-29141811D01*
X138972370Y-28928069D01*
X139001529Y-28706590D01*
X139003156Y-28640000D01*
X138984852Y-28417361D01*
X138930431Y-28200702D01*
X138841354Y-27995840D01*
X138720014Y-27808277D01*
X138716532Y-27804450D01*
X138572798Y-27646488D01*
X138541746Y-27582642D01*
X138550141Y-27512143D01*
X138595317Y-27457375D01*
X138621761Y-27443706D01*
X138728297Y-27403767D01*
X138736705Y-27400615D01*
X138853261Y-27313261D01*
X138940615Y-27196705D01*
X138991745Y-27060316D01*
X138998500Y-26998134D01*
X138998500Y-25201866D01*
X138991745Y-25139684D01*
X138940615Y-25003295D01*
X138853261Y-24886739D01*
X138736705Y-24799385D01*
X138724132Y-24794672D01*
X138618203Y-24754960D01*
X138561439Y-24712318D01*
X138536739Y-24645756D01*
X138551947Y-24576408D01*
X138573493Y-24547727D01*
X138674435Y-24447137D01*
X138678096Y-24443489D01*
X138713734Y-24393894D01*
X138805435Y-24266277D01*
X138808453Y-24262077D01*
X138907430Y-24061811D01*
X138972370Y-23848069D01*
X139001529Y-23626590D01*
X139003156Y-23560000D01*
X138984852Y-23337361D01*
X138930431Y-23120702D01*
X138841354Y-22915840D01*
X138720014Y-22728277D01*
X138569670Y-22563051D01*
X138565619Y-22559852D01*
X138565615Y-22559848D01*
X138398414Y-22427800D01*
X138398410Y-22427798D01*
X138394359Y-22424598D01*
X138353053Y-22401796D01*
X138303084Y-22351364D01*
X138288312Y-22281921D01*
X138313428Y-22215516D01*
X138340780Y-22188909D01*
X138387089Y-22155877D01*
X138519860Y-22061173D01*
X138678096Y-21903489D01*
X138737594Y-21820689D01*
X138805435Y-21726277D01*
X138808453Y-21722077D01*
X138831759Y-21674922D01*
X138905136Y-21526453D01*
X138905137Y-21526451D01*
X138907430Y-21521811D01*
X138972370Y-21308069D01*
X139001529Y-21086590D01*
X139003156Y-21020000D01*
X138984852Y-20797361D01*
X138930431Y-20580702D01*
X138841354Y-20375840D01*
X138720014Y-20188277D01*
X138569670Y-20023051D01*
X138565619Y-20019852D01*
X138565615Y-20019848D01*
X138456130Y-19933382D01*
X138415067Y-19875465D01*
X138411835Y-19804542D01*
X138447461Y-19743130D01*
X138510632Y-19710728D01*
X138534222Y-19708500D01*
X141940500Y-19708500D01*
X142008621Y-19728502D01*
X142055114Y-19782158D01*
X142066500Y-19834500D01*
X142066500Y-93388700D01*
X142046498Y-93456821D01*
X141992842Y-93503314D01*
X141940500Y-93514700D01*
X115259500Y-93514700D01*
X115191379Y-93494698D01*
X115144886Y-93441042D01*
X115133500Y-93388700D01*
X115133500Y-90390695D01*
X117255251Y-90390695D01*
X117255548Y-90395848D01*
X117255548Y-90395851D01*
X117261011Y-90490590D01*
X117268110Y-90613715D01*
X117269247Y-90618761D01*
X117269248Y-90618767D01*
X117289119Y-90706939D01*
X117317222Y-90831639D01*
X117401266Y-91038616D01*
X117517987Y-91229088D01*
X117664250Y-91397938D01*
X117836126Y-91540632D01*
X118029000Y-91653338D01*
X118237692Y-91733030D01*
X118242760Y-91734061D01*
X118242763Y-91734062D01*
X118350017Y-91755883D01*
X118456597Y-91777567D01*
X118461772Y-91777757D01*
X118461774Y-91777757D01*
X118674673Y-91785564D01*
X118674677Y-91785564D01*
X118679837Y-91785753D01*
X118684957Y-91785097D01*
X118684959Y-91785097D01*
X118896288Y-91758025D01*
X118896289Y-91758025D01*
X118901416Y-91757368D01*
X118906366Y-91755883D01*
X119110429Y-91694661D01*
X119110434Y-91694659D01*
X119115384Y-91693174D01*
X119315994Y-91594896D01*
X119497860Y-91465173D01*
X119656096Y-91307489D01*
X119715594Y-91224689D01*
X119783435Y-91130277D01*
X119786453Y-91126077D01*
X119885430Y-90925811D01*
X119950370Y-90712069D01*
X119979529Y-90490590D01*
X119981156Y-90424000D01*
X119962852Y-90201361D01*
X119908431Y-89984702D01*
X119819354Y-89779840D01*
X119698014Y-89592277D01*
X119547670Y-89427051D01*
X119543619Y-89423852D01*
X119543615Y-89423848D01*
X119376414Y-89291800D01*
X119376410Y-89291798D01*
X119372359Y-89288598D01*
X119331053Y-89265796D01*
X119281084Y-89215364D01*
X119266312Y-89145921D01*
X119291428Y-89079516D01*
X119318780Y-89052909D01*
X119362603Y-89021650D01*
X119497860Y-88925173D01*
X119656096Y-88767489D01*
X119711131Y-88690900D01*
X119783435Y-88590277D01*
X119786453Y-88586077D01*
X119788746Y-88581437D01*
X119790446Y-88578608D01*
X119842674Y-88530518D01*
X119898451Y-88517500D01*
X122259606Y-88517500D01*
X122333667Y-88541564D01*
X122377648Y-88573518D01*
X122383676Y-88576202D01*
X122383678Y-88576203D01*
X122546081Y-88648509D01*
X122552112Y-88651194D01*
X122645512Y-88671047D01*
X122732456Y-88689528D01*
X122732461Y-88689528D01*
X122738913Y-88690900D01*
X122929887Y-88690900D01*
X122936339Y-88689528D01*
X122936344Y-88689528D01*
X123023288Y-88671047D01*
X123116688Y-88651194D01*
X123122719Y-88648509D01*
X123285122Y-88576203D01*
X123285124Y-88576202D01*
X123291152Y-88573518D01*
X123445653Y-88461266D01*
X123573440Y-88319344D01*
X123668927Y-88153956D01*
X123727942Y-87972328D01*
X123741266Y-87845562D01*
X123747214Y-87788965D01*
X123747904Y-87782400D01*
X123731736Y-87628570D01*
X123728632Y-87599035D01*
X123728632Y-87599033D01*
X123727942Y-87592472D01*
X123668927Y-87410844D01*
X123573440Y-87245456D01*
X123568384Y-87239840D01*
X123450075Y-87108445D01*
X123450074Y-87108444D01*
X123445653Y-87103534D01*
X123339127Y-87026138D01*
X123296494Y-86995163D01*
X123296493Y-86995162D01*
X123291152Y-86991282D01*
X123285124Y-86988598D01*
X123285122Y-86988597D01*
X123122719Y-86916291D01*
X123122718Y-86916291D01*
X123116688Y-86913606D01*
X123009724Y-86890870D01*
X122936344Y-86875272D01*
X122936339Y-86875272D01*
X122929887Y-86873900D01*
X122738913Y-86873900D01*
X122732461Y-86875272D01*
X122732456Y-86875272D01*
X122659076Y-86890870D01*
X122552112Y-86913606D01*
X122546082Y-86916291D01*
X122546081Y-86916291D01*
X122383678Y-86988597D01*
X122383676Y-86988598D01*
X122377648Y-86991282D01*
X122372307Y-86995162D01*
X122372306Y-86995163D01*
X122329673Y-87026138D01*
X122223147Y-87103534D01*
X122218726Y-87108444D01*
X122218725Y-87108445D01*
X122128356Y-87208810D01*
X122067910Y-87246050D01*
X122034720Y-87250500D01*
X119894805Y-87250500D01*
X119826684Y-87230498D01*
X119789013Y-87192940D01*
X119700822Y-87056617D01*
X119700820Y-87056614D01*
X119698014Y-87052277D01*
X119547670Y-86887051D01*
X119543619Y-86883852D01*
X119543615Y-86883848D01*
X119376414Y-86751800D01*
X119376410Y-86751798D01*
X119372359Y-86748598D01*
X119331053Y-86725796D01*
X119281084Y-86675364D01*
X119266312Y-86605921D01*
X119291428Y-86539516D01*
X119318780Y-86512909D01*
X119362603Y-86481650D01*
X119497860Y-86385173D01*
X119656096Y-86227489D01*
X119660255Y-86221702D01*
X119783435Y-86050277D01*
X119786453Y-86046077D01*
X119795209Y-86028362D01*
X119883136Y-85850453D01*
X119883137Y-85850451D01*
X119885430Y-85845811D01*
X119940439Y-85664756D01*
X119948865Y-85637023D01*
X119948865Y-85637021D01*
X119950370Y-85632069D01*
X119979529Y-85410590D01*
X119979611Y-85407240D01*
X119981074Y-85347365D01*
X119981074Y-85347361D01*
X119981156Y-85344000D01*
X119962852Y-85121361D01*
X119908431Y-84904702D01*
X119819354Y-84699840D01*
X119698014Y-84512277D01*
X119547670Y-84347051D01*
X119543619Y-84343852D01*
X119543615Y-84343848D01*
X119376414Y-84211800D01*
X119376410Y-84211798D01*
X119372359Y-84208598D01*
X119331053Y-84185796D01*
X119281084Y-84135364D01*
X119266312Y-84065921D01*
X119291428Y-83999516D01*
X119318780Y-83972909D01*
X119362603Y-83941650D01*
X119497860Y-83845173D01*
X119656096Y-83687489D01*
X119715594Y-83604689D01*
X119783435Y-83510277D01*
X119786453Y-83506077D01*
X119788746Y-83501437D01*
X119790446Y-83498608D01*
X119842674Y-83450518D01*
X119898451Y-83437500D01*
X121148206Y-83437500D01*
X121216327Y-83457502D01*
X121237301Y-83474405D01*
X123004878Y-85241982D01*
X123038904Y-85304294D01*
X123041092Y-85317903D01*
X123058458Y-85483128D01*
X123117473Y-85664756D01*
X123212960Y-85830144D01*
X123217378Y-85835051D01*
X123217379Y-85835052D01*
X123331509Y-85961806D01*
X123340747Y-85972066D01*
X123495248Y-86084318D01*
X123501276Y-86087002D01*
X123501278Y-86087003D01*
X123663681Y-86159309D01*
X123669712Y-86161994D01*
X123759612Y-86181103D01*
X123850056Y-86200328D01*
X123850061Y-86200328D01*
X123856513Y-86201700D01*
X123912406Y-86201700D01*
X123980527Y-86221702D01*
X124001501Y-86238605D01*
X127004343Y-89241447D01*
X127011887Y-89249737D01*
X127016000Y-89256218D01*
X127021777Y-89261643D01*
X127065667Y-89302858D01*
X127068509Y-89305613D01*
X127088230Y-89325334D01*
X127091425Y-89327812D01*
X127100447Y-89335518D01*
X127132679Y-89365786D01*
X127139628Y-89369606D01*
X127150432Y-89375546D01*
X127166956Y-89386399D01*
X127182959Y-89398813D01*
X127223543Y-89416376D01*
X127234173Y-89421583D01*
X127272940Y-89442895D01*
X127280617Y-89444866D01*
X127280622Y-89444868D01*
X127292558Y-89447932D01*
X127311266Y-89454337D01*
X127329855Y-89462381D01*
X127337680Y-89463620D01*
X127337682Y-89463621D01*
X127373519Y-89469297D01*
X127385140Y-89471704D01*
X127416959Y-89479873D01*
X127427970Y-89482700D01*
X127448231Y-89482700D01*
X127467940Y-89484251D01*
X127487943Y-89487419D01*
X127495835Y-89486673D01*
X127501062Y-89486179D01*
X127531954Y-89483259D01*
X127543811Y-89482700D01*
X136014433Y-89482700D01*
X136025616Y-89483227D01*
X136033109Y-89484902D01*
X136041035Y-89484653D01*
X136041036Y-89484653D01*
X136101186Y-89482762D01*
X136105145Y-89482700D01*
X136133056Y-89482700D01*
X136136991Y-89482203D01*
X136137056Y-89482195D01*
X136148893Y-89481262D01*
X136181151Y-89480248D01*
X136185170Y-89480122D01*
X136193089Y-89479873D01*
X136212543Y-89474221D01*
X136231900Y-89470213D01*
X136244130Y-89468668D01*
X136244131Y-89468668D01*
X136251997Y-89467674D01*
X136259368Y-89464755D01*
X136259370Y-89464755D01*
X136293112Y-89451396D01*
X136304342Y-89447551D01*
X136339183Y-89437429D01*
X136339184Y-89437429D01*
X136346793Y-89435218D01*
X136353612Y-89431185D01*
X136353617Y-89431183D01*
X136364228Y-89424907D01*
X136381976Y-89416212D01*
X136400817Y-89408752D01*
X136410758Y-89401530D01*
X136436587Y-89382764D01*
X136446507Y-89376248D01*
X136477735Y-89357780D01*
X136477738Y-89357778D01*
X136484562Y-89353742D01*
X136498883Y-89339421D01*
X136513917Y-89326580D01*
X136515632Y-89325334D01*
X136530307Y-89314672D01*
X136558498Y-89280595D01*
X136566488Y-89271816D01*
X138807899Y-87030405D01*
X138870211Y-86996379D01*
X138896994Y-86993500D01*
X139347400Y-86993500D01*
X139415521Y-87013502D01*
X139434747Y-87029843D01*
X139435020Y-87029540D01*
X139439932Y-87033963D01*
X139444347Y-87038866D01*
X139457548Y-87048457D01*
X139533355Y-87103534D01*
X139598848Y-87151118D01*
X139604876Y-87153802D01*
X139604878Y-87153803D01*
X139761646Y-87223600D01*
X139773312Y-87228794D01*
X139854495Y-87246050D01*
X139953656Y-87267128D01*
X139953661Y-87267128D01*
X139960113Y-87268500D01*
X140151087Y-87268500D01*
X140157539Y-87267128D01*
X140157544Y-87267128D01*
X140256705Y-87246050D01*
X140337888Y-87228794D01*
X140349554Y-87223600D01*
X140506322Y-87153803D01*
X140506324Y-87153802D01*
X140512352Y-87151118D01*
X140666853Y-87038866D01*
X140675250Y-87029540D01*
X140790221Y-86901852D01*
X140790222Y-86901851D01*
X140794640Y-86896944D01*
X140890127Y-86731556D01*
X140949142Y-86549928D01*
X140950237Y-86539516D01*
X140968414Y-86366565D01*
X140969104Y-86360000D01*
X140959116Y-86264967D01*
X140949832Y-86176635D01*
X140949832Y-86176633D01*
X140949142Y-86170072D01*
X140890127Y-85988444D01*
X140875449Y-85963020D01*
X140841015Y-85903380D01*
X140794640Y-85823056D01*
X140778482Y-85805110D01*
X140671275Y-85686045D01*
X140671274Y-85686044D01*
X140666853Y-85681134D01*
X140512352Y-85568882D01*
X140506324Y-85566198D01*
X140506322Y-85566197D01*
X140343919Y-85493891D01*
X140343918Y-85493891D01*
X140337888Y-85491206D01*
X140244487Y-85471353D01*
X140157544Y-85452872D01*
X140157539Y-85452872D01*
X140151087Y-85451500D01*
X139960113Y-85451500D01*
X139953661Y-85452872D01*
X139953656Y-85452872D01*
X139866712Y-85471353D01*
X139773312Y-85491206D01*
X139767282Y-85493891D01*
X139767281Y-85493891D01*
X139604878Y-85566197D01*
X139604876Y-85566198D01*
X139598848Y-85568882D01*
X139444347Y-85681134D01*
X139439932Y-85686037D01*
X139435020Y-85690460D01*
X139433895Y-85689211D01*
X139380586Y-85722051D01*
X139347400Y-85726500D01*
X138661163Y-85726500D01*
X138649979Y-85725973D01*
X138642491Y-85724299D01*
X138634568Y-85724548D01*
X138574433Y-85726438D01*
X138570475Y-85726500D01*
X138542544Y-85726500D01*
X138538629Y-85726995D01*
X138538625Y-85726995D01*
X138538567Y-85727003D01*
X138538538Y-85727006D01*
X138526696Y-85727939D01*
X138482510Y-85729327D01*
X138465144Y-85734372D01*
X138463058Y-85734978D01*
X138443706Y-85738986D01*
X138431468Y-85740532D01*
X138431466Y-85740533D01*
X138423603Y-85741526D01*
X138382486Y-85757806D01*
X138371285Y-85761641D01*
X138328806Y-85773982D01*
X138321987Y-85778015D01*
X138321982Y-85778017D01*
X138311371Y-85784293D01*
X138293621Y-85792990D01*
X138274783Y-85800448D01*
X138239346Y-85826195D01*
X138239025Y-85826428D01*
X138229101Y-85832947D01*
X138197860Y-85851422D01*
X138197855Y-85851426D01*
X138191037Y-85855458D01*
X138176713Y-85869782D01*
X138161681Y-85882621D01*
X138145293Y-85894528D01*
X138119236Y-85926026D01*
X138117112Y-85928593D01*
X138109122Y-85937373D01*
X137927344Y-86119151D01*
X137865032Y-86153177D01*
X137794217Y-86148112D01*
X137744613Y-86114367D01*
X137720453Y-86087534D01*
X137592830Y-85994810D01*
X137571294Y-85979163D01*
X137571293Y-85979162D01*
X137565952Y-85975282D01*
X137559924Y-85972598D01*
X137559922Y-85972597D01*
X137397519Y-85900291D01*
X137397518Y-85900291D01*
X137391488Y-85897606D01*
X137271869Y-85872180D01*
X137211144Y-85859272D01*
X137211139Y-85859272D01*
X137204687Y-85857900D01*
X137013713Y-85857900D01*
X137007261Y-85859272D01*
X137007256Y-85859272D01*
X136946531Y-85872180D01*
X136826912Y-85897606D01*
X136820882Y-85900291D01*
X136820881Y-85900291D01*
X136658478Y-85972597D01*
X136658476Y-85972598D01*
X136652448Y-85975282D01*
X136647107Y-85979162D01*
X136647106Y-85979163D01*
X136625570Y-85994810D01*
X136497947Y-86087534D01*
X136493529Y-86092441D01*
X136493525Y-86092445D01*
X136395152Y-86201700D01*
X136370160Y-86229456D01*
X136327526Y-86303300D01*
X136278526Y-86388171D01*
X136274673Y-86394844D01*
X136215658Y-86576472D01*
X136214968Y-86583033D01*
X136214968Y-86583035D01*
X136211525Y-86615797D01*
X136199469Y-86730507D01*
X136198293Y-86741692D01*
X136171280Y-86807349D01*
X136162078Y-86817617D01*
X135512100Y-87467595D01*
X135449788Y-87501621D01*
X135423005Y-87504500D01*
X131973018Y-87504500D01*
X131904897Y-87484498D01*
X131858404Y-87430842D01*
X131847708Y-87365330D01*
X131861914Y-87230165D01*
X131862604Y-87223600D01*
X131845054Y-87056617D01*
X131843332Y-87040235D01*
X131843332Y-87040233D01*
X131842642Y-87033672D01*
X131783627Y-86852044D01*
X131688140Y-86686656D01*
X131570683Y-86556206D01*
X131564775Y-86549645D01*
X131564774Y-86549644D01*
X131560353Y-86544734D01*
X131440048Y-86457327D01*
X131411194Y-86436363D01*
X131411193Y-86436362D01*
X131405852Y-86432482D01*
X131399824Y-86429798D01*
X131399822Y-86429797D01*
X131237419Y-86357491D01*
X131237418Y-86357491D01*
X131231388Y-86354806D01*
X131224933Y-86353434D01*
X131224930Y-86353433D01*
X131198517Y-86347819D01*
X131136043Y-86314091D01*
X131101722Y-86251942D01*
X131106449Y-86181103D01*
X131150652Y-86122636D01*
X131208734Y-86080437D01*
X131218053Y-86073666D01*
X131222468Y-86068763D01*
X131227380Y-86064340D01*
X131228505Y-86065589D01*
X131281814Y-86032749D01*
X131315000Y-86028300D01*
X132661633Y-86028300D01*
X132672816Y-86028827D01*
X132680309Y-86030502D01*
X132688235Y-86030253D01*
X132688236Y-86030253D01*
X132748386Y-86028362D01*
X132752345Y-86028300D01*
X132780256Y-86028300D01*
X132784191Y-86027803D01*
X132784256Y-86027795D01*
X132796093Y-86026862D01*
X132828351Y-86025848D01*
X132832370Y-86025722D01*
X132840289Y-86025473D01*
X132859743Y-86019821D01*
X132879100Y-86015813D01*
X132891330Y-86014268D01*
X132891331Y-86014268D01*
X132899197Y-86013274D01*
X132906568Y-86010355D01*
X132906570Y-86010355D01*
X132940312Y-85996996D01*
X132951542Y-85993151D01*
X132986383Y-85983029D01*
X132986384Y-85983029D01*
X132993993Y-85980818D01*
X133000812Y-85976785D01*
X133000817Y-85976783D01*
X133011428Y-85970507D01*
X133029176Y-85961812D01*
X133048017Y-85954352D01*
X133083787Y-85928364D01*
X133093707Y-85921848D01*
X133124935Y-85903380D01*
X133124938Y-85903378D01*
X133131762Y-85899342D01*
X133146083Y-85885021D01*
X133161117Y-85872180D01*
X133177507Y-85860272D01*
X133205698Y-85826195D01*
X133213688Y-85817416D01*
X134127099Y-84904005D01*
X134189411Y-84869979D01*
X134216194Y-84867100D01*
X134272087Y-84867100D01*
X134278539Y-84865728D01*
X134278544Y-84865728D01*
X134365487Y-84847247D01*
X134458888Y-84827394D01*
X134464919Y-84824709D01*
X134627322Y-84752403D01*
X134627324Y-84752402D01*
X134633352Y-84749718D01*
X134787853Y-84637466D01*
X134915640Y-84495544D01*
X135011127Y-84330156D01*
X135070142Y-84148528D01*
X135075176Y-84100638D01*
X135089414Y-83965165D01*
X135090104Y-83958600D01*
X135083140Y-83892337D01*
X135070832Y-83775235D01*
X135070832Y-83775233D01*
X135070142Y-83768672D01*
X135011127Y-83587044D01*
X134915640Y-83421656D01*
X134842463Y-83340385D01*
X134811747Y-83276379D01*
X134810100Y-83256076D01*
X134810100Y-82300167D01*
X134810627Y-82288984D01*
X134812302Y-82281491D01*
X134810162Y-82213400D01*
X134810100Y-82209443D01*
X134810100Y-82181544D01*
X134809596Y-82177553D01*
X134808663Y-82165711D01*
X134808479Y-82159840D01*
X134807274Y-82121511D01*
X134805062Y-82113897D01*
X134805061Y-82113892D01*
X134801623Y-82102059D01*
X134797612Y-82082695D01*
X134796067Y-82070464D01*
X134795074Y-82062603D01*
X134792157Y-82055236D01*
X134792156Y-82055231D01*
X134778798Y-82021492D01*
X134774954Y-82010265D01*
X134768606Y-81988417D01*
X134762618Y-81967807D01*
X134752307Y-81950372D01*
X134743612Y-81932624D01*
X134736152Y-81913783D01*
X134710164Y-81878013D01*
X134703648Y-81868093D01*
X134685180Y-81836865D01*
X134685178Y-81836862D01*
X134681142Y-81830038D01*
X134669961Y-81818857D01*
X134635935Y-81756545D01*
X134641000Y-81685730D01*
X134683547Y-81628894D01*
X134750067Y-81604083D01*
X134784173Y-81606291D01*
X134839597Y-81617567D01*
X134844772Y-81617757D01*
X134844774Y-81617757D01*
X135057673Y-81625564D01*
X135057677Y-81625564D01*
X135062837Y-81625753D01*
X135067957Y-81625097D01*
X135067959Y-81625097D01*
X135279288Y-81598025D01*
X135279289Y-81598025D01*
X135284416Y-81597368D01*
X135291986Y-81595097D01*
X135493429Y-81534661D01*
X135493434Y-81534659D01*
X135498384Y-81533174D01*
X135698994Y-81434896D01*
X135880860Y-81305173D01*
X136039096Y-81147489D01*
X136169453Y-80966077D01*
X136268430Y-80765811D01*
X136333370Y-80552069D01*
X136362529Y-80330590D01*
X136364156Y-80264000D01*
X136345852Y-80041361D01*
X136291431Y-79824702D01*
X136202354Y-79619840D01*
X136081014Y-79432277D01*
X135930670Y-79267051D01*
X135926619Y-79263852D01*
X135926615Y-79263848D01*
X135759414Y-79131800D01*
X135759410Y-79131798D01*
X135755359Y-79128598D01*
X135714053Y-79105796D01*
X135664084Y-79055364D01*
X135649312Y-78985921D01*
X135674428Y-78919516D01*
X135701780Y-78892909D01*
X135745603Y-78861650D01*
X135880860Y-78765173D01*
X136039096Y-78607489D01*
X136098594Y-78524689D01*
X136166435Y-78430277D01*
X136169453Y-78426077D01*
X136268430Y-78225811D01*
X136333370Y-78012069D01*
X136362529Y-77790590D01*
X136364156Y-77724000D01*
X136345852Y-77501361D01*
X136291431Y-77284702D01*
X136202354Y-77079840D01*
X136081014Y-76892277D01*
X135930670Y-76727051D01*
X135926619Y-76723852D01*
X135926615Y-76723848D01*
X135759414Y-76591800D01*
X135759410Y-76591798D01*
X135755359Y-76588598D01*
X135714053Y-76565796D01*
X135664084Y-76515364D01*
X135649312Y-76445921D01*
X135674428Y-76379516D01*
X135701780Y-76352909D01*
X135745603Y-76321650D01*
X135880860Y-76225173D01*
X136039096Y-76067489D01*
X136169453Y-75886077D01*
X136190320Y-75843857D01*
X136266136Y-75690453D01*
X136266137Y-75690451D01*
X136268430Y-75685811D01*
X136300900Y-75578940D01*
X136331865Y-75477023D01*
X136331865Y-75477021D01*
X136333370Y-75472069D01*
X136362529Y-75250590D01*
X136364156Y-75184000D01*
X136345852Y-74961361D01*
X136291431Y-74744702D01*
X136202354Y-74539840D01*
X136081014Y-74352277D01*
X135930670Y-74187051D01*
X135874322Y-74142550D01*
X135833259Y-74084633D01*
X135830027Y-74013710D01*
X135843296Y-73980667D01*
X135868923Y-73936281D01*
X135868924Y-73936278D01*
X135872228Y-73930556D01*
X135931243Y-73748928D01*
X135951205Y-73559000D01*
X135931243Y-73369072D01*
X135872228Y-73187444D01*
X135776741Y-73022056D01*
X135703564Y-72940785D01*
X135672848Y-72876779D01*
X135671201Y-72856476D01*
X135671201Y-69246695D01*
X136277251Y-69246695D01*
X136277548Y-69251848D01*
X136277548Y-69251851D01*
X136283011Y-69346590D01*
X136290110Y-69469715D01*
X136291247Y-69474761D01*
X136291248Y-69474767D01*
X136311119Y-69562939D01*
X136339222Y-69687639D01*
X136423266Y-69894616D01*
X136539987Y-70085088D01*
X136686250Y-70253938D01*
X136767235Y-70321173D01*
X136840360Y-70381882D01*
X136858126Y-70396632D01*
X137051000Y-70509338D01*
X137055825Y-70511180D01*
X137055826Y-70511181D01*
X137128612Y-70538975D01*
X137259692Y-70589030D01*
X137264760Y-70590061D01*
X137264763Y-70590062D01*
X137372017Y-70611883D01*
X137478597Y-70633567D01*
X137483772Y-70633757D01*
X137483774Y-70633757D01*
X137696673Y-70641564D01*
X137696677Y-70641564D01*
X137701837Y-70641753D01*
X137706957Y-70641097D01*
X137706959Y-70641097D01*
X137918288Y-70614025D01*
X137918289Y-70614025D01*
X137923416Y-70613368D01*
X137928366Y-70611883D01*
X138132429Y-70550661D01*
X138132434Y-70550659D01*
X138137384Y-70549174D01*
X138337994Y-70450896D01*
X138519860Y-70321173D01*
X138561842Y-70279338D01*
X138620488Y-70220896D01*
X138678096Y-70163489D01*
X138690157Y-70146705D01*
X138805435Y-69986277D01*
X138808453Y-69982077D01*
X138825336Y-69947918D01*
X138905136Y-69786453D01*
X138905137Y-69786451D01*
X138907430Y-69781811D01*
X138972370Y-69568069D01*
X139001529Y-69346590D01*
X139003156Y-69280000D01*
X138984852Y-69057361D01*
X138930431Y-68840702D01*
X138841354Y-68635840D01*
X138732191Y-68467099D01*
X138722822Y-68452617D01*
X138722820Y-68452614D01*
X138720014Y-68448277D01*
X138569670Y-68283051D01*
X138565619Y-68279852D01*
X138565615Y-68279848D01*
X138398414Y-68147800D01*
X138398410Y-68147798D01*
X138394359Y-68144598D01*
X138353053Y-68121796D01*
X138303084Y-68071364D01*
X138288312Y-68001921D01*
X138313428Y-67935516D01*
X138340780Y-67908909D01*
X138384603Y-67877650D01*
X138519860Y-67781173D01*
X138546355Y-67754771D01*
X138674435Y-67627137D01*
X138678096Y-67623489D01*
X138696193Y-67598305D01*
X138805435Y-67446277D01*
X138808453Y-67442077D01*
X138907430Y-67241811D01*
X138972370Y-67028069D01*
X139001529Y-66806590D01*
X139003156Y-66740000D01*
X138984852Y-66517361D01*
X138930431Y-66300702D01*
X138841354Y-66095840D01*
X138720014Y-65908277D01*
X138716540Y-65904459D01*
X138716533Y-65904450D01*
X138572435Y-65746088D01*
X138541383Y-65682242D01*
X138549779Y-65611744D01*
X138594956Y-65556976D01*
X138621400Y-65543307D01*
X138728052Y-65503325D01*
X138743649Y-65494786D01*
X138845724Y-65418285D01*
X138858285Y-65405724D01*
X138934786Y-65303649D01*
X138943324Y-65288054D01*
X138988478Y-65167606D01*
X138992105Y-65152351D01*
X138997631Y-65101486D01*
X138998000Y-65094672D01*
X138998000Y-64472115D01*
X138993525Y-64456876D01*
X138992135Y-64455671D01*
X138984452Y-64454000D01*
X136300116Y-64454000D01*
X136284877Y-64458475D01*
X136283672Y-64459865D01*
X136282001Y-64467548D01*
X136282001Y-65094669D01*
X136282371Y-65101490D01*
X136287895Y-65152352D01*
X136291521Y-65167604D01*
X136336676Y-65288054D01*
X136345214Y-65303649D01*
X136421715Y-65405724D01*
X136434276Y-65418285D01*
X136536351Y-65494786D01*
X136551946Y-65503324D01*
X136660827Y-65544142D01*
X136717591Y-65586784D01*
X136742291Y-65653345D01*
X136727083Y-65722694D01*
X136707691Y-65749175D01*
X136584200Y-65878401D01*
X136580629Y-65882138D01*
X136454743Y-66066680D01*
X136360688Y-66269305D01*
X136300989Y-66484570D01*
X136277251Y-66706695D01*
X136277548Y-66711848D01*
X136277548Y-66711851D01*
X136283011Y-66806590D01*
X136290110Y-66929715D01*
X136291247Y-66934761D01*
X136291248Y-66934767D01*
X136311119Y-67022939D01*
X136339222Y-67147639D01*
X136423266Y-67354616D01*
X136539987Y-67545088D01*
X136686250Y-67713938D01*
X136858126Y-67856632D01*
X136922276Y-67894118D01*
X136931445Y-67899476D01*
X136980169Y-67951114D01*
X136993240Y-68020897D01*
X136966509Y-68086669D01*
X136926055Y-68120027D01*
X136913607Y-68126507D01*
X136909474Y-68129610D01*
X136909471Y-68129612D01*
X136785600Y-68222617D01*
X136734965Y-68260635D01*
X136731393Y-68264373D01*
X136591665Y-68410590D01*
X136580629Y-68422138D01*
X136454743Y-68606680D01*
X136439003Y-68640590D01*
X136367528Y-68794570D01*
X136360688Y-68809305D01*
X136300989Y-69024570D01*
X136277251Y-69246695D01*
X135671201Y-69246695D01*
X135671201Y-69169623D01*
X135691203Y-69101502D01*
X135703559Y-69085320D01*
X135776741Y-69004043D01*
X135872228Y-68838655D01*
X135931243Y-68657027D01*
X135935585Y-68615720D01*
X135950515Y-68473664D01*
X135951205Y-68467099D01*
X135946929Y-68426411D01*
X135931933Y-68283734D01*
X135931933Y-68283732D01*
X135931243Y-68277171D01*
X135872228Y-68095543D01*
X135776741Y-67930155D01*
X135762734Y-67914598D01*
X135653376Y-67793144D01*
X135653375Y-67793143D01*
X135648954Y-67788233D01*
X135541319Y-67710031D01*
X135499795Y-67679862D01*
X135499794Y-67679861D01*
X135494453Y-67675981D01*
X135488425Y-67673297D01*
X135488423Y-67673296D01*
X135326020Y-67600990D01*
X135326019Y-67600990D01*
X135319989Y-67598305D01*
X135226589Y-67578452D01*
X135139645Y-67559971D01*
X135139640Y-67559971D01*
X135133188Y-67558599D01*
X134942214Y-67558599D01*
X134935762Y-67559971D01*
X134935757Y-67559971D01*
X134848813Y-67578452D01*
X134755413Y-67598305D01*
X134749383Y-67600990D01*
X134749382Y-67600990D01*
X134586979Y-67673296D01*
X134586977Y-67673297D01*
X134580949Y-67675981D01*
X134575608Y-67679861D01*
X134575607Y-67679862D01*
X134534083Y-67710031D01*
X134426448Y-67788233D01*
X134422027Y-67793143D01*
X134422026Y-67793144D01*
X134312669Y-67914598D01*
X134298661Y-67930155D01*
X134203174Y-68095543D01*
X134144159Y-68277171D01*
X134143469Y-68283732D01*
X134143469Y-68283734D01*
X134128473Y-68426411D01*
X134124197Y-68467099D01*
X134124887Y-68473664D01*
X134139818Y-68615720D01*
X134144159Y-68657027D01*
X134203174Y-68838655D01*
X134298661Y-69004043D01*
X134371838Y-69085314D01*
X134402554Y-69149320D01*
X134404201Y-69169623D01*
X134404201Y-72856476D01*
X134384199Y-72924597D01*
X134371843Y-72940779D01*
X134298661Y-73022056D01*
X134203174Y-73187444D01*
X134144159Y-73369072D01*
X134124197Y-73559000D01*
X134144159Y-73748928D01*
X134203174Y-73930556D01*
X134206473Y-73936271D01*
X134206474Y-73936272D01*
X134209196Y-73940987D01*
X134225933Y-74009983D01*
X134202712Y-74077075D01*
X134175729Y-74104746D01*
X134125379Y-74142550D01*
X134095965Y-74164635D01*
X133941629Y-74326138D01*
X133834201Y-74483621D01*
X133779293Y-74528621D01*
X133708768Y-74536792D01*
X133645021Y-74505538D01*
X133624324Y-74481054D01*
X133543822Y-74356617D01*
X133543820Y-74356614D01*
X133541014Y-74352277D01*
X133390670Y-74187051D01*
X133386616Y-74183849D01*
X133386615Y-74183848D01*
X133219414Y-74051800D01*
X133219410Y-74051798D01*
X133215359Y-74048598D01*
X133019789Y-73940638D01*
X133014920Y-73938914D01*
X133014916Y-73938912D01*
X132814087Y-73867795D01*
X132814083Y-73867794D01*
X132809212Y-73866069D01*
X132804119Y-73865162D01*
X132804116Y-73865161D01*
X132594373Y-73827800D01*
X132594367Y-73827799D01*
X132589284Y-73826894D01*
X132515452Y-73825992D01*
X132371081Y-73824228D01*
X132371079Y-73824228D01*
X132365911Y-73824165D01*
X132145091Y-73857955D01*
X131932756Y-73927357D01*
X131734607Y-74030507D01*
X131730474Y-74033610D01*
X131730471Y-74033612D01*
X131560100Y-74161530D01*
X131555965Y-74164635D01*
X131401629Y-74326138D01*
X131275743Y-74510680D01*
X131181688Y-74713305D01*
X131121989Y-74928570D01*
X131098251Y-75150695D01*
X131098548Y-75155853D01*
X131098422Y-75161024D01*
X131096914Y-75160987D01*
X131082410Y-75223485D01*
X131031518Y-75272988D01*
X130961942Y-75287118D01*
X130895771Y-75261389D01*
X130883574Y-75250670D01*
X129576042Y-73943137D01*
X128055405Y-72422500D01*
X128021379Y-72360188D01*
X128018500Y-72333405D01*
X128018500Y-70534500D01*
X128038502Y-70466379D01*
X128092158Y-70419886D01*
X128144500Y-70408500D01*
X129648134Y-70408500D01*
X129710316Y-70401745D01*
X129846705Y-70350615D01*
X129963261Y-70263261D01*
X130050615Y-70146705D01*
X130071433Y-70091173D01*
X130094598Y-70029382D01*
X130137240Y-69972618D01*
X130203802Y-69947918D01*
X130273150Y-69963126D01*
X130307817Y-69991114D01*
X130336250Y-70023938D01*
X130508126Y-70166632D01*
X130701000Y-70279338D01*
X130909692Y-70359030D01*
X130914760Y-70360061D01*
X130914763Y-70360062D01*
X131022012Y-70381882D01*
X131128597Y-70403567D01*
X131133772Y-70403757D01*
X131133774Y-70403757D01*
X131346673Y-70411564D01*
X131346677Y-70411564D01*
X131351837Y-70411753D01*
X131356957Y-70411097D01*
X131356959Y-70411097D01*
X131568288Y-70384025D01*
X131568289Y-70384025D01*
X131573416Y-70383368D01*
X131578369Y-70381882D01*
X131782429Y-70320661D01*
X131782434Y-70320659D01*
X131787384Y-70319174D01*
X131987994Y-70220896D01*
X132169860Y-70091173D01*
X132175967Y-70085088D01*
X132324435Y-69937137D01*
X132328096Y-69933489D01*
X132387594Y-69850689D01*
X132455435Y-69756277D01*
X132458453Y-69752077D01*
X132492793Y-69682596D01*
X132555136Y-69556453D01*
X132555137Y-69556451D01*
X132557430Y-69551811D01*
X132622370Y-69338069D01*
X132651529Y-69116590D01*
X132653156Y-69050000D01*
X132634852Y-68827361D01*
X132580431Y-68610702D01*
X132491354Y-68405840D01*
X132370014Y-68218277D01*
X132219670Y-68053051D01*
X132215619Y-68049852D01*
X132215615Y-68049848D01*
X132048414Y-67917800D01*
X132048410Y-67917798D01*
X132044359Y-67914598D01*
X132034054Y-67908909D01*
X131933366Y-67853327D01*
X131848789Y-67806638D01*
X131843920Y-67804914D01*
X131843916Y-67804912D01*
X131643087Y-67733795D01*
X131643083Y-67733794D01*
X131638212Y-67732069D01*
X131633119Y-67731162D01*
X131633116Y-67731161D01*
X131423373Y-67693800D01*
X131423367Y-67693799D01*
X131418284Y-67692894D01*
X131344452Y-67691992D01*
X131200081Y-67690228D01*
X131200079Y-67690228D01*
X131194911Y-67690165D01*
X130974091Y-67723955D01*
X130761756Y-67793357D01*
X130563607Y-67896507D01*
X130559474Y-67899610D01*
X130559471Y-67899612D01*
X130394658Y-68023357D01*
X130384965Y-68030635D01*
X130316932Y-68101828D01*
X130304283Y-68115064D01*
X130242759Y-68150494D01*
X130171846Y-68147037D01*
X130114060Y-68105791D01*
X130095207Y-68072243D01*
X130053767Y-67961703D01*
X130050615Y-67953295D01*
X129963261Y-67836739D01*
X129846705Y-67749385D01*
X129710316Y-67698255D01*
X129648134Y-67691500D01*
X128144500Y-67691500D01*
X128076379Y-67671498D01*
X128029886Y-67617842D01*
X128018500Y-67565500D01*
X128018500Y-63718292D01*
X128038502Y-63650171D01*
X128050864Y-63633981D01*
X128141021Y-63533852D01*
X128141025Y-63533847D01*
X128145440Y-63528944D01*
X128202448Y-63430203D01*
X128237623Y-63369279D01*
X128237624Y-63369278D01*
X128240927Y-63363556D01*
X128299942Y-63181928D01*
X128308937Y-63096351D01*
X128319214Y-62998565D01*
X128319904Y-62992000D01*
X128309114Y-62889338D01*
X128300632Y-62808635D01*
X128300632Y-62808633D01*
X128299942Y-62802072D01*
X128240927Y-62620444D01*
X128220569Y-62585182D01*
X128148741Y-62460774D01*
X128145440Y-62455056D01*
X128061722Y-62362077D01*
X128022075Y-62318045D01*
X128022074Y-62318044D01*
X128017653Y-62313134D01*
X127863152Y-62200882D01*
X127857124Y-62198198D01*
X127857122Y-62198197D01*
X127694719Y-62125891D01*
X127694718Y-62125891D01*
X127688688Y-62123206D01*
X127576954Y-62099456D01*
X127508344Y-62084872D01*
X127508339Y-62084872D01*
X127501887Y-62083500D01*
X127310913Y-62083500D01*
X127304461Y-62084872D01*
X127304456Y-62084872D01*
X127235846Y-62099456D01*
X127124112Y-62123206D01*
X127118082Y-62125891D01*
X127118081Y-62125891D01*
X126955678Y-62198197D01*
X126955676Y-62198198D01*
X126949648Y-62200882D01*
X126944307Y-62204762D01*
X126944306Y-62204763D01*
X126795915Y-62312576D01*
X126789850Y-62314740D01*
X126775629Y-62334811D01*
X126667360Y-62455056D01*
X126664059Y-62460774D01*
X126592232Y-62585182D01*
X126571873Y-62620444D01*
X126512858Y-62802072D01*
X126512168Y-62808633D01*
X126512168Y-62808635D01*
X126503686Y-62889338D01*
X126492896Y-62992000D01*
X126493586Y-62998565D01*
X126503864Y-63096351D01*
X126512858Y-63181928D01*
X126571873Y-63363556D01*
X126667360Y-63528944D01*
X126719137Y-63586448D01*
X126749853Y-63650454D01*
X126751500Y-63670757D01*
X126751500Y-67622230D01*
X126731498Y-67690351D01*
X126677842Y-67736844D01*
X126607568Y-67746948D01*
X126583439Y-67741002D01*
X126563094Y-67733797D01*
X126563085Y-67733795D01*
X126558212Y-67732069D01*
X126553119Y-67731162D01*
X126553116Y-67731161D01*
X126343373Y-67693800D01*
X126343367Y-67693799D01*
X126338284Y-67692894D01*
X126264452Y-67691992D01*
X126120081Y-67690228D01*
X126120079Y-67690228D01*
X126114911Y-67690165D01*
X125894091Y-67723955D01*
X125681756Y-67793357D01*
X125483607Y-67896507D01*
X125479474Y-67899610D01*
X125479471Y-67899612D01*
X125314658Y-68023357D01*
X125304965Y-68030635D01*
X125286605Y-68049848D01*
X125193729Y-68147037D01*
X125150629Y-68192138D01*
X125147715Y-68196410D01*
X125147714Y-68196411D01*
X125101354Y-68264373D01*
X125024743Y-68376680D01*
X124930688Y-68579305D01*
X124870989Y-68794570D01*
X124847251Y-69016695D01*
X124847548Y-69021848D01*
X124847548Y-69021851D01*
X124859812Y-69234547D01*
X124860110Y-69239715D01*
X124861247Y-69244761D01*
X124861248Y-69244767D01*
X124869947Y-69283365D01*
X124909222Y-69457639D01*
X124993266Y-69664616D01*
X125010307Y-69692425D01*
X125067928Y-69786453D01*
X125109987Y-69855088D01*
X125256250Y-70023938D01*
X125428126Y-70166632D01*
X125621000Y-70279338D01*
X125829692Y-70359030D01*
X125834760Y-70360061D01*
X125834763Y-70360062D01*
X125942012Y-70381882D01*
X126048597Y-70403567D01*
X126053772Y-70403757D01*
X126053774Y-70403757D01*
X126266673Y-70411564D01*
X126266677Y-70411564D01*
X126271837Y-70411753D01*
X126276957Y-70411097D01*
X126276959Y-70411097D01*
X126488288Y-70384025D01*
X126488289Y-70384025D01*
X126493416Y-70383368D01*
X126498367Y-70381883D01*
X126498370Y-70381882D01*
X126589293Y-70354604D01*
X126660288Y-70354188D01*
X126720239Y-70392220D01*
X126750110Y-70456627D01*
X126751500Y-70475290D01*
X126751500Y-72569233D01*
X126750973Y-72580416D01*
X126749298Y-72587909D01*
X126749547Y-72595835D01*
X126749547Y-72595836D01*
X126751438Y-72655986D01*
X126751500Y-72659945D01*
X126751500Y-72687856D01*
X126751997Y-72691790D01*
X126751997Y-72691791D01*
X126752005Y-72691856D01*
X126752938Y-72703693D01*
X126754327Y-72747889D01*
X126759978Y-72767339D01*
X126763987Y-72786700D01*
X126766526Y-72806797D01*
X126769445Y-72814168D01*
X126769445Y-72814170D01*
X126782804Y-72847912D01*
X126786649Y-72859142D01*
X126798982Y-72901593D01*
X126803015Y-72908412D01*
X126803017Y-72908417D01*
X126809293Y-72919028D01*
X126817988Y-72936776D01*
X126825448Y-72955617D01*
X126830110Y-72962033D01*
X126830110Y-72962034D01*
X126851436Y-72991387D01*
X126857952Y-73001307D01*
X126873605Y-73027774D01*
X126880458Y-73039362D01*
X126894779Y-73053683D01*
X126907619Y-73068716D01*
X126919528Y-73085107D01*
X126925634Y-73090158D01*
X126953605Y-73113298D01*
X126962384Y-73121288D01*
X127451501Y-73610405D01*
X127485527Y-73672717D01*
X127480462Y-73743532D01*
X127437915Y-73800368D01*
X127371395Y-73825179D01*
X127362406Y-73825500D01*
X126355866Y-73825500D01*
X126293684Y-73832255D01*
X126157295Y-73883385D01*
X126040739Y-73970739D01*
X125953385Y-74087295D01*
X125902255Y-74223684D01*
X125895500Y-74285866D01*
X125895500Y-76082134D01*
X125902255Y-76144316D01*
X125953385Y-76280705D01*
X126040739Y-76397261D01*
X126157295Y-76484615D01*
X126165704Y-76487767D01*
X126165705Y-76487768D01*
X126274451Y-76528535D01*
X126331216Y-76571176D01*
X126355916Y-76637738D01*
X126340709Y-76707087D01*
X126321316Y-76733568D01*
X126194629Y-76866138D01*
X126068743Y-77050680D01*
X125974688Y-77253305D01*
X125914989Y-77468570D01*
X125891251Y-77690695D01*
X125891548Y-77695848D01*
X125891548Y-77695851D01*
X125897011Y-77790590D01*
X125904110Y-77913715D01*
X125905247Y-77918761D01*
X125905248Y-77918767D01*
X125925119Y-78006939D01*
X125953222Y-78131639D01*
X126037266Y-78338616D01*
X126153987Y-78529088D01*
X126300250Y-78697938D01*
X126472126Y-78840632D01*
X126665000Y-78953338D01*
X126669825Y-78955180D01*
X126669826Y-78955181D01*
X126683056Y-78960233D01*
X126873692Y-79033030D01*
X126878760Y-79034061D01*
X126878763Y-79034062D01*
X126960734Y-79050739D01*
X127092597Y-79077567D01*
X127097772Y-79077757D01*
X127097774Y-79077757D01*
X127310673Y-79085564D01*
X127310677Y-79085564D01*
X127315837Y-79085753D01*
X127320957Y-79085097D01*
X127320959Y-79085097D01*
X127532288Y-79058025D01*
X127532289Y-79058025D01*
X127537416Y-79057368D01*
X127544096Y-79055364D01*
X127746429Y-78994661D01*
X127746434Y-78994659D01*
X127751384Y-78993174D01*
X127951994Y-78894896D01*
X128133860Y-78765173D01*
X128292096Y-78607489D01*
X128351594Y-78524689D01*
X128419435Y-78430277D01*
X128422453Y-78426077D01*
X128521430Y-78225811D01*
X128586370Y-78012069D01*
X128615529Y-77790590D01*
X128617156Y-77724000D01*
X128598852Y-77501361D01*
X128544431Y-77284702D01*
X128455354Y-77079840D01*
X128334014Y-76892277D01*
X128330532Y-76888450D01*
X128186798Y-76730488D01*
X128155746Y-76666642D01*
X128164141Y-76596143D01*
X128209317Y-76541375D01*
X128235761Y-76527706D01*
X128342297Y-76487767D01*
X128350705Y-76484615D01*
X128467261Y-76397261D01*
X128554615Y-76280705D01*
X128605745Y-76144316D01*
X128612500Y-76082134D01*
X128612500Y-75075594D01*
X128632502Y-75007473D01*
X128686158Y-74960980D01*
X128756432Y-74950876D01*
X128821012Y-74980370D01*
X128827594Y-74986498D01*
X129977555Y-76136460D01*
X131110777Y-77269682D01*
X131144803Y-77331994D01*
X131143100Y-77392446D01*
X131121989Y-77468570D01*
X131098251Y-77690695D01*
X131098548Y-77695848D01*
X131098548Y-77695851D01*
X131104011Y-77790590D01*
X131111110Y-77913715D01*
X131112247Y-77918761D01*
X131112248Y-77918767D01*
X131132119Y-78006939D01*
X131160222Y-78131639D01*
X131244266Y-78338616D01*
X131360987Y-78529088D01*
X131507250Y-78697938D01*
X131511230Y-78701242D01*
X131515981Y-78705187D01*
X131555616Y-78764090D01*
X131557113Y-78835071D01*
X131519997Y-78895593D01*
X131479724Y-78920112D01*
X131364295Y-78963385D01*
X131247739Y-79050739D01*
X131160385Y-79167295D01*
X131109255Y-79303684D01*
X131102500Y-79365866D01*
X131102500Y-81162134D01*
X131109255Y-81224316D01*
X131160385Y-81360705D01*
X131247739Y-81477261D01*
X131364295Y-81564615D01*
X131500684Y-81615745D01*
X131562866Y-81622500D01*
X132878253Y-81622500D01*
X132946374Y-81642502D01*
X132992867Y-81696158D01*
X133004191Y-81744540D01*
X133005327Y-81780689D01*
X133010978Y-81800139D01*
X133014987Y-81819500D01*
X133017526Y-81839597D01*
X133020445Y-81846968D01*
X133020445Y-81846970D01*
X133033804Y-81880712D01*
X133037649Y-81891942D01*
X133049982Y-81934393D01*
X133054016Y-81941214D01*
X133057166Y-81948493D01*
X133054382Y-81949698D01*
X133068339Y-82004750D01*
X133045812Y-82072077D01*
X133005428Y-82109171D01*
X133000882Y-82111795D01*
X132994848Y-82114482D01*
X132989506Y-82118364D01*
X132989503Y-82118365D01*
X132972553Y-82130680D01*
X132840347Y-82226734D01*
X132835926Y-82231644D01*
X132835925Y-82231645D01*
X132736557Y-82342005D01*
X132712560Y-82368656D01*
X132617073Y-82534044D01*
X132558058Y-82715672D01*
X132538096Y-82905600D01*
X132558058Y-83095528D01*
X132617073Y-83277156D01*
X132620376Y-83282878D01*
X132620377Y-83282879D01*
X132707772Y-83434251D01*
X132724510Y-83503246D01*
X132701290Y-83570338D01*
X132687748Y-83586346D01*
X132464099Y-83809995D01*
X132401787Y-83844021D01*
X132375004Y-83846900D01*
X128114600Y-83846900D01*
X128046479Y-83826898D01*
X128027253Y-83810557D01*
X128026980Y-83810860D01*
X128022068Y-83806437D01*
X128017653Y-83801534D01*
X127863152Y-83689282D01*
X127857124Y-83686598D01*
X127857122Y-83686597D01*
X127694719Y-83614291D01*
X127694718Y-83614291D01*
X127688688Y-83611606D01*
X127569850Y-83586346D01*
X127508344Y-83573272D01*
X127508339Y-83573272D01*
X127501887Y-83571900D01*
X127310913Y-83571900D01*
X127304461Y-83573272D01*
X127304456Y-83573272D01*
X127242950Y-83586346D01*
X127124112Y-83611606D01*
X127118082Y-83614291D01*
X127118081Y-83614291D01*
X126955678Y-83686597D01*
X126955676Y-83686598D01*
X126949648Y-83689282D01*
X126795147Y-83801534D01*
X126753155Y-83848171D01*
X126746918Y-83855098D01*
X126686471Y-83892337D01*
X126615488Y-83890985D01*
X126564187Y-83859882D01*
X125740005Y-83035700D01*
X125705979Y-82973388D01*
X125703100Y-82946605D01*
X125703100Y-81474524D01*
X125723102Y-81406403D01*
X125735458Y-81390221D01*
X125808640Y-81308944D01*
X125904127Y-81143556D01*
X125963142Y-80961928D01*
X125983104Y-80772000D01*
X125963142Y-80582072D01*
X125904127Y-80400444D01*
X125808640Y-80235056D01*
X125680853Y-80093134D01*
X125526352Y-79980882D01*
X125520324Y-79978198D01*
X125520322Y-79978197D01*
X125357919Y-79905891D01*
X125357918Y-79905891D01*
X125351888Y-79903206D01*
X125258488Y-79883353D01*
X125171544Y-79864872D01*
X125171539Y-79864872D01*
X125165087Y-79863500D01*
X124974113Y-79863500D01*
X124967661Y-79864872D01*
X124967656Y-79864872D01*
X124880712Y-79883353D01*
X124787312Y-79903206D01*
X124781282Y-79905891D01*
X124781281Y-79905891D01*
X124618878Y-79978197D01*
X124618876Y-79978198D01*
X124612848Y-79980882D01*
X124458347Y-80093134D01*
X124330560Y-80235056D01*
X124235073Y-80400444D01*
X124176058Y-80582072D01*
X124156096Y-80772000D01*
X124176058Y-80961928D01*
X124235073Y-81143556D01*
X124330560Y-81308944D01*
X124403737Y-81390215D01*
X124434453Y-81454221D01*
X124436100Y-81474524D01*
X124436100Y-82342005D01*
X124416098Y-82410126D01*
X124362442Y-82456619D01*
X124292168Y-82466723D01*
X124227588Y-82437229D01*
X124221005Y-82431100D01*
X119969218Y-78179313D01*
X119935192Y-78117001D01*
X119937755Y-78053589D01*
X119948865Y-78017022D01*
X119950370Y-78012069D01*
X119979529Y-77790590D01*
X119981156Y-77724000D01*
X119978418Y-77690695D01*
X122081251Y-77690695D01*
X122081548Y-77695848D01*
X122081548Y-77695851D01*
X122087011Y-77790590D01*
X122094110Y-77913715D01*
X122095247Y-77918761D01*
X122095248Y-77918767D01*
X122115119Y-78006939D01*
X122143222Y-78131639D01*
X122227266Y-78338616D01*
X122343987Y-78529088D01*
X122490250Y-78697938D01*
X122662126Y-78840632D01*
X122855000Y-78953338D01*
X122859825Y-78955180D01*
X122859826Y-78955181D01*
X122873056Y-78960233D01*
X123063692Y-79033030D01*
X123068760Y-79034061D01*
X123068763Y-79034062D01*
X123150734Y-79050739D01*
X123282597Y-79077567D01*
X123287772Y-79077757D01*
X123287774Y-79077757D01*
X123500673Y-79085564D01*
X123500677Y-79085564D01*
X123505837Y-79085753D01*
X123510957Y-79085097D01*
X123510959Y-79085097D01*
X123722288Y-79058025D01*
X123722289Y-79058025D01*
X123727416Y-79057368D01*
X123734096Y-79055364D01*
X123936429Y-78994661D01*
X123936434Y-78994659D01*
X123941384Y-78993174D01*
X124141994Y-78894896D01*
X124323860Y-78765173D01*
X124482096Y-78607489D01*
X124541594Y-78524689D01*
X124609435Y-78430277D01*
X124612453Y-78426077D01*
X124711430Y-78225811D01*
X124776370Y-78012069D01*
X124805529Y-77790590D01*
X124807156Y-77724000D01*
X124788852Y-77501361D01*
X124734431Y-77284702D01*
X124645354Y-77079840D01*
X124524014Y-76892277D01*
X124520532Y-76888450D01*
X124376798Y-76730488D01*
X124345746Y-76666642D01*
X124354141Y-76596143D01*
X124399317Y-76541375D01*
X124425761Y-76527706D01*
X124532297Y-76487767D01*
X124540705Y-76484615D01*
X124657261Y-76397261D01*
X124744615Y-76280705D01*
X124795745Y-76144316D01*
X124802500Y-76082134D01*
X124802500Y-74285866D01*
X124795745Y-74223684D01*
X124744615Y-74087295D01*
X124657261Y-73970739D01*
X124540705Y-73883385D01*
X124404316Y-73832255D01*
X124342134Y-73825500D01*
X122545866Y-73825500D01*
X122483684Y-73832255D01*
X122347295Y-73883385D01*
X122230739Y-73970739D01*
X122143385Y-74087295D01*
X122092255Y-74223684D01*
X122085500Y-74285866D01*
X122085500Y-76082134D01*
X122092255Y-76144316D01*
X122143385Y-76280705D01*
X122230739Y-76397261D01*
X122347295Y-76484615D01*
X122355704Y-76487767D01*
X122355705Y-76487768D01*
X122464451Y-76528535D01*
X122521216Y-76571176D01*
X122545916Y-76637738D01*
X122530709Y-76707087D01*
X122511316Y-76733568D01*
X122384629Y-76866138D01*
X122258743Y-77050680D01*
X122164688Y-77253305D01*
X122104989Y-77468570D01*
X122081251Y-77690695D01*
X119978418Y-77690695D01*
X119962852Y-77501361D01*
X119908431Y-77284702D01*
X119819354Y-77079840D01*
X119698014Y-76892277D01*
X119694532Y-76888450D01*
X119550798Y-76730488D01*
X119519746Y-76666642D01*
X119528141Y-76596143D01*
X119573317Y-76541375D01*
X119599761Y-76527706D01*
X119706297Y-76487767D01*
X119714705Y-76484615D01*
X119831261Y-76397261D01*
X119918615Y-76280705D01*
X119969745Y-76144316D01*
X119976500Y-76082134D01*
X119976500Y-74285866D01*
X119969745Y-74223684D01*
X119918615Y-74087295D01*
X119831261Y-73970739D01*
X119714705Y-73883385D01*
X119578316Y-73832255D01*
X119516134Y-73825500D01*
X117719866Y-73825500D01*
X117657684Y-73832255D01*
X117521295Y-73883385D01*
X117404739Y-73970739D01*
X117317385Y-74087295D01*
X117266255Y-74223684D01*
X117259500Y-74285866D01*
X117259500Y-76082134D01*
X117266255Y-76144316D01*
X117317385Y-76280705D01*
X117404739Y-76397261D01*
X117521295Y-76484615D01*
X117529704Y-76487767D01*
X117529705Y-76487768D01*
X117638451Y-76528535D01*
X117695216Y-76571176D01*
X117719916Y-76637738D01*
X117704709Y-76707087D01*
X117685316Y-76733568D01*
X117558629Y-76866138D01*
X117432743Y-77050680D01*
X117338688Y-77253305D01*
X117278989Y-77468570D01*
X117255251Y-77690695D01*
X117255548Y-77695848D01*
X117255548Y-77695851D01*
X117261011Y-77790590D01*
X117268110Y-77913715D01*
X117269247Y-77918761D01*
X117269248Y-77918767D01*
X117289119Y-78006939D01*
X117317222Y-78131639D01*
X117401266Y-78338616D01*
X117517987Y-78529088D01*
X117664250Y-78697938D01*
X117836126Y-78840632D01*
X117886500Y-78870068D01*
X117909955Y-78883774D01*
X117958679Y-78935412D01*
X117971750Y-79005195D01*
X117945019Y-79070967D01*
X117904562Y-79104327D01*
X117896457Y-79108546D01*
X117887738Y-79114036D01*
X117717433Y-79241905D01*
X117709726Y-79248748D01*
X117562590Y-79402717D01*
X117556104Y-79410727D01*
X117436098Y-79586649D01*
X117431000Y-79595623D01*
X117341338Y-79788783D01*
X117337775Y-79798470D01*
X117282389Y-79998183D01*
X117283912Y-80006607D01*
X117296292Y-80010000D01*
X119954459Y-80010000D01*
X119954459Y-80014775D01*
X119991133Y-80014792D01*
X120044673Y-80046577D01*
X124172526Y-84174430D01*
X124206552Y-84236742D01*
X124201487Y-84307557D01*
X124158940Y-84364393D01*
X124092420Y-84389204D01*
X124057232Y-84386771D01*
X124053948Y-84386073D01*
X124053945Y-84386073D01*
X124047487Y-84384700D01*
X123991595Y-84384700D01*
X123923474Y-84364698D01*
X123902500Y-84347795D01*
X121966452Y-82411747D01*
X121958912Y-82403461D01*
X121954800Y-82396982D01*
X121905148Y-82350356D01*
X121902307Y-82347602D01*
X121882570Y-82327865D01*
X121879373Y-82325385D01*
X121870351Y-82317680D01*
X121838121Y-82287414D01*
X121831175Y-82283595D01*
X121831172Y-82283593D01*
X121820366Y-82277652D01*
X121803847Y-82266801D01*
X121803383Y-82266441D01*
X121787841Y-82254386D01*
X121780572Y-82251241D01*
X121780568Y-82251238D01*
X121747263Y-82236826D01*
X121736613Y-82231609D01*
X121697860Y-82210305D01*
X121678237Y-82205267D01*
X121659534Y-82198863D01*
X121648220Y-82193967D01*
X121648219Y-82193967D01*
X121640945Y-82190819D01*
X121633122Y-82189580D01*
X121633112Y-82189577D01*
X121597276Y-82183901D01*
X121585656Y-82181495D01*
X121550511Y-82172472D01*
X121550510Y-82172472D01*
X121542830Y-82170500D01*
X121522576Y-82170500D01*
X121502865Y-82168949D01*
X121490686Y-82167020D01*
X121482857Y-82165780D01*
X121474965Y-82166526D01*
X121438839Y-82169941D01*
X121426981Y-82170500D01*
X119894805Y-82170500D01*
X119826684Y-82150498D01*
X119789013Y-82112940D01*
X119700822Y-81976617D01*
X119700820Y-81976614D01*
X119698014Y-81972277D01*
X119547670Y-81807051D01*
X119543619Y-81803852D01*
X119543615Y-81803848D01*
X119376414Y-81671800D01*
X119376410Y-81671798D01*
X119372359Y-81668598D01*
X119330569Y-81645529D01*
X119280598Y-81595097D01*
X119265826Y-81525654D01*
X119290942Y-81459248D01*
X119318294Y-81432641D01*
X119493328Y-81307792D01*
X119501200Y-81301139D01*
X119652052Y-81150812D01*
X119658730Y-81142965D01*
X119783003Y-80970020D01*
X119788313Y-80961183D01*
X119882670Y-80770267D01*
X119886469Y-80760672D01*
X119948377Y-80556910D01*
X119950555Y-80546837D01*
X119951986Y-80535962D01*
X119949775Y-80521778D01*
X119936617Y-80518000D01*
X117301225Y-80518000D01*
X117287694Y-80521973D01*
X117286257Y-80531966D01*
X117316565Y-80666446D01*
X117319645Y-80676275D01*
X117399770Y-80873603D01*
X117404413Y-80882794D01*
X117515694Y-81064388D01*
X117521777Y-81072699D01*
X117661213Y-81233667D01*
X117668580Y-81240883D01*
X117832434Y-81376916D01*
X117840881Y-81382831D01*
X117909969Y-81423203D01*
X117958693Y-81474842D01*
X117971764Y-81544625D01*
X117945033Y-81610396D01*
X117904584Y-81643752D01*
X117891607Y-81650507D01*
X117887474Y-81653610D01*
X117887471Y-81653612D01*
X117717100Y-81781530D01*
X117712965Y-81784635D01*
X117709393Y-81788373D01*
X117615878Y-81886231D01*
X117558629Y-81946138D01*
X117555715Y-81950410D01*
X117555714Y-81950411D01*
X117510991Y-82015972D01*
X117432743Y-82130680D01*
X117395261Y-82211428D01*
X117357471Y-82292841D01*
X117338688Y-82333305D01*
X117278989Y-82548570D01*
X117255251Y-82770695D01*
X117268110Y-82993715D01*
X117269247Y-82998761D01*
X117269248Y-82998767D01*
X117277572Y-83035700D01*
X117317222Y-83211639D01*
X117401266Y-83418616D01*
X117450285Y-83498608D01*
X117504051Y-83586346D01*
X117517987Y-83609088D01*
X117664250Y-83777938D01*
X117836126Y-83920632D01*
X117875185Y-83943456D01*
X117909445Y-83963476D01*
X117958169Y-84015114D01*
X117971240Y-84084897D01*
X117944509Y-84150669D01*
X117904055Y-84184027D01*
X117891607Y-84190507D01*
X117887474Y-84193610D01*
X117887471Y-84193612D01*
X117717100Y-84321530D01*
X117712965Y-84324635D01*
X117654253Y-84386073D01*
X117617622Y-84424406D01*
X117558629Y-84486138D01*
X117432743Y-84670680D01*
X117338688Y-84873305D01*
X117278989Y-85088570D01*
X117255251Y-85310695D01*
X117255548Y-85315848D01*
X117255548Y-85315851D01*
X117263449Y-85452872D01*
X117268110Y-85533715D01*
X117269247Y-85538761D01*
X117269248Y-85538767D01*
X117275430Y-85566197D01*
X117317222Y-85751639D01*
X117376493Y-85897606D01*
X117397642Y-85949690D01*
X117401266Y-85958616D01*
X117443087Y-86026862D01*
X117499642Y-86119151D01*
X117517987Y-86149088D01*
X117664250Y-86317938D01*
X117836126Y-86460632D01*
X117906595Y-86501811D01*
X117909445Y-86503476D01*
X117958169Y-86555114D01*
X117971240Y-86624897D01*
X117944509Y-86690669D01*
X117904055Y-86724027D01*
X117891607Y-86730507D01*
X117887474Y-86733610D01*
X117887471Y-86733612D01*
X117717100Y-86861530D01*
X117712965Y-86864635D01*
X117558629Y-87026138D01*
X117555715Y-87030410D01*
X117555714Y-87030411D01*
X117549013Y-87040235D01*
X117432743Y-87210680D01*
X117338688Y-87413305D01*
X117278989Y-87628570D01*
X117255251Y-87850695D01*
X117268110Y-88073715D01*
X117269247Y-88078761D01*
X117269248Y-88078767D01*
X117284777Y-88147671D01*
X117317222Y-88291639D01*
X117326150Y-88313626D01*
X117387677Y-88465149D01*
X117401266Y-88498616D01*
X117444788Y-88569637D01*
X117494766Y-88651194D01*
X117517987Y-88689088D01*
X117664250Y-88857938D01*
X117836126Y-89000632D01*
X117906595Y-89041811D01*
X117909445Y-89043476D01*
X117958169Y-89095114D01*
X117971240Y-89164897D01*
X117944509Y-89230669D01*
X117904055Y-89264027D01*
X117891607Y-89270507D01*
X117887474Y-89273610D01*
X117887471Y-89273612D01*
X117742094Y-89382764D01*
X117712965Y-89404635D01*
X117558629Y-89566138D01*
X117432743Y-89750680D01*
X117338688Y-89953305D01*
X117278989Y-90168570D01*
X117255251Y-90390695D01*
X115133500Y-90390695D01*
X115133500Y-69246695D01*
X118497251Y-69246695D01*
X118497548Y-69251848D01*
X118497548Y-69251851D01*
X118503011Y-69346590D01*
X118510110Y-69469715D01*
X118511247Y-69474761D01*
X118511248Y-69474767D01*
X118531119Y-69562939D01*
X118559222Y-69687639D01*
X118643266Y-69894616D01*
X118759987Y-70085088D01*
X118906250Y-70253938D01*
X118987235Y-70321173D01*
X119060360Y-70381882D01*
X119078126Y-70396632D01*
X119271000Y-70509338D01*
X119275825Y-70511180D01*
X119275826Y-70511181D01*
X119348612Y-70538975D01*
X119479692Y-70589030D01*
X119484760Y-70590061D01*
X119484763Y-70590062D01*
X119592017Y-70611883D01*
X119698597Y-70633567D01*
X119703772Y-70633757D01*
X119703774Y-70633757D01*
X119916673Y-70641564D01*
X119916677Y-70641564D01*
X119921837Y-70641753D01*
X119926957Y-70641097D01*
X119926959Y-70641097D01*
X120138288Y-70614025D01*
X120138289Y-70614025D01*
X120143416Y-70613368D01*
X120148366Y-70611883D01*
X120352429Y-70550661D01*
X120352434Y-70550659D01*
X120357384Y-70549174D01*
X120557994Y-70450896D01*
X120739860Y-70321173D01*
X120781842Y-70279338D01*
X120840488Y-70220896D01*
X120898096Y-70163489D01*
X120910157Y-70146705D01*
X121025435Y-69986277D01*
X121028453Y-69982077D01*
X121045336Y-69947918D01*
X121125136Y-69786453D01*
X121125137Y-69786451D01*
X121127430Y-69781811D01*
X121192370Y-69568069D01*
X121221529Y-69346590D01*
X121223156Y-69280000D01*
X121204852Y-69057361D01*
X121150431Y-68840702D01*
X121061354Y-68635840D01*
X120952191Y-68467099D01*
X120942822Y-68452617D01*
X120942820Y-68452614D01*
X120940014Y-68448277D01*
X120789670Y-68283051D01*
X120785619Y-68279852D01*
X120785615Y-68279848D01*
X120618414Y-68147800D01*
X120618410Y-68147798D01*
X120614359Y-68144598D01*
X120573053Y-68121796D01*
X120523084Y-68071364D01*
X120508312Y-68001921D01*
X120533428Y-67935516D01*
X120560780Y-67908909D01*
X120604603Y-67877650D01*
X120739860Y-67781173D01*
X120766355Y-67754771D01*
X120894435Y-67627137D01*
X120898096Y-67623489D01*
X120916193Y-67598305D01*
X121025435Y-67446277D01*
X121028453Y-67442077D01*
X121127430Y-67241811D01*
X121192370Y-67028069D01*
X121221529Y-66806590D01*
X121223156Y-66740000D01*
X121204852Y-66517361D01*
X121150431Y-66300702D01*
X121061354Y-66095840D01*
X120940014Y-65908277D01*
X120936540Y-65904459D01*
X120936533Y-65904450D01*
X120792435Y-65746088D01*
X120761383Y-65682242D01*
X120769779Y-65611744D01*
X120814956Y-65556976D01*
X120841400Y-65543307D01*
X120948052Y-65503325D01*
X120963649Y-65494786D01*
X121065724Y-65418285D01*
X121078285Y-65405724D01*
X121154786Y-65303649D01*
X121163324Y-65288054D01*
X121208478Y-65167606D01*
X121212105Y-65152351D01*
X121217631Y-65101486D01*
X121218000Y-65094672D01*
X121218000Y-64472115D01*
X121213525Y-64456876D01*
X121212135Y-64455671D01*
X121204452Y-64454000D01*
X118520116Y-64454000D01*
X118504877Y-64458475D01*
X118503672Y-64459865D01*
X118502001Y-64467548D01*
X118502001Y-65094669D01*
X118502371Y-65101490D01*
X118507895Y-65152352D01*
X118511521Y-65167604D01*
X118556676Y-65288054D01*
X118565214Y-65303649D01*
X118641715Y-65405724D01*
X118654276Y-65418285D01*
X118756351Y-65494786D01*
X118771946Y-65503324D01*
X118880827Y-65544142D01*
X118937591Y-65586784D01*
X118962291Y-65653345D01*
X118947083Y-65722694D01*
X118927691Y-65749175D01*
X118804200Y-65878401D01*
X118800629Y-65882138D01*
X118674743Y-66066680D01*
X118580688Y-66269305D01*
X118520989Y-66484570D01*
X118497251Y-66706695D01*
X118497548Y-66711848D01*
X118497548Y-66711851D01*
X118503011Y-66806590D01*
X118510110Y-66929715D01*
X118511247Y-66934761D01*
X118511248Y-66934767D01*
X118531119Y-67022939D01*
X118559222Y-67147639D01*
X118643266Y-67354616D01*
X118759987Y-67545088D01*
X118906250Y-67713938D01*
X119078126Y-67856632D01*
X119142276Y-67894118D01*
X119151445Y-67899476D01*
X119200169Y-67951114D01*
X119213240Y-68020897D01*
X119186509Y-68086669D01*
X119146055Y-68120027D01*
X119133607Y-68126507D01*
X119129474Y-68129610D01*
X119129471Y-68129612D01*
X119005600Y-68222617D01*
X118954965Y-68260635D01*
X118951393Y-68264373D01*
X118811665Y-68410590D01*
X118800629Y-68422138D01*
X118674743Y-68606680D01*
X118659003Y-68640590D01*
X118587528Y-68794570D01*
X118580688Y-68809305D01*
X118520989Y-69024570D01*
X118497251Y-69246695D01*
X115133500Y-69246695D01*
X115133500Y-61626695D01*
X118497251Y-61626695D01*
X118497548Y-61631848D01*
X118497548Y-61631851D01*
X118508749Y-61826109D01*
X118510110Y-61849715D01*
X118511247Y-61854761D01*
X118511248Y-61854767D01*
X118514034Y-61867128D01*
X118559222Y-62067639D01*
X118643266Y-62274616D01*
X118759987Y-62465088D01*
X118906250Y-62633938D01*
X118910225Y-62637238D01*
X118910231Y-62637244D01*
X118915425Y-62641556D01*
X118955059Y-62700460D01*
X118956555Y-62771441D01*
X118919439Y-62831962D01*
X118879168Y-62856480D01*
X118771946Y-62896676D01*
X118756351Y-62905214D01*
X118654276Y-62981715D01*
X118641715Y-62994276D01*
X118565214Y-63096351D01*
X118556676Y-63111946D01*
X118511522Y-63232394D01*
X118507895Y-63247649D01*
X118502369Y-63298514D01*
X118502000Y-63305328D01*
X118502000Y-63927885D01*
X118506475Y-63943124D01*
X118507865Y-63944329D01*
X118515548Y-63946000D01*
X121199884Y-63946000D01*
X121215123Y-63941525D01*
X121216328Y-63940135D01*
X121217999Y-63932452D01*
X121217999Y-63305331D01*
X121217629Y-63298510D01*
X121212105Y-63247648D01*
X121208479Y-63232396D01*
X121163324Y-63111946D01*
X121154786Y-63096351D01*
X121078285Y-62994276D01*
X121065724Y-62981715D01*
X120963649Y-62905214D01*
X120948054Y-62896676D01*
X120837813Y-62855348D01*
X120781049Y-62812706D01*
X120756349Y-62746145D01*
X120771557Y-62676796D01*
X120793104Y-62648115D01*
X120804860Y-62636400D01*
X121616096Y-62636400D01*
X121616786Y-62642965D01*
X121633509Y-62802072D01*
X121636058Y-62826328D01*
X121695073Y-63007956D01*
X121790560Y-63173344D01*
X121794978Y-63178251D01*
X121794979Y-63178252D01*
X121903260Y-63298510D01*
X121918347Y-63315266D01*
X121984812Y-63363556D01*
X122046689Y-63408512D01*
X122072848Y-63427518D01*
X122078876Y-63430202D01*
X122078878Y-63430203D01*
X122191747Y-63480455D01*
X122247312Y-63505194D01*
X122340713Y-63525047D01*
X122427656Y-63543528D01*
X122427661Y-63543528D01*
X122434113Y-63544900D01*
X122625087Y-63544900D01*
X122631539Y-63543528D01*
X122631544Y-63543528D01*
X122718487Y-63525047D01*
X122811888Y-63505194D01*
X122817919Y-63502509D01*
X122846267Y-63489888D01*
X122916634Y-63480455D01*
X122980931Y-63510563D01*
X123018743Y-63570652D01*
X123018066Y-63641645D01*
X122991153Y-63689303D01*
X122958960Y-63725056D01*
X122863473Y-63890444D01*
X122804458Y-64072072D01*
X122784496Y-64262000D01*
X122804458Y-64451928D01*
X122863473Y-64633556D01*
X122958960Y-64798944D01*
X123086747Y-64940866D01*
X123241248Y-65053118D01*
X123247276Y-65055802D01*
X123247278Y-65055803D01*
X123409681Y-65128109D01*
X123415712Y-65130794D01*
X123509113Y-65150647D01*
X123596056Y-65169128D01*
X123596061Y-65169128D01*
X123602513Y-65170500D01*
X123793487Y-65170500D01*
X123799939Y-65169128D01*
X123799944Y-65169128D01*
X123886887Y-65150647D01*
X123980288Y-65130794D01*
X123986319Y-65128109D01*
X124148722Y-65055803D01*
X124148724Y-65055802D01*
X124154752Y-65053118D01*
X124309253Y-64940866D01*
X124437040Y-64798944D01*
X124532527Y-64633556D01*
X124591542Y-64451928D01*
X124611504Y-64262000D01*
X124606449Y-64213906D01*
X124619221Y-64144068D01*
X124642664Y-64111640D01*
X126592898Y-62161406D01*
X126616252Y-62148654D01*
X126622074Y-62133699D01*
X126632759Y-62121545D01*
X127123899Y-61630405D01*
X127186211Y-61596379D01*
X127212994Y-61593500D01*
X128323800Y-61593500D01*
X128391921Y-61613502D01*
X128411147Y-61629843D01*
X128411420Y-61629540D01*
X128416332Y-61633963D01*
X128420747Y-61638866D01*
X128442329Y-61654546D01*
X128545180Y-61729272D01*
X128575248Y-61751118D01*
X128581276Y-61753802D01*
X128581278Y-61753803D01*
X128618311Y-61770291D01*
X128749712Y-61828794D01*
X128814650Y-61842597D01*
X128930056Y-61867128D01*
X128930061Y-61867128D01*
X128936513Y-61868500D01*
X129127487Y-61868500D01*
X129133939Y-61867128D01*
X129133944Y-61867128D01*
X129249350Y-61842597D01*
X129314288Y-61828794D01*
X129445689Y-61770291D01*
X129482722Y-61753803D01*
X129482724Y-61753802D01*
X129488752Y-61751118D01*
X129643253Y-61638866D01*
X129654212Y-61626695D01*
X136277251Y-61626695D01*
X136277548Y-61631848D01*
X136277548Y-61631851D01*
X136288749Y-61826109D01*
X136290110Y-61849715D01*
X136291247Y-61854761D01*
X136291248Y-61854767D01*
X136294034Y-61867128D01*
X136339222Y-62067639D01*
X136423266Y-62274616D01*
X136539987Y-62465088D01*
X136686250Y-62633938D01*
X136690225Y-62637238D01*
X136690231Y-62637244D01*
X136695425Y-62641556D01*
X136735059Y-62700460D01*
X136736555Y-62771441D01*
X136699439Y-62831962D01*
X136659168Y-62856480D01*
X136551946Y-62896676D01*
X136536351Y-62905214D01*
X136434276Y-62981715D01*
X136421715Y-62994276D01*
X136345214Y-63096351D01*
X136336676Y-63111946D01*
X136291522Y-63232394D01*
X136287895Y-63247649D01*
X136282369Y-63298514D01*
X136282000Y-63305328D01*
X136282000Y-63927885D01*
X136286475Y-63943124D01*
X136287865Y-63944329D01*
X136295548Y-63946000D01*
X138979884Y-63946000D01*
X138995123Y-63941525D01*
X138996328Y-63940135D01*
X138997999Y-63932452D01*
X138997999Y-63305331D01*
X138997629Y-63298510D01*
X138992105Y-63247648D01*
X138988479Y-63232396D01*
X138943324Y-63111946D01*
X138934786Y-63096351D01*
X138858285Y-62994276D01*
X138845724Y-62981715D01*
X138743649Y-62905214D01*
X138728054Y-62896676D01*
X138617813Y-62855348D01*
X138561049Y-62812706D01*
X138536349Y-62746145D01*
X138551557Y-62676796D01*
X138573104Y-62648115D01*
X138674430Y-62547144D01*
X138674440Y-62547132D01*
X138678096Y-62543489D01*
X138737533Y-62460774D01*
X138805435Y-62366277D01*
X138808453Y-62362077D01*
X138831849Y-62314740D01*
X138905136Y-62166453D01*
X138905137Y-62166451D01*
X138907430Y-62161811D01*
X138972370Y-61948069D01*
X139001529Y-61726590D01*
X139003156Y-61660000D01*
X138984852Y-61437361D01*
X138930431Y-61220702D01*
X138841354Y-61015840D01*
X138720014Y-60828277D01*
X138569670Y-60663051D01*
X138565619Y-60659852D01*
X138565615Y-60659848D01*
X138398414Y-60527800D01*
X138398410Y-60527798D01*
X138394359Y-60524598D01*
X138353053Y-60501796D01*
X138303084Y-60451364D01*
X138288312Y-60381921D01*
X138313428Y-60315516D01*
X138340780Y-60288909D01*
X138384603Y-60257650D01*
X138519860Y-60161173D01*
X138678096Y-60003489D01*
X138737594Y-59920689D01*
X138805435Y-59826277D01*
X138808453Y-59822077D01*
X138902081Y-59632635D01*
X138905136Y-59626453D01*
X138905137Y-59626451D01*
X138907430Y-59621811D01*
X138972370Y-59408069D01*
X139001529Y-59186590D01*
X139003156Y-59120000D01*
X138984852Y-58897361D01*
X138930431Y-58680702D01*
X138841354Y-58475840D01*
X138720014Y-58288277D01*
X138569670Y-58123051D01*
X138565619Y-58119852D01*
X138565615Y-58119848D01*
X138398414Y-57987800D01*
X138398410Y-57987798D01*
X138394359Y-57984598D01*
X138353053Y-57961796D01*
X138303084Y-57911364D01*
X138288312Y-57841921D01*
X138313428Y-57775516D01*
X138340780Y-57748909D01*
X138384603Y-57717650D01*
X138519860Y-57621173D01*
X138678096Y-57463489D01*
X138737594Y-57380689D01*
X138805435Y-57286277D01*
X138808453Y-57282077D01*
X138907430Y-57081811D01*
X138972370Y-56868069D01*
X139001529Y-56646590D01*
X139003156Y-56580000D01*
X138984852Y-56357361D01*
X138930431Y-56140702D01*
X138841354Y-55935840D01*
X138720014Y-55748277D01*
X138569670Y-55583051D01*
X138565619Y-55579852D01*
X138565615Y-55579848D01*
X138398414Y-55447800D01*
X138398410Y-55447798D01*
X138394359Y-55444598D01*
X138353053Y-55421796D01*
X138303084Y-55371364D01*
X138288312Y-55301921D01*
X138313428Y-55235516D01*
X138340780Y-55208909D01*
X138384603Y-55177650D01*
X138519860Y-55081173D01*
X138678096Y-54923489D01*
X138737594Y-54840689D01*
X138805435Y-54746277D01*
X138808453Y-54742077D01*
X138907430Y-54541811D01*
X138972370Y-54328069D01*
X139001529Y-54106590D01*
X139003156Y-54040000D01*
X138984852Y-53817361D01*
X138930431Y-53600702D01*
X138841354Y-53395840D01*
X138720014Y-53208277D01*
X138716540Y-53204459D01*
X138716533Y-53204450D01*
X138572435Y-53046088D01*
X138541383Y-52982242D01*
X138549779Y-52911744D01*
X138594956Y-52856976D01*
X138621400Y-52843307D01*
X138728052Y-52803325D01*
X138743649Y-52794786D01*
X138845724Y-52718285D01*
X138858285Y-52705724D01*
X138934786Y-52603649D01*
X138943324Y-52588054D01*
X138988478Y-52467606D01*
X138992105Y-52452351D01*
X138997631Y-52401486D01*
X138998000Y-52394672D01*
X138998000Y-51772115D01*
X138993525Y-51756876D01*
X138992135Y-51755671D01*
X138984452Y-51754000D01*
X136300116Y-51754000D01*
X136284877Y-51758475D01*
X136283672Y-51759865D01*
X136282001Y-51767548D01*
X136282001Y-52394669D01*
X136282371Y-52401490D01*
X136287895Y-52452352D01*
X136291521Y-52467604D01*
X136336676Y-52588054D01*
X136345214Y-52603649D01*
X136421715Y-52705724D01*
X136434276Y-52718285D01*
X136536351Y-52794786D01*
X136551946Y-52803324D01*
X136660827Y-52844142D01*
X136717591Y-52886784D01*
X136742291Y-52953345D01*
X136727083Y-53022694D01*
X136707691Y-53049175D01*
X136584200Y-53178401D01*
X136580629Y-53182138D01*
X136454743Y-53366680D01*
X136360688Y-53569305D01*
X136300989Y-53784570D01*
X136277251Y-54006695D01*
X136277548Y-54011848D01*
X136277548Y-54011851D01*
X136283011Y-54106590D01*
X136290110Y-54229715D01*
X136291247Y-54234761D01*
X136291248Y-54234767D01*
X136311119Y-54322939D01*
X136339222Y-54447639D01*
X136423266Y-54654616D01*
X136539987Y-54845088D01*
X136686250Y-55013938D01*
X136858126Y-55156632D01*
X136928595Y-55197811D01*
X136931445Y-55199476D01*
X136980169Y-55251114D01*
X136993240Y-55320897D01*
X136966509Y-55386669D01*
X136926055Y-55420027D01*
X136913607Y-55426507D01*
X136909474Y-55429610D01*
X136909471Y-55429612D01*
X136885247Y-55447800D01*
X136734965Y-55560635D01*
X136580629Y-55722138D01*
X136454743Y-55906680D01*
X136360688Y-56109305D01*
X136300989Y-56324570D01*
X136277251Y-56546695D01*
X136277548Y-56551848D01*
X136277548Y-56551851D01*
X136283011Y-56646590D01*
X136290110Y-56769715D01*
X136291247Y-56774761D01*
X136291248Y-56774767D01*
X136311119Y-56862939D01*
X136339222Y-56987639D01*
X136423266Y-57194616D01*
X136539987Y-57385088D01*
X136686250Y-57553938D01*
X136858126Y-57696632D01*
X136928595Y-57737811D01*
X136931445Y-57739476D01*
X136980169Y-57791114D01*
X136993240Y-57860897D01*
X136966509Y-57926669D01*
X136926055Y-57960027D01*
X136913607Y-57966507D01*
X136909474Y-57969610D01*
X136909471Y-57969612D01*
X136885247Y-57987800D01*
X136734965Y-58100635D01*
X136580629Y-58262138D01*
X136454743Y-58446680D01*
X136360688Y-58649305D01*
X136300989Y-58864570D01*
X136277251Y-59086695D01*
X136277548Y-59091848D01*
X136277548Y-59091851D01*
X136283011Y-59186590D01*
X136290110Y-59309715D01*
X136291247Y-59314761D01*
X136291248Y-59314767D01*
X136311119Y-59402939D01*
X136339222Y-59527639D01*
X136423266Y-59734616D01*
X136539987Y-59925088D01*
X136686250Y-60093938D01*
X136858126Y-60236632D01*
X136919849Y-60272700D01*
X136931445Y-60279476D01*
X136980169Y-60331114D01*
X136993240Y-60400897D01*
X136966509Y-60466669D01*
X136926055Y-60500027D01*
X136913607Y-60506507D01*
X136909474Y-60509610D01*
X136909471Y-60509612D01*
X136796106Y-60594729D01*
X136734965Y-60640635D01*
X136580629Y-60802138D01*
X136454743Y-60986680D01*
X136439003Y-61020590D01*
X136382013Y-61143365D01*
X136360688Y-61189305D01*
X136300989Y-61404570D01*
X136277251Y-61626695D01*
X129654212Y-61626695D01*
X129666091Y-61613502D01*
X129766621Y-61501852D01*
X129766622Y-61501851D01*
X129771040Y-61496944D01*
X129866527Y-61331556D01*
X129925542Y-61149928D01*
X129945504Y-60960000D01*
X129931258Y-60824457D01*
X129926232Y-60776635D01*
X129926232Y-60776633D01*
X129925542Y-60770072D01*
X129866527Y-60588444D01*
X129771040Y-60423056D01*
X129668889Y-60309605D01*
X129647675Y-60286045D01*
X129647674Y-60286044D01*
X129643253Y-60281134D01*
X129488752Y-60168882D01*
X129482724Y-60166198D01*
X129482722Y-60166197D01*
X129389362Y-60124631D01*
X129335267Y-60078651D01*
X129314617Y-60010724D01*
X129320777Y-59970592D01*
X129366742Y-59829128D01*
X129376676Y-59734616D01*
X129386014Y-59645765D01*
X129386704Y-59639200D01*
X129366742Y-59449272D01*
X129307727Y-59267644D01*
X129212240Y-59102256D01*
X129196082Y-59084310D01*
X129088875Y-58965245D01*
X129088874Y-58965244D01*
X129084453Y-58960334D01*
X128929952Y-58848082D01*
X128923924Y-58845398D01*
X128923922Y-58845397D01*
X128761519Y-58773091D01*
X128761518Y-58773091D01*
X128755488Y-58770406D01*
X128662088Y-58750553D01*
X128575144Y-58732072D01*
X128575139Y-58732072D01*
X128568687Y-58730700D01*
X128377713Y-58730700D01*
X128371261Y-58732072D01*
X128371256Y-58732072D01*
X128284312Y-58750553D01*
X128190912Y-58770406D01*
X128184882Y-58773091D01*
X128184881Y-58773091D01*
X128022478Y-58845397D01*
X128022476Y-58845398D01*
X128016448Y-58848082D01*
X128011107Y-58851962D01*
X128011106Y-58851963D01*
X127941518Y-58902522D01*
X127861947Y-58960334D01*
X127857532Y-58965237D01*
X127852620Y-58969660D01*
X127851495Y-58968411D01*
X127798186Y-59001251D01*
X127765000Y-59005700D01*
X125605567Y-59005700D01*
X125594384Y-59005173D01*
X125586891Y-59003498D01*
X125578965Y-59003747D01*
X125578964Y-59003747D01*
X125518801Y-59005638D01*
X125514843Y-59005700D01*
X125486944Y-59005700D01*
X125482954Y-59006204D01*
X125471120Y-59007136D01*
X125426911Y-59008526D01*
X125419297Y-59010738D01*
X125419292Y-59010739D01*
X125407459Y-59014177D01*
X125388096Y-59018188D01*
X125368003Y-59020726D01*
X125360636Y-59023643D01*
X125360631Y-59023644D01*
X125326892Y-59037002D01*
X125315665Y-59040846D01*
X125273207Y-59053182D01*
X125266381Y-59057219D01*
X125255772Y-59063493D01*
X125238024Y-59072188D01*
X125219183Y-59079648D01*
X125212767Y-59084310D01*
X125212766Y-59084310D01*
X125183413Y-59105636D01*
X125173493Y-59112152D01*
X125142265Y-59130620D01*
X125142262Y-59130622D01*
X125135438Y-59134658D01*
X125121117Y-59148979D01*
X125106084Y-59161819D01*
X125089693Y-59173728D01*
X125084642Y-59179834D01*
X125061502Y-59207805D01*
X125053512Y-59216584D01*
X122579100Y-61690995D01*
X122516788Y-61725021D01*
X122490005Y-61727900D01*
X122434113Y-61727900D01*
X122427661Y-61729272D01*
X122427656Y-61729272D01*
X122343140Y-61747237D01*
X122247312Y-61767606D01*
X122241282Y-61770291D01*
X122241281Y-61770291D01*
X122078878Y-61842597D01*
X122078876Y-61842598D01*
X122072848Y-61845282D01*
X122067507Y-61849162D01*
X122067506Y-61849163D01*
X122059793Y-61854767D01*
X121918347Y-61957534D01*
X121790560Y-62099456D01*
X121695073Y-62264844D01*
X121636058Y-62446472D01*
X121616096Y-62636400D01*
X120804860Y-62636400D01*
X120894430Y-62547144D01*
X120894440Y-62547132D01*
X120898096Y-62543489D01*
X120957533Y-62460774D01*
X121025435Y-62366277D01*
X121028453Y-62362077D01*
X121051849Y-62314740D01*
X121125136Y-62166453D01*
X121125137Y-62166451D01*
X121127430Y-62161811D01*
X121192370Y-61948069D01*
X121221529Y-61726590D01*
X121223156Y-61660000D01*
X121204852Y-61437361D01*
X121150431Y-61220702D01*
X121061354Y-61015840D01*
X120940014Y-60828277D01*
X120789670Y-60663051D01*
X120785619Y-60659852D01*
X120785615Y-60659848D01*
X120618414Y-60527800D01*
X120618410Y-60527798D01*
X120614359Y-60524598D01*
X120573053Y-60501796D01*
X120523084Y-60451364D01*
X120508312Y-60381921D01*
X120533428Y-60315516D01*
X120560780Y-60288909D01*
X120604603Y-60257650D01*
X120739860Y-60161173D01*
X120898096Y-60003489D01*
X120957594Y-59920689D01*
X121025435Y-59826277D01*
X121028453Y-59822077D01*
X121122081Y-59632635D01*
X121125136Y-59626453D01*
X121125137Y-59626451D01*
X121127430Y-59621811D01*
X121192370Y-59408069D01*
X121221529Y-59186590D01*
X121223156Y-59120000D01*
X121204852Y-58897361D01*
X121150431Y-58680702D01*
X121061354Y-58475840D01*
X120940014Y-58288277D01*
X120789670Y-58123051D01*
X120785619Y-58119852D01*
X120785615Y-58119848D01*
X120618414Y-57987800D01*
X120618410Y-57987798D01*
X120614359Y-57984598D01*
X120573053Y-57961796D01*
X120523084Y-57911364D01*
X120508312Y-57841921D01*
X120533428Y-57775516D01*
X120560780Y-57748909D01*
X120604603Y-57717650D01*
X120739860Y-57621173D01*
X120898096Y-57463489D01*
X120957594Y-57380689D01*
X121025435Y-57286277D01*
X121028453Y-57282077D01*
X121127430Y-57081811D01*
X121192370Y-56868069D01*
X121221529Y-56646590D01*
X121223156Y-56580000D01*
X121204852Y-56357361D01*
X121150431Y-56140702D01*
X121061354Y-55935840D01*
X120940014Y-55748277D01*
X120789670Y-55583051D01*
X120785619Y-55579852D01*
X120785615Y-55579848D01*
X120618414Y-55447800D01*
X120618410Y-55447798D01*
X120614359Y-55444598D01*
X120573053Y-55421796D01*
X120523084Y-55371364D01*
X120508312Y-55301921D01*
X120533428Y-55235516D01*
X120560780Y-55208909D01*
X120604603Y-55177650D01*
X120739860Y-55081173D01*
X120898096Y-54923489D01*
X120957594Y-54840689D01*
X121025435Y-54746277D01*
X121028453Y-54742077D01*
X121127430Y-54541811D01*
X121192370Y-54328069D01*
X121221529Y-54106590D01*
X121223156Y-54040000D01*
X121204852Y-53817361D01*
X121150431Y-53600702D01*
X121061354Y-53395840D01*
X120940014Y-53208277D01*
X120936540Y-53204459D01*
X120936533Y-53204450D01*
X120792435Y-53046088D01*
X120761383Y-52982242D01*
X120769779Y-52911744D01*
X120814956Y-52856976D01*
X120841400Y-52843307D01*
X120948052Y-52803325D01*
X120963649Y-52794786D01*
X121065724Y-52718285D01*
X121078285Y-52705724D01*
X121154786Y-52603649D01*
X121163324Y-52588054D01*
X121208478Y-52467606D01*
X121212105Y-52452351D01*
X121217631Y-52401486D01*
X121218000Y-52394672D01*
X121218000Y-51772115D01*
X121213525Y-51756876D01*
X121212135Y-51755671D01*
X121204452Y-51754000D01*
X118520116Y-51754000D01*
X118504877Y-51758475D01*
X118503672Y-51759865D01*
X118502001Y-51767548D01*
X118502001Y-52394669D01*
X118502371Y-52401490D01*
X118507895Y-52452352D01*
X118511521Y-52467604D01*
X118556676Y-52588054D01*
X118565214Y-52603649D01*
X118641715Y-52705724D01*
X118654276Y-52718285D01*
X118756351Y-52794786D01*
X118771946Y-52803324D01*
X118880827Y-52844142D01*
X118937591Y-52886784D01*
X118962291Y-52953345D01*
X118947083Y-53022694D01*
X118927691Y-53049175D01*
X118804200Y-53178401D01*
X118800629Y-53182138D01*
X118674743Y-53366680D01*
X118580688Y-53569305D01*
X118520989Y-53784570D01*
X118497251Y-54006695D01*
X118497548Y-54011848D01*
X118497548Y-54011851D01*
X118503011Y-54106590D01*
X118510110Y-54229715D01*
X118511247Y-54234761D01*
X118511248Y-54234767D01*
X118531119Y-54322939D01*
X118559222Y-54447639D01*
X118643266Y-54654616D01*
X118759987Y-54845088D01*
X118906250Y-55013938D01*
X119078126Y-55156632D01*
X119148595Y-55197811D01*
X119151445Y-55199476D01*
X119200169Y-55251114D01*
X119213240Y-55320897D01*
X119186509Y-55386669D01*
X119146055Y-55420027D01*
X119133607Y-55426507D01*
X119129474Y-55429610D01*
X119129471Y-55429612D01*
X119105247Y-55447800D01*
X118954965Y-55560635D01*
X118800629Y-55722138D01*
X118674743Y-55906680D01*
X118580688Y-56109305D01*
X118520989Y-56324570D01*
X118497251Y-56546695D01*
X118497548Y-56551848D01*
X118497548Y-56551851D01*
X118503011Y-56646590D01*
X118510110Y-56769715D01*
X118511247Y-56774761D01*
X118511248Y-56774767D01*
X118531119Y-56862939D01*
X118559222Y-56987639D01*
X118643266Y-57194616D01*
X118759987Y-57385088D01*
X118906250Y-57553938D01*
X119078126Y-57696632D01*
X119148595Y-57737811D01*
X119151445Y-57739476D01*
X119200169Y-57791114D01*
X119213240Y-57860897D01*
X119186509Y-57926669D01*
X119146055Y-57960027D01*
X119133607Y-57966507D01*
X119129474Y-57969610D01*
X119129471Y-57969612D01*
X119105247Y-57987800D01*
X118954965Y-58100635D01*
X118800629Y-58262138D01*
X118674743Y-58446680D01*
X118580688Y-58649305D01*
X118520989Y-58864570D01*
X118497251Y-59086695D01*
X118497548Y-59091848D01*
X118497548Y-59091851D01*
X118503011Y-59186590D01*
X118510110Y-59309715D01*
X118511247Y-59314761D01*
X118511248Y-59314767D01*
X118531119Y-59402939D01*
X118559222Y-59527639D01*
X118643266Y-59734616D01*
X118759987Y-59925088D01*
X118906250Y-60093938D01*
X119078126Y-60236632D01*
X119139849Y-60272700D01*
X119151445Y-60279476D01*
X119200169Y-60331114D01*
X119213240Y-60400897D01*
X119186509Y-60466669D01*
X119146055Y-60500027D01*
X119133607Y-60506507D01*
X119129474Y-60509610D01*
X119129471Y-60509612D01*
X119016106Y-60594729D01*
X118954965Y-60640635D01*
X118800629Y-60802138D01*
X118674743Y-60986680D01*
X118659003Y-61020590D01*
X118602013Y-61143365D01*
X118580688Y-61189305D01*
X118520989Y-61404570D01*
X118497251Y-61626695D01*
X115133500Y-61626695D01*
X115133500Y-48926695D01*
X118497251Y-48926695D01*
X118497548Y-48931848D01*
X118497548Y-48931851D01*
X118503011Y-49026590D01*
X118510110Y-49149715D01*
X118511247Y-49154761D01*
X118511248Y-49154767D01*
X118531119Y-49242939D01*
X118559222Y-49367639D01*
X118643266Y-49574616D01*
X118759987Y-49765088D01*
X118906250Y-49933938D01*
X118910225Y-49937238D01*
X118910231Y-49937244D01*
X118915425Y-49941556D01*
X118955059Y-50000460D01*
X118956555Y-50071441D01*
X118919439Y-50131962D01*
X118879168Y-50156480D01*
X118771946Y-50196676D01*
X118756351Y-50205214D01*
X118654276Y-50281715D01*
X118641715Y-50294276D01*
X118565214Y-50396351D01*
X118556676Y-50411946D01*
X118511522Y-50532394D01*
X118507895Y-50547649D01*
X118502369Y-50598514D01*
X118502000Y-50605328D01*
X118502000Y-51227885D01*
X118506475Y-51243124D01*
X118507865Y-51244329D01*
X118515548Y-51246000D01*
X121199884Y-51246000D01*
X121215123Y-51241525D01*
X121216328Y-51240135D01*
X121217999Y-51232452D01*
X121217999Y-50605331D01*
X121217629Y-50598510D01*
X121212105Y-50547648D01*
X121208479Y-50532396D01*
X121163324Y-50411946D01*
X121154786Y-50396351D01*
X121078285Y-50294276D01*
X121065724Y-50281715D01*
X120963649Y-50205214D01*
X120948054Y-50196676D01*
X120837813Y-50155348D01*
X120781049Y-50112706D01*
X120756349Y-50046145D01*
X120771557Y-49976796D01*
X120793104Y-49948115D01*
X120894430Y-49847144D01*
X120894440Y-49847132D01*
X120898096Y-49843489D01*
X120957594Y-49760689D01*
X121025435Y-49666277D01*
X121028453Y-49662077D01*
X121127430Y-49461811D01*
X121192370Y-49248069D01*
X121221529Y-49026590D01*
X121223156Y-48960000D01*
X121204852Y-48737361D01*
X121150431Y-48520702D01*
X121061354Y-48315840D01*
X120940014Y-48128277D01*
X120789670Y-47963051D01*
X120785619Y-47959852D01*
X120785615Y-47959848D01*
X120618414Y-47827800D01*
X120618410Y-47827798D01*
X120614359Y-47824598D01*
X120573053Y-47801796D01*
X120523084Y-47751364D01*
X120508312Y-47681921D01*
X120533428Y-47615516D01*
X120560780Y-47588909D01*
X120604603Y-47557650D01*
X120739860Y-47461173D01*
X120898096Y-47303489D01*
X120957594Y-47220689D01*
X121025435Y-47126277D01*
X121028453Y-47122077D01*
X121127430Y-46921811D01*
X121192370Y-46708069D01*
X121221529Y-46486590D01*
X121223156Y-46420000D01*
X121204852Y-46197361D01*
X121150431Y-45980702D01*
X121061354Y-45775840D01*
X120940014Y-45588277D01*
X120789670Y-45423051D01*
X120785619Y-45419852D01*
X120785615Y-45419848D01*
X120618414Y-45287800D01*
X120618410Y-45287798D01*
X120614359Y-45284598D01*
X120573053Y-45261796D01*
X120523084Y-45211364D01*
X120508312Y-45141921D01*
X120533428Y-45075516D01*
X120560780Y-45048909D01*
X120604603Y-45017650D01*
X120739860Y-44921173D01*
X120898096Y-44763489D01*
X120957594Y-44680689D01*
X121025435Y-44586277D01*
X121028453Y-44582077D01*
X121127430Y-44381811D01*
X121192370Y-44168069D01*
X121221529Y-43946590D01*
X121223156Y-43880000D01*
X121204852Y-43657361D01*
X121150431Y-43440702D01*
X121061354Y-43235840D01*
X120940014Y-43048277D01*
X120789670Y-42883051D01*
X120785619Y-42879852D01*
X120785615Y-42879848D01*
X120618414Y-42747800D01*
X120618410Y-42747798D01*
X120614359Y-42744598D01*
X120573053Y-42721796D01*
X120523084Y-42671364D01*
X120508312Y-42601921D01*
X120533428Y-42535516D01*
X120560780Y-42508909D01*
X120604603Y-42477650D01*
X120739860Y-42381173D01*
X120898096Y-42223489D01*
X120957594Y-42140689D01*
X121025435Y-42046277D01*
X121028453Y-42042077D01*
X121127430Y-41841811D01*
X121192370Y-41628069D01*
X121221529Y-41406590D01*
X121223156Y-41340000D01*
X121204852Y-41117361D01*
X121150431Y-40900702D01*
X121061354Y-40695840D01*
X120940014Y-40508277D01*
X120936540Y-40504459D01*
X120936533Y-40504450D01*
X120792435Y-40346088D01*
X120761383Y-40282242D01*
X120769779Y-40211744D01*
X120814956Y-40156976D01*
X120841400Y-40143307D01*
X120948052Y-40103325D01*
X120963649Y-40094786D01*
X121065724Y-40018285D01*
X121078285Y-40005724D01*
X121154786Y-39903649D01*
X121163324Y-39888054D01*
X121208478Y-39767606D01*
X121212105Y-39752351D01*
X121217631Y-39701486D01*
X121218000Y-39694672D01*
X121218000Y-39072115D01*
X121213525Y-39056876D01*
X121212135Y-39055671D01*
X121204452Y-39054000D01*
X118520116Y-39054000D01*
X118504877Y-39058475D01*
X118503672Y-39059865D01*
X118502001Y-39067548D01*
X118502001Y-39694669D01*
X118502371Y-39701490D01*
X118507895Y-39752352D01*
X118511521Y-39767604D01*
X118556676Y-39888054D01*
X118565214Y-39903649D01*
X118641715Y-40005724D01*
X118654276Y-40018285D01*
X118756351Y-40094786D01*
X118771946Y-40103324D01*
X118880827Y-40144142D01*
X118937591Y-40186784D01*
X118962291Y-40253345D01*
X118947083Y-40322694D01*
X118927691Y-40349175D01*
X118804200Y-40478401D01*
X118800629Y-40482138D01*
X118674743Y-40666680D01*
X118580688Y-40869305D01*
X118520989Y-41084570D01*
X118497251Y-41306695D01*
X118497548Y-41311848D01*
X118497548Y-41311851D01*
X118503011Y-41406590D01*
X118510110Y-41529715D01*
X118511247Y-41534761D01*
X118511248Y-41534767D01*
X118531119Y-41622939D01*
X118559222Y-41747639D01*
X118643266Y-41954616D01*
X118759987Y-42145088D01*
X118906250Y-42313938D01*
X119078126Y-42456632D01*
X119148595Y-42497811D01*
X119151445Y-42499476D01*
X119200169Y-42551114D01*
X119213240Y-42620897D01*
X119186509Y-42686669D01*
X119146055Y-42720027D01*
X119133607Y-42726507D01*
X119129474Y-42729610D01*
X119129471Y-42729612D01*
X119105247Y-42747800D01*
X118954965Y-42860635D01*
X118800629Y-43022138D01*
X118674743Y-43206680D01*
X118580688Y-43409305D01*
X118520989Y-43624570D01*
X118497251Y-43846695D01*
X118497548Y-43851848D01*
X118497548Y-43851851D01*
X118503011Y-43946590D01*
X118510110Y-44069715D01*
X118511247Y-44074761D01*
X118511248Y-44074767D01*
X118531119Y-44162939D01*
X118559222Y-44287639D01*
X118643266Y-44494616D01*
X118759987Y-44685088D01*
X118906250Y-44853938D01*
X119078126Y-44996632D01*
X119148595Y-45037811D01*
X119151445Y-45039476D01*
X119200169Y-45091114D01*
X119213240Y-45160897D01*
X119186509Y-45226669D01*
X119146055Y-45260027D01*
X119133607Y-45266507D01*
X119129474Y-45269610D01*
X119129471Y-45269612D01*
X119105247Y-45287800D01*
X118954965Y-45400635D01*
X118800629Y-45562138D01*
X118674743Y-45746680D01*
X118580688Y-45949305D01*
X118520989Y-46164570D01*
X118497251Y-46386695D01*
X118497548Y-46391848D01*
X118497548Y-46391851D01*
X118503011Y-46486590D01*
X118510110Y-46609715D01*
X118511247Y-46614761D01*
X118511248Y-46614767D01*
X118531119Y-46702939D01*
X118559222Y-46827639D01*
X118643266Y-47034616D01*
X118759987Y-47225088D01*
X118906250Y-47393938D01*
X119078126Y-47536632D01*
X119148595Y-47577811D01*
X119151445Y-47579476D01*
X119200169Y-47631114D01*
X119213240Y-47700897D01*
X119186509Y-47766669D01*
X119146055Y-47800027D01*
X119133607Y-47806507D01*
X119129474Y-47809610D01*
X119129471Y-47809612D01*
X119105247Y-47827800D01*
X118954965Y-47940635D01*
X118800629Y-48102138D01*
X118674743Y-48286680D01*
X118580688Y-48489305D01*
X118520989Y-48704570D01*
X118497251Y-48926695D01*
X115133500Y-48926695D01*
X115133500Y-19834500D01*
X115153502Y-19766379D01*
X115207158Y-19719886D01*
X115259500Y-19708500D01*
X118966383Y-19708500D01*
X119034504Y-19728502D01*
G37*
%TD.AperFunction*%
%TD*%
M02*
