%TF.GenerationSoftware,KiCad,Pcbnew,6.0.8-f2edbf62ab~116~ubuntu22.04.1*%
%TF.CreationDate,2022-10-03T19:03:55-04:00*%
%TF.ProjectId,PicoProbeProgrammerBoard,5069636f-5072-46f6-9265-50726f677261,rev?*%
%TF.SameCoordinates,Original*%
%TF.FileFunction,Copper,L1,Top*%
%TF.FilePolarity,Positive*%
%FSLAX46Y46*%
G04 Gerber Fmt 4.6, Leading zero omitted, Abs format (unit mm)*
G04 Created by KiCad (PCBNEW 6.0.8-f2edbf62ab~116~ubuntu22.04.1) date 2022-10-03 19:03:55*
%MOMM*%
%LPD*%
G01*
G04 APERTURE LIST*
%TA.AperFunction,ComponentPad*%
%ADD10R,1.700000X1.700000*%
%TD*%
%TA.AperFunction,ComponentPad*%
%ADD11O,1.700000X1.700000*%
%TD*%
%TA.AperFunction,SMDPad,CuDef*%
%ADD12R,0.660400X1.549400*%
%TD*%
%TA.AperFunction,SMDPad,CuDef*%
%ADD13R,1.295400X1.905000*%
%TD*%
%TA.AperFunction,SMDPad,CuDef*%
%ADD14R,0.660400X2.768600*%
%TD*%
%TA.AperFunction,SMDPad,CuDef*%
%ADD15R,3.500000X1.700000*%
%TD*%
%TA.AperFunction,SMDPad,CuDef*%
%ADD16R,1.700000X3.500000*%
%TD*%
%TA.AperFunction,ViaPad*%
%ADD17C,0.800000*%
%TD*%
%TA.AperFunction,Conductor*%
%ADD18C,0.250000*%
%TD*%
G04 APERTURE END LIST*
D10*
%TO.P,J2,1,Pin_1*%
%TO.N,/SCL_0*%
X118618000Y-75184000D03*
D11*
%TO.P,J2,2,Pin_2*%
%TO.N,/SWDCLK*%
X118618000Y-77724000D03*
%TO.P,J2,3,Pin_3*%
%TO.N,GND*%
X118618000Y-80264000D03*
%TO.P,J2,4,Pin_4*%
%TO.N,/SWDIO*%
X118618000Y-82804000D03*
%TO.P,J2,5,Pin_5*%
%TO.N,/SDA_0*%
X118618000Y-85344000D03*
%TO.P,J2,6,Pin_6*%
%TO.N,/SWO*%
X118618000Y-87884000D03*
%TO.P,J2,7,Pin_7*%
%TO.N,/VBUS_OUT*%
X118618000Y-90424000D03*
%TD*%
D12*
%TO.P,J4,1,1*%
%TO.N,/SWDIO*%
X140100001Y-88771600D03*
%TO.P,J4,2,2*%
%TO.N,GND*%
X139100000Y-88771600D03*
%TO.P,J4,3,3*%
%TO.N,/SWDCLK*%
X138099999Y-88771600D03*
D13*
%TO.P,J4,4*%
%TO.N,GND*%
X136800000Y-91296599D03*
%TO.P,J4,5*%
X141400000Y-91296599D03*
%TD*%
D10*
%TO.P,ExtraConns,1,Pin_1*%
%TO.N,/UartTX*%
X132461000Y-80264000D03*
D11*
%TO.P,ExtraConns,2,Pin_2*%
%TO.N,/SWO*%
X135001000Y-80264000D03*
%TO.P,ExtraConns,3,Pin_3*%
%TO.N,/SDA_0*%
X132461000Y-77724000D03*
%TO.P,ExtraConns,4,Pin_4*%
%TO.N,/SCL_0*%
X135001000Y-77724000D03*
%TO.P,ExtraConns,5,Pin_5*%
%TO.N,/SDA_1*%
X132461000Y-75184000D03*
%TO.P,ExtraConns,6,Pin_6*%
%TO.N,/SCL_1*%
X135001000Y-75184000D03*
%TD*%
D10*
%TO.P,3v3,1,A*%
%TO.N,Net-(JP2-Pad1)*%
X127254000Y-75184000D03*
D11*
%TO.P,3v3,2,B*%
%TO.N,/power_output*%
X127254000Y-77724000D03*
%TD*%
D10*
%TO.P,5v,1,A*%
%TO.N,Net-(JP1-Pad1)*%
X123444000Y-75184000D03*
D11*
%TO.P,5v,2,B*%
%TO.N,/power_output*%
X123444000Y-77724000D03*
%TD*%
D14*
%TO.P,J1,1,Pin_1*%
%TO.N,/SCL_0*%
X124841000Y-90779000D03*
%TO.P,J1,2,Pin_2*%
%TO.N,/SWDIO*%
X124841000Y-87249000D03*
%TO.P,J1,3,Pin_3*%
%TO.N,GND*%
X126111000Y-90779000D03*
%TO.P,J1,4,Pin_4*%
%TO.N,/SWDCLK*%
X126111000Y-87249000D03*
%TO.P,J1,5,Pin_5*%
%TO.N,/UartTX*%
X127381000Y-90779000D03*
%TO.P,J1,6,Pin_6*%
%TO.N,/SWO*%
X127381000Y-87249000D03*
%TO.P,J1,7,Pin_7*%
%TO.N,/SDA_1*%
X128651000Y-90779000D03*
%TO.P,J1,8,Pin_8*%
%TO.N,/SCL_1*%
X128651000Y-87249000D03*
%TO.P,J1,9,Pin_9*%
%TO.N,/power_output*%
X129921000Y-90779000D03*
%TO.P,J1,10,Pin_10*%
%TO.N,/SDA_0*%
X129921000Y-87249000D03*
%TD*%
D15*
%TO.P,U1,1,GPIO0*%
%TO.N,unconnected-(U1-Pad1)*%
X118960000Y-21020000D03*
D11*
X119860000Y-21020000D03*
D15*
%TO.P,U1,2,GPIO1*%
%TO.N,unconnected-(U1-Pad2)*%
X118960000Y-23560000D03*
D11*
X119860000Y-23560000D03*
D15*
%TO.P,U1,3,GND*%
%TO.N,unconnected-(U1-Pad3)*%
X118960000Y-26100000D03*
D10*
X119860000Y-26100000D03*
D11*
%TO.P,U1,4,GPIO2*%
%TO.N,/SWDCLK*%
X119860000Y-28640000D03*
D15*
X118960000Y-28640000D03*
%TO.P,U1,5,GPIO3*%
%TO.N,/SWDIO*%
X118960000Y-31180000D03*
D11*
X119860000Y-31180000D03*
%TO.P,U1,6,GPIO4*%
%TO.N,/SDA_0*%
X119860000Y-33720000D03*
D15*
X118960000Y-33720000D03*
D11*
%TO.P,U1,7,GPIO5*%
%TO.N,/SWO*%
X119860000Y-36260000D03*
D15*
X118960000Y-36260000D03*
D10*
%TO.P,U1,8,GND*%
%TO.N,GND*%
X119860000Y-38800000D03*
D15*
X118960000Y-38800000D03*
D11*
%TO.P,U1,9,GPIO6*%
%TO.N,unconnected-(U1-Pad9)*%
X119860000Y-41340000D03*
D15*
X118960000Y-41340000D03*
%TO.P,U1,10,GPIO7*%
%TO.N,unconnected-(U1-Pad10)*%
X118960000Y-43880000D03*
D11*
X119860000Y-43880000D03*
%TO.P,U1,11,GPIO8*%
%TO.N,unconnected-(U1-Pad11)*%
X119860000Y-46420000D03*
D15*
X118960000Y-46420000D03*
D11*
%TO.P,U1,12,GPIO9*%
%TO.N,unconnected-(U1-Pad12)*%
X119860000Y-48960000D03*
D15*
X118960000Y-48960000D03*
D10*
%TO.P,U1,13,GND*%
%TO.N,GND*%
X119860000Y-51500000D03*
D15*
X118960000Y-51500000D03*
D11*
%TO.P,U1,14,GPIO10*%
%TO.N,unconnected-(U1-Pad14)*%
X119860000Y-54040000D03*
D15*
X118960000Y-54040000D03*
%TO.P,U1,15,GPIO11*%
%TO.N,unconnected-(U1-Pad15)*%
X118960000Y-56580000D03*
D11*
X119860000Y-56580000D03*
%TO.P,U1,16,GPIO12*%
%TO.N,unconnected-(U1-Pad16)*%
X119860000Y-59120000D03*
D15*
X118960000Y-59120000D03*
%TO.P,U1,17,GPIO13*%
%TO.N,unconnected-(U1-Pad17)*%
X118960000Y-61660000D03*
D11*
X119860000Y-61660000D03*
D10*
%TO.P,U1,18,GND*%
%TO.N,GND*%
X119860000Y-64200000D03*
D15*
X118960000Y-64200000D03*
D11*
%TO.P,U1,19,GPIO14*%
%TO.N,unconnected-(U1-Pad19)*%
X119860000Y-66740000D03*
D15*
X118960000Y-66740000D03*
D11*
%TO.P,U1,20,GPIO15*%
%TO.N,unconnected-(U1-Pad20)*%
X119860000Y-69280000D03*
D15*
X118960000Y-69280000D03*
%TO.P,U1,21,GPIO16*%
%TO.N,unconnected-(U1-Pad21)*%
X138540000Y-69280000D03*
D11*
X137640000Y-69280000D03*
D15*
%TO.P,U1,22,GPIO17*%
%TO.N,unconnected-(U1-Pad22)*%
X138540000Y-66740000D03*
D11*
X137640000Y-66740000D03*
D10*
%TO.P,U1,23,GND*%
%TO.N,GND*%
X137640000Y-64200000D03*
D15*
X138540000Y-64200000D03*
D11*
%TO.P,U1,24,GPIO18*%
%TO.N,unconnected-(U1-Pad24)*%
X137640000Y-61660000D03*
D15*
X138540000Y-61660000D03*
%TO.P,U1,25,GPIO19*%
%TO.N,unconnected-(U1-Pad25)*%
X138540000Y-59120000D03*
D11*
X137640000Y-59120000D03*
D15*
%TO.P,U1,26,GPIO20*%
%TO.N,unconnected-(U1-Pad26)*%
X138540000Y-56580000D03*
D11*
X137640000Y-56580000D03*
D15*
%TO.P,U1,27,GPIO21*%
%TO.N,unconnected-(U1-Pad27)*%
X138540000Y-54040000D03*
D11*
X137640000Y-54040000D03*
D10*
%TO.P,U1,28,GND*%
%TO.N,GND*%
X137640000Y-51500000D03*
D15*
X138540000Y-51500000D03*
%TO.P,U1,29,GPIO22*%
%TO.N,unconnected-(U1-Pad29)*%
X138540000Y-48960000D03*
D11*
X137640000Y-48960000D03*
D15*
%TO.P,U1,30,RUN*%
%TO.N,unconnected-(U1-Pad30)*%
X138540000Y-46420000D03*
D11*
X137640000Y-46420000D03*
D15*
%TO.P,U1,31,GPIO26_ADC0*%
%TO.N,unconnected-(U1-Pad31)*%
X138540000Y-43880000D03*
D11*
X137640000Y-43880000D03*
D15*
%TO.P,U1,32,GPIO27_ADC1*%
%TO.N,unconnected-(U1-Pad32)*%
X138540000Y-41340000D03*
D11*
X137640000Y-41340000D03*
D15*
%TO.P,U1,33,AGND*%
%TO.N,unconnected-(U1-Pad33)*%
X138540000Y-38800000D03*
D10*
X137640000Y-38800000D03*
D11*
%TO.P,U1,34,GPIO28_ADC2*%
%TO.N,/SCL_0*%
X137640000Y-36260000D03*
D15*
X138540000Y-36260000D03*
D11*
%TO.P,U1,35,ADC_VREF*%
%TO.N,unconnected-(U1-Pad35)*%
X137640000Y-33720000D03*
D15*
X138540000Y-33720000D03*
D11*
%TO.P,U1,36,3V3*%
%TO.N,Net-(JP2-Pad1)*%
X137640000Y-31180000D03*
D15*
X138540000Y-31180000D03*
%TO.P,U1,37,3V3_EN*%
%TO.N,unconnected-(U1-Pad37)*%
X138540000Y-28640000D03*
D11*
X137640000Y-28640000D03*
D10*
%TO.P,U1,38,GND*%
%TO.N,unconnected-(U1-Pad38)*%
X137640000Y-26100000D03*
D15*
X138540000Y-26100000D03*
D11*
%TO.P,U1,39,VSYS*%
%TO.N,Net-(JP1-Pad1)*%
X137640000Y-23560000D03*
D15*
X138540000Y-23560000D03*
D11*
%TO.P,U1,40,VBUS*%
%TO.N,unconnected-(U1-Pad40)*%
X137640000Y-21020000D03*
D15*
X138540000Y-21020000D03*
D16*
%TO.P,U1,41,SWCLK*%
%TO.N,unconnected-(U1-Pad41)*%
X126210000Y-69950000D03*
D11*
X126210000Y-69050000D03*
D10*
%TO.P,U1,42,GND*%
%TO.N,unconnected-(U1-Pad42)*%
X128750000Y-69050000D03*
D16*
X128750000Y-69950000D03*
D11*
%TO.P,U1,43,SWDIO*%
%TO.N,unconnected-(U1-Pad43)*%
X131290000Y-69050000D03*
D16*
X131290000Y-69950000D03*
%TD*%
D17*
%TO.N,/SCL_0*%
X135037701Y-73559000D03*
X135037701Y-68467099D03*
%TO.N,/SWDIO*%
X140055600Y-86360000D03*
X123952000Y-85293200D03*
%TO.N,GND*%
X126136400Y-92964000D03*
X139090400Y-87325200D03*
%TO.N,/SWDCLK*%
X137109200Y-86766400D03*
X125323600Y-85039200D03*
%TO.N,/SWO*%
X127406400Y-84480400D03*
X122834400Y-87782400D03*
X133451600Y-82905600D03*
%TO.N,/SDA_0*%
X130606800Y-85394800D03*
X134176600Y-83958600D03*
X127406400Y-62992000D03*
%TO.N,/power_output*%
X130949100Y-87223600D03*
X125069600Y-80772000D03*
%TO.N,Net-(JP1-Pad1)*%
X128473200Y-59639200D03*
X122529600Y-62636400D03*
%TO.N,Net-(JP2-Pad1)*%
X123698000Y-64262000D03*
X129032000Y-60960000D03*
%TD*%
D18*
%TO.N,/UartTX*%
X128574800Y-92964000D02*
X132232400Y-92964000D01*
X127381000Y-90779000D02*
X127381000Y-91770200D01*
X132461000Y-92735400D02*
X132461000Y-80264000D01*
X132232400Y-92964000D02*
X132461000Y-92735400D01*
X127381000Y-91770200D02*
X128574800Y-92964000D01*
%TO.N,/SDA_1*%
X131673600Y-92405200D02*
X131572000Y-92506800D01*
X129324700Y-92506800D02*
X128651000Y-91833100D01*
X128651000Y-91833100D02*
X128651000Y-90779000D01*
X130251200Y-83769200D02*
X131673600Y-85191600D01*
X130251200Y-77393800D02*
X130251200Y-83769200D01*
X131572000Y-92506800D02*
X129324700Y-92506800D01*
X131673600Y-85191600D02*
X131673600Y-92405200D01*
X132461000Y-75184000D02*
X130251200Y-77393800D01*
%TO.N,/SCL_0*%
X136176000Y-76549000D02*
X135001000Y-77724000D01*
X136176000Y-74697299D02*
X136176000Y-76549000D01*
X126238000Y-82905600D02*
X129235200Y-79908400D01*
X129235200Y-75590400D02*
X131266600Y-73559000D01*
X135037701Y-73559000D02*
X136176000Y-74697299D01*
X124841000Y-90779000D02*
X123087800Y-90779000D01*
X123901200Y-82905600D02*
X126238000Y-82905600D01*
X121920000Y-89611200D02*
X121920000Y-84683600D01*
X123087800Y-90779000D02*
X121920000Y-89611200D01*
X118618000Y-75425903D02*
X123901200Y-80709103D01*
X118618000Y-75184000D02*
X118618000Y-75425903D01*
X123698000Y-82905600D02*
X123901200Y-82905600D01*
X131266600Y-73559000D02*
X135037701Y-73559000D01*
X121920000Y-84683600D02*
X123698000Y-82905600D01*
X135037701Y-68467099D02*
X135037701Y-38862299D01*
X123901200Y-80709103D02*
X123901200Y-82905600D01*
X129235200Y-79908400D02*
X129235200Y-75590400D01*
X135037701Y-38862299D02*
X137640000Y-36260000D01*
%TO.N,/SWDIO*%
X119104701Y-76549000D02*
X117011404Y-76549000D01*
X124841000Y-87249000D02*
X124841000Y-86182200D01*
X119793000Y-77237299D02*
X119104701Y-76549000D01*
X118618000Y-82804000D02*
X119793000Y-81629000D01*
X117011404Y-76549000D02*
X116230400Y-75767996D01*
X119793000Y-81629000D02*
X119793000Y-77237299D01*
X118121200Y-31180000D02*
X119860000Y-31180000D01*
X140055600Y-88727199D02*
X140100001Y-88771600D01*
X116230400Y-33070800D02*
X118121200Y-31180000D01*
X116230400Y-75767996D02*
X116230400Y-33070800D01*
X140055600Y-86360000D02*
X140055600Y-88727199D01*
X124841000Y-86182200D02*
X123952000Y-85293200D01*
%TO.N,GND*%
X126111000Y-92938600D02*
X126136400Y-92964000D01*
X139100000Y-88771600D02*
X139100000Y-87334800D01*
X126111000Y-90779000D02*
X126111000Y-92938600D01*
X139100000Y-87334800D02*
X139090400Y-87325200D01*
%TO.N,/SWDCLK*%
X115773200Y-31116800D02*
X118250000Y-28640000D01*
X115773200Y-76200000D02*
X115773200Y-31116800D01*
X126111000Y-87249000D02*
X126111000Y-85826600D01*
X117297200Y-77724000D02*
X115773200Y-76200000D01*
X118618000Y-77724000D02*
X117297200Y-77724000D01*
X118250000Y-28640000D02*
X119860000Y-28640000D01*
X137109200Y-87780801D02*
X138099999Y-88771600D01*
X126111000Y-85826600D02*
X125323600Y-85039200D01*
X137109200Y-86766400D02*
X137109200Y-87780801D01*
%TO.N,/SWO*%
X125120400Y-64008000D02*
X125120400Y-41520400D01*
X134366000Y-71272400D02*
X134366000Y-69748400D01*
X123813400Y-84314200D02*
X122834400Y-85293200D01*
X133451600Y-82905600D02*
X133451600Y-81813400D01*
X126288800Y-65176400D02*
X125120400Y-64008000D01*
X122834400Y-85293200D02*
X122834400Y-87782400D01*
X135001000Y-80264000D02*
X136626000Y-78639000D01*
X129794000Y-65176400D02*
X126288800Y-65176400D01*
X133451600Y-81813400D02*
X135001000Y-80264000D01*
X136626000Y-73532400D02*
X134366000Y-71272400D01*
X127381000Y-84505800D02*
X127406400Y-84480400D01*
X127240200Y-84314200D02*
X123813400Y-84314200D01*
X136626000Y-78639000D02*
X136626000Y-73532400D01*
X134366000Y-69748400D02*
X129794000Y-65176400D01*
X127406400Y-84480400D02*
X127240200Y-84314200D01*
X125120400Y-41520400D02*
X119860000Y-36260000D01*
X127381000Y-87249000D02*
X127381000Y-84505800D01*
%TO.N,/SDA_0*%
X120700800Y-87426800D02*
X120700800Y-89814400D01*
X129921000Y-86080600D02*
X130606800Y-85394800D01*
X129921000Y-87249000D02*
X129921000Y-86080600D01*
X120700800Y-90525600D02*
X123799600Y-93624400D01*
X134162800Y-93776800D02*
X134162800Y-83972400D01*
X118618000Y-85344000D02*
X120700800Y-87426800D01*
X124002800Y-93827600D02*
X134112000Y-93827600D01*
X127406400Y-62992000D02*
X127406400Y-41266400D01*
X120700800Y-89814400D02*
X120700800Y-90525600D01*
X123799600Y-93624400D02*
X124002800Y-93827600D01*
X134112000Y-93827600D02*
X134162800Y-93776800D01*
X127406400Y-41266400D02*
X119860000Y-33720000D01*
%TO.N,/SCL_1*%
X133826000Y-74009000D02*
X131477000Y-74009000D01*
X135001000Y-75184000D02*
X133826000Y-74009000D01*
X128651000Y-83185000D02*
X128651000Y-87249000D01*
X129801200Y-76091200D02*
X129801200Y-82034800D01*
X130810000Y-75082400D02*
X129801200Y-76091200D01*
X129801200Y-82034800D02*
X128651000Y-83185000D01*
X131477000Y-74009000D02*
X130810000Y-74676000D01*
X130810000Y-74676000D02*
X130810000Y-75082400D01*
%TO.N,/power_output*%
X131013200Y-89686800D02*
X131013200Y-87376000D01*
X129921000Y-90779000D02*
X131013200Y-89686800D01*
X126593600Y-77724000D02*
X127254000Y-77724000D01*
X123444000Y-77724000D02*
X125069600Y-79349600D01*
X131013200Y-87287700D02*
X130949100Y-87223600D01*
X125069600Y-79248000D02*
X126593600Y-77724000D01*
X125069600Y-79349600D02*
X125069600Y-80772000D01*
X125069600Y-79349600D02*
X125069600Y-79248000D01*
X131013200Y-87376000D02*
X131013200Y-87287700D01*
%TO.N,Net-(JP1-Pad1)*%
X128473200Y-59639200D02*
X128473200Y-32726800D01*
X122428000Y-62738000D02*
X122529600Y-62636400D01*
X128473200Y-32726800D02*
X137640000Y-23560000D01*
X122428000Y-74168000D02*
X122428000Y-62738000D01*
X123444000Y-75184000D02*
X122428000Y-74168000D01*
%TO.N,Net-(JP2-Pad1)*%
X129032000Y-60960000D02*
X130505200Y-59486800D01*
X123698000Y-71983600D02*
X123698000Y-64262000D01*
X127254000Y-75184000D02*
X126898400Y-75184000D01*
X126898400Y-75184000D02*
X124053600Y-72339200D01*
X124053600Y-72339200D02*
X123698000Y-71983600D01*
X130505200Y-33234800D02*
X132560000Y-31180000D01*
X132560000Y-31180000D02*
X137640000Y-31180000D01*
X130505200Y-59486800D02*
X130505200Y-33234800D01*
%TD*%
M02*
