M48
; DRILL file {KiCad 6.0.8-f2edbf62ab~116~ubuntu22.04.1} date Mon 03 Oct 2022 07:03:58 PM EDT
; FORMAT={-:-/ absolute / inch / decimal}
; #@! TF.CreationDate,2022-10-03T19:03:58-04:00
; #@! TF.GenerationSoftware,Kicad,Pcbnew,6.0.8-f2edbf62ab~116~ubuntu22.04.1
; #@! TF.FileFunction,Plated,1,2,PTH
FMAT,2
INCH
; #@! TA.AperFunction,Plated,PTH,ViaDrill
T1C0.0157
; #@! TA.AperFunction,Plated,PTH,ComponentDrill
T2C0.0394
; #@! TA.AperFunction,Plated,PTH,ComponentDrill
T3C0.0402
%
G90
G05
T1
X4.824Y-2.466
X4.836Y-3.456
X4.87Y-2.53
X4.88Y-3.358
X4.924Y-3.18
X4.934Y-3.348
X4.966Y-3.66
X5.016Y-2.48
X5.016Y-3.326
X5.058Y-2.348
X5.08Y-2.4
X5.142Y-3.362
X5.1555Y-3.434
X5.254Y-3.264
X5.2825Y-3.3055
X5.3164Y-2.6956
X5.3164Y-2.896
X5.398Y-3.416
X5.476Y-3.438
X5.514Y-3.4
T2
X4.67Y-2.96
X4.67Y-3.06
X4.67Y-3.16
X4.67Y-3.26
X4.67Y-3.36
X4.67Y-3.46
X4.67Y-3.56
X4.86Y-2.96
X4.86Y-3.06
X5.01Y-2.96
X5.01Y-3.06
X5.215Y-2.96
X5.215Y-3.06
X5.215Y-3.16
X5.315Y-2.96
X5.315Y-3.06
X5.315Y-3.16
T3
X4.7189Y-0.8276
X4.7189Y-0.9276
X4.7189Y-1.0276
X4.7189Y-1.1276
X4.7189Y-1.2276
X4.7189Y-1.3276
X4.7189Y-1.4276
X4.7189Y-1.5276
X4.7189Y-1.6276
X4.7189Y-1.7276
X4.7189Y-1.8276
X4.7189Y-1.9276
X4.7189Y-2.0276
X4.7189Y-2.1276
X4.7189Y-2.2276
X4.7189Y-2.3276
X4.7189Y-2.4276
X4.7189Y-2.5276
X4.7189Y-2.6276
X4.7189Y-2.7276
X4.9689Y-2.7185
X5.0689Y-2.7185
X5.1689Y-2.7185
X5.4189Y-0.8276
X5.4189Y-0.9276
X5.4189Y-1.0276
X5.4189Y-1.1276
X5.4189Y-1.2276
X5.4189Y-1.3276
X5.4189Y-1.4276
X5.4189Y-1.5276
X5.4189Y-1.6276
X5.4189Y-1.7276
X5.4189Y-1.8276
X5.4189Y-1.9276
X5.4189Y-2.0276
X5.4189Y-2.1276
X5.4189Y-2.2276
X5.4189Y-2.3276
X5.4189Y-2.4276
X5.4189Y-2.5276
X5.4189Y-2.6276
X5.4189Y-2.7276
T0
M30
