%TF.GenerationSoftware,KiCad,Pcbnew,6.0.8-f2edbf62ab~116~ubuntu22.04.1*%
%TF.CreationDate,2022-10-04T06:10:33-04:00*%
%TF.ProjectId,PicoProbeProgrammerBoard,5069636f-5072-46f6-9265-50726f677261,rev?*%
%TF.SameCoordinates,Original*%
%TF.FileFunction,Legend,Top*%
%TF.FilePolarity,Positive*%
%FSLAX46Y46*%
G04 Gerber Fmt 4.6, Leading zero omitted, Abs format (unit mm)*
G04 Created by KiCad (PCBNEW 6.0.8-f2edbf62ab~116~ubuntu22.04.1) date 2022-10-04 06:10:33*
%MOMM*%
%LPD*%
G01*
G04 APERTURE LIST*
%ADD10C,0.150000*%
%ADD11C,0.120000*%
G04 APERTURE END LIST*
D10*
%TO.C,J2*%
X113904666Y-71866380D02*
X113904666Y-72580666D01*
X113857047Y-72723523D01*
X113761809Y-72818761D01*
X113618952Y-72866380D01*
X113523714Y-72866380D01*
X114333238Y-71961619D02*
X114380857Y-71914000D01*
X114476095Y-71866380D01*
X114714190Y-71866380D01*
X114809428Y-71914000D01*
X114857047Y-71961619D01*
X114904666Y-72056857D01*
X114904666Y-72152095D01*
X114857047Y-72294952D01*
X114285619Y-72866380D01*
X114904666Y-72866380D01*
%TO.C,J4*%
X138766666Y-88223980D02*
X138766666Y-88938266D01*
X138719047Y-89081123D01*
X138623809Y-89176361D01*
X138480952Y-89223980D01*
X138385714Y-89223980D01*
X139671428Y-88557314D02*
X139671428Y-89223980D01*
X139433333Y-88176361D02*
X139195238Y-88890647D01*
X139814285Y-88890647D01*
X139100000Y-89652380D02*
X139100000Y-89890476D01*
X138861904Y-89795238D02*
X139100000Y-89890476D01*
X139338095Y-89795238D01*
X138957142Y-90080952D02*
X139100000Y-89890476D01*
X139242857Y-90080952D01*
%TO.C,ExtraConns*%
X129802428Y-82962571D02*
X130135761Y-82962571D01*
X130278619Y-83486380D02*
X129802428Y-83486380D01*
X129802428Y-82486380D01*
X130278619Y-82486380D01*
X130611952Y-83486380D02*
X131135761Y-82819714D01*
X130611952Y-82819714D02*
X131135761Y-83486380D01*
X131373857Y-82819714D02*
X131754809Y-82819714D01*
X131516714Y-82486380D02*
X131516714Y-83343523D01*
X131564333Y-83438761D01*
X131659571Y-83486380D01*
X131754809Y-83486380D01*
X132088142Y-83486380D02*
X132088142Y-82819714D01*
X132088142Y-83010190D02*
X132135761Y-82914952D01*
X132183380Y-82867333D01*
X132278619Y-82819714D01*
X132373857Y-82819714D01*
X133135761Y-83486380D02*
X133135761Y-82962571D01*
X133088142Y-82867333D01*
X132992904Y-82819714D01*
X132802428Y-82819714D01*
X132707190Y-82867333D01*
X133135761Y-83438761D02*
X133040523Y-83486380D01*
X132802428Y-83486380D01*
X132707190Y-83438761D01*
X132659571Y-83343523D01*
X132659571Y-83248285D01*
X132707190Y-83153047D01*
X132802428Y-83105428D01*
X133040523Y-83105428D01*
X133135761Y-83057809D01*
X134183380Y-83391142D02*
X134135761Y-83438761D01*
X133992904Y-83486380D01*
X133897666Y-83486380D01*
X133754809Y-83438761D01*
X133659571Y-83343523D01*
X133611952Y-83248285D01*
X133564333Y-83057809D01*
X133564333Y-82914952D01*
X133611952Y-82724476D01*
X133659571Y-82629238D01*
X133754809Y-82534000D01*
X133897666Y-82486380D01*
X133992904Y-82486380D01*
X134135761Y-82534000D01*
X134183380Y-82581619D01*
X134754809Y-83486380D02*
X134659571Y-83438761D01*
X134611952Y-83391142D01*
X134564333Y-83295904D01*
X134564333Y-83010190D01*
X134611952Y-82914952D01*
X134659571Y-82867333D01*
X134754809Y-82819714D01*
X134897666Y-82819714D01*
X134992904Y-82867333D01*
X135040523Y-82914952D01*
X135088142Y-83010190D01*
X135088142Y-83295904D01*
X135040523Y-83391142D01*
X134992904Y-83438761D01*
X134897666Y-83486380D01*
X134754809Y-83486380D01*
X135516714Y-82819714D02*
X135516714Y-83486380D01*
X135516714Y-82914952D02*
X135564333Y-82867333D01*
X135659571Y-82819714D01*
X135802428Y-82819714D01*
X135897666Y-82867333D01*
X135945285Y-82962571D01*
X135945285Y-83486380D01*
X136421476Y-82819714D02*
X136421476Y-83486380D01*
X136421476Y-82914952D02*
X136469095Y-82867333D01*
X136564333Y-82819714D01*
X136707190Y-82819714D01*
X136802428Y-82867333D01*
X136850047Y-82962571D01*
X136850047Y-83486380D01*
X137278619Y-83438761D02*
X137373857Y-83486380D01*
X137564333Y-83486380D01*
X137659571Y-83438761D01*
X137707190Y-83343523D01*
X137707190Y-83295904D01*
X137659571Y-83200666D01*
X137564333Y-83153047D01*
X137421476Y-83153047D01*
X137326238Y-83105428D01*
X137278619Y-83010190D01*
X137278619Y-82962571D01*
X137326238Y-82867333D01*
X137421476Y-82819714D01*
X137564333Y-82819714D01*
X137659571Y-82867333D01*
%TO.C,3v3*%
X126063523Y-72306380D02*
X126682571Y-72306380D01*
X126349238Y-72687333D01*
X126492095Y-72687333D01*
X126587333Y-72734952D01*
X126634952Y-72782571D01*
X126682571Y-72877809D01*
X126682571Y-73115904D01*
X126634952Y-73211142D01*
X126587333Y-73258761D01*
X126492095Y-73306380D01*
X126206380Y-73306380D01*
X126111142Y-73258761D01*
X126063523Y-73211142D01*
X127015904Y-72639714D02*
X127254000Y-73306380D01*
X127492095Y-72639714D01*
X127777809Y-72306380D02*
X128396857Y-72306380D01*
X128063523Y-72687333D01*
X128206380Y-72687333D01*
X128301619Y-72734952D01*
X128349238Y-72782571D01*
X128396857Y-72877809D01*
X128396857Y-73115904D01*
X128349238Y-73211142D01*
X128301619Y-73258761D01*
X128206380Y-73306380D01*
X127920666Y-73306380D01*
X127825428Y-73258761D01*
X127777809Y-73211142D01*
%TO.C,5v*%
X123453542Y-72553580D02*
X122977352Y-72553580D01*
X122929733Y-73029771D01*
X122977352Y-72982152D01*
X123072590Y-72934533D01*
X123310685Y-72934533D01*
X123405923Y-72982152D01*
X123453542Y-73029771D01*
X123501161Y-73125009D01*
X123501161Y-73363104D01*
X123453542Y-73458342D01*
X123405923Y-73505961D01*
X123310685Y-73553580D01*
X123072590Y-73553580D01*
X122977352Y-73505961D01*
X122929733Y-73458342D01*
X123834495Y-72886914D02*
X124072590Y-73553580D01*
X124310685Y-72886914D01*
%TO.C,J1*%
X132635666Y-92784380D02*
X132635666Y-93498666D01*
X132588047Y-93641523D01*
X132492809Y-93736761D01*
X132349952Y-93784380D01*
X132254714Y-93784380D01*
X133635666Y-93784380D02*
X133064238Y-93784380D01*
X133349952Y-93784380D02*
X133349952Y-92784380D01*
X133254714Y-92927238D01*
X133159476Y-93022476D01*
X133064238Y-93070095D01*
%TO.C,U1*%
X127988095Y-44602380D02*
X127988095Y-45411904D01*
X128035714Y-45507142D01*
X128083333Y-45554761D01*
X128178571Y-45602380D01*
X128369047Y-45602380D01*
X128464285Y-45554761D01*
X128511904Y-45507142D01*
X128559523Y-45411904D01*
X128559523Y-44602380D01*
X129559523Y-45602380D02*
X128988095Y-45602380D01*
X129273809Y-45602380D02*
X129273809Y-44602380D01*
X129178571Y-44745238D01*
X129083333Y-44840476D01*
X128988095Y-44888095D01*
X140670473Y-24219966D02*
X141424720Y-24597089D01*
X141047597Y-23842842D01*
X141747969Y-24219966D02*
X141855719Y-24166091D01*
X141990406Y-24031404D01*
X142017343Y-23950592D01*
X142017343Y-23896717D01*
X141990406Y-23815905D01*
X141936531Y-23762030D01*
X141855719Y-23735093D01*
X141801844Y-23735093D01*
X141721032Y-23762030D01*
X141586345Y-23842842D01*
X141505532Y-23869780D01*
X141451658Y-23869780D01*
X141370845Y-23842842D01*
X141316971Y-23788967D01*
X141290033Y-23708155D01*
X141290033Y-23654280D01*
X141316971Y-23573468D01*
X141451658Y-23438781D01*
X141559407Y-23384906D01*
X142178967Y-23304094D02*
X142448341Y-23573468D01*
X141694094Y-23196345D02*
X142178967Y-23304094D01*
X142071218Y-22819221D01*
X142771590Y-23196345D02*
X142879340Y-23142470D01*
X143014027Y-23007783D01*
X143040964Y-22926971D01*
X143040964Y-22873096D01*
X143014027Y-22792284D01*
X142960152Y-22738409D01*
X142879340Y-22711471D01*
X142825465Y-22711471D01*
X142744653Y-22738409D01*
X142609966Y-22819221D01*
X142529154Y-22846158D01*
X142475279Y-22846158D01*
X142394467Y-22819221D01*
X142340592Y-22765346D01*
X142313654Y-22684534D01*
X142313654Y-22630659D01*
X142340592Y-22549847D01*
X142475279Y-22415160D01*
X142583028Y-22361285D01*
X115236158Y-51648155D02*
X115155346Y-51675093D01*
X115074534Y-51755905D01*
X115020659Y-51863654D01*
X115020659Y-51971404D01*
X115047597Y-52052216D01*
X115128409Y-52186903D01*
X115209221Y-52267715D01*
X115343908Y-52348528D01*
X115424720Y-52375465D01*
X115532470Y-52375465D01*
X115640219Y-52321590D01*
X115694094Y-52267715D01*
X115747969Y-52159966D01*
X115747969Y-52106091D01*
X115559407Y-51917529D01*
X115451658Y-52025279D01*
X116044280Y-51917529D02*
X115478595Y-51351844D01*
X116367529Y-51594280D01*
X115801844Y-51028595D01*
X116636903Y-51324906D02*
X116071218Y-50759221D01*
X116205905Y-50624534D01*
X116313654Y-50570659D01*
X116421404Y-50570659D01*
X116502216Y-50597597D01*
X116636903Y-50678409D01*
X116717715Y-50759221D01*
X116798528Y-50893908D01*
X116825465Y-50974720D01*
X116825465Y-51082470D01*
X116771590Y-51190219D01*
X116636903Y-51324906D01*
X140847722Y-62050592D02*
X140766910Y-62077529D01*
X140686097Y-62158341D01*
X140632223Y-62266091D01*
X140632223Y-62373841D01*
X140659160Y-62454653D01*
X140739972Y-62589340D01*
X140820784Y-62670152D01*
X140955471Y-62750964D01*
X141036284Y-62777902D01*
X141144033Y-62777902D01*
X141251783Y-62724027D01*
X141305658Y-62670152D01*
X141359532Y-62562402D01*
X141359532Y-62508528D01*
X141170971Y-62319966D01*
X141063221Y-62427715D01*
X141655844Y-62319966D02*
X141090158Y-61754280D01*
X141305658Y-61538781D01*
X141386470Y-61511844D01*
X141440345Y-61511844D01*
X141521157Y-61538781D01*
X141601969Y-61619593D01*
X141628906Y-61700406D01*
X141628906Y-61754280D01*
X141601969Y-61835093D01*
X141386470Y-62050592D01*
X142517841Y-61457969D02*
X142194592Y-61781218D01*
X142356216Y-61619593D02*
X141790531Y-61053908D01*
X141817468Y-61188595D01*
X141817468Y-61296345D01*
X141790531Y-61377157D01*
X142517841Y-60811471D02*
X142437028Y-60838409D01*
X142383154Y-60838409D01*
X142302341Y-60811471D01*
X142275404Y-60784534D01*
X142248467Y-60703722D01*
X142248467Y-60649847D01*
X142275404Y-60569035D01*
X142383154Y-60461285D01*
X142463966Y-60434348D01*
X142517841Y-60434348D01*
X142598653Y-60461285D01*
X142625590Y-60488223D01*
X142652528Y-60569035D01*
X142652528Y-60622910D01*
X142625590Y-60703722D01*
X142517841Y-60811471D01*
X142490903Y-60892284D01*
X142490903Y-60946158D01*
X142517841Y-61026971D01*
X142625590Y-61134720D01*
X142706402Y-61161658D01*
X142760277Y-61161658D01*
X142841089Y-61134720D01*
X142948839Y-61026971D01*
X142975776Y-60946158D01*
X142975776Y-60892284D01*
X142948839Y-60811471D01*
X142841089Y-60703722D01*
X142760277Y-60676784D01*
X142706402Y-60676784D01*
X142625590Y-60703722D01*
X115263096Y-46541218D02*
X115182284Y-46568155D01*
X115101471Y-46648967D01*
X115047597Y-46756717D01*
X115047597Y-46864467D01*
X115074534Y-46945279D01*
X115155346Y-47079966D01*
X115236158Y-47160778D01*
X115370845Y-47241590D01*
X115451658Y-47268528D01*
X115559407Y-47268528D01*
X115667157Y-47214653D01*
X115721032Y-47160778D01*
X115774906Y-47053028D01*
X115774906Y-46999154D01*
X115586345Y-46810592D01*
X115478595Y-46918341D01*
X116071218Y-46810592D02*
X115505532Y-46244906D01*
X115721032Y-46029407D01*
X115801844Y-46002470D01*
X115855719Y-46002470D01*
X115936531Y-46029407D01*
X116017343Y-46110219D01*
X116044280Y-46191032D01*
X116044280Y-46244906D01*
X116017343Y-46325719D01*
X115801844Y-46541218D01*
X116394467Y-45840845D02*
X116313654Y-45867783D01*
X116259780Y-45867783D01*
X116178967Y-45840845D01*
X116152030Y-45813908D01*
X116125093Y-45733096D01*
X116125093Y-45679221D01*
X116152030Y-45598409D01*
X116259780Y-45490659D01*
X116340592Y-45463722D01*
X116394467Y-45463722D01*
X116475279Y-45490659D01*
X116502216Y-45517597D01*
X116529154Y-45598409D01*
X116529154Y-45652284D01*
X116502216Y-45733096D01*
X116394467Y-45840845D01*
X116367529Y-45921658D01*
X116367529Y-45975532D01*
X116394467Y-46056345D01*
X116502216Y-46164094D01*
X116583028Y-46191032D01*
X116636903Y-46191032D01*
X116717715Y-46164094D01*
X116825465Y-46056345D01*
X116852402Y-45975532D01*
X116852402Y-45921658D01*
X116825465Y-45840845D01*
X116717715Y-45733096D01*
X116636903Y-45706158D01*
X116583028Y-45706158D01*
X116502216Y-45733096D01*
X140847722Y-44270592D02*
X140766910Y-44297529D01*
X140686097Y-44378341D01*
X140632223Y-44486091D01*
X140632223Y-44593841D01*
X140659160Y-44674653D01*
X140739972Y-44809340D01*
X140820784Y-44890152D01*
X140955471Y-44970964D01*
X141036284Y-44997902D01*
X141144033Y-44997902D01*
X141251783Y-44944027D01*
X141305658Y-44890152D01*
X141359532Y-44782402D01*
X141359532Y-44728528D01*
X141170971Y-44539966D01*
X141063221Y-44647715D01*
X141655844Y-44539966D02*
X141090158Y-43974280D01*
X141305658Y-43758781D01*
X141386470Y-43731844D01*
X141440345Y-43731844D01*
X141521157Y-43758781D01*
X141601969Y-43839593D01*
X141628906Y-43920406D01*
X141628906Y-43974280D01*
X141601969Y-44055093D01*
X141386470Y-44270592D01*
X141682781Y-43489407D02*
X141682781Y-43435532D01*
X141709719Y-43354720D01*
X141844406Y-43220033D01*
X141925218Y-43193096D01*
X141979093Y-43193096D01*
X142059905Y-43220033D01*
X142113780Y-43273908D01*
X142167654Y-43381658D01*
X142167654Y-44028155D01*
X142517841Y-43677969D01*
X142437028Y-42627410D02*
X142329279Y-42735160D01*
X142302341Y-42815972D01*
X142302341Y-42869847D01*
X142329279Y-43004534D01*
X142410091Y-43139221D01*
X142625590Y-43354720D01*
X142706402Y-43381658D01*
X142760277Y-43381658D01*
X142841089Y-43354720D01*
X142948839Y-43246971D01*
X142975776Y-43166158D01*
X142975776Y-43112284D01*
X142948839Y-43031471D01*
X142814152Y-42896784D01*
X142733340Y-42869847D01*
X142679465Y-42869847D01*
X142598653Y-42896784D01*
X142490903Y-43004534D01*
X142463966Y-43085346D01*
X142463966Y-43139221D01*
X142490903Y-43220033D01*
X115163096Y-23671218D02*
X115082284Y-23698155D01*
X115001471Y-23778967D01*
X114947597Y-23886717D01*
X114947597Y-23994467D01*
X114974534Y-24075279D01*
X115055346Y-24209966D01*
X115136158Y-24290778D01*
X115270845Y-24371590D01*
X115351658Y-24398528D01*
X115459407Y-24398528D01*
X115567157Y-24344653D01*
X115621032Y-24290778D01*
X115674906Y-24183028D01*
X115674906Y-24129154D01*
X115486345Y-23940592D01*
X115378595Y-24048341D01*
X115971218Y-23940592D02*
X115405532Y-23374906D01*
X115621032Y-23159407D01*
X115701844Y-23132470D01*
X115755719Y-23132470D01*
X115836531Y-23159407D01*
X115917343Y-23240219D01*
X115944280Y-23321032D01*
X115944280Y-23374906D01*
X115917343Y-23455719D01*
X115701844Y-23671218D01*
X116833215Y-23078595D02*
X116509966Y-23401844D01*
X116671590Y-23240219D02*
X116105905Y-22674534D01*
X116132842Y-22809221D01*
X116132842Y-22916971D01*
X116105905Y-22997783D01*
X115263096Y-33841218D02*
X115182284Y-33868155D01*
X115101471Y-33948967D01*
X115047597Y-34056717D01*
X115047597Y-34164467D01*
X115074534Y-34245279D01*
X115155346Y-34379966D01*
X115236158Y-34460778D01*
X115370845Y-34541590D01*
X115451658Y-34568528D01*
X115559407Y-34568528D01*
X115667157Y-34514653D01*
X115721032Y-34460778D01*
X115774906Y-34353028D01*
X115774906Y-34299154D01*
X115586345Y-34110592D01*
X115478595Y-34218341D01*
X116071218Y-34110592D02*
X115505532Y-33544906D01*
X115721032Y-33329407D01*
X115801844Y-33302470D01*
X115855719Y-33302470D01*
X115936531Y-33329407D01*
X116017343Y-33410219D01*
X116044280Y-33491032D01*
X116044280Y-33544906D01*
X116017343Y-33625719D01*
X115801844Y-33841218D01*
X116502216Y-32925346D02*
X116879340Y-33302470D01*
X116152030Y-32844534D02*
X116421404Y-33383282D01*
X116771590Y-33033096D01*
X140847722Y-49350592D02*
X140766910Y-49377529D01*
X140686097Y-49458341D01*
X140632223Y-49566091D01*
X140632223Y-49673841D01*
X140659160Y-49754653D01*
X140739972Y-49889340D01*
X140820784Y-49970152D01*
X140955471Y-50050964D01*
X141036284Y-50077902D01*
X141144033Y-50077902D01*
X141251783Y-50024027D01*
X141305658Y-49970152D01*
X141359532Y-49862402D01*
X141359532Y-49808528D01*
X141170971Y-49619966D01*
X141063221Y-49727715D01*
X141655844Y-49619966D02*
X141090158Y-49054280D01*
X141305658Y-48838781D01*
X141386470Y-48811844D01*
X141440345Y-48811844D01*
X141521157Y-48838781D01*
X141601969Y-48919593D01*
X141628906Y-49000406D01*
X141628906Y-49054280D01*
X141601969Y-49135093D01*
X141386470Y-49350592D01*
X141682781Y-48569407D02*
X141682781Y-48515532D01*
X141709719Y-48434720D01*
X141844406Y-48300033D01*
X141925218Y-48273096D01*
X141979093Y-48273096D01*
X142059905Y-48300033D01*
X142113780Y-48353908D01*
X142167654Y-48461658D01*
X142167654Y-49108155D01*
X142517841Y-48757969D01*
X142221529Y-48030659D02*
X142221529Y-47976784D01*
X142248467Y-47895972D01*
X142383154Y-47761285D01*
X142463966Y-47734348D01*
X142517841Y-47734348D01*
X142598653Y-47761285D01*
X142652528Y-47815160D01*
X142706402Y-47922910D01*
X142706402Y-48569407D01*
X143056589Y-48219221D01*
X114593722Y-56970592D02*
X114512910Y-56997529D01*
X114432097Y-57078341D01*
X114378223Y-57186091D01*
X114378223Y-57293841D01*
X114405160Y-57374653D01*
X114485972Y-57509340D01*
X114566784Y-57590152D01*
X114701471Y-57670964D01*
X114782284Y-57697902D01*
X114890033Y-57697902D01*
X114997783Y-57644027D01*
X115051658Y-57590152D01*
X115105532Y-57482402D01*
X115105532Y-57428528D01*
X114916971Y-57239966D01*
X114809221Y-57347715D01*
X115401844Y-57239966D02*
X114836158Y-56674280D01*
X115051658Y-56458781D01*
X115132470Y-56431844D01*
X115186345Y-56431844D01*
X115267157Y-56458781D01*
X115347969Y-56539593D01*
X115374906Y-56620406D01*
X115374906Y-56674280D01*
X115347969Y-56755093D01*
X115132470Y-56970592D01*
X116263841Y-56377969D02*
X115940592Y-56701218D01*
X116102216Y-56539593D02*
X115536531Y-55973908D01*
X115563468Y-56108595D01*
X115563468Y-56216345D01*
X115536531Y-56297157D01*
X116802589Y-55839221D02*
X116479340Y-56162470D01*
X116640964Y-56000845D02*
X116075279Y-55435160D01*
X116102216Y-55569847D01*
X116102216Y-55677597D01*
X116075279Y-55758409D01*
X121240476Y-71673809D02*
X121354761Y-71711904D01*
X121545238Y-71711904D01*
X121621428Y-71673809D01*
X121659523Y-71635714D01*
X121697619Y-71559523D01*
X121697619Y-71483333D01*
X121659523Y-71407142D01*
X121621428Y-71369047D01*
X121545238Y-71330952D01*
X121392857Y-71292857D01*
X121316666Y-71254761D01*
X121278571Y-71216666D01*
X121240476Y-71140476D01*
X121240476Y-71064285D01*
X121278571Y-70988095D01*
X121316666Y-70950000D01*
X121392857Y-70911904D01*
X121583333Y-70911904D01*
X121697619Y-70950000D01*
X121964285Y-70911904D02*
X122154761Y-71711904D01*
X122307142Y-71140476D01*
X122459523Y-71711904D01*
X122650000Y-70911904D01*
X123411904Y-71635714D02*
X123373809Y-71673809D01*
X123259523Y-71711904D01*
X123183333Y-71711904D01*
X123069047Y-71673809D01*
X122992857Y-71597619D01*
X122954761Y-71521428D01*
X122916666Y-71369047D01*
X122916666Y-71254761D01*
X122954761Y-71102380D01*
X122992857Y-71026190D01*
X123069047Y-70950000D01*
X123183333Y-70911904D01*
X123259523Y-70911904D01*
X123373809Y-70950000D01*
X123411904Y-70988095D01*
X124135714Y-71711904D02*
X123754761Y-71711904D01*
X123754761Y-70911904D01*
X124402380Y-71711904D02*
X124402380Y-70911904D01*
X124859523Y-71711904D02*
X124516666Y-71254761D01*
X124859523Y-70911904D02*
X124402380Y-71369047D01*
X140639847Y-31640592D02*
X140990033Y-31290406D01*
X141016971Y-31694467D01*
X141097783Y-31613654D01*
X141178595Y-31586717D01*
X141232470Y-31586717D01*
X141313282Y-31613654D01*
X141447969Y-31748341D01*
X141474906Y-31829154D01*
X141474906Y-31883028D01*
X141447969Y-31963841D01*
X141286345Y-32125465D01*
X141205532Y-32152402D01*
X141151658Y-32152402D01*
X141151658Y-31128781D02*
X141905905Y-31505905D01*
X141528781Y-30751658D01*
X141663468Y-30616971D02*
X142013654Y-30266784D01*
X142040592Y-30670845D01*
X142121404Y-30590033D01*
X142202216Y-30563096D01*
X142256091Y-30563096D01*
X142336903Y-30590033D01*
X142471590Y-30724720D01*
X142498528Y-30805532D01*
X142498528Y-30859407D01*
X142471590Y-30940219D01*
X142309966Y-31101844D01*
X142229154Y-31128781D01*
X142175279Y-31128781D01*
X140847722Y-36396592D02*
X140766910Y-36423529D01*
X140686097Y-36504341D01*
X140632223Y-36612091D01*
X140632223Y-36719841D01*
X140659160Y-36800653D01*
X140739972Y-36935340D01*
X140820784Y-37016152D01*
X140955471Y-37096964D01*
X141036284Y-37123902D01*
X141144033Y-37123902D01*
X141251783Y-37070027D01*
X141305658Y-37016152D01*
X141359532Y-36908402D01*
X141359532Y-36854528D01*
X141170971Y-36665966D01*
X141063221Y-36773715D01*
X141655844Y-36665966D02*
X141090158Y-36100280D01*
X141305658Y-35884781D01*
X141386470Y-35857844D01*
X141440345Y-35857844D01*
X141521157Y-35884781D01*
X141601969Y-35965593D01*
X141628906Y-36046406D01*
X141628906Y-36100280D01*
X141601969Y-36181093D01*
X141386470Y-36396592D01*
X141682781Y-35615407D02*
X141682781Y-35561532D01*
X141709719Y-35480720D01*
X141844406Y-35346033D01*
X141925218Y-35319096D01*
X141979093Y-35319096D01*
X142059905Y-35346033D01*
X142113780Y-35399908D01*
X142167654Y-35507658D01*
X142167654Y-36154155D01*
X142517841Y-35803969D01*
X142517841Y-35157471D02*
X142437028Y-35184409D01*
X142383154Y-35184409D01*
X142302341Y-35157471D01*
X142275404Y-35130534D01*
X142248467Y-35049722D01*
X142248467Y-34995847D01*
X142275404Y-34915035D01*
X142383154Y-34807285D01*
X142463966Y-34780348D01*
X142517841Y-34780348D01*
X142598653Y-34807285D01*
X142625590Y-34834223D01*
X142652528Y-34915035D01*
X142652528Y-34968910D01*
X142625590Y-35049722D01*
X142517841Y-35157471D01*
X142490903Y-35238284D01*
X142490903Y-35292158D01*
X142517841Y-35372971D01*
X142625590Y-35480720D01*
X142706402Y-35507658D01*
X142760277Y-35507658D01*
X142841089Y-35480720D01*
X142948839Y-35372971D01*
X142975776Y-35292158D01*
X142975776Y-35238284D01*
X142948839Y-35157471D01*
X142841089Y-35049722D01*
X142760277Y-35022784D01*
X142706402Y-35022784D01*
X142625590Y-35049722D01*
X140847722Y-69670592D02*
X140766910Y-69697529D01*
X140686097Y-69778341D01*
X140632223Y-69886091D01*
X140632223Y-69993841D01*
X140659160Y-70074653D01*
X140739972Y-70209340D01*
X140820784Y-70290152D01*
X140955471Y-70370964D01*
X141036284Y-70397902D01*
X141144033Y-70397902D01*
X141251783Y-70344027D01*
X141305658Y-70290152D01*
X141359532Y-70182402D01*
X141359532Y-70128528D01*
X141170971Y-69939966D01*
X141063221Y-70047715D01*
X141655844Y-69939966D02*
X141090158Y-69374280D01*
X141305658Y-69158781D01*
X141386470Y-69131844D01*
X141440345Y-69131844D01*
X141521157Y-69158781D01*
X141601969Y-69239593D01*
X141628906Y-69320406D01*
X141628906Y-69374280D01*
X141601969Y-69455093D01*
X141386470Y-69670592D01*
X142517841Y-69077969D02*
X142194592Y-69401218D01*
X142356216Y-69239593D02*
X141790531Y-68673908D01*
X141817468Y-68808595D01*
X141817468Y-68916345D01*
X141790531Y-68997157D01*
X142437028Y-68027410D02*
X142329279Y-68135160D01*
X142302341Y-68215972D01*
X142302341Y-68269847D01*
X142329279Y-68404534D01*
X142410091Y-68539221D01*
X142625590Y-68754720D01*
X142706402Y-68781658D01*
X142760277Y-68781658D01*
X142841089Y-68754720D01*
X142948839Y-68646971D01*
X142975776Y-68566158D01*
X142975776Y-68512284D01*
X142948839Y-68431471D01*
X142814152Y-68296784D01*
X142733340Y-68269847D01*
X142679465Y-68269847D01*
X142598653Y-68296784D01*
X142490903Y-68404534D01*
X142463966Y-68485346D01*
X142463966Y-68539221D01*
X142490903Y-68620033D01*
X140836158Y-51648155D02*
X140755346Y-51675093D01*
X140674534Y-51755905D01*
X140620659Y-51863654D01*
X140620659Y-51971404D01*
X140647597Y-52052216D01*
X140728409Y-52186903D01*
X140809221Y-52267715D01*
X140943908Y-52348528D01*
X141024720Y-52375465D01*
X141132470Y-52375465D01*
X141240219Y-52321590D01*
X141294094Y-52267715D01*
X141347969Y-52159966D01*
X141347969Y-52106091D01*
X141159407Y-51917529D01*
X141051658Y-52025279D01*
X141644280Y-51917529D02*
X141078595Y-51351844D01*
X141967529Y-51594280D01*
X141401844Y-51028595D01*
X142236903Y-51324906D02*
X141671218Y-50759221D01*
X141805905Y-50624534D01*
X141913654Y-50570659D01*
X142021404Y-50570659D01*
X142102216Y-50597597D01*
X142236903Y-50678409D01*
X142317715Y-50759221D01*
X142398528Y-50893908D01*
X142425465Y-50974720D01*
X142425465Y-51082470D01*
X142371590Y-51190219D01*
X142236903Y-51324906D01*
X115263096Y-21141218D02*
X115182284Y-21168155D01*
X115101471Y-21248967D01*
X115047597Y-21356717D01*
X115047597Y-21464467D01*
X115074534Y-21545279D01*
X115155346Y-21679966D01*
X115236158Y-21760778D01*
X115370845Y-21841590D01*
X115451658Y-21868528D01*
X115559407Y-21868528D01*
X115667157Y-21814653D01*
X115721032Y-21760778D01*
X115774906Y-21653028D01*
X115774906Y-21599154D01*
X115586345Y-21410592D01*
X115478595Y-21518341D01*
X116071218Y-21410592D02*
X115505532Y-20844906D01*
X115721032Y-20629407D01*
X115801844Y-20602470D01*
X115855719Y-20602470D01*
X115936531Y-20629407D01*
X116017343Y-20710219D01*
X116044280Y-20791032D01*
X116044280Y-20844906D01*
X116017343Y-20925719D01*
X115801844Y-21141218D01*
X116178967Y-20171471D02*
X116232842Y-20117597D01*
X116313654Y-20090659D01*
X116367529Y-20090659D01*
X116448341Y-20117597D01*
X116583028Y-20198409D01*
X116717715Y-20333096D01*
X116798528Y-20467783D01*
X116825465Y-20548595D01*
X116825465Y-20602470D01*
X116798528Y-20683282D01*
X116744653Y-20737157D01*
X116663841Y-20764094D01*
X116609966Y-20764094D01*
X116529154Y-20737157D01*
X116394467Y-20656345D01*
X116259780Y-20521658D01*
X116178967Y-20386971D01*
X116152030Y-20306158D01*
X116152030Y-20252284D01*
X116178967Y-20171471D01*
X140904788Y-34683773D02*
X141174162Y-34414399D01*
X141012537Y-34899272D02*
X140635414Y-34145025D01*
X141389661Y-34522149D01*
X141578223Y-34333587D02*
X141012537Y-33767902D01*
X141147224Y-33633215D01*
X141254974Y-33579340D01*
X141362723Y-33579340D01*
X141443536Y-33606277D01*
X141578223Y-33687089D01*
X141659035Y-33767902D01*
X141739847Y-33902589D01*
X141766784Y-33983401D01*
X141766784Y-34091150D01*
X141712910Y-34198900D01*
X141578223Y-34333587D01*
X142413282Y-33390778D02*
X142413282Y-33444653D01*
X142359407Y-33552402D01*
X142305532Y-33606277D01*
X142197783Y-33660152D01*
X142090033Y-33660152D01*
X142009221Y-33633215D01*
X141874534Y-33552402D01*
X141793722Y-33471590D01*
X141712910Y-33336903D01*
X141685972Y-33256091D01*
X141685972Y-33148341D01*
X141739847Y-33040592D01*
X141793722Y-32986717D01*
X141901471Y-32932842D01*
X141955346Y-32932842D01*
X142628781Y-33390778D02*
X143059780Y-32959780D01*
X142494094Y-32286345D02*
X143248341Y-32663468D01*
X142871218Y-31909221D01*
X143948714Y-31963096D02*
X143490778Y-31882284D01*
X143625465Y-32286345D02*
X143059780Y-31720659D01*
X143275279Y-31505160D01*
X143356091Y-31478223D01*
X143409966Y-31478223D01*
X143490778Y-31505160D01*
X143571590Y-31585972D01*
X143598528Y-31666784D01*
X143598528Y-31720659D01*
X143571590Y-31801471D01*
X143356091Y-32016971D01*
X143894839Y-31424348D02*
X144083401Y-31235786D01*
X144460524Y-31451285D02*
X144191150Y-31720659D01*
X143625465Y-31154974D01*
X143894839Y-30885600D01*
X144595211Y-30723975D02*
X144406650Y-30912537D01*
X144702961Y-31208849D02*
X144137276Y-30643163D01*
X144406650Y-30373789D01*
X140847722Y-41740592D02*
X140766910Y-41767529D01*
X140686097Y-41848341D01*
X140632223Y-41956091D01*
X140632223Y-42063841D01*
X140659160Y-42144653D01*
X140739972Y-42279340D01*
X140820784Y-42360152D01*
X140955471Y-42440964D01*
X141036284Y-42467902D01*
X141144033Y-42467902D01*
X141251783Y-42414027D01*
X141305658Y-42360152D01*
X141359532Y-42252402D01*
X141359532Y-42198528D01*
X141170971Y-42009966D01*
X141063221Y-42117715D01*
X141655844Y-42009966D02*
X141090158Y-41444280D01*
X141305658Y-41228781D01*
X141386470Y-41201844D01*
X141440345Y-41201844D01*
X141521157Y-41228781D01*
X141601969Y-41309593D01*
X141628906Y-41390406D01*
X141628906Y-41444280D01*
X141601969Y-41525093D01*
X141386470Y-41740592D01*
X141682781Y-40959407D02*
X141682781Y-40905532D01*
X141709719Y-40824720D01*
X141844406Y-40690033D01*
X141925218Y-40663096D01*
X141979093Y-40663096D01*
X142059905Y-40690033D01*
X142113780Y-40743908D01*
X142167654Y-40851658D01*
X142167654Y-41498155D01*
X142517841Y-41147969D01*
X142140717Y-40393722D02*
X142517841Y-40016598D01*
X142841089Y-40824720D01*
X114693722Y-67130592D02*
X114612910Y-67157529D01*
X114532097Y-67238341D01*
X114478223Y-67346091D01*
X114478223Y-67453841D01*
X114505160Y-67534653D01*
X114585972Y-67669340D01*
X114666784Y-67750152D01*
X114801471Y-67830964D01*
X114882284Y-67857902D01*
X114990033Y-67857902D01*
X115097783Y-67804027D01*
X115151658Y-67750152D01*
X115205532Y-67642402D01*
X115205532Y-67588528D01*
X115016971Y-67399966D01*
X114909221Y-67507715D01*
X115501844Y-67399966D02*
X114936158Y-66834280D01*
X115151658Y-66618781D01*
X115232470Y-66591844D01*
X115286345Y-66591844D01*
X115367157Y-66618781D01*
X115447969Y-66699593D01*
X115474906Y-66780406D01*
X115474906Y-66834280D01*
X115447969Y-66915093D01*
X115232470Y-67130592D01*
X116363841Y-66537969D02*
X116040592Y-66861218D01*
X116202216Y-66699593D02*
X115636531Y-66133908D01*
X115663468Y-66268595D01*
X115663468Y-66376345D01*
X115636531Y-66457157D01*
X116471590Y-65675972D02*
X116848714Y-66053096D01*
X116121404Y-65595160D02*
X116390778Y-66133908D01*
X116740964Y-65783722D01*
X114739722Y-62050592D02*
X114658910Y-62077529D01*
X114578097Y-62158341D01*
X114524223Y-62266091D01*
X114524223Y-62373841D01*
X114551160Y-62454653D01*
X114631972Y-62589340D01*
X114712784Y-62670152D01*
X114847471Y-62750964D01*
X114928284Y-62777902D01*
X115036033Y-62777902D01*
X115143783Y-62724027D01*
X115197658Y-62670152D01*
X115251532Y-62562402D01*
X115251532Y-62508528D01*
X115062971Y-62319966D01*
X114955221Y-62427715D01*
X115547844Y-62319966D02*
X114982158Y-61754280D01*
X115197658Y-61538781D01*
X115278470Y-61511844D01*
X115332345Y-61511844D01*
X115413157Y-61538781D01*
X115493969Y-61619593D01*
X115520906Y-61700406D01*
X115520906Y-61754280D01*
X115493969Y-61835093D01*
X115278470Y-62050592D01*
X116409841Y-61457969D02*
X116086592Y-61781218D01*
X116248216Y-61619593D02*
X115682531Y-61053908D01*
X115709468Y-61188595D01*
X115709468Y-61296345D01*
X115682531Y-61377157D01*
X116032717Y-60703722D02*
X116382903Y-60353536D01*
X116409841Y-60757597D01*
X116490653Y-60676784D01*
X116571465Y-60649847D01*
X116625340Y-60649847D01*
X116706152Y-60676784D01*
X116840839Y-60811471D01*
X116867776Y-60892284D01*
X116867776Y-60946158D01*
X116840839Y-61026971D01*
X116679215Y-61188595D01*
X116598402Y-61215532D01*
X116544528Y-61215532D01*
X115236158Y-26248155D02*
X115155346Y-26275093D01*
X115074534Y-26355905D01*
X115020659Y-26463654D01*
X115020659Y-26571404D01*
X115047597Y-26652216D01*
X115128409Y-26786903D01*
X115209221Y-26867715D01*
X115343908Y-26948528D01*
X115424720Y-26975465D01*
X115532470Y-26975465D01*
X115640219Y-26921590D01*
X115694094Y-26867715D01*
X115747969Y-26759966D01*
X115747969Y-26706091D01*
X115559407Y-26517529D01*
X115451658Y-26625279D01*
X116044280Y-26517529D02*
X115478595Y-25951844D01*
X116367529Y-26194280D01*
X115801844Y-25628595D01*
X116636903Y-25924906D02*
X116071218Y-25359221D01*
X116205905Y-25224534D01*
X116313654Y-25170659D01*
X116421404Y-25170659D01*
X116502216Y-25197597D01*
X116636903Y-25278409D01*
X116717715Y-25359221D01*
X116798528Y-25493908D01*
X116825465Y-25574720D01*
X116825465Y-25682470D01*
X116771590Y-25790219D01*
X116636903Y-25924906D01*
X132654761Y-71673809D02*
X132769047Y-71711904D01*
X132959523Y-71711904D01*
X133035714Y-71673809D01*
X133073809Y-71635714D01*
X133111904Y-71559523D01*
X133111904Y-71483333D01*
X133073809Y-71407142D01*
X133035714Y-71369047D01*
X132959523Y-71330952D01*
X132807142Y-71292857D01*
X132730952Y-71254761D01*
X132692857Y-71216666D01*
X132654761Y-71140476D01*
X132654761Y-71064285D01*
X132692857Y-70988095D01*
X132730952Y-70950000D01*
X132807142Y-70911904D01*
X132997619Y-70911904D01*
X133111904Y-70950000D01*
X133378571Y-70911904D02*
X133569047Y-71711904D01*
X133721428Y-71140476D01*
X133873809Y-71711904D01*
X134064285Y-70911904D01*
X134369047Y-71711904D02*
X134369047Y-70911904D01*
X134559523Y-70911904D01*
X134673809Y-70950000D01*
X134750000Y-71026190D01*
X134788095Y-71102380D01*
X134826190Y-71254761D01*
X134826190Y-71369047D01*
X134788095Y-71521428D01*
X134750000Y-71597619D01*
X134673809Y-71673809D01*
X134559523Y-71711904D01*
X134369047Y-71711904D01*
X135169047Y-71711904D02*
X135169047Y-70911904D01*
X135702380Y-70911904D02*
X135854761Y-70911904D01*
X135930952Y-70950000D01*
X136007142Y-71026190D01*
X136045238Y-71178571D01*
X136045238Y-71445238D01*
X136007142Y-71597619D01*
X135930952Y-71673809D01*
X135854761Y-71711904D01*
X135702380Y-71711904D01*
X135626190Y-71673809D01*
X135550000Y-71597619D01*
X135511904Y-71445238D01*
X135511904Y-71178571D01*
X135550000Y-71026190D01*
X135626190Y-70950000D01*
X135702380Y-70911904D01*
X140847722Y-56970592D02*
X140766910Y-56997529D01*
X140686097Y-57078341D01*
X140632223Y-57186091D01*
X140632223Y-57293841D01*
X140659160Y-57374653D01*
X140739972Y-57509340D01*
X140820784Y-57590152D01*
X140955471Y-57670964D01*
X141036284Y-57697902D01*
X141144033Y-57697902D01*
X141251783Y-57644027D01*
X141305658Y-57590152D01*
X141359532Y-57482402D01*
X141359532Y-57428528D01*
X141170971Y-57239966D01*
X141063221Y-57347715D01*
X141655844Y-57239966D02*
X141090158Y-56674280D01*
X141305658Y-56458781D01*
X141386470Y-56431844D01*
X141440345Y-56431844D01*
X141521157Y-56458781D01*
X141601969Y-56539593D01*
X141628906Y-56620406D01*
X141628906Y-56674280D01*
X141601969Y-56755093D01*
X141386470Y-56970592D01*
X141682781Y-56189407D02*
X141682781Y-56135532D01*
X141709719Y-56054720D01*
X141844406Y-55920033D01*
X141925218Y-55893096D01*
X141979093Y-55893096D01*
X142059905Y-55920033D01*
X142113780Y-55973908D01*
X142167654Y-56081658D01*
X142167654Y-56728155D01*
X142517841Y-56377969D01*
X142302341Y-55462097D02*
X142356216Y-55408223D01*
X142437028Y-55381285D01*
X142490903Y-55381285D01*
X142571715Y-55408223D01*
X142706402Y-55489035D01*
X142841089Y-55623722D01*
X142921902Y-55758409D01*
X142948839Y-55839221D01*
X142948839Y-55893096D01*
X142921902Y-55973908D01*
X142868027Y-56027783D01*
X142787215Y-56054720D01*
X142733340Y-56054720D01*
X142652528Y-56027783D01*
X142517841Y-55946971D01*
X142383154Y-55812284D01*
X142302341Y-55677597D01*
X142275404Y-55596784D01*
X142275404Y-55542910D01*
X142302341Y-55462097D01*
X141588375Y-47093435D02*
X141130439Y-47012622D01*
X141265126Y-47416683D02*
X140699441Y-46850998D01*
X140914940Y-46635499D01*
X140995752Y-46608561D01*
X141049627Y-46608561D01*
X141130439Y-46635499D01*
X141211251Y-46716311D01*
X141238189Y-46797123D01*
X141238189Y-46850998D01*
X141211251Y-46931810D01*
X140995752Y-47147309D01*
X141265126Y-46285312D02*
X141723062Y-46743248D01*
X141803874Y-46770186D01*
X141857749Y-46770186D01*
X141938561Y-46743248D01*
X142046311Y-46635499D01*
X142073248Y-46554687D01*
X142073248Y-46500812D01*
X142046311Y-46419999D01*
X141588375Y-45962064D01*
X142423435Y-46258375D02*
X141857749Y-45692690D01*
X142746683Y-45935126D01*
X142180998Y-45369441D01*
X114739722Y-69670592D02*
X114658910Y-69697529D01*
X114578097Y-69778341D01*
X114524223Y-69886091D01*
X114524223Y-69993841D01*
X114551160Y-70074653D01*
X114631972Y-70209340D01*
X114712784Y-70290152D01*
X114847471Y-70370964D01*
X114928284Y-70397902D01*
X115036033Y-70397902D01*
X115143783Y-70344027D01*
X115197658Y-70290152D01*
X115251532Y-70182402D01*
X115251532Y-70128528D01*
X115062971Y-69939966D01*
X114955221Y-70047715D01*
X115547844Y-69939966D02*
X114982158Y-69374280D01*
X115197658Y-69158781D01*
X115278470Y-69131844D01*
X115332345Y-69131844D01*
X115413157Y-69158781D01*
X115493969Y-69239593D01*
X115520906Y-69320406D01*
X115520906Y-69374280D01*
X115493969Y-69455093D01*
X115278470Y-69670592D01*
X116409841Y-69077969D02*
X116086592Y-69401218D01*
X116248216Y-69239593D02*
X115682531Y-68673908D01*
X115709468Y-68808595D01*
X115709468Y-68916345D01*
X115682531Y-68997157D01*
X116355966Y-68000473D02*
X116086592Y-68269847D01*
X116329028Y-68566158D01*
X116329028Y-68512284D01*
X116355966Y-68431471D01*
X116490653Y-68296784D01*
X116571465Y-68269847D01*
X116625340Y-68269847D01*
X116706152Y-68296784D01*
X116840839Y-68431471D01*
X116867776Y-68512284D01*
X116867776Y-68566158D01*
X116840839Y-68646971D01*
X116706152Y-68781658D01*
X116625340Y-68808595D01*
X116571465Y-68808595D01*
X140672131Y-29108308D02*
X141022317Y-28758122D01*
X141049255Y-29162183D01*
X141130067Y-29081370D01*
X141210879Y-29054433D01*
X141264754Y-29054433D01*
X141345566Y-29081370D01*
X141480253Y-29216057D01*
X141507190Y-29296870D01*
X141507190Y-29350744D01*
X141480253Y-29431557D01*
X141318629Y-29593181D01*
X141237816Y-29620118D01*
X141183942Y-29620118D01*
X141183942Y-28596497D02*
X141938189Y-28973621D01*
X141561065Y-28219374D01*
X141695752Y-28084687D02*
X142045938Y-27734500D01*
X142072876Y-28138561D01*
X142153688Y-28057749D01*
X142234500Y-28030812D01*
X142288375Y-28030812D01*
X142369187Y-28057749D01*
X142503874Y-28192436D01*
X142530812Y-28273248D01*
X142530812Y-28327123D01*
X142503874Y-28407935D01*
X142342250Y-28569560D01*
X142261438Y-28596497D01*
X142207563Y-28596497D01*
X142773248Y-28246311D02*
X143204247Y-27815312D01*
X142988748Y-27330439D02*
X143177309Y-27141877D01*
X143554433Y-27357377D02*
X143285059Y-27626751D01*
X142719374Y-27061065D01*
X142988748Y-26791691D01*
X143796870Y-27114940D02*
X143231184Y-26549255D01*
X144120118Y-26791691D01*
X143554433Y-26226006D01*
X140836158Y-64348155D02*
X140755346Y-64375093D01*
X140674534Y-64455905D01*
X140620659Y-64563654D01*
X140620659Y-64671404D01*
X140647597Y-64752216D01*
X140728409Y-64886903D01*
X140809221Y-64967715D01*
X140943908Y-65048528D01*
X141024720Y-65075465D01*
X141132470Y-65075465D01*
X141240219Y-65021590D01*
X141294094Y-64967715D01*
X141347969Y-64859966D01*
X141347969Y-64806091D01*
X141159407Y-64617529D01*
X141051658Y-64725279D01*
X141644280Y-64617529D02*
X141078595Y-64051844D01*
X141967529Y-64294280D01*
X141401844Y-63728595D01*
X142236903Y-64024906D02*
X141671218Y-63459221D01*
X141805905Y-63324534D01*
X141913654Y-63270659D01*
X142021404Y-63270659D01*
X142102216Y-63297597D01*
X142236903Y-63378409D01*
X142317715Y-63459221D01*
X142398528Y-63593908D01*
X142425465Y-63674720D01*
X142425465Y-63782470D01*
X142371590Y-63890219D01*
X142236903Y-64024906D01*
X140847722Y-54440592D02*
X140766910Y-54467529D01*
X140686097Y-54548341D01*
X140632223Y-54656091D01*
X140632223Y-54763841D01*
X140659160Y-54844653D01*
X140739972Y-54979340D01*
X140820784Y-55060152D01*
X140955471Y-55140964D01*
X141036284Y-55167902D01*
X141144033Y-55167902D01*
X141251783Y-55114027D01*
X141305658Y-55060152D01*
X141359532Y-54952402D01*
X141359532Y-54898528D01*
X141170971Y-54709966D01*
X141063221Y-54817715D01*
X141655844Y-54709966D02*
X141090158Y-54144280D01*
X141305658Y-53928781D01*
X141386470Y-53901844D01*
X141440345Y-53901844D01*
X141521157Y-53928781D01*
X141601969Y-54009593D01*
X141628906Y-54090406D01*
X141628906Y-54144280D01*
X141601969Y-54225093D01*
X141386470Y-54440592D01*
X141682781Y-53659407D02*
X141682781Y-53605532D01*
X141709719Y-53524720D01*
X141844406Y-53390033D01*
X141925218Y-53363096D01*
X141979093Y-53363096D01*
X142059905Y-53390033D01*
X142113780Y-53443908D01*
X142167654Y-53551658D01*
X142167654Y-54198155D01*
X142517841Y-53847969D01*
X143056589Y-53309221D02*
X142733340Y-53632470D01*
X142894964Y-53470845D02*
X142329279Y-52905160D01*
X142356216Y-53039847D01*
X142356216Y-53147597D01*
X142329279Y-53228409D01*
X115263096Y-31301218D02*
X115182284Y-31328155D01*
X115101471Y-31408967D01*
X115047597Y-31516717D01*
X115047597Y-31624467D01*
X115074534Y-31705279D01*
X115155346Y-31839966D01*
X115236158Y-31920778D01*
X115370845Y-32001590D01*
X115451658Y-32028528D01*
X115559407Y-32028528D01*
X115667157Y-31974653D01*
X115721032Y-31920778D01*
X115774906Y-31813028D01*
X115774906Y-31759154D01*
X115586345Y-31570592D01*
X115478595Y-31678341D01*
X116071218Y-31570592D02*
X115505532Y-31004906D01*
X115721032Y-30789407D01*
X115801844Y-30762470D01*
X115855719Y-30762470D01*
X115936531Y-30789407D01*
X116017343Y-30870219D01*
X116044280Y-30951032D01*
X116044280Y-31004906D01*
X116017343Y-31085719D01*
X115801844Y-31301218D01*
X116017343Y-30493096D02*
X116367529Y-30142910D01*
X116394467Y-30546971D01*
X116475279Y-30466158D01*
X116556091Y-30439221D01*
X116609966Y-30439221D01*
X116690778Y-30466158D01*
X116825465Y-30600845D01*
X116852402Y-30681658D01*
X116852402Y-30735532D01*
X116825465Y-30816345D01*
X116663841Y-30977969D01*
X116583028Y-31004906D01*
X116529154Y-31004906D01*
X140703129Y-21677309D02*
X141457377Y-22054433D01*
X141080253Y-21300186D01*
X141726751Y-21192436D02*
X141834500Y-21138561D01*
X141888375Y-21138561D01*
X141969187Y-21165499D01*
X142050000Y-21246311D01*
X142076937Y-21327123D01*
X142076937Y-21380998D01*
X142050000Y-21461810D01*
X141834500Y-21677309D01*
X141268815Y-21111624D01*
X141457377Y-20923062D01*
X141538189Y-20896125D01*
X141592064Y-20896125D01*
X141672876Y-20923062D01*
X141726751Y-20976937D01*
X141753688Y-21057749D01*
X141753688Y-21111624D01*
X141726751Y-21192436D01*
X141538189Y-21380998D01*
X141834500Y-20545938D02*
X142292436Y-21003874D01*
X142373248Y-21030812D01*
X142427123Y-21030812D01*
X142507935Y-21003874D01*
X142615685Y-20896125D01*
X142642622Y-20815312D01*
X142642622Y-20761438D01*
X142615685Y-20680625D01*
X142157749Y-20222690D01*
X142938934Y-20519001D02*
X143046683Y-20465126D01*
X143181370Y-20330439D01*
X143208308Y-20249627D01*
X143208308Y-20195752D01*
X143181370Y-20114940D01*
X143127496Y-20061065D01*
X143046683Y-20034128D01*
X142992809Y-20034128D01*
X142911996Y-20061065D01*
X142777309Y-20141877D01*
X142696497Y-20168815D01*
X142642622Y-20168815D01*
X142561810Y-20141877D01*
X142507935Y-20088003D01*
X142480998Y-20007190D01*
X142480998Y-19953316D01*
X142507935Y-19872503D01*
X142642622Y-19737816D01*
X142750372Y-19683942D01*
X115263096Y-36381218D02*
X115182284Y-36408155D01*
X115101471Y-36488967D01*
X115047597Y-36596717D01*
X115047597Y-36704467D01*
X115074534Y-36785279D01*
X115155346Y-36919966D01*
X115236158Y-37000778D01*
X115370845Y-37081590D01*
X115451658Y-37108528D01*
X115559407Y-37108528D01*
X115667157Y-37054653D01*
X115721032Y-37000778D01*
X115774906Y-36893028D01*
X115774906Y-36839154D01*
X115586345Y-36650592D01*
X115478595Y-36758341D01*
X116071218Y-36650592D02*
X115505532Y-36084906D01*
X115721032Y-35869407D01*
X115801844Y-35842470D01*
X115855719Y-35842470D01*
X115936531Y-35869407D01*
X116017343Y-35950219D01*
X116044280Y-36031032D01*
X116044280Y-36084906D01*
X116017343Y-36165719D01*
X115801844Y-36381218D01*
X116340592Y-35249847D02*
X116071218Y-35519221D01*
X116313654Y-35815532D01*
X116313654Y-35761658D01*
X116340592Y-35680845D01*
X116475279Y-35546158D01*
X116556091Y-35519221D01*
X116609966Y-35519221D01*
X116690778Y-35546158D01*
X116825465Y-35680845D01*
X116852402Y-35761658D01*
X116852402Y-35815532D01*
X116825465Y-35896345D01*
X116690778Y-36031032D01*
X116609966Y-36057969D01*
X116556091Y-36057969D01*
X115236158Y-38948155D02*
X115155346Y-38975093D01*
X115074534Y-39055905D01*
X115020659Y-39163654D01*
X115020659Y-39271404D01*
X115047597Y-39352216D01*
X115128409Y-39486903D01*
X115209221Y-39567715D01*
X115343908Y-39648528D01*
X115424720Y-39675465D01*
X115532470Y-39675465D01*
X115640219Y-39621590D01*
X115694094Y-39567715D01*
X115747969Y-39459966D01*
X115747969Y-39406091D01*
X115559407Y-39217529D01*
X115451658Y-39325279D01*
X116044280Y-39217529D02*
X115478595Y-38651844D01*
X116367529Y-38894280D01*
X115801844Y-38328595D01*
X116636903Y-38624906D02*
X116071218Y-38059221D01*
X116205905Y-37924534D01*
X116313654Y-37870659D01*
X116421404Y-37870659D01*
X116502216Y-37897597D01*
X116636903Y-37978409D01*
X116717715Y-38059221D01*
X116798528Y-38193908D01*
X116825465Y-38274720D01*
X116825465Y-38382470D01*
X116771590Y-38490219D01*
X116636903Y-38624906D01*
X140901597Y-39890964D02*
X141170971Y-39621590D01*
X141009346Y-40106463D02*
X140632223Y-39352216D01*
X141386470Y-39729340D01*
X141332595Y-38705719D02*
X141251783Y-38732656D01*
X141170971Y-38813468D01*
X141117096Y-38921218D01*
X141117096Y-39028967D01*
X141144033Y-39109780D01*
X141224845Y-39244467D01*
X141305658Y-39325279D01*
X141440345Y-39406091D01*
X141521157Y-39433028D01*
X141628906Y-39433028D01*
X141736656Y-39379154D01*
X141790531Y-39325279D01*
X141844406Y-39217529D01*
X141844406Y-39163654D01*
X141655844Y-38975093D01*
X141548094Y-39082842D01*
X142140717Y-38975093D02*
X141575032Y-38409407D01*
X142463966Y-38651844D01*
X141898280Y-38086158D01*
X142733340Y-38382470D02*
X142167654Y-37816784D01*
X142302341Y-37682097D01*
X142410091Y-37628223D01*
X142517841Y-37628223D01*
X142598653Y-37655160D01*
X142733340Y-37735972D01*
X142814152Y-37816784D01*
X142894964Y-37951471D01*
X142921902Y-38032284D01*
X142921902Y-38140033D01*
X142868027Y-38247783D01*
X142733340Y-38382470D01*
X115263096Y-41461218D02*
X115182284Y-41488155D01*
X115101471Y-41568967D01*
X115047597Y-41676717D01*
X115047597Y-41784467D01*
X115074534Y-41865279D01*
X115155346Y-41999966D01*
X115236158Y-42080778D01*
X115370845Y-42161590D01*
X115451658Y-42188528D01*
X115559407Y-42188528D01*
X115667157Y-42134653D01*
X115721032Y-42080778D01*
X115774906Y-41973028D01*
X115774906Y-41919154D01*
X115586345Y-41730592D01*
X115478595Y-41838341D01*
X116071218Y-41730592D02*
X115505532Y-41164906D01*
X115721032Y-40949407D01*
X115801844Y-40922470D01*
X115855719Y-40922470D01*
X115936531Y-40949407D01*
X116017343Y-41030219D01*
X116044280Y-41111032D01*
X116044280Y-41164906D01*
X116017343Y-41245719D01*
X115801844Y-41461218D01*
X116313654Y-40356784D02*
X116205905Y-40464534D01*
X116178967Y-40545346D01*
X116178967Y-40599221D01*
X116205905Y-40733908D01*
X116286717Y-40868595D01*
X116502216Y-41084094D01*
X116583028Y-41111032D01*
X116636903Y-41111032D01*
X116717715Y-41084094D01*
X116825465Y-40976345D01*
X116852402Y-40895532D01*
X116852402Y-40841658D01*
X116825465Y-40760845D01*
X116690778Y-40626158D01*
X116609966Y-40599221D01*
X116556091Y-40599221D01*
X116475279Y-40626158D01*
X116367529Y-40733908D01*
X116340592Y-40814720D01*
X116340592Y-40868595D01*
X116367529Y-40949407D01*
X115163096Y-28761218D02*
X115082284Y-28788155D01*
X115001471Y-28868967D01*
X114947597Y-28976717D01*
X114947597Y-29084467D01*
X114974534Y-29165279D01*
X115055346Y-29299966D01*
X115136158Y-29380778D01*
X115270845Y-29461590D01*
X115351658Y-29488528D01*
X115459407Y-29488528D01*
X115567157Y-29434653D01*
X115621032Y-29380778D01*
X115674906Y-29273028D01*
X115674906Y-29219154D01*
X115486345Y-29030592D01*
X115378595Y-29138341D01*
X115971218Y-29030592D02*
X115405532Y-28464906D01*
X115621032Y-28249407D01*
X115701844Y-28222470D01*
X115755719Y-28222470D01*
X115836531Y-28249407D01*
X115917343Y-28330219D01*
X115944280Y-28411032D01*
X115944280Y-28464906D01*
X115917343Y-28545719D01*
X115701844Y-28761218D01*
X115998155Y-27980033D02*
X115998155Y-27926158D01*
X116025093Y-27845346D01*
X116159780Y-27710659D01*
X116240592Y-27683722D01*
X116294467Y-27683722D01*
X116375279Y-27710659D01*
X116429154Y-27764534D01*
X116483028Y-27872284D01*
X116483028Y-28518781D01*
X116833215Y-28168595D01*
X140836158Y-26248155D02*
X140755346Y-26275093D01*
X140674534Y-26355905D01*
X140620659Y-26463654D01*
X140620659Y-26571404D01*
X140647597Y-26652216D01*
X140728409Y-26786903D01*
X140809221Y-26867715D01*
X140943908Y-26948528D01*
X141024720Y-26975465D01*
X141132470Y-26975465D01*
X141240219Y-26921590D01*
X141294094Y-26867715D01*
X141347969Y-26759966D01*
X141347969Y-26706091D01*
X141159407Y-26517529D01*
X141051658Y-26625279D01*
X141644280Y-26517529D02*
X141078595Y-25951844D01*
X141967529Y-26194280D01*
X141401844Y-25628595D01*
X142236903Y-25924906D02*
X141671218Y-25359221D01*
X141805905Y-25224534D01*
X141913654Y-25170659D01*
X142021404Y-25170659D01*
X142102216Y-25197597D01*
X142236903Y-25278409D01*
X142317715Y-25359221D01*
X142398528Y-25493908D01*
X142425465Y-25574720D01*
X142425465Y-25682470D01*
X142371590Y-25790219D01*
X142236903Y-25924906D01*
X140847722Y-59510592D02*
X140766910Y-59537529D01*
X140686097Y-59618341D01*
X140632223Y-59726091D01*
X140632223Y-59833841D01*
X140659160Y-59914653D01*
X140739972Y-60049340D01*
X140820784Y-60130152D01*
X140955471Y-60210964D01*
X141036284Y-60237902D01*
X141144033Y-60237902D01*
X141251783Y-60184027D01*
X141305658Y-60130152D01*
X141359532Y-60022402D01*
X141359532Y-59968528D01*
X141170971Y-59779966D01*
X141063221Y-59887715D01*
X141655844Y-59779966D02*
X141090158Y-59214280D01*
X141305658Y-58998781D01*
X141386470Y-58971844D01*
X141440345Y-58971844D01*
X141521157Y-58998781D01*
X141601969Y-59079593D01*
X141628906Y-59160406D01*
X141628906Y-59214280D01*
X141601969Y-59295093D01*
X141386470Y-59510592D01*
X142517841Y-58917969D02*
X142194592Y-59241218D01*
X142356216Y-59079593D02*
X141790531Y-58513908D01*
X141817468Y-58648595D01*
X141817468Y-58756345D01*
X141790531Y-58837157D01*
X142787215Y-58648595D02*
X142894964Y-58540845D01*
X142921902Y-58460033D01*
X142921902Y-58406158D01*
X142894964Y-58271471D01*
X142814152Y-58136784D01*
X142598653Y-57921285D01*
X142517841Y-57894348D01*
X142463966Y-57894348D01*
X142383154Y-57921285D01*
X142275404Y-58029035D01*
X142248467Y-58109847D01*
X142248467Y-58163722D01*
X142275404Y-58244534D01*
X142410091Y-58379221D01*
X142490903Y-58406158D01*
X142544778Y-58406158D01*
X142625590Y-58379221D01*
X142733340Y-58271471D01*
X142760277Y-58190659D01*
X142760277Y-58136784D01*
X142733340Y-58055972D01*
X115236158Y-64348155D02*
X115155346Y-64375093D01*
X115074534Y-64455905D01*
X115020659Y-64563654D01*
X115020659Y-64671404D01*
X115047597Y-64752216D01*
X115128409Y-64886903D01*
X115209221Y-64967715D01*
X115343908Y-65048528D01*
X115424720Y-65075465D01*
X115532470Y-65075465D01*
X115640219Y-65021590D01*
X115694094Y-64967715D01*
X115747969Y-64859966D01*
X115747969Y-64806091D01*
X115559407Y-64617529D01*
X115451658Y-64725279D01*
X116044280Y-64617529D02*
X115478595Y-64051844D01*
X116367529Y-64294280D01*
X115801844Y-63728595D01*
X116636903Y-64024906D02*
X116071218Y-63459221D01*
X116205905Y-63324534D01*
X116313654Y-63270659D01*
X116421404Y-63270659D01*
X116502216Y-63297597D01*
X116636903Y-63378409D01*
X116717715Y-63459221D01*
X116798528Y-63593908D01*
X116825465Y-63674720D01*
X116825465Y-63782470D01*
X116771590Y-63890219D01*
X116636903Y-64024906D01*
X115263096Y-49081218D02*
X115182284Y-49108155D01*
X115101471Y-49188967D01*
X115047597Y-49296717D01*
X115047597Y-49404467D01*
X115074534Y-49485279D01*
X115155346Y-49619966D01*
X115236158Y-49700778D01*
X115370845Y-49781590D01*
X115451658Y-49808528D01*
X115559407Y-49808528D01*
X115667157Y-49754653D01*
X115721032Y-49700778D01*
X115774906Y-49593028D01*
X115774906Y-49539154D01*
X115586345Y-49350592D01*
X115478595Y-49458341D01*
X116071218Y-49350592D02*
X115505532Y-48784906D01*
X115721032Y-48569407D01*
X115801844Y-48542470D01*
X115855719Y-48542470D01*
X115936531Y-48569407D01*
X116017343Y-48650219D01*
X116044280Y-48731032D01*
X116044280Y-48784906D01*
X116017343Y-48865719D01*
X115801844Y-49081218D01*
X116663841Y-48757969D02*
X116771590Y-48650219D01*
X116798528Y-48569407D01*
X116798528Y-48515532D01*
X116771590Y-48380845D01*
X116690778Y-48246158D01*
X116475279Y-48030659D01*
X116394467Y-48003722D01*
X116340592Y-48003722D01*
X116259780Y-48030659D01*
X116152030Y-48138409D01*
X116125093Y-48219221D01*
X116125093Y-48273096D01*
X116152030Y-48353908D01*
X116286717Y-48488595D01*
X116367529Y-48515532D01*
X116421404Y-48515532D01*
X116502216Y-48488595D01*
X116609966Y-48380845D01*
X116636903Y-48300033D01*
X116636903Y-48246158D01*
X116609966Y-48165346D01*
X140847722Y-67130592D02*
X140766910Y-67157529D01*
X140686097Y-67238341D01*
X140632223Y-67346091D01*
X140632223Y-67453841D01*
X140659160Y-67534653D01*
X140739972Y-67669340D01*
X140820784Y-67750152D01*
X140955471Y-67830964D01*
X141036284Y-67857902D01*
X141144033Y-67857902D01*
X141251783Y-67804027D01*
X141305658Y-67750152D01*
X141359532Y-67642402D01*
X141359532Y-67588528D01*
X141170971Y-67399966D01*
X141063221Y-67507715D01*
X141655844Y-67399966D02*
X141090158Y-66834280D01*
X141305658Y-66618781D01*
X141386470Y-66591844D01*
X141440345Y-66591844D01*
X141521157Y-66618781D01*
X141601969Y-66699593D01*
X141628906Y-66780406D01*
X141628906Y-66834280D01*
X141601969Y-66915093D01*
X141386470Y-67130592D01*
X142517841Y-66537969D02*
X142194592Y-66861218D01*
X142356216Y-66699593D02*
X141790531Y-66133908D01*
X141817468Y-66268595D01*
X141817468Y-66376345D01*
X141790531Y-66457157D01*
X142140717Y-65783722D02*
X142517841Y-65406598D01*
X142841089Y-66214720D01*
X114739722Y-54430592D02*
X114658910Y-54457529D01*
X114578097Y-54538341D01*
X114524223Y-54646091D01*
X114524223Y-54753841D01*
X114551160Y-54834653D01*
X114631972Y-54969340D01*
X114712784Y-55050152D01*
X114847471Y-55130964D01*
X114928284Y-55157902D01*
X115036033Y-55157902D01*
X115143783Y-55104027D01*
X115197658Y-55050152D01*
X115251532Y-54942402D01*
X115251532Y-54888528D01*
X115062971Y-54699966D01*
X114955221Y-54807715D01*
X115547844Y-54699966D02*
X114982158Y-54134280D01*
X115197658Y-53918781D01*
X115278470Y-53891844D01*
X115332345Y-53891844D01*
X115413157Y-53918781D01*
X115493969Y-53999593D01*
X115520906Y-54080406D01*
X115520906Y-54134280D01*
X115493969Y-54215093D01*
X115278470Y-54430592D01*
X116409841Y-53837969D02*
X116086592Y-54161218D01*
X116248216Y-53999593D02*
X115682531Y-53433908D01*
X115709468Y-53568595D01*
X115709468Y-53676345D01*
X115682531Y-53757157D01*
X116194341Y-52922097D02*
X116248216Y-52868223D01*
X116329028Y-52841285D01*
X116382903Y-52841285D01*
X116463715Y-52868223D01*
X116598402Y-52949035D01*
X116733089Y-53083722D01*
X116813902Y-53218409D01*
X116840839Y-53299221D01*
X116840839Y-53353096D01*
X116813902Y-53433908D01*
X116760027Y-53487783D01*
X116679215Y-53514720D01*
X116625340Y-53514720D01*
X116544528Y-53487783D01*
X116409841Y-53406971D01*
X116275154Y-53272284D01*
X116194341Y-53137597D01*
X116167404Y-53056784D01*
X116167404Y-53002910D01*
X116194341Y-52922097D01*
X114593722Y-59510592D02*
X114512910Y-59537529D01*
X114432097Y-59618341D01*
X114378223Y-59726091D01*
X114378223Y-59833841D01*
X114405160Y-59914653D01*
X114485972Y-60049340D01*
X114566784Y-60130152D01*
X114701471Y-60210964D01*
X114782284Y-60237902D01*
X114890033Y-60237902D01*
X114997783Y-60184027D01*
X115051658Y-60130152D01*
X115105532Y-60022402D01*
X115105532Y-59968528D01*
X114916971Y-59779966D01*
X114809221Y-59887715D01*
X115401844Y-59779966D02*
X114836158Y-59214280D01*
X115051658Y-58998781D01*
X115132470Y-58971844D01*
X115186345Y-58971844D01*
X115267157Y-58998781D01*
X115347969Y-59079593D01*
X115374906Y-59160406D01*
X115374906Y-59214280D01*
X115347969Y-59295093D01*
X115132470Y-59510592D01*
X116263841Y-58917969D02*
X115940592Y-59241218D01*
X116102216Y-59079593D02*
X115536531Y-58513908D01*
X115563468Y-58648595D01*
X115563468Y-58756345D01*
X115536531Y-58837157D01*
X115967529Y-58190659D02*
X115967529Y-58136784D01*
X115994467Y-58055972D01*
X116129154Y-57921285D01*
X116209966Y-57894348D01*
X116263841Y-57894348D01*
X116344653Y-57921285D01*
X116398528Y-57975160D01*
X116452402Y-58082910D01*
X116452402Y-58729407D01*
X116802589Y-58379221D01*
X115363096Y-43971218D02*
X115282284Y-43998155D01*
X115201471Y-44078967D01*
X115147597Y-44186717D01*
X115147597Y-44294467D01*
X115174534Y-44375279D01*
X115255346Y-44509966D01*
X115336158Y-44590778D01*
X115470845Y-44671590D01*
X115551658Y-44698528D01*
X115659407Y-44698528D01*
X115767157Y-44644653D01*
X115821032Y-44590778D01*
X115874906Y-44483028D01*
X115874906Y-44429154D01*
X115686345Y-44240592D01*
X115578595Y-44348341D01*
X116171218Y-44240592D02*
X115605532Y-43674906D01*
X115821032Y-43459407D01*
X115901844Y-43432470D01*
X115955719Y-43432470D01*
X116036531Y-43459407D01*
X116117343Y-43540219D01*
X116144280Y-43621032D01*
X116144280Y-43674906D01*
X116117343Y-43755719D01*
X115901844Y-43971218D01*
X116117343Y-43163096D02*
X116494467Y-42785972D01*
X116817715Y-43594094D01*
D11*
%TO.C,J2*%
X117158000Y-87524000D02*
X117568000Y-87524000D01*
X108528000Y-74800665D02*
X117158000Y-74800665D01*
X108528000Y-74210190D02*
X117158000Y-74210190D01*
X117158000Y-88244000D02*
X117568000Y-88244000D01*
X108528000Y-76099710D02*
X117158000Y-76099710D01*
X117158000Y-85704000D02*
X117568000Y-85704000D01*
X108528000Y-89154000D02*
X117158000Y-89154000D01*
X108528000Y-74564475D02*
X117158000Y-74564475D01*
X117158000Y-84984000D02*
X117568000Y-84984000D01*
X117158000Y-90784000D02*
X117568000Y-90784000D01*
X108528000Y-78994000D02*
X117158000Y-78994000D01*
X108528000Y-73854000D02*
X108528000Y-91754000D01*
X108528000Y-76454000D02*
X117158000Y-76454000D01*
X108528000Y-74446380D02*
X117158000Y-74446380D01*
X117158000Y-78084000D02*
X117568000Y-78084000D01*
X117158000Y-75544000D02*
X117508000Y-75544000D01*
X108528000Y-75036855D02*
X117158000Y-75036855D01*
X117158000Y-73854000D02*
X117158000Y-91754000D01*
X117158000Y-83164000D02*
X117568000Y-83164000D01*
X108528000Y-84074000D02*
X117158000Y-84074000D01*
X118618000Y-73854000D02*
X119728000Y-73854000D01*
X117158000Y-79904000D02*
X117568000Y-79904000D01*
X108528000Y-75981615D02*
X117158000Y-75981615D01*
X108528000Y-86614000D02*
X117158000Y-86614000D01*
X108528000Y-75391140D02*
X117158000Y-75391140D01*
X117158000Y-82444000D02*
X117568000Y-82444000D01*
X108528000Y-75863520D02*
X117158000Y-75863520D01*
X108528000Y-74682570D02*
X117158000Y-74682570D01*
X117158000Y-77364000D02*
X117568000Y-77364000D01*
X108528000Y-75273045D02*
X117158000Y-75273045D01*
X108528000Y-74918760D02*
X117158000Y-74918760D01*
X108528000Y-73854000D02*
X117158000Y-73854000D01*
X108528000Y-73974000D02*
X117158000Y-73974000D01*
X117158000Y-74824000D02*
X117508000Y-74824000D01*
X108528000Y-81534000D02*
X117158000Y-81534000D01*
X108528000Y-91754000D02*
X117158000Y-91754000D01*
X108528000Y-76335900D02*
X117158000Y-76335900D01*
X117158000Y-80624000D02*
X117568000Y-80624000D01*
X108528000Y-76217805D02*
X117158000Y-76217805D01*
X108528000Y-74328285D02*
X117158000Y-74328285D01*
X119728000Y-73854000D02*
X119728000Y-75184000D01*
X108528000Y-75154950D02*
X117158000Y-75154950D01*
X108528000Y-75745425D02*
X117158000Y-75745425D01*
X108528000Y-75627330D02*
X117158000Y-75627330D01*
X108528000Y-75509235D02*
X117158000Y-75509235D01*
X117158000Y-90064000D02*
X117568000Y-90064000D01*
X108528000Y-74092095D02*
X117158000Y-74092095D01*
%TO.C,J4*%
X141728900Y-88269600D02*
X140762941Y-88269600D01*
X137437059Y-88269600D02*
X136471100Y-88269600D01*
X136471100Y-88269600D02*
X136471100Y-90011359D01*
X137780440Y-92130400D02*
X140419560Y-92130400D01*
X141728900Y-90011359D02*
X141728900Y-88269600D01*
X142744900Y-88771600D02*
G75*
G03*
X142744900Y-88771600I-381000J0D01*
G01*
%TO.C,ExtraConns*%
X136331000Y-81594000D02*
X133731000Y-81594000D01*
X133731000Y-81594000D02*
X133731000Y-78994000D01*
X132461000Y-81594000D02*
X131131000Y-81594000D01*
X131131000Y-81594000D02*
X131131000Y-80264000D01*
X136331000Y-73854000D02*
X131131000Y-73854000D01*
X133731000Y-78994000D02*
X131131000Y-78994000D01*
X136331000Y-81594000D02*
X136331000Y-73854000D01*
X131131000Y-78994000D02*
X131131000Y-73854000D01*
%TO.C,3v3*%
X125924000Y-75184000D02*
X125924000Y-73854000D01*
X125924000Y-76454000D02*
X128584000Y-76454000D01*
X125924000Y-79054000D02*
X128584000Y-79054000D01*
X125924000Y-76454000D02*
X125924000Y-79054000D01*
X128584000Y-76454000D02*
X128584000Y-79054000D01*
X125924000Y-73854000D02*
X127254000Y-73854000D01*
%TO.C,5v*%
X122114000Y-75184000D02*
X122114000Y-73854000D01*
X122114000Y-73854000D02*
X123444000Y-73854000D01*
X122114000Y-79054000D02*
X124774000Y-79054000D01*
X122114000Y-76454000D02*
X122114000Y-79054000D01*
X122114000Y-76454000D02*
X124774000Y-76454000D01*
X124774000Y-76454000D02*
X124774000Y-79054000D01*
%TO.C,J1*%
X133858000Y-86131100D02*
X130583940Y-86131100D01*
X133858000Y-91896900D02*
X133858000Y-86131100D01*
X124178060Y-86131100D02*
X120904000Y-86131100D01*
X120904000Y-91896900D02*
X124178060Y-91896900D01*
X130583940Y-91896900D02*
X133858000Y-91896900D01*
X120904000Y-86131100D02*
X120904000Y-91896900D01*
X125222000Y-92697000D02*
G75*
G03*
X125222000Y-92697000I-381000J0D01*
G01*
%TO.C,U1*%
X118250000Y-60250000D02*
X118250000Y-60650000D01*
X139250000Y-27150000D02*
X139250000Y-27550000D01*
X118250000Y-37350000D02*
X118250000Y-37750000D01*
X127250000Y-70650000D02*
X127650000Y-70650000D01*
X118250000Y-55150000D02*
X118250000Y-55550000D01*
X118250000Y-39850000D02*
X118250000Y-40250000D01*
X139250000Y-55150000D02*
X139250000Y-55550000D01*
X139250000Y-42450000D02*
X139250000Y-42850000D01*
X139250000Y-44950000D02*
X139250000Y-45350000D01*
X139250000Y-37350000D02*
X139250000Y-37750000D01*
X139250000Y-57650000D02*
X139250000Y-58050000D01*
X139250000Y-39850000D02*
X139250000Y-40250000D01*
X118250000Y-57650000D02*
X118250000Y-58050000D01*
X118250000Y-19650000D02*
X139250000Y-19650000D01*
X118250000Y-19650000D02*
X118250000Y-19950000D01*
X139250000Y-70650000D02*
X132450000Y-70650000D01*
X139250000Y-65250000D02*
X139250000Y-65650000D01*
X118250000Y-22050000D02*
X118250000Y-22450000D01*
X118250000Y-62750000D02*
X118250000Y-63150000D01*
X139250000Y-50050000D02*
X139250000Y-50450000D01*
X139250000Y-24650000D02*
X139250000Y-25050000D01*
X139250000Y-47450000D02*
X139250000Y-47850000D01*
X118250000Y-65250000D02*
X118250000Y-65650000D01*
X139250000Y-62750000D02*
X139250000Y-63150000D01*
X139250000Y-34750000D02*
X139250000Y-35150000D01*
X118250000Y-29750000D02*
X118250000Y-30150000D01*
X118250000Y-52550000D02*
X118250000Y-52950000D01*
X139250000Y-60250000D02*
X139250000Y-60650000D01*
X118250000Y-34750000D02*
X118250000Y-35150000D01*
X118250000Y-27150000D02*
X118250000Y-27550000D01*
X125050000Y-70650000D02*
X118250000Y-70650000D01*
X139250000Y-29750000D02*
X139250000Y-30150000D01*
X118250000Y-44950000D02*
X118250000Y-45350000D01*
X139250000Y-19650000D02*
X139250000Y-19950000D01*
X139250000Y-22050000D02*
X139250000Y-22450000D01*
X118250000Y-22317000D02*
X121257000Y-22317000D01*
X121257000Y-22317000D02*
X121257000Y-19650000D01*
X118250000Y-24650000D02*
X118250000Y-25050000D01*
X118250000Y-50050000D02*
X118250000Y-50450000D01*
X139250000Y-32250000D02*
X139250000Y-32650000D01*
X118250000Y-47450000D02*
X118250000Y-47850000D01*
X139250000Y-67850000D02*
X139250000Y-68250000D01*
X139250000Y-52550000D02*
X139250000Y-52950000D01*
X118250000Y-42450000D02*
X118250000Y-42850000D01*
X118250000Y-67850000D02*
X118250000Y-68250000D01*
X118250000Y-32250000D02*
X118250000Y-32650000D01*
X129850000Y-70650000D02*
X130250000Y-70650000D01*
%TD*%
M02*
